<?xml version="1.0" encoding="utf-8" standalone="no"?>
<!DOCTYPE svg PUBLIC "-//W3C//DTD SVG 1.1//EN"
  "http://www.w3.org/Graphics/SVG/1.1/DTD/svg11.dtd">
<svg xmlns:xlink="http://www.w3.org/1999/xlink" width="352.783437pt" height="208.659406pt" viewBox="0 0 352.783437 208.659406" xmlns="http://www.w3.org/2000/svg" version="1.1">
 <metadata>
  <rdf:RDF xmlns:dc="http://purl.org/dc/elements/1.1/" xmlns:cc="http://creativecommons.org/ns#" xmlns:rdf="http://www.w3.org/1999/02/22-rdf-syntax-ns#">
   <cc:Work>
    <dc:type rdf:resource="http://purl.org/dc/dcmitype/StillImage"/>
    <dc:date>2024-03-18T09:46:44.919049</dc:date>
    <dc:format>image/svg+xml</dc:format>
    <dc:creator>
     <cc:Agent>
      <dc:title>Matplotlib v3.8.0, https://matplotlib.org/</dc:title>
     </cc:Agent>
    </dc:creator>
   </cc:Work>
  </rdf:RDF>
 </metadata>
 <defs>
  <style type="text/css">*{stroke-linejoin: round; stroke-linecap: butt}</style>
 </defs>
 <g id="figure_1">
  <g id="patch_1">
   <path d="M 0 208.659406 
L 352.783437 208.659406 
L 352.783437 0 
L 0 0 
z
" style="fill: #ffffff"/>
  </g>
  <g id="axes_1">
   <g id="patch_2">
    <path d="M 48.620313 149.467375 
L 189.951875 149.467375 
L 189.951875 41.394375 
L 48.620313 41.394375 
z
" style="fill: #ffffff"/>
   </g>
   <g id="PolyCollection_1">
    <defs>
     <path id="ma9a0ad1b84" d="M 55.044474 -112.264414 
L 55.044474 -101.412459 
L 56.234134 -100.91285 
L 57.423794 -99.213611 
L 58.613453 -98.237304 
L 59.803113 -96.155657 
L 60.992773 -102.228686 
L 62.182432 -102.188282 
L 63.372092 -103.889512 
L 64.561751 -114.093623 
L 65.751411 -115.544984 
L 66.941071 -114.291825 
L 68.13073 -114.942748 
L 69.32039 -118.62542 
L 70.510049 -114.914844 
L 71.699709 -117.990492 
L 72.889369 -115.632386 
L 74.079028 -113.956366 
L 75.268688 -111.752362 
L 76.458348 -109.073219 
L 77.648007 -107.941712 
L 78.837667 -103.422994 
L 80.027326 -102.815083 
L 81.216986 -103.047718 
L 82.406646 -102.226743 
L 83.596305 -98.84583 
L 84.785965 -99.979805 
L 85.975624 -101.281585 
L 87.165284 -100.148618 
L 88.354944 -104.239959 
L 89.544603 -100.449603 
L 90.734263 -100.741986 
L 91.923923 -101.998369 
L 93.113582 -100.635401 
L 94.303242 -99.301589 
L 95.492901 -97.960101 
L 96.682561 -99.795447 
L 97.872221 -101.068245 
L 99.06188 -99.976333 
L 100.25154 -97.709978 
L 101.441199 -102.403666 
L 102.630859 -96.899422 
L 103.820519 -96.734882 
L 105.010178 -101.129155 
L 106.199838 -99.440461 
L 107.389498 -97.697298 
L 108.579157 -96.507789 
L 109.768817 -102.604097 
L 110.958476 -98.647821 
L 112.148136 -99.475133 
L 113.337796 -99.268548 
L 114.527455 -99.797522 
L 115.717115 -100.39979 
L 116.906775 -101.164683 
L 118.096434 -99.500962 
L 119.286094 -99.806201 
L 120.475753 -97.104843 
L 121.665413 -98.509697 
L 122.855073 -99.958163 
L 124.044732 -100.949226 
L 125.234392 -99.917692 
L 126.424051 -98.239554 
L 127.613711 -96.81873 
L 128.803371 -94.433626 
L 129.99303 -101.762975 
L 131.18269 -98.660356 
L 132.37235 -98.75488 
L 133.562009 -99.577254 
L 134.751669 -96.621578 
L 135.941328 -98.38405 
L 137.130988 -102.550902 
L 138.320648 -99.760895 
L 139.510307 -99.540424 
L 140.699967 -96.196631 
L 141.889626 -103.288409 
L 143.079286 -96.788394 
L 144.268946 -102.681121 
L 145.458605 -95.034792 
L 146.648265 -100.920888 
L 147.837925 -100.959959 
L 149.027584 -96.41185 
L 150.217244 -98.682804 
L 151.406903 -99.053459 
L 152.596563 -96.809082 
L 153.786223 -95.836207 
L 154.975882 -96.073327 
L 156.165542 -99.169974 
L 157.355201 -97.606141 
L 158.544861 -96.295848 
L 159.734521 -98.732949 
L 160.92418 -97.751423 
L 162.11384 -95.488405 
L 163.3035 -94.881904 
L 164.493159 -98.359685 
L 165.682819 -96.931375 
L 166.872478 -98.58907 
L 168.062138 -101.745207 
L 169.251798 -100.290398 
L 170.441457 -98.278252 
L 171.631117 -100.44245 
L 172.820777 -98.495154 
L 174.010436 -102.813147 
L 175.200096 -98.313025 
L 176.389755 -99.030159 
L 177.579415 -98.746603 
L 178.769075 -98.384008 
L 179.958734 -94.799003 
L 181.148394 -96.093513 
L 182.338053 -98.22172 
L 183.527713 -99.806106 
L 183.527713 -110.658062 
L 183.527713 -110.658062 
L 182.338053 -109.073675 
L 181.148394 -106.945469 
L 179.958734 -105.650958 
L 178.769075 -109.235964 
L 177.579415 -109.598559 
L 176.389755 -109.882115 
L 175.200096 -109.164981 
L 174.010436 -113.665102 
L 172.820777 -109.347109 
L 171.631117 -111.294406 
L 170.441457 -109.130208 
L 169.251798 -111.142354 
L 168.062138 -112.597162 
L 166.872478 -109.441026 
L 165.682819 -107.78333 
L 164.493159 -109.211641 
L 163.3035 -105.73386 
L 162.11384 -106.340361 
L 160.92418 -108.603379 
L 159.734521 -109.584904 
L 158.544861 -107.147804 
L 157.355201 -108.458097 
L 156.165542 -110.021929 
L 154.975882 -106.925283 
L 153.786223 -106.688163 
L 152.596563 -107.661038 
L 151.406903 -109.905414 
L 150.217244 -109.53476 
L 149.027584 -107.263805 
L 147.837925 -111.811915 
L 146.648265 -111.772844 
L 145.458605 -105.886747 
L 144.268946 -113.533076 
L 143.079286 -107.64035 
L 141.889626 -114.140364 
L 140.699967 -107.048587 
L 139.510307 -110.392379 
L 138.320648 -110.61285 
L 137.130988 -113.402857 
L 135.941328 -109.236005 
L 134.751669 -107.473534 
L 133.562009 -110.429209 
L 132.37235 -109.606835 
L 131.18269 -109.512311 
L 129.99303 -112.614931 
L 128.803371 -105.285581 
L 127.613711 -107.670686 
L 126.424051 -109.09151 
L 125.234392 -110.769647 
L 124.044732 -111.801182 
L 122.855073 -110.810119 
L 121.665413 -109.361653 
L 120.475753 -107.956799 
L 119.286094 -110.658157 
L 118.096434 -110.352918 
L 116.906775 -112.016639 
L 115.717115 -111.251746 
L 114.527455 -110.649478 
L 113.337796 -110.120503 
L 112.148136 -110.327088 
L 110.958476 -109.499776 
L 109.768817 -113.456052 
L 108.579157 -107.359745 
L 107.389498 -108.549253 
L 106.199838 -110.292416 
L 105.010178 -111.98111 
L 103.820519 -107.586837 
L 102.630859 -107.751378 
L 101.441199 -113.255621 
L 100.25154 -108.561933 
L 99.06188 -110.828289 
L 97.872221 -111.9202 
L 96.682561 -110.647403 
L 95.492901 -108.812057 
L 94.303242 -110.153544 
L 93.113582 -111.487357 
L 91.923923 -112.850325 
L 90.734263 -111.593941 
L 89.544603 -111.301558 
L 88.354944 -115.091915 
L 87.165284 -111.000573 
L 85.975624 -112.133541 
L 84.785965 -110.83176 
L 83.596305 -109.697785 
L 82.406646 -113.078699 
L 81.216986 -113.899674 
L 80.027326 -113.667039 
L 78.837667 -114.27495 
L 77.648007 -118.793668 
L 76.458348 -119.925174 
L 75.268688 -122.604317 
L 74.079028 -124.808322 
L 72.889369 -126.484342 
L 71.699709 -128.842448 
L 70.510049 -125.766799 
L 69.32039 -129.477376 
L 68.13073 -125.794703 
L 66.941071 -125.14378 
L 65.751411 -126.39694 
L 64.561751 -124.945578 
L 63.372092 -114.741468 
L 62.182432 -113.040237 
L 60.992773 -113.080642 
L 59.803113 -107.007612 
L 58.613453 -109.089259 
L 57.423794 -110.065566 
L 56.234134 -111.764806 
L 55.044474 -112.264414 
z
" style="stroke: #006633; stroke-opacity: 0.5"/>
    </defs>
    <g clip-path="url(#p33a7c9ef91)">
     <use xlink:href="#ma9a0ad1b84" x="0" y="208.659406" style="fill: #006633; fill-opacity: 0.5; stroke: #006633; stroke-opacity: 0.5"/>
    </g>
   </g>
   <g id="PolyCollection_2">
    <defs>
     <path id="m608e69fd8b" d="M 55.044474 -99.0927 
L 55.044474 -85.736503 
L 56.234134 -84.436454 
L 57.423794 -84.111994 
L 58.613453 -86.535454 
L 59.803113 -87.722312 
L 60.992773 -91.645941 
L 62.182432 -93.241741 
L 63.372092 -98.79949 
L 64.561751 -100.848111 
L 65.751411 -105.381777 
L 66.941071 -108.315085 
L 68.13073 -109.472047 
L 69.32039 -112.695084 
L 70.510049 -109.670905 
L 71.699709 -108.931151 
L 72.889369 -107.957426 
L 74.079028 -103.672743 
L 75.268688 -103.149116 
L 76.458348 -100.075556 
L 77.648007 -98.37426 
L 78.837667 -97.06863 
L 80.027326 -94.470723 
L 81.216986 -94.894416 
L 82.406646 -97.369104 
L 83.596305 -94.559676 
L 84.785965 -95.827167 
L 85.975624 -93.197207 
L 87.165284 -92.843999 
L 88.354944 -89.417557 
L 89.544603 -90.92871 
L 90.734263 -91.154988 
L 91.923923 -89.844979 
L 93.113582 -89.268377 
L 94.303242 -87.808622 
L 95.492901 -93.009431 
L 96.682561 -88.457556 
L 97.872221 -92.603921 
L 99.06188 -89.477371 
L 100.25154 -89.152303 
L 101.441199 -92.39464 
L 102.630859 -90.668098 
L 103.820519 -93.060475 
L 105.010178 -91.240383 
L 106.199838 -92.200829 
L 107.389498 -89.043529 
L 108.579157 -91.874154 
L 109.768817 -90.970641 
L 110.958476 -88.157026 
L 112.148136 -94.225011 
L 113.337796 -90.056845 
L 114.527455 -92.939892 
L 115.717115 -91.705838 
L 116.906775 -88.835872 
L 118.096434 -88.970976 
L 119.286094 -89.361212 
L 120.475753 -86.702872 
L 121.665413 -88.188682 
L 122.855073 -89.168995 
L 124.044732 -91.005803 
L 125.234392 -86.902945 
L 126.424051 -90.394081 
L 127.613711 -87.265144 
L 128.803371 -89.03802 
L 129.99303 -89.435244 
L 131.18269 -90.659215 
L 132.37235 -90.347506 
L 133.562009 -90.899479 
L 134.751669 -90.38573 
L 135.941328 -89.270712 
L 137.130988 -89.166303 
L 138.320648 -90.74478 
L 139.510307 -86.370996 
L 140.699967 -88.309925 
L 141.889626 -83.601509 
L 143.079286 -87.826728 
L 144.268946 -86.61336 
L 145.458605 -87.917251 
L 146.648265 -90.110543 
L 147.837925 -88.706387 
L 149.027584 -90.139414 
L 150.217244 -91.49109 
L 151.406903 -90.072475 
L 152.596563 -92.185463 
L 153.786223 -90.246565 
L 154.975882 -91.555289 
L 156.165542 -91.21322 
L 157.355201 -94.19281 
L 158.544861 -92.513004 
L 159.734521 -89.630348 
L 160.92418 -89.402913 
L 162.11384 -90.029818 
L 163.3035 -87.919903 
L 164.493159 -86.825627 
L 165.682819 -89.667959 
L 166.872478 -86.758374 
L 168.062138 -92.342838 
L 169.251798 -90.396383 
L 170.441457 -90.057627 
L 171.631117 -91.973 
L 172.820777 -87.471867 
L 174.010436 -93.20836 
L 175.200096 -88.808415 
L 176.389755 -88.707915 
L 177.579415 -91.285007 
L 178.769075 -90.275202 
L 179.958734 -92.772412 
L 181.148394 -87.235451 
L 182.338053 -86.706532 
L 183.527713 -83.82628 
L 183.527713 -97.182476 
L 183.527713 -97.182476 
L 182.338053 -100.062728 
L 181.148394 -100.591648 
L 179.958734 -106.128609 
L 178.769075 -103.631398 
L 177.579415 -104.641203 
L 176.389755 -102.064112 
L 175.200096 -102.164612 
L 174.010436 -106.564556 
L 172.820777 -100.828064 
L 171.631117 -105.329196 
L 170.441457 -103.413824 
L 169.251798 -103.75258 
L 168.062138 -105.699035 
L 166.872478 -100.11457 
L 165.682819 -103.024155 
L 164.493159 -100.181823 
L 163.3035 -101.2761 
L 162.11384 -103.386014 
L 160.92418 -102.759109 
L 159.734521 -102.986545 
L 158.544861 -105.8692 
L 157.355201 -107.549007 
L 156.165542 -104.569416 
L 154.975882 -104.911485 
L 153.786223 -103.602762 
L 152.596563 -105.541659 
L 151.406903 -103.428672 
L 150.217244 -104.847287 
L 149.027584 -103.495611 
L 147.837925 -102.062584 
L 146.648265 -103.46674 
L 145.458605 -101.273447 
L 144.268946 -99.969557 
L 143.079286 -101.182925 
L 141.889626 -96.957706 
L 140.699967 -101.666122 
L 139.510307 -99.727193 
L 138.320648 -104.100977 
L 137.130988 -102.5225 
L 135.941328 -102.626909 
L 134.751669 -103.741926 
L 133.562009 -104.255676 
L 132.37235 -103.703703 
L 131.18269 -104.015412 
L 129.99303 -102.79144 
L 128.803371 -102.394216 
L 127.613711 -100.621341 
L 126.424051 -103.750278 
L 125.234392 -100.259142 
L 124.044732 -104.362 
L 122.855073 -102.525192 
L 121.665413 -101.544878 
L 120.475753 -100.059068 
L 119.286094 -102.717408 
L 118.096434 -102.327173 
L 116.906775 -102.192068 
L 115.717115 -105.062035 
L 114.527455 -106.296088 
L 113.337796 -103.413041 
L 112.148136 -107.581208 
L 110.958476 -101.513222 
L 109.768817 -104.326838 
L 108.579157 -105.230351 
L 107.389498 -102.399726 
L 106.199838 -105.557025 
L 105.010178 -104.59658 
L 103.820519 -106.416671 
L 102.630859 -104.024294 
L 101.441199 -105.750836 
L 100.25154 -102.5085 
L 99.06188 -102.833568 
L 97.872221 -105.960117 
L 96.682561 -101.813752 
L 95.492901 -106.365627 
L 94.303242 -101.164818 
L 93.113582 -102.624573 
L 91.923923 -103.201175 
L 90.734263 -104.511185 
L 89.544603 -104.284906 
L 88.354944 -102.773754 
L 87.165284 -106.200195 
L 85.975624 -106.553403 
L 84.785965 -109.183364 
L 83.596305 -107.915872 
L 82.406646 -110.7253 
L 81.216986 -108.250613 
L 80.027326 -107.82692 
L 78.837667 -110.424827 
L 77.648007 -111.730456 
L 76.458348 -113.431752 
L 75.268688 -116.505312 
L 74.079028 -117.02894 
L 72.889369 -121.313622 
L 71.699709 -122.287348 
L 70.510049 -123.027101 
L 69.32039 -126.051281 
L 68.13073 -122.828244 
L 66.941071 -121.671282 
L 65.751411 -118.737974 
L 64.561751 -114.204308 
L 63.372092 -112.155686 
L 62.182432 -106.597938 
L 60.992773 -105.002138 
L 59.803113 -101.078509 
L 58.613453 -99.891651 
L 57.423794 -97.468191 
L 56.234134 -97.79265 
L 55.044474 -99.0927 
z
" style="stroke: #000000; stroke-opacity: 0.5"/>
    </defs>
    <g clip-path="url(#p33a7c9ef91)">
     <use xlink:href="#m608e69fd8b" x="0" y="208.659406" style="fill-opacity: 0.5; stroke: #000000; stroke-opacity: 0.5"/>
    </g>
   </g>
   <g id="matplotlib.axis_1">
    <g id="xtick_1">
     <g id="line2d_1">
      <defs>
       <path id="m54e00495d0" d="M 0 0 
L 0 3.5 
" style="stroke: #000000; stroke-width: 0.8"/>
      </defs>
      <g>
       <use xlink:href="#m54e00495d0" x="55.044474" y="149.467375" style="stroke: #000000; stroke-width: 0.8"/>
      </g>
     </g>
     <g id="text_1">
      <!-- 0 -->
      <g transform="translate(51.863224 164.065812) scale(0.1 -0.1)">
       <defs>
        <path id="DejaVuSans-30" d="M 2034 4250 
Q 1547 4250 1301 3770 
Q 1056 3291 1056 2328 
Q 1056 1369 1301 889 
Q 1547 409 2034 409 
Q 2525 409 2770 889 
Q 3016 1369 3016 2328 
Q 3016 3291 2770 3770 
Q 2525 4250 2034 4250 
z
M 2034 4750 
Q 2819 4750 3233 4129 
Q 3647 3509 3647 2328 
Q 3647 1150 3233 529 
Q 2819 -91 2034 -91 
Q 1250 -91 836 529 
Q 422 1150 422 2328 
Q 422 3509 836 4129 
Q 1250 4750 2034 4750 
z
" transform="scale(0.015625)"/>
       </defs>
       <use xlink:href="#DejaVuSans-30"/>
      </g>
     </g>
    </g>
    <g id="xtick_2">
     <g id="line2d_2">
      <g>
       <use xlink:href="#m54e00495d0" x="90.734263" y="149.467375" style="stroke: #000000; stroke-width: 0.8"/>
      </g>
     </g>
     <g id="text_2">
      <!-- 2 -->
      <g transform="translate(87.553013 164.065812) scale(0.1 -0.1)">
       <defs>
        <path id="DejaVuSans-32" d="M 1228 531 
L 3431 531 
L 3431 0 
L 469 0 
L 469 531 
Q 828 903 1448 1529 
Q 2069 2156 2228 2338 
Q 2531 2678 2651 2914 
Q 2772 3150 2772 3378 
Q 2772 3750 2511 3984 
Q 2250 4219 1831 4219 
Q 1534 4219 1204 4116 
Q 875 4013 500 3803 
L 500 4441 
Q 881 4594 1212 4672 
Q 1544 4750 1819 4750 
Q 2544 4750 2975 4387 
Q 3406 4025 3406 3419 
Q 3406 3131 3298 2873 
Q 3191 2616 2906 2266 
Q 2828 2175 2409 1742 
Q 1991 1309 1228 531 
z
" transform="scale(0.015625)"/>
       </defs>
       <use xlink:href="#DejaVuSans-32"/>
      </g>
     </g>
    </g>
    <g id="xtick_3">
     <g id="line2d_3">
      <g>
       <use xlink:href="#m54e00495d0" x="126.424051" y="149.467375" style="stroke: #000000; stroke-width: 0.8"/>
      </g>
     </g>
     <g id="text_3">
      <!-- 4 -->
      <g transform="translate(123.242801 164.065812) scale(0.1 -0.1)">
       <defs>
        <path id="DejaVuSans-34" d="M 2419 4116 
L 825 1625 
L 2419 1625 
L 2419 4116 
z
M 2253 4666 
L 3047 4666 
L 3047 1625 
L 3713 1625 
L 3713 1100 
L 3047 1100 
L 3047 0 
L 2419 0 
L 2419 1100 
L 313 1100 
L 313 1709 
L 2253 4666 
z
" transform="scale(0.015625)"/>
       </defs>
       <use xlink:href="#DejaVuSans-34"/>
      </g>
     </g>
    </g>
    <g id="xtick_4">
     <g id="line2d_4">
      <g>
       <use xlink:href="#m54e00495d0" x="162.11384" y="149.467375" style="stroke: #000000; stroke-width: 0.8"/>
      </g>
     </g>
     <g id="text_4">
      <!-- 6 -->
      <g transform="translate(158.93259 164.065812) scale(0.1 -0.1)">
       <defs>
        <path id="DejaVuSans-36" d="M 2113 2584 
Q 1688 2584 1439 2293 
Q 1191 2003 1191 1497 
Q 1191 994 1439 701 
Q 1688 409 2113 409 
Q 2538 409 2786 701 
Q 3034 994 3034 1497 
Q 3034 2003 2786 2293 
Q 2538 2584 2113 2584 
z
M 3366 4563 
L 3366 3988 
Q 3128 4100 2886 4159 
Q 2644 4219 2406 4219 
Q 1781 4219 1451 3797 
Q 1122 3375 1075 2522 
Q 1259 2794 1537 2939 
Q 1816 3084 2150 3084 
Q 2853 3084 3261 2657 
Q 3669 2231 3669 1497 
Q 3669 778 3244 343 
Q 2819 -91 2113 -91 
Q 1303 -91 875 529 
Q 447 1150 447 2328 
Q 447 3434 972 4092 
Q 1497 4750 2381 4750 
Q 2619 4750 2861 4703 
Q 3103 4656 3366 4563 
z
" transform="scale(0.015625)"/>
       </defs>
       <use xlink:href="#DejaVuSans-36"/>
      </g>
     </g>
    </g>
    <g id="text_5">
     <!-- time since -->
     <g transform="translate(80.475938 181.543156) scale(0.15 -0.15)">
      <defs>
       <path id="DejaVuSans-74" d="M 1172 4494 
L 1172 3500 
L 2356 3500 
L 2356 3053 
L 1172 3053 
L 1172 1153 
Q 1172 725 1289 603 
Q 1406 481 1766 481 
L 2356 481 
L 2356 0 
L 1766 0 
Q 1100 0 847 248 
Q 594 497 594 1153 
L 594 3053 
L 172 3053 
L 172 3500 
L 594 3500 
L 594 4494 
L 1172 4494 
z
" transform="scale(0.015625)"/>
       <path id="DejaVuSans-69" d="M 603 3500 
L 1178 3500 
L 1178 0 
L 603 0 
L 603 3500 
z
M 603 4863 
L 1178 4863 
L 1178 4134 
L 603 4134 
L 603 4863 
z
" transform="scale(0.015625)"/>
       <path id="DejaVuSans-6d" d="M 3328 2828 
Q 3544 3216 3844 3400 
Q 4144 3584 4550 3584 
Q 5097 3584 5394 3201 
Q 5691 2819 5691 2113 
L 5691 0 
L 5113 0 
L 5113 2094 
Q 5113 2597 4934 2840 
Q 4756 3084 4391 3084 
Q 3944 3084 3684 2787 
Q 3425 2491 3425 1978 
L 3425 0 
L 2847 0 
L 2847 2094 
Q 2847 2600 2669 2842 
Q 2491 3084 2119 3084 
Q 1678 3084 1418 2786 
Q 1159 2488 1159 1978 
L 1159 0 
L 581 0 
L 581 3500 
L 1159 3500 
L 1159 2956 
Q 1356 3278 1631 3431 
Q 1906 3584 2284 3584 
Q 2666 3584 2933 3390 
Q 3200 3197 3328 2828 
z
" transform="scale(0.015625)"/>
       <path id="DejaVuSans-65" d="M 3597 1894 
L 3597 1613 
L 953 1613 
Q 991 1019 1311 708 
Q 1631 397 2203 397 
Q 2534 397 2845 478 
Q 3156 559 3463 722 
L 3463 178 
Q 3153 47 2828 -22 
Q 2503 -91 2169 -91 
Q 1331 -91 842 396 
Q 353 884 353 1716 
Q 353 2575 817 3079 
Q 1281 3584 2069 3584 
Q 2775 3584 3186 3129 
Q 3597 2675 3597 1894 
z
M 3022 2063 
Q 3016 2534 2758 2815 
Q 2500 3097 2075 3097 
Q 1594 3097 1305 2825 
Q 1016 2553 972 2059 
L 3022 2063 
z
" transform="scale(0.015625)"/>
       <path id="DejaVuSans-20" transform="scale(0.015625)"/>
       <path id="DejaVuSans-73" d="M 2834 3397 
L 2834 2853 
Q 2591 2978 2328 3040 
Q 2066 3103 1784 3103 
Q 1356 3103 1142 2972 
Q 928 2841 928 2578 
Q 928 2378 1081 2264 
Q 1234 2150 1697 2047 
L 1894 2003 
Q 2506 1872 2764 1633 
Q 3022 1394 3022 966 
Q 3022 478 2636 193 
Q 2250 -91 1575 -91 
Q 1294 -91 989 -36 
Q 684 19 347 128 
L 347 722 
Q 666 556 975 473 
Q 1284 391 1588 391 
Q 1994 391 2212 530 
Q 2431 669 2431 922 
Q 2431 1156 2273 1281 
Q 2116 1406 1581 1522 
L 1381 1569 
Q 847 1681 609 1914 
Q 372 2147 372 2553 
Q 372 3047 722 3315 
Q 1072 3584 1716 3584 
Q 2034 3584 2315 3537 
Q 2597 3491 2834 3397 
z
" transform="scale(0.015625)"/>
       <path id="DejaVuSans-6e" d="M 3513 2113 
L 3513 0 
L 2938 0 
L 2938 2094 
Q 2938 2591 2744 2837 
Q 2550 3084 2163 3084 
Q 1697 3084 1428 2787 
Q 1159 2491 1159 1978 
L 1159 0 
L 581 0 
L 581 3500 
L 1159 3500 
L 1159 2956 
Q 1366 3272 1645 3428 
Q 1925 3584 2291 3584 
Q 2894 3584 3203 3211 
Q 3513 2838 3513 2113 
z
" transform="scale(0.015625)"/>
       <path id="DejaVuSans-63" d="M 3122 3366 
L 3122 2828 
Q 2878 2963 2633 3030 
Q 2388 3097 2138 3097 
Q 1578 3097 1268 2742 
Q 959 2388 959 1747 
Q 959 1106 1268 751 
Q 1578 397 2138 397 
Q 2388 397 2633 464 
Q 2878 531 3122 666 
L 3122 134 
Q 2881 22 2623 -34 
Q 2366 -91 2075 -91 
Q 1284 -91 818 406 
Q 353 903 353 1747 
Q 353 2603 823 3093 
Q 1294 3584 2113 3584 
Q 2378 3584 2631 3529 
Q 2884 3475 3122 3366 
z
" transform="scale(0.015625)"/>
      </defs>
      <use xlink:href="#DejaVuSans-74"/>
      <use xlink:href="#DejaVuSans-69" x="39.208984"/>
      <use xlink:href="#DejaVuSans-6d" x="66.992188"/>
      <use xlink:href="#DejaVuSans-65" x="164.404297"/>
      <use xlink:href="#DejaVuSans-20" x="225.927734"/>
      <use xlink:href="#DejaVuSans-73" x="257.714844"/>
      <use xlink:href="#DejaVuSans-69" x="309.814453"/>
      <use xlink:href="#DejaVuSans-6e" x="337.597656"/>
      <use xlink:href="#DejaVuSans-63" x="400.976562"/>
      <use xlink:href="#DejaVuSans-65" x="455.957031"/>
     </g>
     <!-- sound onset (s) -->
     <g transform="translate(61.191563 198.339875) scale(0.15 -0.15)">
      <defs>
       <path id="DejaVuSans-6f" d="M 1959 3097 
Q 1497 3097 1228 2736 
Q 959 2375 959 1747 
Q 959 1119 1226 758 
Q 1494 397 1959 397 
Q 2419 397 2687 759 
Q 2956 1122 2956 1747 
Q 2956 2369 2687 2733 
Q 2419 3097 1959 3097 
z
M 1959 3584 
Q 2709 3584 3137 3096 
Q 3566 2609 3566 1747 
Q 3566 888 3137 398 
Q 2709 -91 1959 -91 
Q 1206 -91 779 398 
Q 353 888 353 1747 
Q 353 2609 779 3096 
Q 1206 3584 1959 3584 
z
" transform="scale(0.015625)"/>
       <path id="DejaVuSans-75" d="M 544 1381 
L 544 3500 
L 1119 3500 
L 1119 1403 
Q 1119 906 1312 657 
Q 1506 409 1894 409 
Q 2359 409 2629 706 
Q 2900 1003 2900 1516 
L 2900 3500 
L 3475 3500 
L 3475 0 
L 2900 0 
L 2900 538 
Q 2691 219 2414 64 
Q 2138 -91 1772 -91 
Q 1169 -91 856 284 
Q 544 659 544 1381 
z
M 1991 3584 
L 1991 3584 
z
" transform="scale(0.015625)"/>
       <path id="DejaVuSans-64" d="M 2906 2969 
L 2906 4863 
L 3481 4863 
L 3481 0 
L 2906 0 
L 2906 525 
Q 2725 213 2448 61 
Q 2172 -91 1784 -91 
Q 1150 -91 751 415 
Q 353 922 353 1747 
Q 353 2572 751 3078 
Q 1150 3584 1784 3584 
Q 2172 3584 2448 3432 
Q 2725 3281 2906 2969 
z
M 947 1747 
Q 947 1113 1208 752 
Q 1469 391 1925 391 
Q 2381 391 2643 752 
Q 2906 1113 2906 1747 
Q 2906 2381 2643 2742 
Q 2381 3103 1925 3103 
Q 1469 3103 1208 2742 
Q 947 2381 947 1747 
z
" transform="scale(0.015625)"/>
       <path id="DejaVuSans-28" d="M 1984 4856 
Q 1566 4138 1362 3434 
Q 1159 2731 1159 2009 
Q 1159 1288 1364 580 
Q 1569 -128 1984 -844 
L 1484 -844 
Q 1016 -109 783 600 
Q 550 1309 550 2009 
Q 550 2706 781 3412 
Q 1013 4119 1484 4856 
L 1984 4856 
z
" transform="scale(0.015625)"/>
       <path id="DejaVuSans-29" d="M 513 4856 
L 1013 4856 
Q 1481 4119 1714 3412 
Q 1947 2706 1947 2009 
Q 1947 1309 1714 600 
Q 1481 -109 1013 -844 
L 513 -844 
Q 928 -128 1133 580 
Q 1338 1288 1338 2009 
Q 1338 2731 1133 3434 
Q 928 4138 513 4856 
z
" transform="scale(0.015625)"/>
      </defs>
      <use xlink:href="#DejaVuSans-73"/>
      <use xlink:href="#DejaVuSans-6f" x="52.099609"/>
      <use xlink:href="#DejaVuSans-75" x="113.28125"/>
      <use xlink:href="#DejaVuSans-6e" x="176.660156"/>
      <use xlink:href="#DejaVuSans-64" x="240.039062"/>
      <use xlink:href="#DejaVuSans-20" x="303.515625"/>
      <use xlink:href="#DejaVuSans-6f" x="335.302734"/>
      <use xlink:href="#DejaVuSans-6e" x="396.484375"/>
      <use xlink:href="#DejaVuSans-73" x="459.863281"/>
      <use xlink:href="#DejaVuSans-65" x="511.962891"/>
      <use xlink:href="#DejaVuSans-74" x="573.486328"/>
      <use xlink:href="#DejaVuSans-20" x="612.695312"/>
      <use xlink:href="#DejaVuSans-28" x="644.482422"/>
      <use xlink:href="#DejaVuSans-73" x="683.496094"/>
      <use xlink:href="#DejaVuSans-29" x="735.595703"/>
     </g>
    </g>
   </g>
   <g id="matplotlib.axis_2">
    <g id="ytick_1">
     <g id="line2d_5">
      <defs>
       <path id="m60a06d3634" d="M 0 0 
L -3.5 0 
" style="stroke: #000000; stroke-width: 0.8"/>
      </defs>
      <g>
       <use xlink:href="#m60a06d3634" x="48.620313" y="149.467375" style="stroke: #000000; stroke-width: 0.8"/>
      </g>
     </g>
     <g id="text_6">
      <!-- 0.3 -->
      <g transform="translate(25.717188 153.266594) scale(0.1 -0.1)">
       <defs>
        <path id="DejaVuSans-2e" d="M 684 794 
L 1344 794 
L 1344 0 
L 684 0 
L 684 794 
z
" transform="scale(0.015625)"/>
        <path id="DejaVuSans-33" d="M 2597 2516 
Q 3050 2419 3304 2112 
Q 3559 1806 3559 1356 
Q 3559 666 3084 287 
Q 2609 -91 1734 -91 
Q 1441 -91 1130 -33 
Q 819 25 488 141 
L 488 750 
Q 750 597 1062 519 
Q 1375 441 1716 441 
Q 2309 441 2620 675 
Q 2931 909 2931 1356 
Q 2931 1769 2642 2001 
Q 2353 2234 1838 2234 
L 1294 2234 
L 1294 2753 
L 1863 2753 
Q 2328 2753 2575 2939 
Q 2822 3125 2822 3475 
Q 2822 3834 2567 4026 
Q 2313 4219 1838 4219 
Q 1578 4219 1281 4162 
Q 984 4106 628 3988 
L 628 4550 
Q 988 4650 1302 4700 
Q 1616 4750 1894 4750 
Q 2613 4750 3031 4423 
Q 3450 4097 3450 3541 
Q 3450 3153 3228 2886 
Q 3006 2619 2597 2516 
z
" transform="scale(0.015625)"/>
       </defs>
       <use xlink:href="#DejaVuSans-30"/>
       <use xlink:href="#DejaVuSans-2e" x="63.623047"/>
       <use xlink:href="#DejaVuSans-33" x="95.410156"/>
      </g>
     </g>
    </g>
    <g id="ytick_2">
     <g id="line2d_6">
      <g>
       <use xlink:href="#m60a06d3634" x="48.620313" y="113.443042" style="stroke: #000000; stroke-width: 0.8"/>
      </g>
     </g>
     <g id="text_7">
      <!-- 0.5 -->
      <g transform="translate(25.717188 117.24226) scale(0.1 -0.1)">
       <defs>
        <path id="DejaVuSans-35" d="M 691 4666 
L 3169 4666 
L 3169 4134 
L 1269 4134 
L 1269 2991 
Q 1406 3038 1543 3061 
Q 1681 3084 1819 3084 
Q 2600 3084 3056 2656 
Q 3513 2228 3513 1497 
Q 3513 744 3044 326 
Q 2575 -91 1722 -91 
Q 1428 -91 1123 -41 
Q 819 9 494 109 
L 494 744 
Q 775 591 1075 516 
Q 1375 441 1709 441 
Q 2250 441 2565 725 
Q 2881 1009 2881 1497 
Q 2881 1984 2565 2268 
Q 2250 2553 1709 2553 
Q 1456 2553 1204 2497 
Q 953 2441 691 2322 
L 691 4666 
z
" transform="scale(0.015625)"/>
       </defs>
       <use xlink:href="#DejaVuSans-30"/>
       <use xlink:href="#DejaVuSans-2e" x="63.623047"/>
       <use xlink:href="#DejaVuSans-35" x="95.410156"/>
      </g>
     </g>
    </g>
    <g id="ytick_3">
     <g id="line2d_7">
      <g>
       <use xlink:href="#m60a06d3634" x="48.620313" y="77.418708" style="stroke: #000000; stroke-width: 0.8"/>
      </g>
     </g>
     <g id="text_8">
      <!-- 0.7 -->
      <g transform="translate(25.717188 81.217927) scale(0.1 -0.1)">
       <defs>
        <path id="DejaVuSans-37" d="M 525 4666 
L 3525 4666 
L 3525 4397 
L 1831 0 
L 1172 0 
L 2766 4134 
L 525 4134 
L 525 4666 
z
" transform="scale(0.015625)"/>
       </defs>
       <use xlink:href="#DejaVuSans-30"/>
       <use xlink:href="#DejaVuSans-2e" x="63.623047"/>
       <use xlink:href="#DejaVuSans-37" x="95.410156"/>
      </g>
     </g>
    </g>
    <g id="ytick_4">
     <g id="line2d_8">
      <g>
       <use xlink:href="#m60a06d3634" x="48.620313" y="41.394375" style="stroke: #000000; stroke-width: 0.8"/>
      </g>
     </g>
     <g id="text_9">
      <!-- 0.9 -->
      <g transform="translate(25.717188 45.193594) scale(0.1 -0.1)">
       <defs>
        <path id="DejaVuSans-39" d="M 703 97 
L 703 672 
Q 941 559 1184 500 
Q 1428 441 1663 441 
Q 2288 441 2617 861 
Q 2947 1281 2994 2138 
Q 2813 1869 2534 1725 
Q 2256 1581 1919 1581 
Q 1219 1581 811 2004 
Q 403 2428 403 3163 
Q 403 3881 828 4315 
Q 1253 4750 1959 4750 
Q 2769 4750 3195 4129 
Q 3622 3509 3622 2328 
Q 3622 1225 3098 567 
Q 2575 -91 1691 -91 
Q 1453 -91 1209 -44 
Q 966 3 703 97 
z
M 1959 2075 
Q 2384 2075 2632 2365 
Q 2881 2656 2881 3163 
Q 2881 3666 2632 3958 
Q 2384 4250 1959 4250 
Q 1534 4250 1286 3958 
Q 1038 3666 1038 3163 
Q 1038 2656 1286 2365 
Q 1534 2075 1959 2075 
z
" transform="scale(0.015625)"/>
       </defs>
       <use xlink:href="#DejaVuSans-30"/>
       <use xlink:href="#DejaVuSans-2e" x="63.623047"/>
       <use xlink:href="#DejaVuSans-39" x="95.410156"/>
      </g>
     </g>
    </g>
    <g id="text_10">
     <!-- Decoding acc -->
     <g transform="translate(18.597656 146.120328) rotate(-90) scale(0.15 -0.15)">
      <defs>
       <path id="DejaVuSans-44" d="M 1259 4147 
L 1259 519 
L 2022 519 
Q 2988 519 3436 956 
Q 3884 1394 3884 2338 
Q 3884 3275 3436 3711 
Q 2988 4147 2022 4147 
L 1259 4147 
z
M 628 4666 
L 1925 4666 
Q 3281 4666 3915 4102 
Q 4550 3538 4550 2338 
Q 4550 1131 3912 565 
Q 3275 0 1925 0 
L 628 0 
L 628 4666 
z
" transform="scale(0.015625)"/>
       <path id="DejaVuSans-67" d="M 2906 1791 
Q 2906 2416 2648 2759 
Q 2391 3103 1925 3103 
Q 1463 3103 1205 2759 
Q 947 2416 947 1791 
Q 947 1169 1205 825 
Q 1463 481 1925 481 
Q 2391 481 2648 825 
Q 2906 1169 2906 1791 
z
M 3481 434 
Q 3481 -459 3084 -895 
Q 2688 -1331 1869 -1331 
Q 1566 -1331 1297 -1286 
Q 1028 -1241 775 -1147 
L 775 -588 
Q 1028 -725 1275 -790 
Q 1522 -856 1778 -856 
Q 2344 -856 2625 -561 
Q 2906 -266 2906 331 
L 2906 616 
Q 2728 306 2450 153 
Q 2172 0 1784 0 
Q 1141 0 747 490 
Q 353 981 353 1791 
Q 353 2603 747 3093 
Q 1141 3584 1784 3584 
Q 2172 3584 2450 3431 
Q 2728 3278 2906 2969 
L 2906 3500 
L 3481 3500 
L 3481 434 
z
" transform="scale(0.015625)"/>
       <path id="DejaVuSans-61" d="M 2194 1759 
Q 1497 1759 1228 1600 
Q 959 1441 959 1056 
Q 959 750 1161 570 
Q 1363 391 1709 391 
Q 2188 391 2477 730 
Q 2766 1069 2766 1631 
L 2766 1759 
L 2194 1759 
z
M 3341 1997 
L 3341 0 
L 2766 0 
L 2766 531 
Q 2569 213 2275 61 
Q 1981 -91 1556 -91 
Q 1019 -91 701 211 
Q 384 513 384 1019 
Q 384 1609 779 1909 
Q 1175 2209 1959 2209 
L 2766 2209 
L 2766 2266 
Q 2766 2663 2505 2880 
Q 2244 3097 1772 3097 
Q 1472 3097 1187 3025 
Q 903 2953 641 2809 
L 641 3341 
Q 956 3463 1253 3523 
Q 1550 3584 1831 3584 
Q 2591 3584 2966 3190 
Q 3341 2797 3341 1997 
z
" transform="scale(0.015625)"/>
      </defs>
      <use xlink:href="#DejaVuSans-44"/>
      <use xlink:href="#DejaVuSans-65" x="77.001953"/>
      <use xlink:href="#DejaVuSans-63" x="138.525391"/>
      <use xlink:href="#DejaVuSans-6f" x="193.505859"/>
      <use xlink:href="#DejaVuSans-64" x="254.6875"/>
      <use xlink:href="#DejaVuSans-69" x="318.164062"/>
      <use xlink:href="#DejaVuSans-6e" x="345.947266"/>
      <use xlink:href="#DejaVuSans-67" x="409.326172"/>
      <use xlink:href="#DejaVuSans-20" x="472.802734"/>
      <use xlink:href="#DejaVuSans-61" x="504.589844"/>
      <use xlink:href="#DejaVuSans-63" x="565.869141"/>
      <use xlink:href="#DejaVuSans-63" x="620.849609"/>
     </g>
    </g>
   </g>
   <g id="line2d_9">
    <path d="M 55.044474 105.205112 
L 56.234134 103.883248 
L 57.423794 103.063395 
L 58.613453 103.795429 
L 59.803113 105.128816 
L 60.992773 105.279759 
L 62.182432 102.189767 
L 63.372092 96.072016 
L 64.561751 89.932924 
L 65.751411 86.202523 
L 66.941071 84.901411 
L 68.13073 84.623183 
L 69.32039 85.699508 
L 70.510049 87.128288 
L 71.699709 87.156714 
L 72.889369 87.657972 
L 74.079028 89.589742 
L 75.268688 91.56617 
L 76.458348 94.009245 
L 77.648007 97.280113 
L 78.837667 100.375526 
L 80.027326 101.838891 
L 81.216986 102.297015 
L 82.406646 102.41836 
L 83.596305 102.092715 
L 84.785965 102.047775 
L 85.975624 102.765515 
L 87.165284 103.016319 
L 88.354944 102.250615 
L 89.544603 101.374032 
L 90.734263 101.315943 
L 91.923923 102.107378 
L 93.113582 103.517743 
L 94.303242 104.693558 
L 95.492901 104.43216 
L 96.682561 103.615584 
L 97.872221 103.372038 
L 99.06188 104.280833 
L 100.25154 105.104128 
L 101.441199 104.368609 
L 102.630859 103.157708 
L 103.820519 102.720512 
L 105.010178 103.285642 
L 106.199838 104.528198 
L 107.389498 105.231097 
L 108.579157 104.925573 
L 109.768817 104.712555 
L 110.958476 104.765548 
L 112.148136 104.84582 
L 113.337796 105.039809 
L 114.527455 104.503241 
L 115.717115 103.556558 
L 116.906775 103.288778 
L 118.096434 103.025626 
L 119.286094 102.297087 
L 120.475753 102.328537 
L 121.665413 103.094482 
L 122.855073 103.995918 
L 124.044732 104.552737 
L 125.234392 104.695347 
L 126.424051 104.898652 
L 127.613711 104.683038 
L 128.803371 103.53044 
L 129.99303 102.686054 
L 131.18269 103.03909 
L 132.37235 103.748698 
L 133.562009 104.241386 
L 134.751669 104.231173 
L 135.941328 103.962741 
L 137.130988 104.335848 
L 138.320648 104.769395 
L 139.510307 104.499593 
L 140.699967 104.320898 
L 141.889626 104.21641 
L 143.079286 103.211219 
L 144.268946 102.936659 
L 145.458605 104.363287 
L 146.648265 105.498538 
L 147.837925 105.608898 
L 149.027584 105.485728 
L 150.217244 105.452602 
L 151.406903 105.308428 
L 152.596563 105.100779 
L 153.786223 104.616707 
L 154.975882 103.964549 
L 156.165542 104.305685 
L 157.355201 105.752468 
L 158.544861 106.581471 
L 159.734521 106.356962 
L 160.92418 106.377553 
L 162.11384 106.808915 
L 163.3035 106.69213 
L 164.493159 105.956557 
L 165.682819 105.266408 
L 166.872478 104.68104 
L 168.062138 104.260801 
L 169.251798 104.035991 
L 170.441457 103.412021 
L 171.631117 102.550143 
L 172.820777 102.244151 
L 174.010436 102.599711 
L 175.200096 103.557467 
L 176.389755 105.004212 
L 177.579415 106.253423 
L 178.769075 105.931065 
L 179.958734 104.782945 
L 181.148394 104.26815 
L 182.338053 104.210044 
L 183.527713 103.508266 
" clip-path="url(#p33a7c9ef91)" style="fill: none; stroke: #006633; stroke-width: 1.5; stroke-linecap: square"/>
   </g>
   <g id="line2d_10">
    <path d="M 55.044474 116.475464 
L 56.234134 115.750962 
L 57.423794 115.616696 
L 58.613453 115.630509 
L 59.803113 114.919143 
L 60.992773 113.094395 
L 62.182432 109.827796 
L 63.372092 105.090151 
L 64.561751 99.47562 
L 65.751411 94.349438 
L 66.941071 91.08472 
L 68.13073 89.048323 
L 69.32039 88.252894 
L 70.510049 89.586622 
L 71.699709 91.62628 
L 72.889369 93.724521 
L 74.079028 95.784618 
L 75.268688 97.69667 
L 76.458348 100.518669 
L 77.648007 103.5664 
L 78.837667 106.036365 
L 80.027326 107.625418 
L 81.216986 107.878421 
L 82.406646 106.428833 
L 83.596305 105.670302 
L 84.785965 107.189187 
L 85.975624 109.412006 
L 87.165284 111.816059 
L 88.354944 113.217881 
L 89.544603 112.012228 
L 90.734263 109.651262 
L 91.923923 109.592738 
L 93.113582 111.938748 
L 94.303242 112.505343 
L 95.492901 111.194804 
L 96.682561 111.252294 
L 97.872221 112.54699 
L 99.06188 112.292974 
L 100.25154 111.513731 
L 101.441199 111.149898 
L 102.630859 109.51518 
L 103.820519 108.528428 
L 105.010178 109.331492 
L 106.199838 110.911618 
L 107.389498 112.008762 
L 108.579157 111.871326 
L 109.768817 111.686944 
L 110.958476 111.874217 
L 112.148136 112.311686 
L 113.337796 113.009868 
L 114.527455 113.620191 
L 115.717115 113.99146 
L 116.906775 113.786355 
L 118.096434 112.101441 
L 119.286094 110.22238 
L 120.475753 110.749195 
L 121.665413 112.254126 
L 122.855073 113.770649 
L 124.044732 115.236582 
L 125.234392 114.787457 
L 126.424051 113.338759 
L 127.613711 112.255525 
L 128.803371 111.134621 
L 129.99303 110.269198 
L 131.18269 111.165607 
L 132.37235 113.537661 
L 133.562009 113.952966 
L 134.751669 112.736274 
L 135.941328 112.278319 
L 137.130988 112.799875 
L 138.320648 114.062311 
L 139.510307 115.406706 
L 140.699967 115.842822 
L 141.889626 115.535808 
L 143.079286 115.054408 
L 144.268946 114.648772 
L 145.458605 114.080522 
L 146.648265 112.962328 
L 147.837925 112.990591 
L 149.027584 114.223143 
L 150.217244 114.131159 
L 151.406903 112.650659 
L 152.596563 111.681497 
L 153.786223 111.061487 
L 154.975882 110.679401 
L 156.165542 109.743743 
L 157.355201 107.93199 
L 158.544861 107.96326 
L 159.734521 110.559122 
L 160.92418 114.445204 
L 162.11384 116.334226 
L 163.3035 115.162744 
L 164.493159 113.587573 
L 165.682819 112.294085 
L 166.872478 111.554063 
L 168.062138 110.191187 
L 169.251798 109.475277 
L 170.441457 110.485555 
L 171.631117 111.931949 
L 172.820777 112.895839 
L 174.010436 112.945512 
L 175.200096 112.232183 
L 176.389755 111.651383 
L 177.579415 111.896121 
L 178.769075 112.953721 
L 179.958734 113.488214 
L 181.148394 113.995228 
L 182.338053 115.4203 
L 183.527713 116.613888 
" clip-path="url(#p33a7c9ef91)" style="fill: none; stroke: #000000; stroke-width: 1.5; stroke-linecap: square"/>
   </g>
   <g id="LineCollection_1">
    <path d="M 55.044474 113.443042 
L 174.010436 113.443042 
" clip-path="url(#p33a7c9ef91)" style="fill: none; stroke-dasharray: 7.4,3.2; stroke-dashoffset: 0; stroke: #808080; stroke-width: 2"/>
   </g>
   <g id="patch_3">
    <path d="M 48.620313 149.467375 
L 48.620313 41.394375 
" style="fill: none; stroke: #000000; stroke-width: 0.8; stroke-linejoin: miter; stroke-linecap: square"/>
   </g>
   <g id="patch_4">
    <path d="M 48.620313 149.467375 
L 189.951875 149.467375 
" style="fill: none; stroke: #000000; stroke-width: 0.8; stroke-linejoin: miter; stroke-linecap: square"/>
   </g>
   <g id="text_11">
    <!-- Stimulus -->
    <g transform="translate(86.698594 18.597656) scale(0.15 -0.15)">
     <defs>
      <path id="DejaVuSans-53" d="M 3425 4513 
L 3425 3897 
Q 3066 4069 2747 4153 
Q 2428 4238 2131 4238 
Q 1616 4238 1336 4038 
Q 1056 3838 1056 3469 
Q 1056 3159 1242 3001 
Q 1428 2844 1947 2747 
L 2328 2669 
Q 3034 2534 3370 2195 
Q 3706 1856 3706 1288 
Q 3706 609 3251 259 
Q 2797 -91 1919 -91 
Q 1588 -91 1214 -16 
Q 841 59 441 206 
L 441 856 
Q 825 641 1194 531 
Q 1563 422 1919 422 
Q 2459 422 2753 634 
Q 3047 847 3047 1241 
Q 3047 1584 2836 1778 
Q 2625 1972 2144 2069 
L 1759 2144 
Q 1053 2284 737 2584 
Q 422 2884 422 3419 
Q 422 4038 858 4394 
Q 1294 4750 2059 4750 
Q 2388 4750 2728 4690 
Q 3069 4631 3425 4513 
z
" transform="scale(0.015625)"/>
      <path id="DejaVuSans-6c" d="M 603 4863 
L 1178 4863 
L 1178 0 
L 603 0 
L 603 4863 
z
" transform="scale(0.015625)"/>
     </defs>
     <use xlink:href="#DejaVuSans-53"/>
     <use xlink:href="#DejaVuSans-74" x="63.476562"/>
     <use xlink:href="#DejaVuSans-69" x="102.685547"/>
     <use xlink:href="#DejaVuSans-6d" x="130.46875"/>
     <use xlink:href="#DejaVuSans-75" x="227.880859"/>
     <use xlink:href="#DejaVuSans-6c" x="291.259766"/>
     <use xlink:href="#DejaVuSans-75" x="319.042969"/>
     <use xlink:href="#DejaVuSans-73" x="382.421875"/>
    </g>
    <!-- Decoding -->
    <g transform="translate(83.823984 35.394375) scale(0.15 -0.15)">
     <use xlink:href="#DejaVuSans-44"/>
     <use xlink:href="#DejaVuSans-65" x="77.001953"/>
     <use xlink:href="#DejaVuSans-63" x="138.525391"/>
     <use xlink:href="#DejaVuSans-6f" x="193.505859"/>
     <use xlink:href="#DejaVuSans-64" x="254.6875"/>
     <use xlink:href="#DejaVuSans-69" x="318.164062"/>
     <use xlink:href="#DejaVuSans-6e" x="345.947266"/>
     <use xlink:href="#DejaVuSans-67" x="409.326172"/>
    </g>
   </g>
  </g>
  <g id="axes_2">
   <g id="patch_5">
    <path d="M 204.251875 149.467375 
L 345.583438 149.467375 
L 345.583438 41.394375 
L 204.251875 41.394375 
z
" style="fill: #ffffff"/>
   </g>
   <g id="PolyCollection_3">
    <defs>
     <path id="m6be97bf8c5" d="M 210.676037 -111.293965 
L 210.676037 -106.736916 
L 211.960869 -105.979193 
L 213.245702 -106.367988 
L 214.530534 -103.900492 
L 215.815366 -109.851222 
L 217.100199 -104.026754 
L 218.385031 -101.137878 
L 219.669864 -103.643272 
L 220.954696 -104.454871 
L 222.239528 -103.497288 
L 223.524361 -107.828286 
L 224.809193 -106.047691 
L 226.094026 -106.813801 
L 227.378858 -108.223054 
L 228.66369 -107.807273 
L 229.948523 -109.088208 
L 231.233355 -105.344087 
L 232.518188 -106.431776 
L 233.80302 -108.743867 
L 235.087852 -103.11571 
L 236.372685 -105.339273 
L 237.657517 -108.881994 
L 238.942349 -107.348761 
L 240.227182 -110.218585 
L 241.512014 -110.335276 
L 242.796847 -106.961119 
L 244.081679 -109.866463 
L 245.366511 -111.078602 
L 246.651344 -108.843816 
L 247.936176 -106.501224 
L 249.221009 -109.582134 
L 250.505841 -108.868316 
L 251.790673 -108.37189 
L 253.075506 -108.346937 
L 254.360338 -101.402791 
L 255.64517 -108.229768 
L 256.930003 -109.810552 
L 258.214835 -107.248824 
L 259.499668 -106.67749 
L 260.7845 -107.410584 
L 262.069332 -106.546884 
L 263.354165 -106.82253 
L 264.638997 -105.286078 
L 265.92383 -103.52732 
L 267.208662 -102.815596 
L 268.493494 -102.691465 
L 269.778327 -102.022378 
L 271.063159 -102.684692 
L 272.347991 -107.97011 
L 273.632824 -106.408933 
L 274.917656 -104.228322 
L 276.202489 -104.966364 
L 277.487321 -106.127519 
L 278.772153 -104.86872 
L 280.056986 -106.140553 
L 281.341818 -107.257275 
L 282.626651 -105.538744 
L 283.911483 -105.903769 
L 285.196315 -106.589382 
L 286.481148 -104.264265 
L 287.76598 -105.185007 
L 289.050813 -104.285489 
L 290.335645 -105.27885 
L 291.620477 -105.524837 
L 292.90531 -106.123707 
L 294.190142 -108.406914 
L 295.474974 -110.025212 
L 296.759807 -109.903456 
L 298.044639 -110.817882 
L 299.329472 -108.613339 
L 300.614304 -107.751167 
L 301.899136 -110.765001 
L 303.183969 -111.508855 
L 304.468801 -110.717613 
L 305.753634 -113.356429 
L 307.038466 -112.577105 
L 308.323298 -115.357314 
L 309.608131 -109.449593 
L 310.892963 -107.32066 
L 312.177795 -107.392973 
L 313.462628 -107.63731 
L 314.74746 -109.610022 
L 316.032293 -104.964085 
L 317.317125 -111.251953 
L 318.601957 -108.416607 
L 319.88679 -108.387837 
L 321.171622 -106.953098 
L 322.456455 -108.852729 
L 323.741287 -109.285581 
L 325.026119 -109.185114 
L 325.026119 -113.742163 
L 325.026119 -113.742163 
L 323.741287 -113.842631 
L 322.456455 -113.409779 
L 321.171622 -111.510148 
L 319.88679 -112.944887 
L 318.601957 -112.973657 
L 317.317125 -115.809003 
L 316.032293 -109.521135 
L 314.74746 -114.167071 
L 313.462628 -112.19436 
L 312.177795 -111.950023 
L 310.892963 -111.87771 
L 309.608131 -114.006642 
L 308.323298 -119.914364 
L 307.038466 -117.134154 
L 305.753634 -117.913479 
L 304.468801 -115.274663 
L 303.183969 -116.065904 
L 301.899136 -115.322051 
L 300.614304 -112.308216 
L 299.329472 -113.170389 
L 298.044639 -115.374932 
L 296.759807 -114.460506 
L 295.474974 -114.582262 
L 294.190142 -112.963963 
L 292.90531 -110.680756 
L 291.620477 -110.081887 
L 290.335645 -109.835899 
L 289.050813 -108.842539 
L 287.76598 -109.742057 
L 286.481148 -108.821314 
L 285.196315 -111.146431 
L 283.911483 -110.460819 
L 282.626651 -110.095793 
L 281.341818 -111.814325 
L 280.056986 -110.697602 
L 278.772153 -109.42577 
L 277.487321 -110.684568 
L 276.202489 -109.523414 
L 274.917656 -108.785372 
L 273.632824 -110.965982 
L 272.347991 -112.52716 
L 271.063159 -107.241741 
L 269.778327 -106.579427 
L 268.493494 -107.248514 
L 267.208662 -107.372645 
L 265.92383 -108.08437 
L 264.638997 -109.843128 
L 263.354165 -111.37958 
L 262.069332 -111.103934 
L 260.7845 -111.967634 
L 259.499668 -111.23454 
L 258.214835 -111.805874 
L 256.930003 -114.367602 
L 255.64517 -112.786818 
L 254.360338 -105.95984 
L 253.075506 -112.903987 
L 251.790673 -112.928939 
L 250.505841 -113.425366 
L 249.221009 -114.139183 
L 247.936176 -111.058274 
L 246.651344 -113.400865 
L 245.366511 -115.635652 
L 244.081679 -114.423512 
L 242.796847 -111.518168 
L 241.512014 -114.892326 
L 240.227182 -114.775635 
L 238.942349 -111.905811 
L 237.657517 -113.439044 
L 236.372685 -109.896323 
L 235.087852 -107.67276 
L 233.80302 -113.300917 
L 232.518188 -110.988825 
L 231.233355 -109.901136 
L 229.948523 -113.645257 
L 228.66369 -112.364323 
L 227.378858 -112.780104 
L 226.094026 -111.37085 
L 224.809193 -110.60474 
L 223.524361 -112.385336 
L 222.239528 -108.054338 
L 220.954696 -109.01192 
L 219.669864 -108.200322 
L 218.385031 -105.694928 
L 217.100199 -108.583803 
L 215.815366 -114.408272 
L 214.530534 -108.457542 
L 213.245702 -110.925037 
L 211.960869 -110.536242 
L 210.676037 -111.293965 
z
" style="stroke: #006633; stroke-opacity: 0.5"/>
    </defs>
    <g clip-path="url(#pedbf04f823)">
     <use xlink:href="#m6be97bf8c5" x="0" y="208.659406" style="fill: #006633; fill-opacity: 0.5; stroke: #006633; stroke-opacity: 0.5"/>
    </g>
   </g>
   <g id="PolyCollection_4">
    <defs>
     <path id="mc417c8e56e" d="M 210.676037 -103.265458 
L 210.676037 -95.634308 
L 211.960869 -93.961692 
L 213.245702 -93.715199 
L 214.530534 -97.13481 
L 215.815366 -97.520029 
L 217.100199 -98.923924 
L 218.385031 -101.396529 
L 219.669864 -98.037858 
L 220.954696 -98.198601 
L 222.239528 -101.611065 
L 223.524361 -96.386482 
L 224.809193 -96.602663 
L 226.094026 -100.335322 
L 227.378858 -99.088613 
L 228.66369 -98.770425 
L 229.948523 -98.742021 
L 231.233355 -99.65459 
L 232.518188 -100.164587 
L 233.80302 -103.237104 
L 235.087852 -100.134032 
L 236.372685 -100.215807 
L 237.657517 -103.148085 
L 238.942349 -99.392879 
L 240.227182 -103.031718 
L 241.512014 -98.743468 
L 242.796847 -101.37736 
L 244.081679 -95.792847 
L 245.366511 -98.831903 
L 246.651344 -95.639972 
L 247.936176 -100.312055 
L 249.221009 -97.262314 
L 250.505841 -100.804915 
L 251.790673 -100.584499 
L 253.075506 -99.516158 
L 254.360338 -98.761678 
L 255.64517 -100.474286 
L 256.930003 -104.155704 
L 258.214835 -100.291038 
L 259.499668 -102.523869 
L 260.7845 -100.943525 
L 262.069332 -102.639046 
L 263.354165 -97.313189 
L 264.638997 -98.883636 
L 265.92383 -100.152048 
L 267.208662 -97.366755 
L 268.493494 -97.37424 
L 269.778327 -97.066804 
L 271.063159 -100.279441 
L 272.347991 -98.929227 
L 273.632824 -98.456 
L 274.917656 -99.406142 
L 276.202489 -99.133877 
L 277.487321 -98.230412 
L 278.772153 -100.306378 
L 280.056986 -96.974298 
L 281.341818 -97.09925 
L 282.626651 -95.0088 
L 283.911483 -96.161745 
L 285.196315 -98.720413 
L 286.481148 -94.967256 
L 287.76598 -94.619978 
L 289.050813 -99.16114 
L 290.335645 -97.853738 
L 291.620477 -99.006928 
L 292.90531 -99.306258 
L 294.190142 -99.818924 
L 295.474974 -101.270847 
L 296.759807 -98.279515 
L 298.044639 -98.220976 
L 299.329472 -100.668663 
L 300.614304 -98.185935 
L 301.899136 -99.165469 
L 303.183969 -105.510387 
L 304.468801 -103.840042 
L 305.753634 -102.422506 
L 307.038466 -104.317576 
L 308.323298 -99.896359 
L 309.608131 -101.275839 
L 310.892963 -103.466041 
L 312.177795 -104.596222 
L 313.462628 -104.348439 
L 314.74746 -98.786104 
L 316.032293 -100.98548 
L 317.317125 -102.551995 
L 318.601957 -99.945578 
L 319.88679 -104.288114 
L 321.171622 -100.885162 
L 322.456455 -100.097644 
L 323.741287 -97.201553 
L 325.026119 -99.301366 
L 325.026119 -106.932516 
L 325.026119 -106.932516 
L 323.741287 -104.832703 
L 322.456455 -107.728794 
L 321.171622 -108.516312 
L 319.88679 -111.919264 
L 318.601957 -107.576728 
L 317.317125 -110.183145 
L 316.032293 -108.61663 
L 314.74746 -106.417253 
L 313.462628 -111.979589 
L 312.177795 -112.227372 
L 310.892963 -111.097191 
L 309.608131 -108.906989 
L 308.323298 -107.527509 
L 307.038466 -111.948726 
L 305.753634 -110.053656 
L 304.468801 -111.471192 
L 303.183969 -113.141537 
L 301.899136 -106.796619 
L 300.614304 -105.817085 
L 299.329472 -108.299813 
L 298.044639 -105.852126 
L 296.759807 -105.910665 
L 295.474974 -108.901997 
L 294.190142 -107.450074 
L 292.90531 -106.937408 
L 291.620477 -106.638077 
L 290.335645 -105.484888 
L 289.050813 -106.79229 
L 287.76598 -102.251127 
L 286.481148 -102.598406 
L 285.196315 -106.351563 
L 283.911483 -103.792895 
L 282.626651 -102.63995 
L 281.341818 -104.7304 
L 280.056986 -104.605447 
L 278.772153 -107.937528 
L 277.487321 -105.861561 
L 276.202489 -106.765027 
L 274.917656 -107.037292 
L 273.632824 -106.08715 
L 272.347991 -106.560377 
L 271.063159 -107.910591 
L 269.778327 -104.697954 
L 268.493494 -105.00539 
L 267.208662 -104.997905 
L 265.92383 -107.783198 
L 264.638997 -106.514785 
L 263.354165 -104.944339 
L 262.069332 -110.270195 
L 260.7845 -108.574675 
L 259.499668 -110.155019 
L 258.214835 -107.922188 
L 256.930003 -111.786854 
L 255.64517 -108.105436 
L 254.360338 -106.392828 
L 253.075506 -107.147308 
L 251.790673 -108.215649 
L 250.505841 -108.436065 
L 249.221009 -104.893463 
L 247.936176 -107.943205 
L 246.651344 -103.271122 
L 245.366511 -106.463053 
L 244.081679 -103.423997 
L 242.796847 -109.00851 
L 241.512014 -106.374618 
L 240.227182 -110.662868 
L 238.942349 -107.024029 
L 237.657517 -110.779235 
L 236.372685 -107.846957 
L 235.087852 -107.765182 
L 233.80302 -110.868254 
L 232.518188 -107.795737 
L 231.233355 -107.28574 
L 229.948523 -106.373171 
L 228.66369 -106.401575 
L 227.378858 -106.719763 
L 226.094026 -107.966472 
L 224.809193 -104.233812 
L 223.524361 -104.017632 
L 222.239528 -109.242215 
L 220.954696 -105.829751 
L 219.669864 -105.669008 
L 218.385031 -109.027678 
L 217.100199 -106.555074 
L 215.815366 -105.151179 
L 214.530534 -104.76596 
L 213.245702 -101.346348 
L 211.960869 -101.592842 
L 210.676037 -103.265458 
z
" style="stroke: #000000; stroke-opacity: 0.5"/>
    </defs>
    <g clip-path="url(#pedbf04f823)">
     <use xlink:href="#mc417c8e56e" x="0" y="208.659406" style="fill-opacity: 0.5; stroke: #000000; stroke-opacity: 0.5"/>
    </g>
   </g>
   <g id="matplotlib.axis_3">
    <g id="xtick_5">
     <g id="line2d_11">
      <g>
       <use xlink:href="#m54e00495d0" x="210.676037" y="149.467375" style="stroke: #000000; stroke-width: 0.8"/>
      </g>
     </g>
     <g id="text_12">
      <!-- -3 -->
      <g transform="translate(205.690881 164.065812) scale(0.1 -0.1)">
       <defs>
        <path id="DejaVuSans-2d" d="M 313 2009 
L 1997 2009 
L 1997 1497 
L 313 1497 
L 313 2009 
z
" transform="scale(0.015625)"/>
       </defs>
       <use xlink:href="#DejaVuSans-2d"/>
       <use xlink:href="#DejaVuSans-33" x="36.083984"/>
      </g>
     </g>
    </g>
    <g id="xtick_6">
     <g id="line2d_12">
      <g>
       <use xlink:href="#m54e00495d0" x="229.948523" y="149.467375" style="stroke: #000000; stroke-width: 0.8"/>
      </g>
     </g>
     <g id="text_13">
      <!-- -2 -->
      <g transform="translate(224.963366 164.065812) scale(0.1 -0.1)">
       <use xlink:href="#DejaVuSans-2d"/>
       <use xlink:href="#DejaVuSans-32" x="36.083984"/>
      </g>
     </g>
    </g>
    <g id="xtick_7">
     <g id="line2d_13">
      <g>
       <use xlink:href="#m54e00495d0" x="249.221009" y="149.467375" style="stroke: #000000; stroke-width: 0.8"/>
      </g>
     </g>
     <g id="text_14">
      <!-- -1 -->
      <g transform="translate(244.235852 164.065812) scale(0.1 -0.1)">
       <defs>
        <path id="DejaVuSans-31" d="M 794 531 
L 1825 531 
L 1825 4091 
L 703 3866 
L 703 4441 
L 1819 4666 
L 2450 4666 
L 2450 531 
L 3481 531 
L 3481 0 
L 794 0 
L 794 531 
z
" transform="scale(0.015625)"/>
       </defs>
       <use xlink:href="#DejaVuSans-2d"/>
       <use xlink:href="#DejaVuSans-31" x="36.083984"/>
      </g>
     </g>
    </g>
    <g id="xtick_8">
     <g id="line2d_14">
      <g>
       <use xlink:href="#m54e00495d0" x="268.493494" y="149.467375" style="stroke: #000000; stroke-width: 0.8"/>
      </g>
     </g>
     <g id="text_15">
      <!-- 0 -->
      <g transform="translate(265.312244 164.065812) scale(0.1 -0.1)">
       <use xlink:href="#DejaVuSans-30"/>
      </g>
     </g>
    </g>
    <g id="xtick_9">
     <g id="line2d_15">
      <g>
       <use xlink:href="#m54e00495d0" x="287.76598" y="149.467375" style="stroke: #000000; stroke-width: 0.8"/>
      </g>
     </g>
     <g id="text_16">
      <!-- 1 -->
      <g transform="translate(284.58473 164.065812) scale(0.1 -0.1)">
       <use xlink:href="#DejaVuSans-31"/>
      </g>
     </g>
    </g>
    <g id="xtick_10">
     <g id="line2d_16">
      <g>
       <use xlink:href="#m54e00495d0" x="307.038466" y="149.467375" style="stroke: #000000; stroke-width: 0.8"/>
      </g>
     </g>
     <g id="text_17">
      <!-- 2 -->
      <g transform="translate(303.857216 164.065812) scale(0.1 -0.1)">
       <use xlink:href="#DejaVuSans-32"/>
      </g>
     </g>
    </g>
    <g id="xtick_11">
     <g id="line2d_17">
      <g>
       <use xlink:href="#m54e00495d0" x="326.310952" y="149.467375" style="stroke: #000000; stroke-width: 0.8"/>
      </g>
     </g>
     <g id="text_18">
      <!-- 3 -->
      <g transform="translate(323.129702 164.065812) scale(0.1 -0.1)">
       <use xlink:href="#DejaVuSans-33"/>
      </g>
     </g>
    </g>
    <g id="text_19">
     <!-- time since -->
     <g transform="translate(236.1075 181.543156) scale(0.15 -0.15)">
      <use xlink:href="#DejaVuSans-74"/>
      <use xlink:href="#DejaVuSans-69" x="39.208984"/>
      <use xlink:href="#DejaVuSans-6d" x="66.992188"/>
      <use xlink:href="#DejaVuSans-65" x="164.404297"/>
      <use xlink:href="#DejaVuSans-20" x="225.927734"/>
      <use xlink:href="#DejaVuSans-73" x="257.714844"/>
      <use xlink:href="#DejaVuSans-69" x="309.814453"/>
      <use xlink:href="#DejaVuSans-6e" x="337.597656"/>
      <use xlink:href="#DejaVuSans-63" x="400.976562"/>
      <use xlink:href="#DejaVuSans-65" x="455.957031"/>
     </g>
     <!-- turn onset (s) -->
     <g transform="translate(224.188359 198.339875) scale(0.15 -0.15)">
      <defs>
       <path id="DejaVuSans-72" d="M 2631 2963 
Q 2534 3019 2420 3045 
Q 2306 3072 2169 3072 
Q 1681 3072 1420 2755 
Q 1159 2438 1159 1844 
L 1159 0 
L 581 0 
L 581 3500 
L 1159 3500 
L 1159 2956 
Q 1341 3275 1631 3429 
Q 1922 3584 2338 3584 
Q 2397 3584 2469 3576 
Q 2541 3569 2628 3553 
L 2631 2963 
z
" transform="scale(0.015625)"/>
      </defs>
      <use xlink:href="#DejaVuSans-74"/>
      <use xlink:href="#DejaVuSans-75" x="39.208984"/>
      <use xlink:href="#DejaVuSans-72" x="102.587891"/>
      <use xlink:href="#DejaVuSans-6e" x="141.951172"/>
      <use xlink:href="#DejaVuSans-20" x="205.330078"/>
      <use xlink:href="#DejaVuSans-6f" x="237.117188"/>
      <use xlink:href="#DejaVuSans-6e" x="298.298828"/>
      <use xlink:href="#DejaVuSans-73" x="361.677734"/>
      <use xlink:href="#DejaVuSans-65" x="413.777344"/>
      <use xlink:href="#DejaVuSans-74" x="475.300781"/>
      <use xlink:href="#DejaVuSans-20" x="514.509766"/>
      <use xlink:href="#DejaVuSans-28" x="546.296875"/>
      <use xlink:href="#DejaVuSans-73" x="585.310547"/>
      <use xlink:href="#DejaVuSans-29" x="637.410156"/>
     </g>
    </g>
   </g>
   <g id="matplotlib.axis_4">
    <g id="ytick_5">
     <g id="line2d_18">
      <g>
       <use xlink:href="#m60a06d3634" x="204.251875" y="149.467375" style="stroke: #000000; stroke-width: 0.8"/>
      </g>
     </g>
    </g>
    <g id="ytick_6">
     <g id="line2d_19">
      <g>
       <use xlink:href="#m60a06d3634" x="204.251875" y="113.443042" style="stroke: #000000; stroke-width: 0.8"/>
      </g>
     </g>
    </g>
    <g id="ytick_7">
     <g id="line2d_20">
      <g>
       <use xlink:href="#m60a06d3634" x="204.251875" y="77.418708" style="stroke: #000000; stroke-width: 0.8"/>
      </g>
     </g>
    </g>
    <g id="ytick_8">
     <g id="line2d_21">
      <g>
       <use xlink:href="#m60a06d3634" x="204.251875" y="41.394375" style="stroke: #000000; stroke-width: 0.8"/>
      </g>
     </g>
    </g>
   </g>
   <g id="line2d_22">
    <path d="M 210.676037 99.041149 
L 211.960869 98.84822 
L 213.245702 99.176777 
L 214.530534 99.535579 
L 215.815366 99.417213 
L 217.100199 99.213982 
L 218.385031 99.84994 
L 219.669864 101.229939 
L 220.954696 101.557981 
L 222.239528 101.10583 
L 223.524361 100.780795 
L 224.809193 100.341446 
L 226.094026 99.36445 
L 227.378858 98.555028 
L 228.66369 98.71219 
L 229.948523 99.276677 
L 231.233355 99.359094 
L 232.518188 99.028833 
L 233.80302 98.74948 
L 235.087852 98.586059 
L 236.372685 98.638377 
L 237.657517 98.550067 
L 238.942349 98.271878 
L 240.227182 98.208021 
L 241.512014 97.432977 
L 242.796847 96.575983 
L 244.081679 96.586586 
L 245.366511 97.23472 
L 246.651344 98.112982 
L 247.936176 98.595887 
L 249.221009 98.235349 
L 250.505841 98.158346 
L 251.790673 98.92378 
L 253.075506 99.731009 
L 254.360338 99.853278 
L 255.64517 99.809639 
L 256.930003 99.810252 
L 258.214835 99.742709 
L 259.499668 99.861671 
L 260.7845 100.438835 
L 262.069332 100.409725 
L 263.354165 100.220928 
L 264.638997 100.957408 
L 265.92383 101.907419 
L 267.208662 102.118897 
L 268.493494 101.994546 
L 269.778327 102.088827 
L 271.063159 101.877889 
L 272.347991 101.583709 
L 273.632824 101.474949 
L 274.917656 101.172519 
L 276.202489 100.653598 
L 277.487321 100.095378 
L 278.772153 99.998338 
L 280.056986 100.164582 
L 281.341818 100.477802 
L 282.626651 100.678759 
L 283.911483 100.921288 
L 285.196315 101.616458 
L 286.481148 101.8301 
L 287.76598 101.87108 
L 289.050813 102.357772 
L 290.335645 101.808096 
L 291.620477 100.29104 
L 292.90531 99.302354 
L 294.190142 98.494035 
L 295.474974 96.952305 
L 296.759807 95.560557 
L 298.044639 95.735688 
L 299.329472 96.764685 
L 300.614304 96.981495 
L 301.899136 96.509082 
L 303.183969 96.255086 
L 304.468801 96.121072 
L 305.753634 95.123837 
L 307.038466 94.046843 
L 308.323298 94.645154 
L 309.608131 96.90624 
L 310.892963 98.568604 
L 312.177795 98.376442 
L 313.462628 97.661281 
L 314.74746 97.569413 
L 316.032293 97.298993 
L 317.317125 97.253916 
L 318.601957 97.66069 
L 319.88679 97.710986 
L 321.171622 97.711308 
L 322.456455 97.58027 
L 323.741287 96.984266 
L 325.026119 96.571666 
" clip-path="url(#pedbf04f823)" style="fill: none; stroke: #006633; stroke-width: 1.5; stroke-linecap: square"/>
   </g>
   <g id="line2d_23">
    <path d="M 210.676037 108.475074 
L 211.960869 111.005206 
L 213.245702 111.701461 
L 214.530534 109.193457 
L 215.815366 106.909317 
L 217.100199 106.151923 
L 218.385031 104.549327 
L 219.669864 103.185214 
L 220.954696 104.15025 
L 222.239528 106.461937 
L 223.524361 107.4542 
L 224.809193 105.631873 
L 226.094026 104.054865 
L 227.378858 106.076676 
L 228.66369 108.58655 
L 229.948523 107.185687 
L 231.233355 104.352414 
L 232.518188 103.863233 
L 233.80302 103.697371 
L 235.087852 103.010208 
L 236.372685 103.599543 
L 237.657517 104.986699 
L 238.942349 106.276344 
L 240.227182 106.843222 
L 241.512014 106.076914 
L 242.796847 105.062992 
L 244.081679 105.246338 
L 245.366511 106.845696 
L 246.651344 107.580292 
L 247.936176 106.704611 
L 249.221009 105.553244 
L 250.505841 104.551205 
L 251.790673 103.526295 
L 253.075506 102.065106 
L 254.360338 101.90568 
L 255.64517 103.46986 
L 256.930003 104.713815 
L 258.214835 104.705573 
L 259.499668 103.942149 
L 260.7845 104.049657 
L 262.069332 103.232069 
L 263.354165 101.985758 
L 264.638997 103.819004 
L 265.92383 108.305512 
L 267.208662 109.724113 
L 268.493494 107.706337 
L 269.778327 106.426633 
L 271.063159 106.142204 
L 272.347991 106.022724 
L 273.632824 106.317364 
L 274.917656 106.795525 
L 276.202489 106.803648 
L 277.487321 106.721186 
L 278.772153 106.871743 
L 280.056986 107.793591 
L 281.341818 108.315668 
L 282.626651 108.915857 
L 283.911483 109.354129 
L 285.196315 109.423662 
L 286.481148 109.45873 
L 287.76598 108.584124 
L 289.050813 106.999349 
L 290.335645 106.81152 
L 291.620477 106.364255 
L 292.90531 104.561277 
L 294.190142 104.062838 
L 295.474974 105.227433 
L 296.759807 105.930101 
L 298.044639 105.640456 
L 299.329472 104.232125 
L 300.614304 102.957111 
L 301.899136 103.541561 
L 303.183969 103.570726 
L 304.468801 100.983605 
L 305.753634 100.478424 
L 307.038466 103.093645 
L 308.323298 104.837772 
L 309.608131 104.084013 
L 310.892963 102.543425 
L 312.177795 101.296761 
L 313.462628 100.776606 
L 314.74746 99.986546 
L 316.032293 100.90803 
L 317.317125 103.483643 
L 318.601957 104.96656 
L 319.88679 105.838643 
L 321.171622 106.1298 
L 322.456455 106.41962 
L 323.741287 105.98109 
L 325.026119 104.622695 
" clip-path="url(#pedbf04f823)" style="fill: none; stroke: #000000; stroke-width: 1.5; stroke-linecap: square"/>
   </g>
   <g id="LineCollection_2">
    <path d="M 210.676037 113.443042 
L 339.159276 113.443042 
" clip-path="url(#pedbf04f823)" style="fill: none; stroke-dasharray: 7.4,3.2; stroke-dashoffset: 0; stroke: #808080; stroke-width: 2"/>
   </g>
   <g id="patch_6">
    <path d="M 204.251875 149.467375 
L 204.251875 41.394375 
" style="fill: none; stroke: #000000; stroke-width: 0.8; stroke-linejoin: miter; stroke-linecap: square"/>
   </g>
   <g id="patch_7">
    <path d="M 204.251875 149.467375 
L 345.583438 149.467375 
" style="fill: none; stroke: #000000; stroke-width: 0.8; stroke-linejoin: miter; stroke-linecap: square"/>
   </g>
   <g id="text_20">
    <!-- Choice -->
    <g transform="translate(249.516094 18.597656) scale(0.15 -0.15)">
     <defs>
      <path id="DejaVuSans-43" d="M 4122 4306 
L 4122 3641 
Q 3803 3938 3442 4084 
Q 3081 4231 2675 4231 
Q 1875 4231 1450 3742 
Q 1025 3253 1025 2328 
Q 1025 1406 1450 917 
Q 1875 428 2675 428 
Q 3081 428 3442 575 
Q 3803 722 4122 1019 
L 4122 359 
Q 3791 134 3420 21 
Q 3050 -91 2638 -91 
Q 1578 -91 968 557 
Q 359 1206 359 2328 
Q 359 3453 968 4101 
Q 1578 4750 2638 4750 
Q 3056 4750 3426 4639 
Q 3797 4528 4122 4306 
z
" transform="scale(0.015625)"/>
      <path id="DejaVuSans-68" d="M 3513 2113 
L 3513 0 
L 2938 0 
L 2938 2094 
Q 2938 2591 2744 2837 
Q 2550 3084 2163 3084 
Q 1697 3084 1428 2787 
Q 1159 2491 1159 1978 
L 1159 0 
L 581 0 
L 581 4863 
L 1159 4863 
L 1159 2956 
Q 1366 3272 1645 3428 
Q 1925 3584 2291 3584 
Q 2894 3584 3203 3211 
Q 3513 2838 3513 2113 
z
" transform="scale(0.015625)"/>
     </defs>
     <use xlink:href="#DejaVuSans-43"/>
     <use xlink:href="#DejaVuSans-68" x="69.824219"/>
     <use xlink:href="#DejaVuSans-6f" x="133.203125"/>
     <use xlink:href="#DejaVuSans-69" x="194.384766"/>
     <use xlink:href="#DejaVuSans-63" x="222.167969"/>
     <use xlink:href="#DejaVuSans-65" x="277.148438"/>
    </g>
    <!-- Decoding -->
    <g transform="translate(239.455547 35.394375) scale(0.15 -0.15)">
     <use xlink:href="#DejaVuSans-44"/>
     <use xlink:href="#DejaVuSans-65" x="77.001953"/>
     <use xlink:href="#DejaVuSans-63" x="138.525391"/>
     <use xlink:href="#DejaVuSans-6f" x="193.505859"/>
     <use xlink:href="#DejaVuSans-64" x="254.6875"/>
     <use xlink:href="#DejaVuSans-69" x="318.164062"/>
     <use xlink:href="#DejaVuSans-6e" x="345.947266"/>
     <use xlink:href="#DejaVuSans-67" x="409.326172"/>
    </g>
   </g>
  </g>
 </g>
 <defs>
  <clipPath id="p33a7c9ef91">
   <rect x="48.620313" y="41.394375" width="141.331563" height="108.073"/>
  </clipPath>
  <clipPath id="pedbf04f823">
   <rect x="204.251875" y="41.394375" width="141.331563" height="108.073"/>
  </clipPath>
 </defs>
</svg>
