<?xml version="1.0" encoding="utf-8" standalone="no"?>
<!DOCTYPE svg PUBLIC "-//W3C//DTD SVG 1.1//EN"
  "http://www.w3.org/Graphics/SVG/1.1/DTD/svg11.dtd">
<svg xmlns:xlink="http://www.w3.org/1999/xlink" width="352.783437pt" height="208.659406pt" viewBox="0 0 352.783437 208.659406" xmlns="http://www.w3.org/2000/svg" version="1.1">
 <metadata>
  <rdf:RDF xmlns:dc="http://purl.org/dc/elements/1.1/" xmlns:cc="http://creativecommons.org/ns#" xmlns:rdf="http://www.w3.org/1999/02/22-rdf-syntax-ns#">
   <cc:Work>
    <dc:type rdf:resource="http://purl.org/dc/dcmitype/StillImage"/>
    <dc:date>2024-05-23T13:35:05.691504</dc:date>
    <dc:format>image/svg+xml</dc:format>
    <dc:creator>
     <cc:Agent>
      <dc:title>Matplotlib v3.7.2, https://matplotlib.org/</dc:title>
     </cc:Agent>
    </dc:creator>
   </cc:Work>
  </rdf:RDF>
 </metadata>
 <defs>
  <style type="text/css">*{stroke-linejoin: round; stroke-linecap: butt}</style>
 </defs>
 <g id="figure_1">
  <g id="patch_1">
   <path d="M 0 208.659406 
L 352.783437 208.659406 
L 352.783437 0 
L 0 0 
z
" style="fill: #ffffff"/>
  </g>
  <g id="axes_1">
   <g id="patch_2">
    <path d="M 48.620313 149.467375 
L 189.951875 149.467375 
L 189.951875 41.394375 
L 48.620313 41.394375 
z
" style="fill: #ffffff"/>
   </g>
   <g id="PolyCollection_1">
    <defs>
     <path id="m70c4efa8cd" d="M 55.044474 -112.397813 
L 55.044474 -101.545858 
L 56.234134 -100.579564 
L 57.423794 -98.101457 
L 58.613453 -97.296853 
L 59.803113 -101.160416 
L 60.992773 -101.808263 
L 62.182432 -100.617317 
L 63.372092 -108.065117 
L 64.561751 -112.706144 
L 65.751411 -114.483992 
L 66.941071 -116.010104 
L 68.13073 -115.675398 
L 69.32039 -114.451107 
L 70.510049 -117.937769 
L 71.699709 -115.099064 
L 72.889369 -114.101485 
L 74.079028 -116.110846 
L 75.268688 -112.256352 
L 76.458348 -109.396311 
L 77.648007 -106.611605 
L 78.837667 -106.978732 
L 80.027326 -105.757618 
L 81.216986 -103.36754 
L 82.406646 -102.26139 
L 83.596305 -97.225426 
L 84.785965 -101.104001 
L 85.975624 -100.59188 
L 87.165284 -101.052771 
L 88.354944 -102.742045 
L 89.544603 -96.223004 
L 90.734263 -100.008722 
L 91.923923 -101.098615 
L 93.113582 -99.19915 
L 94.303242 -97.011105 
L 95.492901 -100.887902 
L 96.682561 -99.751061 
L 97.872221 -97.447437 
L 99.06188 -99.680433 
L 100.25154 -100.591509 
L 101.441199 -99.284891 
L 102.630859 -100.947013 
L 103.820519 -99.726605 
L 105.010178 -98.68709 
L 106.199838 -96.945306 
L 107.389498 -98.532284 
L 108.579157 -98.836517 
L 109.768817 -100.001398 
L 110.958476 -98.229581 
L 112.148136 -99.336825 
L 113.337796 -96.958493 
L 114.527455 -97.604654 
L 115.717115 -99.228128 
L 116.906775 -97.945815 
L 118.096434 -101.654263 
L 119.286094 -101.16571 
L 120.475753 -100.743515 
L 121.665413 -100.525634 
L 122.855073 -103.110168 
L 124.044732 -98.222387 
L 125.234392 -94.873419 
L 126.424051 -99.212198 
L 127.613711 -99.00283 
L 128.803371 -98.504087 
L 129.99303 -97.925368 
L 131.18269 -98.930609 
L 132.37235 -99.889292 
L 133.562009 -98.434579 
L 134.751669 -103.498648 
L 135.941328 -97.284007 
L 137.130988 -97.477614 
L 138.320648 -94.728283 
L 139.510307 -99.346316 
L 140.699967 -95.415061 
L 141.889626 -98.275521 
L 143.079286 -98.854614 
L 144.268946 -97.940223 
L 145.458605 -101.976552 
L 146.648265 -100.18064 
L 147.837925 -100.421544 
L 149.027584 -96.307362 
L 150.217244 -99.954488 
L 151.406903 -98.960733 
L 152.596563 -99.664372 
L 153.786223 -100.300625 
L 154.975882 -96.809942 
L 156.165542 -97.431213 
L 157.355201 -99.313175 
L 158.544861 -92.528931 
L 159.734521 -99.717422 
L 160.92418 -97.832594 
L 162.11384 -96.766834 
L 163.3035 -97.442711 
L 164.493159 -95.562041 
L 165.682819 -97.269355 
L 166.872478 -100.392231 
L 168.062138 -101.243969 
L 169.251798 -104.24208 
L 170.441457 -99.698228 
L 171.631117 -98.966868 
L 172.820777 -99.284827 
L 174.010436 -98.082136 
L 175.200096 -99.184317 
L 176.389755 -99.346204 
L 177.579415 -98.130632 
L 178.769075 -100.071922 
L 179.958734 -97.904901 
L 181.148394 -98.072997 
L 182.338053 -97.98951 
L 183.527713 -96.290012 
L 183.527713 -107.141967 
L 183.527713 -107.141967 
L 182.338053 -108.841466 
L 181.148394 -108.924952 
L 179.958734 -108.756856 
L 178.769075 -110.923877 
L 177.579415 -108.982588 
L 176.389755 -110.198159 
L 175.200096 -110.036273 
L 174.010436 -108.934091 
L 172.820777 -110.136783 
L 171.631117 -109.818823 
L 170.441457 -110.550183 
L 169.251798 -115.094035 
L 168.062138 -112.095925 
L 166.872478 -111.244187 
L 165.682819 -108.121311 
L 164.493159 -106.413997 
L 163.3035 -108.294666 
L 162.11384 -107.61879 
L 160.92418 -108.684549 
L 159.734521 -110.569378 
L 158.544861 -103.380887 
L 157.355201 -110.165131 
L 156.165542 -108.283168 
L 154.975882 -107.661898 
L 153.786223 -111.15258 
L 152.596563 -110.516327 
L 151.406903 -109.812689 
L 150.217244 -110.806443 
L 149.027584 -107.159317 
L 147.837925 -111.2735 
L 146.648265 -111.032596 
L 145.458605 -112.828508 
L 144.268946 -108.792179 
L 143.079286 -109.706569 
L 141.889626 -109.127476 
L 140.699967 -106.267017 
L 139.510307 -110.198272 
L 138.320648 -105.580238 
L 137.130988 -108.32957 
L 135.941328 -108.135962 
L 134.751669 -114.350604 
L 133.562009 -109.286534 
L 132.37235 -110.741248 
L 131.18269 -109.782565 
L 129.99303 -108.777324 
L 128.803371 -109.356043 
L 127.613711 -109.854786 
L 126.424051 -110.064153 
L 125.234392 -105.725375 
L 124.044732 -109.074342 
L 122.855073 -113.962123 
L 121.665413 -111.37759 
L 120.475753 -111.59547 
L 119.286094 -112.017665 
L 118.096434 -112.506218 
L 116.906775 -108.79777 
L 115.717115 -110.080083 
L 114.527455 -108.45661 
L 113.337796 -107.810448 
L 112.148136 -110.188781 
L 110.958476 -109.081537 
L 109.768817 -110.853354 
L 108.579157 -109.688473 
L 107.389498 -109.384239 
L 106.199838 -107.797261 
L 105.010178 -109.539045 
L 103.820519 -110.578561 
L 102.630859 -111.798969 
L 101.441199 -110.136846 
L 100.25154 -111.443464 
L 99.06188 -110.532389 
L 97.872221 -108.299393 
L 96.682561 -110.603017 
L 95.492901 -111.739857 
L 94.303242 -107.86306 
L 93.113582 -110.051106 
L 91.923923 -111.95057 
L 90.734263 -110.860677 
L 89.544603 -107.07496 
L 88.354944 -113.594 
L 87.165284 -111.904726 
L 85.975624 -111.443836 
L 84.785965 -111.955956 
L 83.596305 -108.077381 
L 82.406646 -113.113345 
L 81.216986 -114.219495 
L 80.027326 -116.609574 
L 78.837667 -117.830687 
L 77.648007 -117.46356 
L 76.458348 -120.248266 
L 75.268688 -123.108308 
L 74.079028 -126.962801 
L 72.889369 -124.953441 
L 71.699709 -125.951019 
L 70.510049 -128.789724 
L 69.32039 -125.303062 
L 68.13073 -126.527354 
L 66.941071 -126.862059 
L 65.751411 -125.335947 
L 64.561751 -123.5581 
L 63.372092 -118.917073 
L 62.182432 -111.469272 
L 60.992773 -112.660218 
L 59.803113 -112.012371 
L 58.613453 -108.148809 
L 57.423794 -108.953413 
L 56.234134 -111.43152 
L 55.044474 -112.397813 
z
" style="stroke: #006633; stroke-opacity: 0.5"/>
    </defs>
    <g clip-path="url(#p09b68ecf43)">
     <use xlink:href="#m70c4efa8cd" x="0" y="208.659406" style="fill: #006633; fill-opacity: 0.5; stroke: #006633; stroke-opacity: 0.5"/>
    </g>
   </g>
   <g id="PolyCollection_2">
    <defs>
     <path id="m356dce5d69" d="M 55.044474 -96.516981 
L 55.044474 -83.160784 
L 56.234134 -84.036565 
L 57.423794 -88.884953 
L 58.613453 -88.871304 
L 59.803113 -91.042747 
L 60.992773 -88.32261 
L 62.182432 -90.283592 
L 63.372092 -96.524978 
L 64.561751 -102.235892 
L 65.751411 -106.741062 
L 66.941071 -110.829617 
L 68.13073 -111.393309 
L 69.32039 -114.708034 
L 70.510049 -110.735406 
L 71.699709 -108.226087 
L 72.889369 -105.060892 
L 74.079028 -104.408375 
L 75.268688 -104.170501 
L 76.458348 -99.755995 
L 77.648007 -100.760686 
L 78.837667 -99.720482 
L 80.027326 -91.643401 
L 81.216986 -96.847166 
L 82.406646 -90.977895 
L 83.596305 -95.329331 
L 84.785965 -95.970559 
L 85.975624 -92.689915 
L 87.165284 -89.14457 
L 88.354944 -89.758037 
L 89.544603 -90.268469 
L 90.734263 -90.58552 
L 91.923923 -90.582989 
L 93.113582 -90.552546 
L 94.303242 -90.877437 
L 95.492901 -88.137656 
L 96.682561 -89.773134 
L 97.872221 -92.913802 
L 99.06188 -89.626598 
L 100.25154 -89.906396 
L 101.441199 -93.215415 
L 102.630859 -87.195365 
L 103.820519 -94.164476 
L 105.010178 -90.701654 
L 106.199838 -91.630751 
L 107.389498 -90.960938 
L 108.579157 -92.0743 
L 109.768817 -89.6097 
L 110.958476 -88.592245 
L 112.148136 -91.802213 
L 113.337796 -84.825577 
L 114.527455 -88.850891 
L 115.717115 -86.395503 
L 116.906775 -87.804245 
L 118.096434 -93.336276 
L 119.286094 -90.007603 
L 120.475753 -90.350512 
L 121.665413 -86.233051 
L 122.855073 -87.411349 
L 124.044732 -88.611266 
L 125.234392 -88.93387 
L 126.424051 -89.916452 
L 127.613711 -89.536877 
L 128.803371 -91.043358 
L 129.99303 -91.076913 
L 131.18269 -86.693744 
L 132.37235 -89.590448 
L 133.562009 -90.549252 
L 134.751669 -90.059787 
L 135.941328 -88.177325 
L 137.130988 -87.012063 
L 138.320648 -85.86917 
L 139.510307 -87.055228 
L 140.699967 -88.955394 
L 141.889626 -83.342746 
L 143.079286 -85.897218 
L 144.268946 -85.430766 
L 145.458605 -89.326498 
L 146.648265 -87.238691 
L 147.837925 -87.562108 
L 149.027584 -88.154226 
L 150.217244 -89.63877 
L 151.406903 -88.664855 
L 152.596563 -84.5894 
L 153.786223 -91.813395 
L 154.975882 -92.360888 
L 156.165542 -91.75913 
L 157.355201 -90.361597 
L 158.544861 -92.400768 
L 159.734521 -91.227073 
L 160.92418 -88.27769 
L 162.11384 -87.763347 
L 163.3035 -86.31522 
L 164.493159 -88.213183 
L 165.682819 -86.637698 
L 166.872478 -91.077483 
L 168.062138 -89.257103 
L 169.251798 -91.584161 
L 170.441457 -88.370514 
L 171.631117 -89.332861 
L 172.820777 -89.731806 
L 174.010436 -86.709933 
L 175.200096 -89.880842 
L 176.389755 -88.967477 
L 177.579415 -86.307198 
L 178.769075 -86.651266 
L 179.958734 -89.447169 
L 181.148394 -89.228969 
L 182.338053 -86.685814 
L 183.527713 -87.219912 
L 183.527713 -100.576109 
L 183.527713 -100.576109 
L 182.338053 -100.042011 
L 181.148394 -102.585166 
L 179.958734 -102.803366 
L 178.769075 -100.007462 
L 177.579415 -99.663395 
L 176.389755 -102.323673 
L 175.200096 -103.237038 
L 174.010436 -100.06613 
L 172.820777 -103.088002 
L 171.631117 -102.689057 
L 170.441457 -101.72671 
L 169.251798 -104.940358 
L 168.062138 -102.6133 
L 166.872478 -104.43368 
L 165.682819 -99.993895 
L 164.493159 -101.569379 
L 163.3035 -99.671417 
L 162.11384 -101.119544 
L 160.92418 -101.633886 
L 159.734521 -104.583269 
L 158.544861 -105.756964 
L 157.355201 -103.717793 
L 156.165542 -105.115326 
L 154.975882 -105.717085 
L 153.786223 -105.169591 
L 152.596563 -97.945597 
L 151.406903 -102.021051 
L 150.217244 -102.994967 
L 149.027584 -101.510423 
L 147.837925 -100.918304 
L 146.648265 -100.594888 
L 145.458605 -102.682695 
L 144.268946 -98.786963 
L 143.079286 -99.253415 
L 141.889626 -96.698943 
L 140.699967 -102.311591 
L 139.510307 -100.411425 
L 138.320648 -99.225367 
L 137.130988 -100.36826 
L 135.941328 -101.533522 
L 134.751669 -103.415983 
L 133.562009 -103.905448 
L 132.37235 -102.946644 
L 131.18269 -100.04994 
L 129.99303 -104.43311 
L 128.803371 -104.399555 
L 127.613711 -102.893073 
L 126.424051 -103.272649 
L 125.234392 -102.290067 
L 124.044732 -101.967462 
L 122.855073 -100.767545 
L 121.665413 -99.589248 
L 120.475753 -103.706709 
L 119.286094 -103.3638 
L 118.096434 -106.692472 
L 116.906775 -101.160442 
L 115.717115 -99.7517 
L 114.527455 -102.207087 
L 113.337796 -98.181774 
L 112.148136 -105.158409 
L 110.958476 -101.948441 
L 109.768817 -102.965897 
L 108.579157 -105.430497 
L 107.389498 -104.317134 
L 106.199838 -104.986947 
L 105.010178 -104.05785 
L 103.820519 -107.520672 
L 102.630859 -100.551562 
L 101.441199 -106.571611 
L 100.25154 -103.262592 
L 99.06188 -102.982795 
L 97.872221 -106.269999 
L 96.682561 -103.12933 
L 95.492901 -101.493852 
L 94.303242 -104.233633 
L 93.113582 -103.908743 
L 91.923923 -103.939186 
L 90.734263 -103.941716 
L 89.544603 -103.624666 
L 88.354944 -103.114234 
L 87.165284 -102.500767 
L 85.975624 -106.046112 
L 84.785965 -109.326756 
L 83.596305 -108.685528 
L 82.406646 -104.334092 
L 81.216986 -110.203362 
L 80.027326 -104.999598 
L 78.837667 -113.076678 
L 77.648007 -114.116882 
L 76.458348 -113.112191 
L 75.268688 -117.526697 
L 74.079028 -117.764571 
L 72.889369 -118.417088 
L 71.699709 -121.582284 
L 70.510049 -124.091603 
L 69.32039 -128.064231 
L 68.13073 -124.749505 
L 66.941071 -124.185814 
L 65.751411 -120.097258 
L 64.561751 -115.592089 
L 63.372092 -109.881175 
L 62.182432 -103.639788 
L 60.992773 -101.678806 
L 59.803113 -104.398944 
L 58.613453 -102.227501 
L 57.423794 -102.241149 
L 56.234134 -97.392761 
L 55.044474 -96.516981 
z
" style="stroke: #000000; stroke-opacity: 0.5"/>
    </defs>
    <g clip-path="url(#p09b68ecf43)">
     <use xlink:href="#m356dce5d69" x="0" y="208.659406" style="fill-opacity: 0.5; stroke: #000000; stroke-opacity: 0.5"/>
    </g>
   </g>
   <g id="matplotlib.axis_1">
    <g id="xtick_1">
     <g id="line2d_1">
      <defs>
       <path id="m36ce0276ee" d="M 0 0 
L 0 3.5 
" style="stroke: #000000; stroke-width: 0.8"/>
      </defs>
      <g>
       <use xlink:href="#m36ce0276ee" x="55.044474" y="149.467375" style="stroke: #000000; stroke-width: 0.8"/>
      </g>
     </g>
     <g id="text_1">
      <!-- 0 -->
      <g transform="translate(51.863224 164.065812) scale(0.1 -0.1)">
       <defs>
        <path id="DejaVuSans-30" d="M 2034 4250 
Q 1547 4250 1301 3770 
Q 1056 3291 1056 2328 
Q 1056 1369 1301 889 
Q 1547 409 2034 409 
Q 2525 409 2770 889 
Q 3016 1369 3016 2328 
Q 3016 3291 2770 3770 
Q 2525 4250 2034 4250 
z
M 2034 4750 
Q 2819 4750 3233 4129 
Q 3647 3509 3647 2328 
Q 3647 1150 3233 529 
Q 2819 -91 2034 -91 
Q 1250 -91 836 529 
Q 422 1150 422 2328 
Q 422 3509 836 4129 
Q 1250 4750 2034 4750 
z
" transform="scale(0.015625)"/>
       </defs>
       <use xlink:href="#DejaVuSans-30"/>
      </g>
     </g>
    </g>
    <g id="xtick_2">
     <g id="line2d_2">
      <g>
       <use xlink:href="#m36ce0276ee" x="90.734263" y="149.467375" style="stroke: #000000; stroke-width: 0.8"/>
      </g>
     </g>
     <g id="text_2">
      <!-- 2 -->
      <g transform="translate(87.553013 164.065812) scale(0.1 -0.1)">
       <defs>
        <path id="DejaVuSans-32" d="M 1228 531 
L 3431 531 
L 3431 0 
L 469 0 
L 469 531 
Q 828 903 1448 1529 
Q 2069 2156 2228 2338 
Q 2531 2678 2651 2914 
Q 2772 3150 2772 3378 
Q 2772 3750 2511 3984 
Q 2250 4219 1831 4219 
Q 1534 4219 1204 4116 
Q 875 4013 500 3803 
L 500 4441 
Q 881 4594 1212 4672 
Q 1544 4750 1819 4750 
Q 2544 4750 2975 4387 
Q 3406 4025 3406 3419 
Q 3406 3131 3298 2873 
Q 3191 2616 2906 2266 
Q 2828 2175 2409 1742 
Q 1991 1309 1228 531 
z
" transform="scale(0.015625)"/>
       </defs>
       <use xlink:href="#DejaVuSans-32"/>
      </g>
     </g>
    </g>
    <g id="xtick_3">
     <g id="line2d_3">
      <g>
       <use xlink:href="#m36ce0276ee" x="126.424051" y="149.467375" style="stroke: #000000; stroke-width: 0.8"/>
      </g>
     </g>
     <g id="text_3">
      <!-- 4 -->
      <g transform="translate(123.242801 164.065812) scale(0.1 -0.1)">
       <defs>
        <path id="DejaVuSans-34" d="M 2419 4116 
L 825 1625 
L 2419 1625 
L 2419 4116 
z
M 2253 4666 
L 3047 4666 
L 3047 1625 
L 3713 1625 
L 3713 1100 
L 3047 1100 
L 3047 0 
L 2419 0 
L 2419 1100 
L 313 1100 
L 313 1709 
L 2253 4666 
z
" transform="scale(0.015625)"/>
       </defs>
       <use xlink:href="#DejaVuSans-34"/>
      </g>
     </g>
    </g>
    <g id="xtick_4">
     <g id="line2d_4">
      <g>
       <use xlink:href="#m36ce0276ee" x="162.11384" y="149.467375" style="stroke: #000000; stroke-width: 0.8"/>
      </g>
     </g>
     <g id="text_4">
      <!-- 6 -->
      <g transform="translate(158.93259 164.065812) scale(0.1 -0.1)">
       <defs>
        <path id="DejaVuSans-36" d="M 2113 2584 
Q 1688 2584 1439 2293 
Q 1191 2003 1191 1497 
Q 1191 994 1439 701 
Q 1688 409 2113 409 
Q 2538 409 2786 701 
Q 3034 994 3034 1497 
Q 3034 2003 2786 2293 
Q 2538 2584 2113 2584 
z
M 3366 4563 
L 3366 3988 
Q 3128 4100 2886 4159 
Q 2644 4219 2406 4219 
Q 1781 4219 1451 3797 
Q 1122 3375 1075 2522 
Q 1259 2794 1537 2939 
Q 1816 3084 2150 3084 
Q 2853 3084 3261 2657 
Q 3669 2231 3669 1497 
Q 3669 778 3244 343 
Q 2819 -91 2113 -91 
Q 1303 -91 875 529 
Q 447 1150 447 2328 
Q 447 3434 972 4092 
Q 1497 4750 2381 4750 
Q 2619 4750 2861 4703 
Q 3103 4656 3366 4563 
z
" transform="scale(0.015625)"/>
       </defs>
       <use xlink:href="#DejaVuSans-36"/>
      </g>
     </g>
    </g>
    <g id="text_5">
     <!-- time since -->
     <g transform="translate(80.475938 181.543156) scale(0.15 -0.15)">
      <defs>
       <path id="DejaVuSans-74" d="M 1172 4494 
L 1172 3500 
L 2356 3500 
L 2356 3053 
L 1172 3053 
L 1172 1153 
Q 1172 725 1289 603 
Q 1406 481 1766 481 
L 2356 481 
L 2356 0 
L 1766 0 
Q 1100 0 847 248 
Q 594 497 594 1153 
L 594 3053 
L 172 3053 
L 172 3500 
L 594 3500 
L 594 4494 
L 1172 4494 
z
" transform="scale(0.015625)"/>
       <path id="DejaVuSans-69" d="M 603 3500 
L 1178 3500 
L 1178 0 
L 603 0 
L 603 3500 
z
M 603 4863 
L 1178 4863 
L 1178 4134 
L 603 4134 
L 603 4863 
z
" transform="scale(0.015625)"/>
       <path id="DejaVuSans-6d" d="M 3328 2828 
Q 3544 3216 3844 3400 
Q 4144 3584 4550 3584 
Q 5097 3584 5394 3201 
Q 5691 2819 5691 2113 
L 5691 0 
L 5113 0 
L 5113 2094 
Q 5113 2597 4934 2840 
Q 4756 3084 4391 3084 
Q 3944 3084 3684 2787 
Q 3425 2491 3425 1978 
L 3425 0 
L 2847 0 
L 2847 2094 
Q 2847 2600 2669 2842 
Q 2491 3084 2119 3084 
Q 1678 3084 1418 2786 
Q 1159 2488 1159 1978 
L 1159 0 
L 581 0 
L 581 3500 
L 1159 3500 
L 1159 2956 
Q 1356 3278 1631 3431 
Q 1906 3584 2284 3584 
Q 2666 3584 2933 3390 
Q 3200 3197 3328 2828 
z
" transform="scale(0.015625)"/>
       <path id="DejaVuSans-65" d="M 3597 1894 
L 3597 1613 
L 953 1613 
Q 991 1019 1311 708 
Q 1631 397 2203 397 
Q 2534 397 2845 478 
Q 3156 559 3463 722 
L 3463 178 
Q 3153 47 2828 -22 
Q 2503 -91 2169 -91 
Q 1331 -91 842 396 
Q 353 884 353 1716 
Q 353 2575 817 3079 
Q 1281 3584 2069 3584 
Q 2775 3584 3186 3129 
Q 3597 2675 3597 1894 
z
M 3022 2063 
Q 3016 2534 2758 2815 
Q 2500 3097 2075 3097 
Q 1594 3097 1305 2825 
Q 1016 2553 972 2059 
L 3022 2063 
z
" transform="scale(0.015625)"/>
       <path id="DejaVuSans-20" transform="scale(0.015625)"/>
       <path id="DejaVuSans-73" d="M 2834 3397 
L 2834 2853 
Q 2591 2978 2328 3040 
Q 2066 3103 1784 3103 
Q 1356 3103 1142 2972 
Q 928 2841 928 2578 
Q 928 2378 1081 2264 
Q 1234 2150 1697 2047 
L 1894 2003 
Q 2506 1872 2764 1633 
Q 3022 1394 3022 966 
Q 3022 478 2636 193 
Q 2250 -91 1575 -91 
Q 1294 -91 989 -36 
Q 684 19 347 128 
L 347 722 
Q 666 556 975 473 
Q 1284 391 1588 391 
Q 1994 391 2212 530 
Q 2431 669 2431 922 
Q 2431 1156 2273 1281 
Q 2116 1406 1581 1522 
L 1381 1569 
Q 847 1681 609 1914 
Q 372 2147 372 2553 
Q 372 3047 722 3315 
Q 1072 3584 1716 3584 
Q 2034 3584 2315 3537 
Q 2597 3491 2834 3397 
z
" transform="scale(0.015625)"/>
       <path id="DejaVuSans-6e" d="M 3513 2113 
L 3513 0 
L 2938 0 
L 2938 2094 
Q 2938 2591 2744 2837 
Q 2550 3084 2163 3084 
Q 1697 3084 1428 2787 
Q 1159 2491 1159 1978 
L 1159 0 
L 581 0 
L 581 3500 
L 1159 3500 
L 1159 2956 
Q 1366 3272 1645 3428 
Q 1925 3584 2291 3584 
Q 2894 3584 3203 3211 
Q 3513 2838 3513 2113 
z
" transform="scale(0.015625)"/>
       <path id="DejaVuSans-63" d="M 3122 3366 
L 3122 2828 
Q 2878 2963 2633 3030 
Q 2388 3097 2138 3097 
Q 1578 3097 1268 2742 
Q 959 2388 959 1747 
Q 959 1106 1268 751 
Q 1578 397 2138 397 
Q 2388 397 2633 464 
Q 2878 531 3122 666 
L 3122 134 
Q 2881 22 2623 -34 
Q 2366 -91 2075 -91 
Q 1284 -91 818 406 
Q 353 903 353 1747 
Q 353 2603 823 3093 
Q 1294 3584 2113 3584 
Q 2378 3584 2631 3529 
Q 2884 3475 3122 3366 
z
" transform="scale(0.015625)"/>
      </defs>
      <use xlink:href="#DejaVuSans-74"/>
      <use xlink:href="#DejaVuSans-69" x="39.208984"/>
      <use xlink:href="#DejaVuSans-6d" x="66.992188"/>
      <use xlink:href="#DejaVuSans-65" x="164.404297"/>
      <use xlink:href="#DejaVuSans-20" x="225.927734"/>
      <use xlink:href="#DejaVuSans-73" x="257.714844"/>
      <use xlink:href="#DejaVuSans-69" x="309.814453"/>
      <use xlink:href="#DejaVuSans-6e" x="337.597656"/>
      <use xlink:href="#DejaVuSans-63" x="400.976562"/>
      <use xlink:href="#DejaVuSans-65" x="455.957031"/>
     </g>
     <!-- sound onset (s) -->
     <g transform="translate(61.191563 198.339875) scale(0.15 -0.15)">
      <defs>
       <path id="DejaVuSans-6f" d="M 1959 3097 
Q 1497 3097 1228 2736 
Q 959 2375 959 1747 
Q 959 1119 1226 758 
Q 1494 397 1959 397 
Q 2419 397 2687 759 
Q 2956 1122 2956 1747 
Q 2956 2369 2687 2733 
Q 2419 3097 1959 3097 
z
M 1959 3584 
Q 2709 3584 3137 3096 
Q 3566 2609 3566 1747 
Q 3566 888 3137 398 
Q 2709 -91 1959 -91 
Q 1206 -91 779 398 
Q 353 888 353 1747 
Q 353 2609 779 3096 
Q 1206 3584 1959 3584 
z
" transform="scale(0.015625)"/>
       <path id="DejaVuSans-75" d="M 544 1381 
L 544 3500 
L 1119 3500 
L 1119 1403 
Q 1119 906 1312 657 
Q 1506 409 1894 409 
Q 2359 409 2629 706 
Q 2900 1003 2900 1516 
L 2900 3500 
L 3475 3500 
L 3475 0 
L 2900 0 
L 2900 538 
Q 2691 219 2414 64 
Q 2138 -91 1772 -91 
Q 1169 -91 856 284 
Q 544 659 544 1381 
z
M 1991 3584 
L 1991 3584 
z
" transform="scale(0.015625)"/>
       <path id="DejaVuSans-64" d="M 2906 2969 
L 2906 4863 
L 3481 4863 
L 3481 0 
L 2906 0 
L 2906 525 
Q 2725 213 2448 61 
Q 2172 -91 1784 -91 
Q 1150 -91 751 415 
Q 353 922 353 1747 
Q 353 2572 751 3078 
Q 1150 3584 1784 3584 
Q 2172 3584 2448 3432 
Q 2725 3281 2906 2969 
z
M 947 1747 
Q 947 1113 1208 752 
Q 1469 391 1925 391 
Q 2381 391 2643 752 
Q 2906 1113 2906 1747 
Q 2906 2381 2643 2742 
Q 2381 3103 1925 3103 
Q 1469 3103 1208 2742 
Q 947 2381 947 1747 
z
" transform="scale(0.015625)"/>
       <path id="DejaVuSans-28" d="M 1984 4856 
Q 1566 4138 1362 3434 
Q 1159 2731 1159 2009 
Q 1159 1288 1364 580 
Q 1569 -128 1984 -844 
L 1484 -844 
Q 1016 -109 783 600 
Q 550 1309 550 2009 
Q 550 2706 781 3412 
Q 1013 4119 1484 4856 
L 1984 4856 
z
" transform="scale(0.015625)"/>
       <path id="DejaVuSans-29" d="M 513 4856 
L 1013 4856 
Q 1481 4119 1714 3412 
Q 1947 2706 1947 2009 
Q 1947 1309 1714 600 
Q 1481 -109 1013 -844 
L 513 -844 
Q 928 -128 1133 580 
Q 1338 1288 1338 2009 
Q 1338 2731 1133 3434 
Q 928 4138 513 4856 
z
" transform="scale(0.015625)"/>
      </defs>
      <use xlink:href="#DejaVuSans-73"/>
      <use xlink:href="#DejaVuSans-6f" x="52.099609"/>
      <use xlink:href="#DejaVuSans-75" x="113.28125"/>
      <use xlink:href="#DejaVuSans-6e" x="176.660156"/>
      <use xlink:href="#DejaVuSans-64" x="240.039062"/>
      <use xlink:href="#DejaVuSans-20" x="303.515625"/>
      <use xlink:href="#DejaVuSans-6f" x="335.302734"/>
      <use xlink:href="#DejaVuSans-6e" x="396.484375"/>
      <use xlink:href="#DejaVuSans-73" x="459.863281"/>
      <use xlink:href="#DejaVuSans-65" x="511.962891"/>
      <use xlink:href="#DejaVuSans-74" x="573.486328"/>
      <use xlink:href="#DejaVuSans-20" x="612.695312"/>
      <use xlink:href="#DejaVuSans-28" x="644.482422"/>
      <use xlink:href="#DejaVuSans-73" x="683.496094"/>
      <use xlink:href="#DejaVuSans-29" x="735.595703"/>
     </g>
    </g>
   </g>
   <g id="matplotlib.axis_2">
    <g id="ytick_1">
     <g id="line2d_5">
      <defs>
       <path id="m2d04f49fa0" d="M 0 0 
L -3.5 0 
" style="stroke: #000000; stroke-width: 0.8"/>
      </defs>
      <g>
       <use xlink:href="#m2d04f49fa0" x="48.620313" y="149.467375" style="stroke: #000000; stroke-width: 0.8"/>
      </g>
     </g>
     <g id="text_6">
      <!-- 0.3 -->
      <g transform="translate(25.717188 153.266594) scale(0.1 -0.1)">
       <defs>
        <path id="DejaVuSans-2e" d="M 684 794 
L 1344 794 
L 1344 0 
L 684 0 
L 684 794 
z
" transform="scale(0.015625)"/>
        <path id="DejaVuSans-33" d="M 2597 2516 
Q 3050 2419 3304 2112 
Q 3559 1806 3559 1356 
Q 3559 666 3084 287 
Q 2609 -91 1734 -91 
Q 1441 -91 1130 -33 
Q 819 25 488 141 
L 488 750 
Q 750 597 1062 519 
Q 1375 441 1716 441 
Q 2309 441 2620 675 
Q 2931 909 2931 1356 
Q 2931 1769 2642 2001 
Q 2353 2234 1838 2234 
L 1294 2234 
L 1294 2753 
L 1863 2753 
Q 2328 2753 2575 2939 
Q 2822 3125 2822 3475 
Q 2822 3834 2567 4026 
Q 2313 4219 1838 4219 
Q 1578 4219 1281 4162 
Q 984 4106 628 3988 
L 628 4550 
Q 988 4650 1302 4700 
Q 1616 4750 1894 4750 
Q 2613 4750 3031 4423 
Q 3450 4097 3450 3541 
Q 3450 3153 3228 2886 
Q 3006 2619 2597 2516 
z
" transform="scale(0.015625)"/>
       </defs>
       <use xlink:href="#DejaVuSans-30"/>
       <use xlink:href="#DejaVuSans-2e" x="63.623047"/>
       <use xlink:href="#DejaVuSans-33" x="95.410156"/>
      </g>
     </g>
    </g>
    <g id="ytick_2">
     <g id="line2d_6">
      <g>
       <use xlink:href="#m2d04f49fa0" x="48.620313" y="113.443042" style="stroke: #000000; stroke-width: 0.8"/>
      </g>
     </g>
     <g id="text_7">
      <!-- 0.5 -->
      <g transform="translate(25.717188 117.24226) scale(0.1 -0.1)">
       <defs>
        <path id="DejaVuSans-35" d="M 691 4666 
L 3169 4666 
L 3169 4134 
L 1269 4134 
L 1269 2991 
Q 1406 3038 1543 3061 
Q 1681 3084 1819 3084 
Q 2600 3084 3056 2656 
Q 3513 2228 3513 1497 
Q 3513 744 3044 326 
Q 2575 -91 1722 -91 
Q 1428 -91 1123 -41 
Q 819 9 494 109 
L 494 744 
Q 775 591 1075 516 
Q 1375 441 1709 441 
Q 2250 441 2565 725 
Q 2881 1009 2881 1497 
Q 2881 1984 2565 2268 
Q 2250 2553 1709 2553 
Q 1456 2553 1204 2497 
Q 953 2441 691 2322 
L 691 4666 
z
" transform="scale(0.015625)"/>
       </defs>
       <use xlink:href="#DejaVuSans-30"/>
       <use xlink:href="#DejaVuSans-2e" x="63.623047"/>
       <use xlink:href="#DejaVuSans-35" x="95.410156"/>
      </g>
     </g>
    </g>
    <g id="ytick_3">
     <g id="line2d_7">
      <g>
       <use xlink:href="#m2d04f49fa0" x="48.620313" y="77.418708" style="stroke: #000000; stroke-width: 0.8"/>
      </g>
     </g>
     <g id="text_8">
      <!-- 0.7 -->
      <g transform="translate(25.717188 81.217927) scale(0.1 -0.1)">
       <defs>
        <path id="DejaVuSans-37" d="M 525 4666 
L 3525 4666 
L 3525 4397 
L 1831 0 
L 1172 0 
L 2766 4134 
L 525 4134 
L 525 4666 
z
" transform="scale(0.015625)"/>
       </defs>
       <use xlink:href="#DejaVuSans-30"/>
       <use xlink:href="#DejaVuSans-2e" x="63.623047"/>
       <use xlink:href="#DejaVuSans-37" x="95.410156"/>
      </g>
     </g>
    </g>
    <g id="ytick_4">
     <g id="line2d_8">
      <g>
       <use xlink:href="#m2d04f49fa0" x="48.620313" y="41.394375" style="stroke: #000000; stroke-width: 0.8"/>
      </g>
     </g>
     <g id="text_9">
      <!-- 0.9 -->
      <g transform="translate(25.717188 45.193594) scale(0.1 -0.1)">
       <defs>
        <path id="DejaVuSans-39" d="M 703 97 
L 703 672 
Q 941 559 1184 500 
Q 1428 441 1663 441 
Q 2288 441 2617 861 
Q 2947 1281 2994 2138 
Q 2813 1869 2534 1725 
Q 2256 1581 1919 1581 
Q 1219 1581 811 2004 
Q 403 2428 403 3163 
Q 403 3881 828 4315 
Q 1253 4750 1959 4750 
Q 2769 4750 3195 4129 
Q 3622 3509 3622 2328 
Q 3622 1225 3098 567 
Q 2575 -91 1691 -91 
Q 1453 -91 1209 -44 
Q 966 3 703 97 
z
M 1959 2075 
Q 2384 2075 2632 2365 
Q 2881 2656 2881 3163 
Q 2881 3666 2632 3958 
Q 2384 4250 1959 4250 
Q 1534 4250 1286 3958 
Q 1038 3666 1038 3163 
Q 1038 2656 1286 2365 
Q 1534 2075 1959 2075 
z
" transform="scale(0.015625)"/>
       </defs>
       <use xlink:href="#DejaVuSans-30"/>
       <use xlink:href="#DejaVuSans-2e" x="63.623047"/>
       <use xlink:href="#DejaVuSans-39" x="95.410156"/>
      </g>
     </g>
    </g>
    <g id="text_10">
     <!-- Decoding acc -->
     <g transform="translate(18.597656 146.120328) rotate(-90) scale(0.15 -0.15)">
      <defs>
       <path id="DejaVuSans-44" d="M 1259 4147 
L 1259 519 
L 2022 519 
Q 2988 519 3436 956 
Q 3884 1394 3884 2338 
Q 3884 3275 3436 3711 
Q 2988 4147 2022 4147 
L 1259 4147 
z
M 628 4666 
L 1925 4666 
Q 3281 4666 3915 4102 
Q 4550 3538 4550 2338 
Q 4550 1131 3912 565 
Q 3275 0 1925 0 
L 628 0 
L 628 4666 
z
" transform="scale(0.015625)"/>
       <path id="DejaVuSans-67" d="M 2906 1791 
Q 2906 2416 2648 2759 
Q 2391 3103 1925 3103 
Q 1463 3103 1205 2759 
Q 947 2416 947 1791 
Q 947 1169 1205 825 
Q 1463 481 1925 481 
Q 2391 481 2648 825 
Q 2906 1169 2906 1791 
z
M 3481 434 
Q 3481 -459 3084 -895 
Q 2688 -1331 1869 -1331 
Q 1566 -1331 1297 -1286 
Q 1028 -1241 775 -1147 
L 775 -588 
Q 1028 -725 1275 -790 
Q 1522 -856 1778 -856 
Q 2344 -856 2625 -561 
Q 2906 -266 2906 331 
L 2906 616 
Q 2728 306 2450 153 
Q 2172 0 1784 0 
Q 1141 0 747 490 
Q 353 981 353 1791 
Q 353 2603 747 3093 
Q 1141 3584 1784 3584 
Q 2172 3584 2450 3431 
Q 2728 3278 2906 2969 
L 2906 3500 
L 3481 3500 
L 3481 434 
z
" transform="scale(0.015625)"/>
       <path id="DejaVuSans-61" d="M 2194 1759 
Q 1497 1759 1228 1600 
Q 959 1441 959 1056 
Q 959 750 1161 570 
Q 1363 391 1709 391 
Q 2188 391 2477 730 
Q 2766 1069 2766 1631 
L 2766 1759 
L 2194 1759 
z
M 3341 1997 
L 3341 0 
L 2766 0 
L 2766 531 
Q 2569 213 2275 61 
Q 1981 -91 1556 -91 
Q 1019 -91 701 211 
Q 384 513 384 1019 
Q 384 1609 779 1909 
Q 1175 2209 1959 2209 
L 2766 2209 
L 2766 2266 
Q 2766 2663 2505 2880 
Q 2244 3097 1772 3097 
Q 1472 3097 1187 3025 
Q 903 2953 641 2809 
L 641 3341 
Q 956 3463 1253 3523 
Q 1550 3584 1831 3584 
Q 2591 3584 2966 3190 
Q 3341 2797 3341 1997 
z
" transform="scale(0.015625)"/>
      </defs>
      <use xlink:href="#DejaVuSans-44"/>
      <use xlink:href="#DejaVuSans-65" x="77.001953"/>
      <use xlink:href="#DejaVuSans-63" x="138.525391"/>
      <use xlink:href="#DejaVuSans-6f" x="193.505859"/>
      <use xlink:href="#DejaVuSans-64" x="254.6875"/>
      <use xlink:href="#DejaVuSans-69" x="318.164062"/>
      <use xlink:href="#DejaVuSans-6e" x="345.947266"/>
      <use xlink:href="#DejaVuSans-67" x="409.326172"/>
      <use xlink:href="#DejaVuSans-20" x="472.802734"/>
      <use xlink:href="#DejaVuSans-61" x="504.589844"/>
      <use xlink:href="#DejaVuSans-63" x="565.869141"/>
      <use xlink:href="#DejaVuSans-63" x="620.849609"/>
     </g>
    </g>
   </g>
   <g id="line2d_9">
    <path d="M 55.044474 105.205112 
L 56.234134 103.883248 
L 57.423794 103.063395 
L 58.613453 103.795429 
L 59.803113 105.128816 
L 60.992773 105.279759 
L 62.182432 102.189767 
L 63.372092 96.072016 
L 64.561751 89.932924 
L 65.751411 86.202523 
L 66.941071 84.901411 
L 68.13073 84.623183 
L 69.32039 85.699508 
L 70.510049 87.128288 
L 71.699709 87.156714 
L 72.889369 87.657972 
L 74.079028 89.589742 
L 75.268688 91.56617 
L 76.458348 94.009245 
L 77.648007 97.280113 
L 78.837667 100.375526 
L 80.027326 101.838891 
L 81.216986 102.297015 
L 82.406646 102.41836 
L 83.596305 102.092715 
L 84.785965 102.047775 
L 85.975624 102.765515 
L 87.165284 103.016319 
L 88.354944 102.250615 
L 89.544603 101.374032 
L 90.734263 101.315943 
L 91.923923 102.107378 
L 93.113582 103.517743 
L 94.303242 104.693558 
L 95.492901 104.43216 
L 96.682561 103.615584 
L 97.872221 103.372038 
L 99.06188 104.280833 
L 100.25154 105.104128 
L 101.441199 104.368609 
L 102.630859 103.157708 
L 103.820519 102.720512 
L 105.010178 103.285642 
L 106.199838 104.528198 
L 107.389498 105.231097 
L 108.579157 104.925573 
L 109.768817 104.712555 
L 110.958476 104.765548 
L 112.148136 104.84582 
L 113.337796 105.039809 
L 114.527455 104.503241 
L 115.717115 103.556558 
L 116.906775 103.288778 
L 118.096434 103.025626 
L 119.286094 102.297087 
L 120.475753 102.328537 
L 121.665413 103.094482 
L 122.855073 103.995918 
L 124.044732 104.552737 
L 125.234392 104.695347 
L 126.424051 104.898652 
L 127.613711 104.683038 
L 128.803371 103.53044 
L 129.99303 102.686054 
L 131.18269 103.03909 
L 132.37235 103.748698 
L 133.562009 104.241386 
L 134.751669 104.231173 
L 135.941328 103.962741 
L 137.130988 104.335848 
L 138.320648 104.769395 
L 139.510307 104.499593 
L 140.699967 104.320898 
L 141.889626 104.21641 
L 143.079286 103.211219 
L 144.268946 102.936659 
L 145.458605 104.363287 
L 146.648265 105.498538 
L 147.837925 105.608898 
L 149.027584 105.485728 
L 150.217244 105.452602 
L 151.406903 105.308428 
L 152.596563 105.100779 
L 153.786223 104.616707 
L 154.975882 103.964549 
L 156.165542 104.305685 
L 157.355201 105.752468 
L 158.544861 106.581471 
L 159.734521 106.356962 
L 160.92418 106.377553 
L 162.11384 106.808915 
L 163.3035 106.69213 
L 164.493159 105.956557 
L 165.682819 105.266408 
L 166.872478 104.68104 
L 168.062138 104.260801 
L 169.251798 104.035991 
L 170.441457 103.412021 
L 171.631117 102.550143 
L 172.820777 102.244151 
L 174.010436 102.599711 
L 175.200096 103.557467 
L 176.389755 105.004212 
L 177.579415 106.253423 
L 178.769075 105.931065 
L 179.958734 104.782945 
L 181.148394 104.26815 
L 182.338053 104.210044 
L 183.527713 103.508266 
" clip-path="url(#p09b68ecf43)" style="fill: none; stroke: #006633; stroke-width: 1.5; stroke-linecap: square"/>
   </g>
   <g id="line2d_10">
    <path d="M 55.044474 116.475464 
L 56.234134 115.750962 
L 57.423794 115.616696 
L 58.613453 115.630509 
L 59.803113 114.919143 
L 60.992773 113.094395 
L 62.182432 109.827796 
L 63.372092 105.090151 
L 64.561751 99.47562 
L 65.751411 94.349438 
L 66.941071 91.08472 
L 68.13073 89.048323 
L 69.32039 88.252894 
L 70.510049 89.586622 
L 71.699709 91.62628 
L 72.889369 93.724521 
L 74.079028 95.784618 
L 75.268688 97.69667 
L 76.458348 100.518669 
L 77.648007 103.5664 
L 78.837667 106.036365 
L 80.027326 107.625418 
L 81.216986 107.878421 
L 82.406646 106.428833 
L 83.596305 105.670302 
L 84.785965 107.189187 
L 85.975624 109.412006 
L 87.165284 111.816059 
L 88.354944 113.217881 
L 89.544603 112.012228 
L 90.734263 109.651262 
L 91.923923 109.592738 
L 93.113582 111.938748 
L 94.303242 112.505343 
L 95.492901 111.194804 
L 96.682561 111.252294 
L 97.872221 112.54699 
L 99.06188 112.292974 
L 100.25154 111.513731 
L 101.441199 111.149898 
L 102.630859 109.51518 
L 103.820519 108.528428 
L 105.010178 109.331492 
L 106.199838 110.911618 
L 107.389498 112.008762 
L 108.579157 111.871326 
L 109.768817 111.686944 
L 110.958476 111.874217 
L 112.148136 112.311686 
L 113.337796 113.009868 
L 114.527455 113.620191 
L 115.717115 113.99146 
L 116.906775 113.786355 
L 118.096434 112.101441 
L 119.286094 110.22238 
L 120.475753 110.749195 
L 121.665413 112.254126 
L 122.855073 113.770649 
L 124.044732 115.236582 
L 125.234392 114.787457 
L 126.424051 113.338759 
L 127.613711 112.255525 
L 128.803371 111.134621 
L 129.99303 110.269198 
L 131.18269 111.165607 
L 132.37235 113.537661 
L 133.562009 113.952966 
L 134.751669 112.736274 
L 135.941328 112.278319 
L 137.130988 112.799875 
L 138.320648 114.062311 
L 139.510307 115.406706 
L 140.699967 115.842822 
L 141.889626 115.535808 
L 143.079286 115.054408 
L 144.268946 114.648772 
L 145.458605 114.080522 
L 146.648265 112.962328 
L 147.837925 112.990591 
L 149.027584 114.223143 
L 150.217244 114.131159 
L 151.406903 112.650659 
L 152.596563 111.681497 
L 153.786223 111.061487 
L 154.975882 110.679401 
L 156.165542 109.743743 
L 157.355201 107.93199 
L 158.544861 107.96326 
L 159.734521 110.559122 
L 160.92418 114.445204 
L 162.11384 116.334226 
L 163.3035 115.162744 
L 164.493159 113.587573 
L 165.682819 112.294085 
L 166.872478 111.554063 
L 168.062138 110.191187 
L 169.251798 109.475277 
L 170.441457 110.485555 
L 171.631117 111.931949 
L 172.820777 112.895839 
L 174.010436 112.945512 
L 175.200096 112.232183 
L 176.389755 111.651383 
L 177.579415 111.896121 
L 178.769075 112.953721 
L 179.958734 113.488214 
L 181.148394 113.995228 
L 182.338053 115.4203 
L 183.527713 116.613888 
" clip-path="url(#p09b68ecf43)" style="fill: none; stroke: #000000; stroke-width: 1.5; stroke-linecap: square"/>
   </g>
   <g id="LineCollection_1">
    <path d="M 55.044474 113.443042 
L 174.010436 113.443042 
" clip-path="url(#p09b68ecf43)" style="fill: none; stroke-dasharray: 7.4,3.2; stroke-dashoffset: 0; stroke: #808080; stroke-width: 2"/>
   </g>
   <g id="patch_3">
    <path d="M 48.620313 149.467375 
L 48.620313 41.394375 
" style="fill: none; stroke: #000000; stroke-width: 0.8; stroke-linejoin: miter; stroke-linecap: square"/>
   </g>
   <g id="patch_4">
    <path d="M 48.620313 149.467375 
L 189.951875 149.467375 
" style="fill: none; stroke: #000000; stroke-width: 0.8; stroke-linejoin: miter; stroke-linecap: square"/>
   </g>
   <g id="text_11">
    <!-- Stimulus -->
    <g transform="translate(86.698594 18.597656) scale(0.15 -0.15)">
     <defs>
      <path id="DejaVuSans-53" d="M 3425 4513 
L 3425 3897 
Q 3066 4069 2747 4153 
Q 2428 4238 2131 4238 
Q 1616 4238 1336 4038 
Q 1056 3838 1056 3469 
Q 1056 3159 1242 3001 
Q 1428 2844 1947 2747 
L 2328 2669 
Q 3034 2534 3370 2195 
Q 3706 1856 3706 1288 
Q 3706 609 3251 259 
Q 2797 -91 1919 -91 
Q 1588 -91 1214 -16 
Q 841 59 441 206 
L 441 856 
Q 825 641 1194 531 
Q 1563 422 1919 422 
Q 2459 422 2753 634 
Q 3047 847 3047 1241 
Q 3047 1584 2836 1778 
Q 2625 1972 2144 2069 
L 1759 2144 
Q 1053 2284 737 2584 
Q 422 2884 422 3419 
Q 422 4038 858 4394 
Q 1294 4750 2059 4750 
Q 2388 4750 2728 4690 
Q 3069 4631 3425 4513 
z
" transform="scale(0.015625)"/>
      <path id="DejaVuSans-6c" d="M 603 4863 
L 1178 4863 
L 1178 0 
L 603 0 
L 603 4863 
z
" transform="scale(0.015625)"/>
     </defs>
     <use xlink:href="#DejaVuSans-53"/>
     <use xlink:href="#DejaVuSans-74" x="63.476562"/>
     <use xlink:href="#DejaVuSans-69" x="102.685547"/>
     <use xlink:href="#DejaVuSans-6d" x="130.46875"/>
     <use xlink:href="#DejaVuSans-75" x="227.880859"/>
     <use xlink:href="#DejaVuSans-6c" x="291.259766"/>
     <use xlink:href="#DejaVuSans-75" x="319.042969"/>
     <use xlink:href="#DejaVuSans-73" x="382.421875"/>
    </g>
    <!-- Decoding -->
    <g transform="translate(83.823984 35.394375) scale(0.15 -0.15)">
     <use xlink:href="#DejaVuSans-44"/>
     <use xlink:href="#DejaVuSans-65" x="77.001953"/>
     <use xlink:href="#DejaVuSans-63" x="138.525391"/>
     <use xlink:href="#DejaVuSans-6f" x="193.505859"/>
     <use xlink:href="#DejaVuSans-64" x="254.6875"/>
     <use xlink:href="#DejaVuSans-69" x="318.164062"/>
     <use xlink:href="#DejaVuSans-6e" x="345.947266"/>
     <use xlink:href="#DejaVuSans-67" x="409.326172"/>
    </g>
   </g>
  </g>
  <g id="axes_2">
   <g id="patch_5">
    <path d="M 204.251875 149.467375 
L 345.583438 149.467375 
L 345.583438 41.394375 
L 204.251875 41.394375 
z
" style="fill: #ffffff"/>
   </g>
   <g id="PolyCollection_3">
    <defs>
     <path id="m304eb9b026" d="M 210.676037 -112.295344 
L 210.676037 -107.738295 
L 211.960869 -107.872369 
L 213.245702 -109.49265 
L 214.530534 -104.327721 
L 215.815366 -108.07856 
L 217.100199 -105.890282 
L 218.385031 -105.781314 
L 219.669864 -105.239465 
L 220.954696 -104.866795 
L 222.239528 -103.359239 
L 223.524361 -106.180237 
L 224.809193 -109.305699 
L 226.094026 -106.666968 
L 227.378858 -107.121112 
L 228.66369 -106.054128 
L 229.948523 -107.113999 
L 231.233355 -108.182163 
L 232.518188 -106.751088 
L 233.80302 -106.726916 
L 235.087852 -108.407359 
L 236.372685 -106.162753 
L 237.657517 -108.4344 
L 238.942349 -109.691371 
L 240.227182 -110.982015 
L 241.512014 -108.714969 
L 242.796847 -111.582483 
L 244.081679 -110.997181 
L 245.366511 -107.119689 
L 246.651344 -106.384483 
L 247.936176 -107.712545 
L 249.221009 -109.851497 
L 250.505841 -107.593574 
L 251.790673 -106.312616 
L 253.075506 -109.853303 
L 254.360338 -107.313514 
L 255.64517 -102.463116 
L 256.930003 -107.12499 
L 258.214835 -107.399049 
L 259.499668 -106.736714 
L 260.7845 -106.966176 
L 262.069332 -105.816489 
L 263.354165 -103.273814 
L 264.638997 -104.61571 
L 265.92383 -103.205063 
L 267.208662 -102.94453 
L 268.493494 -102.214365 
L 269.778327 -105.310556 
L 271.063159 -104.784258 
L 272.347991 -103.990445 
L 273.632824 -103.881045 
L 274.917656 -105.311942 
L 276.202489 -107.61341 
L 277.487321 -102.314751 
L 278.772153 -106.728335 
L 280.056986 -105.035995 
L 281.341818 -102.462094 
L 282.626651 -102.098491 
L 283.911483 -103.654411 
L 285.196315 -105.388002 
L 286.481148 -105.462425 
L 287.76598 -102.980728 
L 289.050813 -106.674621 
L 290.335645 -107.893338 
L 291.620477 -106.823184 
L 292.90531 -106.011072 
L 294.190142 -110.119344 
L 295.474974 -110.365372 
L 296.759807 -111.202319 
L 298.044639 -108.737133 
L 299.329472 -104.836868 
L 300.614304 -113.732154 
L 301.899136 -107.112275 
L 303.183969 -110.205405 
L 304.468801 -114.916047 
L 305.753634 -111.523765 
L 307.038466 -112.651941 
L 308.323298 -107.822883 
L 309.608131 -106.609329 
L 310.892963 -108.16029 
L 312.177795 -110.690796 
L 313.462628 -108.032224 
L 314.74746 -107.321274 
L 316.032293 -109.207816 
L 317.317125 -110.825757 
L 318.601957 -106.244982 
L 319.88679 -106.651915 
L 321.171622 -107.476665 
L 322.456455 -111.030155 
L 323.741287 -109.684698 
L 325.026119 -113.245233 
L 325.026119 -117.802283 
L 325.026119 -117.802283 
L 323.741287 -114.241747 
L 322.456455 -115.587205 
L 321.171622 -112.033715 
L 319.88679 -111.208965 
L 318.601957 -110.802031 
L 317.317125 -115.382807 
L 316.032293 -113.764866 
L 314.74746 -111.878323 
L 313.462628 -112.589274 
L 312.177795 -115.247846 
L 310.892963 -112.71734 
L 309.608131 -111.166378 
L 308.323298 -112.379933 
L 307.038466 -117.208991 
L 305.753634 -116.080815 
L 304.468801 -119.473097 
L 303.183969 -114.762455 
L 301.899136 -111.669324 
L 300.614304 -118.289203 
L 299.329472 -109.393917 
L 298.044639 -113.294183 
L 296.759807 -115.759369 
L 295.474974 -114.922422 
L 294.190142 -114.676393 
L 292.90531 -110.568121 
L 291.620477 -111.380234 
L 290.335645 -112.450388 
L 289.050813 -111.23167 
L 287.76598 -107.537778 
L 286.481148 -110.019474 
L 285.196315 -109.945052 
L 283.911483 -108.211461 
L 282.626651 -106.655541 
L 281.341818 -107.019144 
L 280.056986 -109.593044 
L 278.772153 -111.285385 
L 277.487321 -106.871801 
L 276.202489 -112.170459 
L 274.917656 -109.868991 
L 273.632824 -108.438094 
L 272.347991 -108.547495 
L 271.063159 -109.341308 
L 269.778327 -109.867605 
L 268.493494 -106.771414 
L 267.208662 -107.50158 
L 265.92383 -107.762113 
L 264.638997 -109.17276 
L 263.354165 -107.830864 
L 262.069332 -110.373538 
L 260.7845 -111.523226 
L 259.499668 -111.293763 
L 258.214835 -111.956099 
L 256.930003 -111.68204 
L 255.64517 -107.020165 
L 254.360338 -111.870564 
L 253.075506 -114.410352 
L 251.790673 -110.869665 
L 250.505841 -112.150624 
L 249.221009 -114.408547 
L 247.936176 -112.269594 
L 246.651344 -110.941533 
L 245.366511 -111.676739 
L 244.081679 -115.554231 
L 242.796847 -116.139532 
L 241.512014 -113.272019 
L 240.227182 -115.539064 
L 238.942349 -114.24842 
L 237.657517 -112.991449 
L 236.372685 -110.719803 
L 235.087852 -112.964408 
L 233.80302 -111.283966 
L 232.518188 -111.308137 
L 231.233355 -112.739212 
L 229.948523 -111.671049 
L 228.66369 -110.611178 
L 227.378858 -111.678161 
L 226.094026 -111.224017 
L 224.809193 -113.862749 
L 223.524361 -110.737287 
L 222.239528 -107.916289 
L 220.954696 -109.423845 
L 219.669864 -109.796514 
L 218.385031 -110.338363 
L 217.100199 -110.447332 
L 215.815366 -112.63561 
L 214.530534 -108.884771 
L 213.245702 -114.0497 
L 211.960869 -112.429419 
L 210.676037 -112.295344 
z
" style="stroke: #006633; stroke-opacity: 0.5"/>
    </defs>
    <g clip-path="url(#p47b3d8e924)">
     <use xlink:href="#m304eb9b026" x="0" y="208.659406" style="fill: #006633; fill-opacity: 0.5; stroke: #006633; stroke-opacity: 0.5"/>
    </g>
   </g>
   <g id="PolyCollection_4">
    <defs>
     <path id="ma791dda04f" d="M 210.676037 -104.34148 
L 210.676037 -96.71033 
L 211.960869 -94.960534 
L 213.245702 -97.607436 
L 214.530534 -96.528105 
L 215.815366 -96.072592 
L 217.100199 -99.793541 
L 218.385031 -98.234756 
L 219.669864 -99.35665 
L 220.954696 -102.130699 
L 222.239528 -99.16411 
L 223.524361 -97.610844 
L 224.809193 -98.124825 
L 226.094026 -100.702642 
L 227.378858 -97.664317 
L 228.66369 -97.884041 
L 229.948523 -97.987972 
L 231.233355 -99.92956 
L 232.518188 -99.636151 
L 233.80302 -97.910404 
L 235.087852 -99.253178 
L 236.372685 -98.826321 
L 237.657517 -102.155382 
L 238.942349 -100.80713 
L 240.227182 -100.069155 
L 241.512014 -98.0223 
L 242.796847 -97.444932 
L 244.081679 -97.860331 
L 245.366511 -96.660493 
L 246.651344 -102.991951 
L 247.936176 -94.746699 
L 249.221009 -100.462853 
L 250.505841 -97.980027 
L 251.790673 -100.90485 
L 253.075506 -99.822728 
L 254.360338 -99.557331 
L 255.64517 -99.34104 
L 256.930003 -104.181564 
L 258.214835 -100.580127 
L 259.499668 -99.492559 
L 260.7845 -102.047364 
L 262.069332 -101.078512 
L 263.354165 -101.900789 
L 264.638997 -96.323984 
L 265.92383 -98.988819 
L 267.208662 -99.052603 
L 268.493494 -94.537066 
L 269.778327 -98.649456 
L 271.063159 -101.26435 
L 272.347991 -98.366577 
L 273.632824 -99.856237 
L 274.917656 -99.455705 
L 276.202489 -96.799985 
L 277.487321 -97.919125 
L 278.772153 -94.697342 
L 280.056986 -96.269994 
L 281.341818 -97.076927 
L 282.626651 -97.469357 
L 283.911483 -95.935687 
L 285.196315 -97.157357 
L 286.481148 -94.13933 
L 287.76598 -96.478645 
L 289.050813 -97.400486 
L 290.335645 -101.453213 
L 291.620477 -98.448243 
L 292.90531 -98.48868 
L 294.190142 -99.714867 
L 295.474974 -98.083334 
L 296.759807 -100.138151 
L 298.044639 -99.385857 
L 299.329472 -97.289048 
L 300.614304 -100.973954 
L 301.899136 -101.066672 
L 303.183969 -99.207738 
L 304.468801 -102.354755 
L 305.753634 -105.123273 
L 307.038466 -103.026639 
L 308.323298 -102.872917 
L 309.608131 -99.427983 
L 310.892963 -103.202063 
L 312.177795 -103.259319 
L 313.462628 -104.377489 
L 314.74746 -104.124671 
L 316.032293 -100.279946 
L 317.317125 -101.61812 
L 318.601957 -99.221634 
L 319.88679 -99.622394 
L 321.171622 -97.599816 
L 322.456455 -101.456461 
L 323.741287 -97.666226 
L 325.026119 -97.745754 
L 325.026119 -105.376904 
L 325.026119 -105.376904 
L 323.741287 -105.297375 
L 322.456455 -109.087611 
L 321.171622 -105.230966 
L 319.88679 -107.253544 
L 318.601957 -106.852784 
L 317.317125 -109.24927 
L 316.032293 -107.911096 
L 314.74746 -111.755821 
L 313.462628 -112.008639 
L 312.177795 -110.890469 
L 310.892963 -110.833213 
L 309.608131 -107.059132 
L 308.323298 -110.504067 
L 307.038466 -110.657789 
L 305.753634 -112.754423 
L 304.468801 -109.985904 
L 303.183969 -106.838888 
L 301.899136 -108.697822 
L 300.614304 -108.605103 
L 299.329472 -104.920198 
L 298.044639 -107.017007 
L 296.759807 -107.769301 
L 295.474974 -105.714484 
L 294.190142 -107.346017 
L 292.90531 -106.11983 
L 291.620477 -106.079393 
L 290.335645 -109.084363 
L 289.050813 -105.031636 
L 287.76598 -104.109795 
L 286.481148 -101.770479 
L 285.196315 -104.788507 
L 283.911483 -103.566837 
L 282.626651 -105.100507 
L 281.341818 -104.708077 
L 280.056986 -103.901144 
L 278.772153 -102.328492 
L 277.487321 -105.550275 
L 276.202489 -104.431135 
L 274.917656 -107.086854 
L 273.632824 -107.487387 
L 272.347991 -105.997727 
L 271.063159 -108.8955 
L 269.778327 -106.280606 
L 268.493494 -102.168216 
L 267.208662 -106.683753 
L 265.92383 -106.619969 
L 264.638997 -103.955133 
L 263.354165 -109.531939 
L 262.069332 -108.709662 
L 260.7845 -109.678514 
L 259.499668 -107.123709 
L 258.214835 -108.211277 
L 256.930003 -111.812714 
L 255.64517 -106.97219 
L 254.360338 -107.188481 
L 253.075506 -107.453878 
L 251.790673 -108.536 
L 250.505841 -105.611177 
L 249.221009 -108.094003 
L 247.936176 -102.377849 
L 246.651344 -110.623101 
L 245.366511 -104.291642 
L 244.081679 -105.491481 
L 242.796847 -105.076082 
L 241.512014 -105.65345 
L 240.227182 -107.700305 
L 238.942349 -108.43828 
L 237.657517 -109.786532 
L 236.372685 -106.457471 
L 235.087852 -106.884328 
L 233.80302 -105.541554 
L 232.518188 -107.267301 
L 231.233355 -107.56071 
L 229.948523 -105.619122 
L 228.66369 -105.51519 
L 227.378858 -105.295467 
L 226.094026 -108.333792 
L 224.809193 -105.755975 
L 223.524361 -105.241994 
L 222.239528 -106.79526 
L 220.954696 -109.761849 
L 219.669864 -106.9878 
L 218.385031 -105.865906 
L 217.100199 -107.42469 
L 215.815366 -103.703742 
L 214.530534 -104.159254 
L 213.245702 -105.238586 
L 211.960869 -102.591683 
L 210.676037 -104.34148 
z
" style="stroke: #000000; stroke-opacity: 0.5"/>
    </defs>
    <g clip-path="url(#p47b3d8e924)">
     <use xlink:href="#ma791dda04f" x="0" y="208.659406" style="fill-opacity: 0.5; stroke: #000000; stroke-opacity: 0.5"/>
    </g>
   </g>
   <g id="matplotlib.axis_3">
    <g id="xtick_5">
     <g id="line2d_11">
      <g>
       <use xlink:href="#m36ce0276ee" x="210.676037" y="149.467375" style="stroke: #000000; stroke-width: 0.8"/>
      </g>
     </g>
     <g id="text_12">
      <!-- -3 -->
      <g transform="translate(205.690881 164.065812) scale(0.1 -0.1)">
       <defs>
        <path id="DejaVuSans-2d" d="M 313 2009 
L 1997 2009 
L 1997 1497 
L 313 1497 
L 313 2009 
z
" transform="scale(0.015625)"/>
       </defs>
       <use xlink:href="#DejaVuSans-2d"/>
       <use xlink:href="#DejaVuSans-33" x="36.083984"/>
      </g>
     </g>
    </g>
    <g id="xtick_6">
     <g id="line2d_12">
      <g>
       <use xlink:href="#m36ce0276ee" x="229.948523" y="149.467375" style="stroke: #000000; stroke-width: 0.8"/>
      </g>
     </g>
     <g id="text_13">
      <!-- -2 -->
      <g transform="translate(224.963366 164.065812) scale(0.1 -0.1)">
       <use xlink:href="#DejaVuSans-2d"/>
       <use xlink:href="#DejaVuSans-32" x="36.083984"/>
      </g>
     </g>
    </g>
    <g id="xtick_7">
     <g id="line2d_13">
      <g>
       <use xlink:href="#m36ce0276ee" x="249.221009" y="149.467375" style="stroke: #000000; stroke-width: 0.8"/>
      </g>
     </g>
     <g id="text_14">
      <!-- -1 -->
      <g transform="translate(244.235852 164.065812) scale(0.1 -0.1)">
       <defs>
        <path id="DejaVuSans-31" d="M 794 531 
L 1825 531 
L 1825 4091 
L 703 3866 
L 703 4441 
L 1819 4666 
L 2450 4666 
L 2450 531 
L 3481 531 
L 3481 0 
L 794 0 
L 794 531 
z
" transform="scale(0.015625)"/>
       </defs>
       <use xlink:href="#DejaVuSans-2d"/>
       <use xlink:href="#DejaVuSans-31" x="36.083984"/>
      </g>
     </g>
    </g>
    <g id="xtick_8">
     <g id="line2d_14">
      <g>
       <use xlink:href="#m36ce0276ee" x="268.493494" y="149.467375" style="stroke: #000000; stroke-width: 0.8"/>
      </g>
     </g>
     <g id="text_15">
      <!-- 0 -->
      <g transform="translate(265.312244 164.065812) scale(0.1 -0.1)">
       <use xlink:href="#DejaVuSans-30"/>
      </g>
     </g>
    </g>
    <g id="xtick_9">
     <g id="line2d_15">
      <g>
       <use xlink:href="#m36ce0276ee" x="287.76598" y="149.467375" style="stroke: #000000; stroke-width: 0.8"/>
      </g>
     </g>
     <g id="text_16">
      <!-- 1 -->
      <g transform="translate(284.58473 164.065812) scale(0.1 -0.1)">
       <use xlink:href="#DejaVuSans-31"/>
      </g>
     </g>
    </g>
    <g id="xtick_10">
     <g id="line2d_16">
      <g>
       <use xlink:href="#m36ce0276ee" x="307.038466" y="149.467375" style="stroke: #000000; stroke-width: 0.8"/>
      </g>
     </g>
     <g id="text_17">
      <!-- 2 -->
      <g transform="translate(303.857216 164.065812) scale(0.1 -0.1)">
       <use xlink:href="#DejaVuSans-32"/>
      </g>
     </g>
    </g>
    <g id="xtick_11">
     <g id="line2d_17">
      <g>
       <use xlink:href="#m36ce0276ee" x="326.310952" y="149.467375" style="stroke: #000000; stroke-width: 0.8"/>
      </g>
     </g>
     <g id="text_18">
      <!-- 3 -->
      <g transform="translate(323.129702 164.065812) scale(0.1 -0.1)">
       <use xlink:href="#DejaVuSans-33"/>
      </g>
     </g>
    </g>
    <g id="text_19">
     <!-- time since -->
     <g transform="translate(236.1075 181.543156) scale(0.15 -0.15)">
      <use xlink:href="#DejaVuSans-74"/>
      <use xlink:href="#DejaVuSans-69" x="39.208984"/>
      <use xlink:href="#DejaVuSans-6d" x="66.992188"/>
      <use xlink:href="#DejaVuSans-65" x="164.404297"/>
      <use xlink:href="#DejaVuSans-20" x="225.927734"/>
      <use xlink:href="#DejaVuSans-73" x="257.714844"/>
      <use xlink:href="#DejaVuSans-69" x="309.814453"/>
      <use xlink:href="#DejaVuSans-6e" x="337.597656"/>
      <use xlink:href="#DejaVuSans-63" x="400.976562"/>
      <use xlink:href="#DejaVuSans-65" x="455.957031"/>
     </g>
     <!-- turn onset (s) -->
     <g transform="translate(224.188359 198.339875) scale(0.15 -0.15)">
      <defs>
       <path id="DejaVuSans-72" d="M 2631 2963 
Q 2534 3019 2420 3045 
Q 2306 3072 2169 3072 
Q 1681 3072 1420 2755 
Q 1159 2438 1159 1844 
L 1159 0 
L 581 0 
L 581 3500 
L 1159 3500 
L 1159 2956 
Q 1341 3275 1631 3429 
Q 1922 3584 2338 3584 
Q 2397 3584 2469 3576 
Q 2541 3569 2628 3553 
L 2631 2963 
z
" transform="scale(0.015625)"/>
      </defs>
      <use xlink:href="#DejaVuSans-74"/>
      <use xlink:href="#DejaVuSans-75" x="39.208984"/>
      <use xlink:href="#DejaVuSans-72" x="102.587891"/>
      <use xlink:href="#DejaVuSans-6e" x="141.951172"/>
      <use xlink:href="#DejaVuSans-20" x="205.330078"/>
      <use xlink:href="#DejaVuSans-6f" x="237.117188"/>
      <use xlink:href="#DejaVuSans-6e" x="298.298828"/>
      <use xlink:href="#DejaVuSans-73" x="361.677734"/>
      <use xlink:href="#DejaVuSans-65" x="413.777344"/>
      <use xlink:href="#DejaVuSans-74" x="475.300781"/>
      <use xlink:href="#DejaVuSans-20" x="514.509766"/>
      <use xlink:href="#DejaVuSans-28" x="546.296875"/>
      <use xlink:href="#DejaVuSans-73" x="585.310547"/>
      <use xlink:href="#DejaVuSans-29" x="637.410156"/>
     </g>
    </g>
   </g>
   <g id="matplotlib.axis_4">
    <g id="ytick_5">
     <g id="line2d_18">
      <g>
       <use xlink:href="#m2d04f49fa0" x="204.251875" y="149.467375" style="stroke: #000000; stroke-width: 0.8"/>
      </g>
     </g>
    </g>
    <g id="ytick_6">
     <g id="line2d_19">
      <g>
       <use xlink:href="#m2d04f49fa0" x="204.251875" y="113.443042" style="stroke: #000000; stroke-width: 0.8"/>
      </g>
     </g>
    </g>
    <g id="ytick_7">
     <g id="line2d_20">
      <g>
       <use xlink:href="#m2d04f49fa0" x="204.251875" y="77.418708" style="stroke: #000000; stroke-width: 0.8"/>
      </g>
     </g>
    </g>
    <g id="ytick_8">
     <g id="line2d_21">
      <g>
       <use xlink:href="#m2d04f49fa0" x="204.251875" y="41.394375" style="stroke: #000000; stroke-width: 0.8"/>
      </g>
     </g>
    </g>
   </g>
   <g id="line2d_22">
    <path d="M 210.676037 99.041149 
L 211.960869 98.84822 
L 213.245702 99.176777 
L 214.530534 99.535579 
L 215.815366 99.417213 
L 217.100199 99.213982 
L 218.385031 99.84994 
L 219.669864 101.229939 
L 220.954696 101.557981 
L 222.239528 101.10583 
L 223.524361 100.780795 
L 224.809193 100.341446 
L 226.094026 99.36445 
L 227.378858 98.555028 
L 228.66369 98.71219 
L 229.948523 99.276677 
L 231.233355 99.359094 
L 232.518188 99.028833 
L 233.80302 98.74948 
L 235.087852 98.586059 
L 236.372685 98.638377 
L 237.657517 98.550067 
L 238.942349 98.271878 
L 240.227182 98.208021 
L 241.512014 97.432977 
L 242.796847 96.575983 
L 244.081679 96.586586 
L 245.366511 97.23472 
L 246.651344 98.112982 
L 247.936176 98.595887 
L 249.221009 98.235349 
L 250.505841 98.158346 
L 251.790673 98.92378 
L 253.075506 99.731009 
L 254.360338 99.853278 
L 255.64517 99.809639 
L 256.930003 99.810252 
L 258.214835 99.742709 
L 259.499668 99.861671 
L 260.7845 100.438835 
L 262.069332 100.409725 
L 263.354165 100.220928 
L 264.638997 100.957408 
L 265.92383 101.907419 
L 267.208662 102.118897 
L 268.493494 101.994546 
L 269.778327 102.088827 
L 271.063159 101.877889 
L 272.347991 101.583709 
L 273.632824 101.474949 
L 274.917656 101.172519 
L 276.202489 100.653598 
L 277.487321 100.095378 
L 278.772153 99.998338 
L 280.056986 100.164582 
L 281.341818 100.477802 
L 282.626651 100.678759 
L 283.911483 100.921288 
L 285.196315 101.616458 
L 286.481148 101.8301 
L 287.76598 101.87108 
L 289.050813 102.357772 
L 290.335645 101.808096 
L 291.620477 100.29104 
L 292.90531 99.302354 
L 294.190142 98.494035 
L 295.474974 96.952305 
L 296.759807 95.560557 
L 298.044639 95.735688 
L 299.329472 96.764685 
L 300.614304 96.981495 
L 301.899136 96.509082 
L 303.183969 96.255086 
L 304.468801 96.121072 
L 305.753634 95.123837 
L 307.038466 94.046843 
L 308.323298 94.645154 
L 309.608131 96.90624 
L 310.892963 98.568604 
L 312.177795 98.376442 
L 313.462628 97.661281 
L 314.74746 97.569413 
L 316.032293 97.298993 
L 317.317125 97.253916 
L 318.601957 97.66069 
L 319.88679 97.710986 
L 321.171622 97.711308 
L 322.456455 97.58027 
L 323.741287 96.984266 
L 325.026119 96.571666 
" clip-path="url(#p47b3d8e924)" style="fill: none; stroke: #006633; stroke-width: 1.5; stroke-linecap: square"/>
   </g>
   <g id="line2d_23">
    <path d="M 210.676037 108.475074 
L 211.960869 111.005206 
L 213.245702 111.701461 
L 214.530534 109.193457 
L 215.815366 106.909317 
L 217.100199 106.151923 
L 218.385031 104.549327 
L 219.669864 103.185214 
L 220.954696 104.15025 
L 222.239528 106.461937 
L 223.524361 107.4542 
L 224.809193 105.631873 
L 226.094026 104.054865 
L 227.378858 106.076676 
L 228.66369 108.58655 
L 229.948523 107.185687 
L 231.233355 104.352414 
L 232.518188 103.863233 
L 233.80302 103.697371 
L 235.087852 103.010208 
L 236.372685 103.599543 
L 237.657517 104.986699 
L 238.942349 106.276344 
L 240.227182 106.843222 
L 241.512014 106.076914 
L 242.796847 105.062992 
L 244.081679 105.246338 
L 245.366511 106.845696 
L 246.651344 107.580292 
L 247.936176 106.704611 
L 249.221009 105.553244 
L 250.505841 104.551205 
L 251.790673 103.526295 
L 253.075506 102.065106 
L 254.360338 101.90568 
L 255.64517 103.46986 
L 256.930003 104.713815 
L 258.214835 104.705573 
L 259.499668 103.942149 
L 260.7845 104.049657 
L 262.069332 103.232069 
L 263.354165 101.985758 
L 264.638997 103.819004 
L 265.92383 108.305512 
L 267.208662 109.724113 
L 268.493494 107.706337 
L 269.778327 106.426633 
L 271.063159 106.142204 
L 272.347991 106.022724 
L 273.632824 106.317364 
L 274.917656 106.795525 
L 276.202489 106.803648 
L 277.487321 106.721186 
L 278.772153 106.871743 
L 280.056986 107.793591 
L 281.341818 108.315668 
L 282.626651 108.915857 
L 283.911483 109.354129 
L 285.196315 109.423662 
L 286.481148 109.45873 
L 287.76598 108.584124 
L 289.050813 106.999349 
L 290.335645 106.81152 
L 291.620477 106.364255 
L 292.90531 104.561277 
L 294.190142 104.062838 
L 295.474974 105.227433 
L 296.759807 105.930101 
L 298.044639 105.640456 
L 299.329472 104.232125 
L 300.614304 102.957111 
L 301.899136 103.541561 
L 303.183969 103.570726 
L 304.468801 100.983605 
L 305.753634 100.478424 
L 307.038466 103.093645 
L 308.323298 104.837772 
L 309.608131 104.084013 
L 310.892963 102.543425 
L 312.177795 101.296761 
L 313.462628 100.776606 
L 314.74746 99.986546 
L 316.032293 100.90803 
L 317.317125 103.483643 
L 318.601957 104.96656 
L 319.88679 105.838643 
L 321.171622 106.1298 
L 322.456455 106.41962 
L 323.741287 105.98109 
L 325.026119 104.622695 
" clip-path="url(#p47b3d8e924)" style="fill: none; stroke: #000000; stroke-width: 1.5; stroke-linecap: square"/>
   </g>
   <g id="LineCollection_2">
    <path d="M 210.676037 113.443042 
L 339.159276 113.443042 
" clip-path="url(#p47b3d8e924)" style="fill: none; stroke-dasharray: 7.4,3.2; stroke-dashoffset: 0; stroke: #808080; stroke-width: 2"/>
   </g>
   <g id="patch_6">
    <path d="M 204.251875 149.467375 
L 204.251875 41.394375 
" style="fill: none; stroke: #000000; stroke-width: 0.8; stroke-linejoin: miter; stroke-linecap: square"/>
   </g>
   <g id="patch_7">
    <path d="M 204.251875 149.467375 
L 345.583438 149.467375 
" style="fill: none; stroke: #000000; stroke-width: 0.8; stroke-linejoin: miter; stroke-linecap: square"/>
   </g>
   <g id="text_20">
    <!-- Choice -->
    <g transform="translate(249.516094 18.597656) scale(0.15 -0.15)">
     <defs>
      <path id="DejaVuSans-43" d="M 4122 4306 
L 4122 3641 
Q 3803 3938 3442 4084 
Q 3081 4231 2675 4231 
Q 1875 4231 1450 3742 
Q 1025 3253 1025 2328 
Q 1025 1406 1450 917 
Q 1875 428 2675 428 
Q 3081 428 3442 575 
Q 3803 722 4122 1019 
L 4122 359 
Q 3791 134 3420 21 
Q 3050 -91 2638 -91 
Q 1578 -91 968 557 
Q 359 1206 359 2328 
Q 359 3453 968 4101 
Q 1578 4750 2638 4750 
Q 3056 4750 3426 4639 
Q 3797 4528 4122 4306 
z
" transform="scale(0.015625)"/>
      <path id="DejaVuSans-68" d="M 3513 2113 
L 3513 0 
L 2938 0 
L 2938 2094 
Q 2938 2591 2744 2837 
Q 2550 3084 2163 3084 
Q 1697 3084 1428 2787 
Q 1159 2491 1159 1978 
L 1159 0 
L 581 0 
L 581 4863 
L 1159 4863 
L 1159 2956 
Q 1366 3272 1645 3428 
Q 1925 3584 2291 3584 
Q 2894 3584 3203 3211 
Q 3513 2838 3513 2113 
z
" transform="scale(0.015625)"/>
     </defs>
     <use xlink:href="#DejaVuSans-43"/>
     <use xlink:href="#DejaVuSans-68" x="69.824219"/>
     <use xlink:href="#DejaVuSans-6f" x="133.203125"/>
     <use xlink:href="#DejaVuSans-69" x="194.384766"/>
     <use xlink:href="#DejaVuSans-63" x="222.167969"/>
     <use xlink:href="#DejaVuSans-65" x="277.148438"/>
    </g>
    <!-- Decoding -->
    <g transform="translate(239.455547 35.394375) scale(0.15 -0.15)">
     <use xlink:href="#DejaVuSans-44"/>
     <use xlink:href="#DejaVuSans-65" x="77.001953"/>
     <use xlink:href="#DejaVuSans-63" x="138.525391"/>
     <use xlink:href="#DejaVuSans-6f" x="193.505859"/>
     <use xlink:href="#DejaVuSans-64" x="254.6875"/>
     <use xlink:href="#DejaVuSans-69" x="318.164062"/>
     <use xlink:href="#DejaVuSans-6e" x="345.947266"/>
     <use xlink:href="#DejaVuSans-67" x="409.326172"/>
    </g>
   </g>
  </g>
 </g>
 <defs>
  <clipPath id="p09b68ecf43">
   <rect x="48.620313" y="41.394375" width="141.331563" height="108.073"/>
  </clipPath>
  <clipPath id="p47b3d8e924">
   <rect x="204.251875" y="41.394375" width="141.331563" height="108.073"/>
  </clipPath>
 </defs>
</svg>
