<?xml version="1.0" encoding="utf-8" standalone="no"?>
<!DOCTYPE svg PUBLIC "-//W3C//DTD SVG 1.1//EN"
  "http://www.w3.org/Graphics/SVG/1.1/DTD/svg11.dtd">
<svg xmlns:xlink="http://www.w3.org/1999/xlink" width="352.783437pt" height="208.659406pt" viewBox="0 0 352.783437 208.659406" xmlns="http://www.w3.org/2000/svg" version="1.1">
 <metadata>
  <rdf:RDF xmlns:dc="http://purl.org/dc/elements/1.1/" xmlns:cc="http://creativecommons.org/ns#" xmlns:rdf="http://www.w3.org/1999/02/22-rdf-syntax-ns#">
   <cc:Work>
    <dc:type rdf:resource="http://purl.org/dc/dcmitype/StillImage"/>
    <dc:date>2024-03-17T22:29:05.107607</dc:date>
    <dc:format>image/svg+xml</dc:format>
    <dc:creator>
     <cc:Agent>
      <dc:title>Matplotlib v3.8.0, https://matplotlib.org/</dc:title>
     </cc:Agent>
    </dc:creator>
   </cc:Work>
  </rdf:RDF>
 </metadata>
 <defs>
  <style type="text/css">*{stroke-linejoin: round; stroke-linecap: butt}</style>
 </defs>
 <g id="figure_1">
  <g id="patch_1">
   <path d="M 0 208.659406 
L 352.783437 208.659406 
L 352.783437 0 
L 0 0 
z
" style="fill: #ffffff"/>
  </g>
  <g id="axes_1">
   <g id="patch_2">
    <path d="M 48.620313 149.467375 
L 189.951875 149.467375 
L 189.951875 41.394375 
L 48.620313 41.394375 
z
" style="fill: #ffffff"/>
   </g>
   <g id="PolyCollection_1">
    <defs>
     <path id="m390ce0bd50" d="M 55.044474 -105.483124 
L 55.044474 -99.569712 
L 56.234134 -98.415072 
L 57.423794 -95.90919 
L 58.613453 -94.801756 
L 59.803113 -97.332616 
L 60.992773 -96.650208 
L 62.182432 -93.514851 
L 63.372092 -96.490527 
L 64.561751 -96.797017 
L 65.751411 -95.054124 
L 66.941071 -93.919076 
L 68.13073 -92.356132 
L 69.32039 -91.135276 
L 70.510049 -94.573371 
L 71.699709 -93.465857 
L 72.889369 -94.309116 
L 74.079028 -98.044781 
L 75.268688 -97.437629 
L 76.458348 -97.822808 
L 77.648007 -98.06183 
L 78.837667 -100.277514 
L 80.027326 -100.465064 
L 81.216986 -99.050188 
L 82.406646 -98.285598 
L 83.596305 -94.302949 
L 84.785965 -97.819963 
L 85.975624 -98.090345 
L 87.165284 -99.226626 
L 88.354944 -101.176109 
L 89.544603 -96.251517 
L 90.734263 -99.612966 
L 91.923923 -100.823917 
L 93.113582 -99.595844 
L 94.303242 -98.024179 
L 95.492901 -101.290656 
L 96.682561 -100.568865 
L 97.872221 -99.080355 
L 99.06188 -101.343282 
L 100.25154 -102.363906 
L 101.441199 -101.283323 
L 102.630859 -102.445242 
L 103.820519 -101.391566 
L 105.010178 -100.770285 
L 106.199838 -99.797782 
L 107.389498 -101.577004 
L 108.579157 -102.266337 
L 109.768817 -103.5868 
L 110.958476 -102.466356 
L 112.148136 -103.601974 
L 113.337796 -101.777284 
L 114.527455 -102.217289 
L 115.717115 -103.283326 
L 116.906775 -101.957232 
L 118.096434 -104.821513 
L 119.286094 -104.532905 
L 120.475753 -104.492386 
L 121.665413 -104.614571 
L 122.855073 -106.789358 
L 124.044732 -102.577476 
L 125.234392 -99.33248 
L 126.424051 -102.190752 
L 127.613711 -101.40641 
L 128.803371 -100.584905 
L 129.99303 -99.982844 
L 131.18269 -100.914907 
L 132.37235 -101.909261 
L 133.562009 -100.894661 
L 134.751669 -105.065952 
L 135.941328 -100.017554 
L 137.130988 -100.089848 
L 138.320648 -97.651221 
L 139.510307 -101.027525 
L 140.699967 -97.324331 
L 141.889626 -99.033775 
L 143.079286 -98.915394 
L 144.268946 -97.768621 
L 145.458605 -100.894432 
L 146.648265 -99.467038 
L 147.837925 -99.75229 
L 149.027584 -96.559623 
L 150.217244 -99.741862 
L 151.406903 -99.155023 
L 152.596563 -99.785424 
L 153.786223 -100.200656 
L 154.975882 -97.332101 
L 156.165542 -98.104133 
L 157.355201 -100.223918 
L 158.544861 -95.432661 
L 159.734521 -101.843498 
L 160.92418 -100.627313 
L 162.11384 -99.758331 
L 163.3035 -100.016905 
L 164.493159 -98.071386 
L 165.682819 -99.143099 
L 166.872478 -101.612195 
L 168.062138 -102.38901 
L 169.251798 -104.80153 
L 170.441457 -100.821306 
L 171.631117 -99.702384 
L 172.820777 -99.415683 
L 174.010436 -98.104543 
L 175.200096 -98.992017 
L 176.389755 -99.398558 
L 177.579415 -98.76837 
L 178.769075 -100.543159 
L 179.958734 -98.7152 
L 181.148394 -98.56576 
L 182.338053 -98.160115 
L 183.527713 -96.561146 
L 183.527713 -102.474558 
L 183.527713 -102.474558 
L 182.338053 -104.073527 
L 181.148394 -104.479172 
L 179.958734 -104.628612 
L 178.769075 -106.456571 
L 177.579415 -104.681781 
L 176.389755 -105.31197 
L 175.200096 -104.905429 
L 174.010436 -104.017955 
L 172.820777 -105.329095 
L 171.631117 -105.615796 
L 170.441457 -106.734718 
L 169.251798 -110.714942 
L 168.062138 -108.302422 
L 166.872478 -107.525607 
L 165.682819 -105.056511 
L 164.493159 -103.984797 
L 163.3035 -105.930317 
L 162.11384 -105.671743 
L 160.92418 -106.540725 
L 159.734521 -107.75691 
L 158.544861 -101.346072 
L 157.355201 -106.137329 
L 156.165542 -104.017545 
L 154.975882 -103.245513 
L 153.786223 -106.114068 
L 152.596563 -105.698836 
L 151.406903 -105.068435 
L 150.217244 -105.655274 
L 149.027584 -102.473035 
L 147.837925 -105.665702 
L 146.648265 -105.380449 
L 145.458605 -106.807844 
L 144.268946 -103.682033 
L 143.079286 -104.828806 
L 141.889626 -104.947187 
L 140.699967 -103.237743 
L 139.510307 -106.940937 
L 138.320648 -103.564633 
L 137.130988 -106.00326 
L 135.941328 -105.930966 
L 134.751669 -110.979364 
L 133.562009 -106.808073 
L 132.37235 -107.822672 
L 131.18269 -106.828319 
L 129.99303 -105.896255 
L 128.803371 -106.498317 
L 127.613711 -107.319822 
L 126.424051 -108.104164 
L 125.234392 -105.245892 
L 124.044732 -108.490888 
L 122.855073 -112.70277 
L 121.665413 -110.527983 
L 120.475753 -110.405798 
L 119.286094 -110.446317 
L 118.096434 -110.734925 
L 116.906775 -107.870644 
L 115.717115 -109.196737 
L 114.527455 -108.130701 
L 113.337796 -107.690696 
L 112.148136 -109.515386 
L 110.958476 -108.379768 
L 109.768817 -109.500212 
L 108.579157 -108.179749 
L 107.389498 -107.490416 
L 106.199838 -105.711194 
L 105.010178 -106.683696 
L 103.820519 -107.304978 
L 102.630859 -108.358654 
L 101.441199 -107.196734 
L 100.25154 -108.277318 
L 99.06188 -107.256693 
L 97.872221 -104.993766 
L 96.682561 -106.482277 
L 95.492901 -107.204067 
L 94.303242 -103.93759 
L 93.113582 -105.509256 
L 91.923923 -106.737329 
L 90.734263 -105.526377 
L 89.544603 -102.164929 
L 88.354944 -107.089521 
L 87.165284 -105.140038 
L 85.975624 -104.003757 
L 84.785965 -103.733374 
L 83.596305 -100.216361 
L 82.406646 -104.19901 
L 81.216986 -104.9636 
L 80.027326 -106.378476 
L 78.837667 -106.190926 
L 77.648007 -103.975242 
L 76.458348 -103.73622 
L 75.268688 -103.35104 
L 74.079028 -103.958193 
L 72.889369 -100.222528 
L 71.699709 -99.379269 
L 70.510049 -100.486783 
L 69.32039 -97.048688 
L 68.13073 -98.269544 
L 66.941071 -99.832488 
L 65.751411 -100.967536 
L 64.561751 -102.710429 
L 63.372092 -102.403938 
L 62.182432 -99.428263 
L 60.992773 -102.56362 
L 59.803113 -103.246028 
L 58.613453 -100.715167 
L 57.423794 -101.822602 
L 56.234134 -104.328484 
L 55.044474 -105.483124 
z
" style="stroke: #006633; stroke-opacity: 0.5"/>
    </defs>
    <g clip-path="url(#p93739d2d27)">
     <use xlink:href="#m390ce0bd50" x="0" y="208.659406" style="fill: #006633; fill-opacity: 0.5; stroke: #006633; stroke-opacity: 0.5"/>
    </g>
   </g>
   <g id="PolyCollection_2">
    <defs>
     <path id="m9e3fa918c0" d="M 55.044474 -93.954292 
L 55.044474 -87.100094 
L 56.234134 -87.248446 
L 57.423794 -90.124388 
L 58.613453 -88.691222 
L 59.803113 -88.759564 
L 60.992773 -84.516452 
L 62.182432 -83.485125 
L 63.372092 -85.20963 
L 64.561751 -86.069032 
L 65.751411 -86.182351 
L 66.941071 -86.86851 
L 68.13073 -85.929635 
L 69.32039 -88.354593 
L 70.510049 -85.671401 
L 71.699709 -84.649113 
L 72.889369 -83.3951 
L 74.079028 -84.44957 
L 75.268688 -86.082149 
L 76.458348 -84.418233 
L 77.648007 -87.024544 
L 78.837667 -87.740018 
L 80.027326 -82.574305 
L 81.216986 -88.12504 
L 82.406646 -84.729911 
L 83.596305 -89.700177 
L 84.785965 -91.765978 
L 85.975624 -90.719897 
L 87.165284 -89.354736 
L 88.354944 -90.988387 
L 89.544603 -92.015696 
L 90.734263 -92.48417 
L 91.923923 -92.505917 
L 93.113582 -92.372555 
L 94.303242 -92.371171 
L 95.492901 -89.834607 
L 96.682561 -90.914871 
L 97.872221 -93.173199 
L 99.06188 -89.941071 
L 100.25154 -89.270012 
L 101.441199 -90.915097 
L 102.630859 -85.135675 
L 103.820519 -90.279257 
L 105.010178 -87.481643 
L 106.199838 -88.663528 
L 107.389498 -88.682113 
L 108.579157 -90.03324 
L 109.768817 -88.362081 
L 110.958476 -87.957044 
L 112.148136 -91.295579 
L 113.337796 -86.706468 
L 114.527455 -91.137001 
L 115.717115 -90.067761 
L 116.906775 -91.643421 
L 118.096434 -96.073469 
L 119.286094 -93.048954 
L 120.475753 -92.991302 
L 121.665413 -89.434073 
L 122.855073 -90.279139 
L 124.044732 -91.225237 
L 125.234392 -91.55374 
L 126.424051 -92.449078 
L 127.613711 -92.073116 
L 128.803371 -92.923389 
L 129.99303 -92.421586 
L 131.18269 -88.436197 
L 132.37235 -90.461044 
L 133.562009 -90.839545 
L 134.751669 -89.990149 
L 135.941328 -88.254515 
L 137.130988 -87.556571 
L 138.320648 -87.243012 
L 139.510307 -88.949288 
L 140.699967 -91.184932 
L 141.889626 -87.177942 
L 143.079286 -89.605078 
L 144.268946 -89.437507 
L 145.458605 -92.737522 
L 146.648265 -91.10174 
L 147.837925 -91.183428 
L 149.027584 -91.044262 
L 150.217244 -91.080103 
L 151.406903 -88.628215 
L 152.596563 -83.375059 
L 153.786223 -87.313193 
L 154.975882 -86.228614 
L 156.165542 -84.934152 
L 157.355201 -83.929745 
L 158.544861 -86.63747 
L 159.734521 -87.331652 
L 160.92418 -86.564782 
L 162.11384 -87.16227 
L 163.3035 -86.207482 
L 164.493159 -87.46579 
L 165.682819 -85.856886 
L 166.872478 -89.313773 
L 168.062138 -87.859333 
L 169.251798 -89.817294 
L 170.441457 -87.216262 
L 171.631117 -87.80017 
L 172.820777 -87.626827 
L 174.010436 -84.474538 
L 175.200096 -86.50372 
L 176.389755 -85.829536 
L 177.579415 -84.523945 
L 178.769075 -86.15849 
L 179.958734 -89.734418 
L 181.148394 -90.393059 
L 182.338053 -88.641183 
L 183.527713 -89.105098 
L 183.527713 -95.959296 
L 183.527713 -95.959296 
L 182.338053 -95.495382 
L 181.148394 -97.247257 
L 179.958734 -96.588617 
L 178.769075 -93.012688 
L 177.579415 -91.378143 
L 176.389755 -92.683734 
L 175.200096 -93.357919 
L 174.010436 -91.328737 
L 172.820777 -94.481025 
L 171.631117 -94.654368 
L 170.441457 -94.070461 
L 169.251798 -96.671492 
L 168.062138 -94.713532 
L 166.872478 -96.167971 
L 165.682819 -92.711085 
L 164.493159 -94.319988 
L 163.3035 -93.061681 
L 162.11384 -94.016469 
L 160.92418 -93.418981 
L 159.734521 -94.18585 
L 158.544861 -93.491668 
L 157.355201 -90.783944 
L 156.165542 -91.78835 
L 154.975882 -93.082812 
L 153.786223 -94.167392 
L 152.596563 -90.229257 
L 151.406903 -95.482413 
L 150.217244 -97.934302 
L 149.027584 -97.898461 
L 147.837925 -98.037626 
L 146.648265 -97.955939 
L 145.458605 -99.59172 
L 144.268946 -96.291706 
L 143.079286 -96.459276 
L 141.889626 -94.03214 
L 140.699967 -98.03913 
L 139.510307 -95.803486 
L 138.320648 -94.09721 
L 137.130988 -94.41077 
L 135.941328 -95.108713 
L 134.751669 -96.844347 
L 133.562009 -97.693743 
L 132.37235 -97.315242 
L 131.18269 -95.290395 
L 129.99303 -99.275784 
L 128.803371 -99.777588 
L 127.613711 -98.927315 
L 126.424051 -99.303276 
L 125.234392 -98.407939 
L 124.044732 -98.079435 
L 122.855073 -97.133337 
L 121.665413 -96.288271 
L 120.475753 -99.8455 
L 119.286094 -99.903153 
L 118.096434 -102.927668 
L 116.906775 -98.497619 
L 115.717115 -96.921959 
L 114.527455 -97.991199 
L 113.337796 -93.560666 
L 112.148136 -98.149777 
L 110.958476 -94.811243 
L 109.768817 -95.21628 
L 108.579157 -96.887438 
L 107.389498 -95.536311 
L 106.199838 -95.517726 
L 105.010178 -94.335841 
L 103.820519 -97.133456 
L 102.630859 -91.989873 
L 101.441199 -97.769295 
L 100.25154 -96.124211 
L 99.06188 -96.795269 
L 97.872221 -100.027397 
L 96.682561 -97.76907 
L 95.492901 -96.688805 
L 94.303242 -99.225369 
L 93.113582 -99.226753 
L 91.923923 -99.360115 
L 90.734263 -99.338368 
L 89.544603 -98.869894 
L 88.354944 -97.842586 
L 87.165284 -96.208935 
L 85.975624 -97.574095 
L 84.785965 -98.620176 
L 83.596305 -96.554376 
L 82.406646 -91.58411 
L 81.216986 -94.979239 
L 80.027326 -89.428503 
L 78.837667 -94.594217 
L 77.648007 -93.878743 
L 76.458348 -91.272431 
L 75.268688 -92.936347 
L 74.079028 -91.303768 
L 72.889369 -90.249299 
L 71.699709 -91.503312 
L 70.510049 -92.525599 
L 69.32039 -95.208791 
L 68.13073 -92.783833 
L 66.941071 -93.722709 
L 65.751411 -93.03655 
L 64.561751 -92.923231 
L 63.372092 -92.063828 
L 62.182432 -90.339323 
L 60.992773 -91.370651 
L 59.803113 -95.613763 
L 58.613453 -95.54542 
L 57.423794 -96.978587 
L 56.234134 -94.102645 
L 55.044474 -93.954292 
z
" style="stroke: #000000; stroke-opacity: 0.5"/>
    </defs>
    <g clip-path="url(#p93739d2d27)">
     <use xlink:href="#m9e3fa918c0" x="0" y="208.659406" style="fill-opacity: 0.5; stroke: #000000; stroke-opacity: 0.5"/>
    </g>
   </g>
   <g id="matplotlib.axis_1">
    <g id="xtick_1">
     <g id="line2d_1">
      <defs>
       <path id="m28b029982c" d="M 0 0 
L 0 3.5 
" style="stroke: #000000; stroke-width: 0.8"/>
      </defs>
      <g>
       <use xlink:href="#m28b029982c" x="55.044474" y="149.467375" style="stroke: #000000; stroke-width: 0.8"/>
      </g>
     </g>
     <g id="text_1">
      <!-- 0 -->
      <g transform="translate(51.863224 164.065812) scale(0.1 -0.1)">
       <defs>
        <path id="DejaVuSans-30" d="M 2034 4250 
Q 1547 4250 1301 3770 
Q 1056 3291 1056 2328 
Q 1056 1369 1301 889 
Q 1547 409 2034 409 
Q 2525 409 2770 889 
Q 3016 1369 3016 2328 
Q 3016 3291 2770 3770 
Q 2525 4250 2034 4250 
z
M 2034 4750 
Q 2819 4750 3233 4129 
Q 3647 3509 3647 2328 
Q 3647 1150 3233 529 
Q 2819 -91 2034 -91 
Q 1250 -91 836 529 
Q 422 1150 422 2328 
Q 422 3509 836 4129 
Q 1250 4750 2034 4750 
z
" transform="scale(0.015625)"/>
       </defs>
       <use xlink:href="#DejaVuSans-30"/>
      </g>
     </g>
    </g>
    <g id="xtick_2">
     <g id="line2d_2">
      <g>
       <use xlink:href="#m28b029982c" x="90.734263" y="149.467375" style="stroke: #000000; stroke-width: 0.8"/>
      </g>
     </g>
     <g id="text_2">
      <!-- 2 -->
      <g transform="translate(87.553013 164.065812) scale(0.1 -0.1)">
       <defs>
        <path id="DejaVuSans-32" d="M 1228 531 
L 3431 531 
L 3431 0 
L 469 0 
L 469 531 
Q 828 903 1448 1529 
Q 2069 2156 2228 2338 
Q 2531 2678 2651 2914 
Q 2772 3150 2772 3378 
Q 2772 3750 2511 3984 
Q 2250 4219 1831 4219 
Q 1534 4219 1204 4116 
Q 875 4013 500 3803 
L 500 4441 
Q 881 4594 1212 4672 
Q 1544 4750 1819 4750 
Q 2544 4750 2975 4387 
Q 3406 4025 3406 3419 
Q 3406 3131 3298 2873 
Q 3191 2616 2906 2266 
Q 2828 2175 2409 1742 
Q 1991 1309 1228 531 
z
" transform="scale(0.015625)"/>
       </defs>
       <use xlink:href="#DejaVuSans-32"/>
      </g>
     </g>
    </g>
    <g id="xtick_3">
     <g id="line2d_3">
      <g>
       <use xlink:href="#m28b029982c" x="126.424051" y="149.467375" style="stroke: #000000; stroke-width: 0.8"/>
      </g>
     </g>
     <g id="text_3">
      <!-- 4 -->
      <g transform="translate(123.242801 164.065812) scale(0.1 -0.1)">
       <defs>
        <path id="DejaVuSans-34" d="M 2419 4116 
L 825 1625 
L 2419 1625 
L 2419 4116 
z
M 2253 4666 
L 3047 4666 
L 3047 1625 
L 3713 1625 
L 3713 1100 
L 3047 1100 
L 3047 0 
L 2419 0 
L 2419 1100 
L 313 1100 
L 313 1709 
L 2253 4666 
z
" transform="scale(0.015625)"/>
       </defs>
       <use xlink:href="#DejaVuSans-34"/>
      </g>
     </g>
    </g>
    <g id="xtick_4">
     <g id="line2d_4">
      <g>
       <use xlink:href="#m28b029982c" x="162.11384" y="149.467375" style="stroke: #000000; stroke-width: 0.8"/>
      </g>
     </g>
     <g id="text_4">
      <!-- 6 -->
      <g transform="translate(158.93259 164.065812) scale(0.1 -0.1)">
       <defs>
        <path id="DejaVuSans-36" d="M 2113 2584 
Q 1688 2584 1439 2293 
Q 1191 2003 1191 1497 
Q 1191 994 1439 701 
Q 1688 409 2113 409 
Q 2538 409 2786 701 
Q 3034 994 3034 1497 
Q 3034 2003 2786 2293 
Q 2538 2584 2113 2584 
z
M 3366 4563 
L 3366 3988 
Q 3128 4100 2886 4159 
Q 2644 4219 2406 4219 
Q 1781 4219 1451 3797 
Q 1122 3375 1075 2522 
Q 1259 2794 1537 2939 
Q 1816 3084 2150 3084 
Q 2853 3084 3261 2657 
Q 3669 2231 3669 1497 
Q 3669 778 3244 343 
Q 2819 -91 2113 -91 
Q 1303 -91 875 529 
Q 447 1150 447 2328 
Q 447 3434 972 4092 
Q 1497 4750 2381 4750 
Q 2619 4750 2861 4703 
Q 3103 4656 3366 4563 
z
" transform="scale(0.015625)"/>
       </defs>
       <use xlink:href="#DejaVuSans-36"/>
      </g>
     </g>
    </g>
    <g id="text_5">
     <!-- time since -->
     <g transform="translate(80.475938 181.543156) scale(0.15 -0.15)">
      <defs>
       <path id="DejaVuSans-74" d="M 1172 4494 
L 1172 3500 
L 2356 3500 
L 2356 3053 
L 1172 3053 
L 1172 1153 
Q 1172 725 1289 603 
Q 1406 481 1766 481 
L 2356 481 
L 2356 0 
L 1766 0 
Q 1100 0 847 248 
Q 594 497 594 1153 
L 594 3053 
L 172 3053 
L 172 3500 
L 594 3500 
L 594 4494 
L 1172 4494 
z
" transform="scale(0.015625)"/>
       <path id="DejaVuSans-69" d="M 603 3500 
L 1178 3500 
L 1178 0 
L 603 0 
L 603 3500 
z
M 603 4863 
L 1178 4863 
L 1178 4134 
L 603 4134 
L 603 4863 
z
" transform="scale(0.015625)"/>
       <path id="DejaVuSans-6d" d="M 3328 2828 
Q 3544 3216 3844 3400 
Q 4144 3584 4550 3584 
Q 5097 3584 5394 3201 
Q 5691 2819 5691 2113 
L 5691 0 
L 5113 0 
L 5113 2094 
Q 5113 2597 4934 2840 
Q 4756 3084 4391 3084 
Q 3944 3084 3684 2787 
Q 3425 2491 3425 1978 
L 3425 0 
L 2847 0 
L 2847 2094 
Q 2847 2600 2669 2842 
Q 2491 3084 2119 3084 
Q 1678 3084 1418 2786 
Q 1159 2488 1159 1978 
L 1159 0 
L 581 0 
L 581 3500 
L 1159 3500 
L 1159 2956 
Q 1356 3278 1631 3431 
Q 1906 3584 2284 3584 
Q 2666 3584 2933 3390 
Q 3200 3197 3328 2828 
z
" transform="scale(0.015625)"/>
       <path id="DejaVuSans-65" d="M 3597 1894 
L 3597 1613 
L 953 1613 
Q 991 1019 1311 708 
Q 1631 397 2203 397 
Q 2534 397 2845 478 
Q 3156 559 3463 722 
L 3463 178 
Q 3153 47 2828 -22 
Q 2503 -91 2169 -91 
Q 1331 -91 842 396 
Q 353 884 353 1716 
Q 353 2575 817 3079 
Q 1281 3584 2069 3584 
Q 2775 3584 3186 3129 
Q 3597 2675 3597 1894 
z
M 3022 2063 
Q 3016 2534 2758 2815 
Q 2500 3097 2075 3097 
Q 1594 3097 1305 2825 
Q 1016 2553 972 2059 
L 3022 2063 
z
" transform="scale(0.015625)"/>
       <path id="DejaVuSans-20" transform="scale(0.015625)"/>
       <path id="DejaVuSans-73" d="M 2834 3397 
L 2834 2853 
Q 2591 2978 2328 3040 
Q 2066 3103 1784 3103 
Q 1356 3103 1142 2972 
Q 928 2841 928 2578 
Q 928 2378 1081 2264 
Q 1234 2150 1697 2047 
L 1894 2003 
Q 2506 1872 2764 1633 
Q 3022 1394 3022 966 
Q 3022 478 2636 193 
Q 2250 -91 1575 -91 
Q 1294 -91 989 -36 
Q 684 19 347 128 
L 347 722 
Q 666 556 975 473 
Q 1284 391 1588 391 
Q 1994 391 2212 530 
Q 2431 669 2431 922 
Q 2431 1156 2273 1281 
Q 2116 1406 1581 1522 
L 1381 1569 
Q 847 1681 609 1914 
Q 372 2147 372 2553 
Q 372 3047 722 3315 
Q 1072 3584 1716 3584 
Q 2034 3584 2315 3537 
Q 2597 3491 2834 3397 
z
" transform="scale(0.015625)"/>
       <path id="DejaVuSans-6e" d="M 3513 2113 
L 3513 0 
L 2938 0 
L 2938 2094 
Q 2938 2591 2744 2837 
Q 2550 3084 2163 3084 
Q 1697 3084 1428 2787 
Q 1159 2491 1159 1978 
L 1159 0 
L 581 0 
L 581 3500 
L 1159 3500 
L 1159 2956 
Q 1366 3272 1645 3428 
Q 1925 3584 2291 3584 
Q 2894 3584 3203 3211 
Q 3513 2838 3513 2113 
z
" transform="scale(0.015625)"/>
       <path id="DejaVuSans-63" d="M 3122 3366 
L 3122 2828 
Q 2878 2963 2633 3030 
Q 2388 3097 2138 3097 
Q 1578 3097 1268 2742 
Q 959 2388 959 1747 
Q 959 1106 1268 751 
Q 1578 397 2138 397 
Q 2388 397 2633 464 
Q 2878 531 3122 666 
L 3122 134 
Q 2881 22 2623 -34 
Q 2366 -91 2075 -91 
Q 1284 -91 818 406 
Q 353 903 353 1747 
Q 353 2603 823 3093 
Q 1294 3584 2113 3584 
Q 2378 3584 2631 3529 
Q 2884 3475 3122 3366 
z
" transform="scale(0.015625)"/>
      </defs>
      <use xlink:href="#DejaVuSans-74"/>
      <use xlink:href="#DejaVuSans-69" x="39.208984"/>
      <use xlink:href="#DejaVuSans-6d" x="66.992188"/>
      <use xlink:href="#DejaVuSans-65" x="164.404297"/>
      <use xlink:href="#DejaVuSans-20" x="225.927734"/>
      <use xlink:href="#DejaVuSans-73" x="257.714844"/>
      <use xlink:href="#DejaVuSans-69" x="309.814453"/>
      <use xlink:href="#DejaVuSans-6e" x="337.597656"/>
      <use xlink:href="#DejaVuSans-63" x="400.976562"/>
      <use xlink:href="#DejaVuSans-65" x="455.957031"/>
     </g>
     <!-- sound onset (s) -->
     <g transform="translate(61.191563 198.339875) scale(0.15 -0.15)">
      <defs>
       <path id="DejaVuSans-6f" d="M 1959 3097 
Q 1497 3097 1228 2736 
Q 959 2375 959 1747 
Q 959 1119 1226 758 
Q 1494 397 1959 397 
Q 2419 397 2687 759 
Q 2956 1122 2956 1747 
Q 2956 2369 2687 2733 
Q 2419 3097 1959 3097 
z
M 1959 3584 
Q 2709 3584 3137 3096 
Q 3566 2609 3566 1747 
Q 3566 888 3137 398 
Q 2709 -91 1959 -91 
Q 1206 -91 779 398 
Q 353 888 353 1747 
Q 353 2609 779 3096 
Q 1206 3584 1959 3584 
z
" transform="scale(0.015625)"/>
       <path id="DejaVuSans-75" d="M 544 1381 
L 544 3500 
L 1119 3500 
L 1119 1403 
Q 1119 906 1312 657 
Q 1506 409 1894 409 
Q 2359 409 2629 706 
Q 2900 1003 2900 1516 
L 2900 3500 
L 3475 3500 
L 3475 0 
L 2900 0 
L 2900 538 
Q 2691 219 2414 64 
Q 2138 -91 1772 -91 
Q 1169 -91 856 284 
Q 544 659 544 1381 
z
M 1991 3584 
L 1991 3584 
z
" transform="scale(0.015625)"/>
       <path id="DejaVuSans-64" d="M 2906 2969 
L 2906 4863 
L 3481 4863 
L 3481 0 
L 2906 0 
L 2906 525 
Q 2725 213 2448 61 
Q 2172 -91 1784 -91 
Q 1150 -91 751 415 
Q 353 922 353 1747 
Q 353 2572 751 3078 
Q 1150 3584 1784 3584 
Q 2172 3584 2448 3432 
Q 2725 3281 2906 2969 
z
M 947 1747 
Q 947 1113 1208 752 
Q 1469 391 1925 391 
Q 2381 391 2643 752 
Q 2906 1113 2906 1747 
Q 2906 2381 2643 2742 
Q 2381 3103 1925 3103 
Q 1469 3103 1208 2742 
Q 947 2381 947 1747 
z
" transform="scale(0.015625)"/>
       <path id="DejaVuSans-28" d="M 1984 4856 
Q 1566 4138 1362 3434 
Q 1159 2731 1159 2009 
Q 1159 1288 1364 580 
Q 1569 -128 1984 -844 
L 1484 -844 
Q 1016 -109 783 600 
Q 550 1309 550 2009 
Q 550 2706 781 3412 
Q 1013 4119 1484 4856 
L 1984 4856 
z
" transform="scale(0.015625)"/>
       <path id="DejaVuSans-29" d="M 513 4856 
L 1013 4856 
Q 1481 4119 1714 3412 
Q 1947 2706 1947 2009 
Q 1947 1309 1714 600 
Q 1481 -109 1013 -844 
L 513 -844 
Q 928 -128 1133 580 
Q 1338 1288 1338 2009 
Q 1338 2731 1133 3434 
Q 928 4138 513 4856 
z
" transform="scale(0.015625)"/>
      </defs>
      <use xlink:href="#DejaVuSans-73"/>
      <use xlink:href="#DejaVuSans-6f" x="52.099609"/>
      <use xlink:href="#DejaVuSans-75" x="113.28125"/>
      <use xlink:href="#DejaVuSans-6e" x="176.660156"/>
      <use xlink:href="#DejaVuSans-64" x="240.039062"/>
      <use xlink:href="#DejaVuSans-20" x="303.515625"/>
      <use xlink:href="#DejaVuSans-6f" x="335.302734"/>
      <use xlink:href="#DejaVuSans-6e" x="396.484375"/>
      <use xlink:href="#DejaVuSans-73" x="459.863281"/>
      <use xlink:href="#DejaVuSans-65" x="511.962891"/>
      <use xlink:href="#DejaVuSans-74" x="573.486328"/>
      <use xlink:href="#DejaVuSans-20" x="612.695312"/>
      <use xlink:href="#DejaVuSans-28" x="644.482422"/>
      <use xlink:href="#DejaVuSans-73" x="683.496094"/>
      <use xlink:href="#DejaVuSans-29" x="735.595703"/>
     </g>
    </g>
   </g>
   <g id="matplotlib.axis_2">
    <g id="ytick_1">
     <g id="line2d_5">
      <defs>
       <path id="m0854f5707e" d="M 0 0 
L -3.5 0 
" style="stroke: #000000; stroke-width: 0.8"/>
      </defs>
      <g>
       <use xlink:href="#m0854f5707e" x="48.620313" y="146.178646" style="stroke: #000000; stroke-width: 0.8"/>
      </g>
     </g>
     <g id="text_6">
      <!-- 0.3 -->
      <g transform="translate(25.717188 149.977865) scale(0.1 -0.1)">
       <defs>
        <path id="DejaVuSans-2e" d="M 684 794 
L 1344 794 
L 1344 0 
L 684 0 
L 684 794 
z
" transform="scale(0.015625)"/>
        <path id="DejaVuSans-33" d="M 2597 2516 
Q 3050 2419 3304 2112 
Q 3559 1806 3559 1356 
Q 3559 666 3084 287 
Q 2609 -91 1734 -91 
Q 1441 -91 1130 -33 
Q 819 25 488 141 
L 488 750 
Q 750 597 1062 519 
Q 1375 441 1716 441 
Q 2309 441 2620 675 
Q 2931 909 2931 1356 
Q 2931 1769 2642 2001 
Q 2353 2234 1838 2234 
L 1294 2234 
L 1294 2753 
L 1863 2753 
Q 2328 2753 2575 2939 
Q 2822 3125 2822 3475 
Q 2822 3834 2567 4026 
Q 2313 4219 1838 4219 
Q 1578 4219 1281 4162 
Q 984 4106 628 3988 
L 628 4550 
Q 988 4650 1302 4700 
Q 1616 4750 1894 4750 
Q 2613 4750 3031 4423 
Q 3450 4097 3450 3541 
Q 3450 3153 3228 2886 
Q 3006 2619 2597 2516 
z
" transform="scale(0.015625)"/>
       </defs>
       <use xlink:href="#DejaVuSans-30"/>
       <use xlink:href="#DejaVuSans-2e" x="63.623047"/>
       <use xlink:href="#DejaVuSans-33" x="95.410156"/>
      </g>
     </g>
    </g>
    <g id="ytick_2">
     <g id="line2d_6">
      <g>
       <use xlink:href="#m0854f5707e" x="48.620313" y="116.967694" style="stroke: #000000; stroke-width: 0.8"/>
      </g>
     </g>
     <g id="text_7">
      <!-- 0.5 -->
      <g transform="translate(25.717188 120.766912) scale(0.1 -0.1)">
       <defs>
        <path id="DejaVuSans-35" d="M 691 4666 
L 3169 4666 
L 3169 4134 
L 1269 4134 
L 1269 2991 
Q 1406 3038 1543 3061 
Q 1681 3084 1819 3084 
Q 2600 3084 3056 2656 
Q 3513 2228 3513 1497 
Q 3513 744 3044 326 
Q 2575 -91 1722 -91 
Q 1428 -91 1123 -41 
Q 819 9 494 109 
L 494 744 
Q 775 591 1075 516 
Q 1375 441 1709 441 
Q 2250 441 2565 725 
Q 2881 1009 2881 1497 
Q 2881 1984 2565 2268 
Q 2250 2553 1709 2553 
Q 1456 2553 1204 2497 
Q 953 2441 691 2322 
L 691 4666 
z
" transform="scale(0.015625)"/>
       </defs>
       <use xlink:href="#DejaVuSans-30"/>
       <use xlink:href="#DejaVuSans-2e" x="63.623047"/>
       <use xlink:href="#DejaVuSans-35" x="95.410156"/>
      </g>
     </g>
    </g>
    <g id="ytick_3">
     <g id="line2d_7">
      <g>
       <use xlink:href="#m0854f5707e" x="48.620313" y="87.756742" style="stroke: #000000; stroke-width: 0.8"/>
      </g>
     </g>
     <g id="text_8">
      <!-- 0.7 -->
      <g transform="translate(25.717188 91.55596) scale(0.1 -0.1)">
       <defs>
        <path id="DejaVuSans-37" d="M 525 4666 
L 3525 4666 
L 3525 4397 
L 1831 0 
L 1172 0 
L 2766 4134 
L 525 4134 
L 525 4666 
z
" transform="scale(0.015625)"/>
       </defs>
       <use xlink:href="#DejaVuSans-30"/>
       <use xlink:href="#DejaVuSans-2e" x="63.623047"/>
       <use xlink:href="#DejaVuSans-37" x="95.410156"/>
      </g>
     </g>
    </g>
    <g id="ytick_4">
     <g id="line2d_8">
      <g>
       <use xlink:href="#m0854f5707e" x="48.620313" y="58.54579" style="stroke: #000000; stroke-width: 0.8"/>
      </g>
     </g>
     <g id="text_9">
      <!-- 0.9 -->
      <g transform="translate(25.717188 62.345008) scale(0.1 -0.1)">
       <defs>
        <path id="DejaVuSans-39" d="M 703 97 
L 703 672 
Q 941 559 1184 500 
Q 1428 441 1663 441 
Q 2288 441 2617 861 
Q 2947 1281 2994 2138 
Q 2813 1869 2534 1725 
Q 2256 1581 1919 1581 
Q 1219 1581 811 2004 
Q 403 2428 403 3163 
Q 403 3881 828 4315 
Q 1253 4750 1959 4750 
Q 2769 4750 3195 4129 
Q 3622 3509 3622 2328 
Q 3622 1225 3098 567 
Q 2575 -91 1691 -91 
Q 1453 -91 1209 -44 
Q 966 3 703 97 
z
M 1959 2075 
Q 2384 2075 2632 2365 
Q 2881 2656 2881 3163 
Q 2881 3666 2632 3958 
Q 2384 4250 1959 4250 
Q 1534 4250 1286 3958 
Q 1038 3666 1038 3163 
Q 1038 2656 1286 2365 
Q 1534 2075 1959 2075 
z
" transform="scale(0.015625)"/>
       </defs>
       <use xlink:href="#DejaVuSans-30"/>
       <use xlink:href="#DejaVuSans-2e" x="63.623047"/>
       <use xlink:href="#DejaVuSans-39" x="95.410156"/>
      </g>
     </g>
    </g>
    <g id="text_10">
     <!-- Decoding acc -->
     <g transform="translate(18.597656 146.120328) rotate(-90) scale(0.15 -0.15)">
      <defs>
       <path id="DejaVuSans-44" d="M 1259 4147 
L 1259 519 
L 2022 519 
Q 2988 519 3436 956 
Q 3884 1394 3884 2338 
Q 3884 3275 3436 3711 
Q 2988 4147 2022 4147 
L 1259 4147 
z
M 628 4666 
L 1925 4666 
Q 3281 4666 3915 4102 
Q 4550 3538 4550 2338 
Q 4550 1131 3912 565 
Q 3275 0 1925 0 
L 628 0 
L 628 4666 
z
" transform="scale(0.015625)"/>
       <path id="DejaVuSans-67" d="M 2906 1791 
Q 2906 2416 2648 2759 
Q 2391 3103 1925 3103 
Q 1463 3103 1205 2759 
Q 947 2416 947 1791 
Q 947 1169 1205 825 
Q 1463 481 1925 481 
Q 2391 481 2648 825 
Q 2906 1169 2906 1791 
z
M 3481 434 
Q 3481 -459 3084 -895 
Q 2688 -1331 1869 -1331 
Q 1566 -1331 1297 -1286 
Q 1028 -1241 775 -1147 
L 775 -588 
Q 1028 -725 1275 -790 
Q 1522 -856 1778 -856 
Q 2344 -856 2625 -561 
Q 2906 -266 2906 331 
L 2906 616 
Q 2728 306 2450 153 
Q 2172 0 1784 0 
Q 1141 0 747 490 
Q 353 981 353 1791 
Q 353 2603 747 3093 
Q 1141 3584 1784 3584 
Q 2172 3584 2450 3431 
Q 2728 3278 2906 2969 
L 2906 3500 
L 3481 3500 
L 3481 434 
z
" transform="scale(0.015625)"/>
       <path id="DejaVuSans-61" d="M 2194 1759 
Q 1497 1759 1228 1600 
Q 959 1441 959 1056 
Q 959 750 1161 570 
Q 1363 391 1709 391 
Q 2188 391 2477 730 
Q 2766 1069 2766 1631 
L 2766 1759 
L 2194 1759 
z
M 3341 1997 
L 3341 0 
L 2766 0 
L 2766 531 
Q 2569 213 2275 61 
Q 1981 -91 1556 -91 
Q 1019 -91 701 211 
Q 384 513 384 1019 
Q 384 1609 779 1909 
Q 1175 2209 1959 2209 
L 2766 2209 
L 2766 2266 
Q 2766 2663 2505 2880 
Q 2244 3097 1772 3097 
Q 1472 3097 1187 3025 
Q 903 2953 641 2809 
L 641 3341 
Q 956 3463 1253 3523 
Q 1550 3584 1831 3584 
Q 2591 3584 2966 3190 
Q 3341 2797 3341 1997 
z
" transform="scale(0.015625)"/>
      </defs>
      <use xlink:href="#DejaVuSans-44"/>
      <use xlink:href="#DejaVuSans-65" x="77.001953"/>
      <use xlink:href="#DejaVuSans-63" x="138.525391"/>
      <use xlink:href="#DejaVuSans-6f" x="193.505859"/>
      <use xlink:href="#DejaVuSans-64" x="254.6875"/>
      <use xlink:href="#DejaVuSans-69" x="318.164062"/>
      <use xlink:href="#DejaVuSans-6e" x="345.947266"/>
      <use xlink:href="#DejaVuSans-67" x="409.326172"/>
      <use xlink:href="#DejaVuSans-20" x="472.802734"/>
      <use xlink:href="#DejaVuSans-61" x="504.589844"/>
      <use xlink:href="#DejaVuSans-63" x="565.869141"/>
      <use xlink:href="#DejaVuSans-63" x="620.849609"/>
     </g>
    </g>
   </g>
   <g id="line2d_9">
    <path d="M 55.044474 107.594735 
L 56.234134 108.264461 
L 57.423794 109.275651 
L 58.613453 109.572676 
L 59.803113 109.709937 
L 60.992773 109.832793 
L 62.182432 109.525003 
L 63.372092 109.231256 
L 64.561751 109.330356 
L 65.751411 110.214466 
L 66.941071 111.689715 
L 68.13073 113.143355 
L 69.32039 113.532229 
L 70.510049 112.81142 
L 71.699709 111.891979 
L 72.889369 111.052924 
L 74.079028 110.503338 
L 75.268688 109.600306 
L 76.458348 107.776299 
L 77.648007 106.599219 
L 78.837667 107.1817 
L 80.027326 107.928854 
L 81.216986 107.836321 
L 82.406646 108.126817 
L 83.596305 109.231361 
L 84.785965 109.345722 
L 85.975624 107.75895 
L 87.165284 106.000059 
L 88.354944 105.132182 
L 89.544603 105.192874 
L 90.734263 105.039623 
L 91.923923 105.002097 
L 93.113582 105.138055 
L 94.303242 105.759064 
L 95.492901 106.403946 
L 96.682561 106.084736 
L 97.872221 105.197826 
L 99.06188 104.528264 
L 100.25154 104.074541 
L 101.441199 103.975032 
L 102.630859 104.660966 
L 103.820519 104.911261 
L 105.010178 104.227259 
L 106.199838 104.099738 
L 107.389498 104.4077 
L 108.579157 103.898208 
L 109.768817 103.13421 
L 110.958476 103.030966 
L 112.148136 102.84435 
L 113.337796 102.416863 
L 114.527455 102.075096 
L 115.717115 101.893728 
L 116.906775 102.420706 
L 118.096434 102.764709 
L 119.286094 102.029054 
L 120.475753 100.993876 
L 121.665413 100.905531 
L 122.855073 101.225884 
L 124.044732 102.124436 
L 125.234392 103.339816 
L 126.424051 104.346055 
L 127.613711 104.88715 
L 128.803371 104.710046 
L 129.99303 104.459698 
L 131.18269 103.926112 
L 132.37235 103.562979 
L 133.562009 104.023982 
L 134.751669 104.378237 
L 135.941328 104.281897 
L 137.130988 104.080171 
L 138.320648 104.450995 
L 139.510307 105.233492 
L 140.699967 105.445522 
L 141.889626 105.488014 
L 143.079286 106.250439 
L 144.268946 107.222299 
L 145.458605 107.710244 
L 146.648265 107.557361 
L 147.837925 108.04137 
L 149.027584 108.792407 
L 150.217244 108.117885 
L 151.406903 106.69247 
L 152.596563 106.114692 
L 153.786223 106.835768 
L 154.975882 107.637276 
L 156.165542 107.505562 
L 157.355201 106.902026 
L 158.544861 106.286751 
L 159.734521 105.741482 
L 160.92418 105.55392 
L 162.11384 105.592365 
L 163.3035 105.653354 
L 164.493159 106.531647 
L 165.682819 107.195647 
L 166.872478 106.181441 
L 168.062138 104.634247 
L 169.251798 104.050756 
L 170.441457 104.15728 
L 171.631117 104.704943 
L 172.820777 105.410024 
L 174.010436 106.135292 
L 175.200096 107.149385 
L 176.389755 107.530524 
L 177.579415 107.233629 
L 178.769075 106.592974 
L 179.958734 106.159159 
L 181.148394 106.430564 
L 182.338053 106.859832 
L 183.527713 106.90789 
" clip-path="url(#p93739d2d27)" style="fill: none; stroke: #006633; stroke-width: 1.5; stroke-linecap: square"/>
   </g>
   <g id="line2d_10">
    <path d="M 55.044474 115.337355 
L 56.234134 115.376513 
L 57.423794 116.359151 
L 58.613453 118.446464 
L 59.803113 119.994859 
L 60.992773 119.40465 
L 62.182432 118.064718 
L 63.372092 118.054493 
L 64.561751 119.324872 
L 65.751411 120.714466 
L 66.941071 120.992672 
L 68.13073 119.772871 
L 69.32039 118.926158 
L 70.510049 118.657067 
L 71.699709 118.815797 
L 72.889369 119.612721 
L 74.079028 120.228803 
L 75.268688 119.497705 
L 76.458348 118.860666 
L 77.648007 119.219181 
L 78.837667 120.252831 
L 80.027326 120.818871 
L 81.216986 119.283437 
L 82.406646 116.789943 
L 83.596305 115.05174 
L 84.785965 114.542278 
L 85.975624 114.981847 
L 87.165284 114.707459 
L 88.354944 113.051346 
L 89.544603 112.111623 
L 90.734263 112.451746 
L 91.923923 111.826108 
L 93.113582 111.483914 
L 94.303242 113.418506 
L 95.492901 114.971682 
L 96.682561 114.133168 
L 97.872221 113.028419 
L 99.06188 114.220596 
L 100.25154 115.971374 
L 101.441199 116.232204 
L 102.630859 116.170612 
L 103.820519 117.002006 
L 105.010178 117.412093 
L 106.199838 116.99551 
L 107.389498 116.606513 
L 108.579157 116.15895 
L 109.768817 116.328746 
L 110.958476 117.121126 
L 112.148136 116.704081 
L 113.337796 115.372807 
L 114.527455 114.007688 
L 115.717115 112.743707 
L 116.906775 111.917436 
L 118.096434 111.487645 
L 119.286094 111.307555 
L 120.475753 111.9554 
L 121.665413 113.104576 
L 122.855073 114.141838 
L 124.044732 115.410911 
L 125.234392 115.998633 
L 126.424051 114.050787 
L 127.613711 111.164237 
L 128.803371 111.240877 
L 129.99303 113.854655 
L 131.18269 115.083473 
L 132.37235 114.191162 
L 133.562009 114.760632 
L 134.751669 117.327741 
L 135.941328 117.644869 
L 137.130988 116.180216 
L 138.320648 116.02643 
L 139.510307 116.694137 
L 140.699967 116.277867 
L 141.889626 114.943515 
L 143.079286 114.231679 
L 144.268946 114.518733 
L 145.458605 113.943886 
L 146.648265 112.328104 
L 147.837925 112.070135 
L 149.027584 113.328086 
L 150.217244 114.667569 
L 151.406903 115.627462 
L 152.596563 117.004663 
L 153.786223 119.35605 
L 154.975882 121.176692 
L 156.165542 121.375803 
L 157.355201 120.200505 
L 158.544861 118.882369 
L 159.734521 118.078443 
L 160.92418 117.352895 
L 162.11384 117.274509 
L 163.3035 117.646414 
L 164.493159 118.437067 
L 165.682819 118.013737 
L 166.872478 116.224943 
L 168.062138 115.138167 
L 169.251798 115.049398 
L 170.441457 115.13881 
L 171.631117 116.180729 
L 172.820777 117.20993 
L 174.010436 118.479916 
L 175.200096 120.409198 
L 176.389755 120.65373 
L 177.579415 118.927865 
L 178.769075 116.699927 
L 179.958734 114.660747 
L 181.148394 114.460123 
L 182.338053 116.338758 
L 183.527713 118.197655 
" clip-path="url(#p93739d2d27)" style="fill: none; stroke: #000000; stroke-width: 1.5; stroke-linecap: square"/>
   </g>
   <g id="LineCollection_1">
    <path d="M 55.044474 116.967694 
L 174.010436 116.967694 
" clip-path="url(#p93739d2d27)" style="fill: none; stroke-dasharray: 7.4,3.2; stroke-dashoffset: 0; stroke: #808080; stroke-width: 2"/>
   </g>
   <g id="patch_3">
    <path d="M 48.620313 149.467375 
L 48.620313 41.394375 
" style="fill: none; stroke: #000000; stroke-width: 0.8; stroke-linejoin: miter; stroke-linecap: square"/>
   </g>
   <g id="patch_4">
    <path d="M 48.620313 149.467375 
L 189.951875 149.467375 
" style="fill: none; stroke: #000000; stroke-width: 0.8; stroke-linejoin: miter; stroke-linecap: square"/>
   </g>
   <g id="text_11">
    <!-- Stimulus -->
    <g transform="translate(86.698594 18.597656) scale(0.15 -0.15)">
     <defs>
      <path id="DejaVuSans-53" d="M 3425 4513 
L 3425 3897 
Q 3066 4069 2747 4153 
Q 2428 4238 2131 4238 
Q 1616 4238 1336 4038 
Q 1056 3838 1056 3469 
Q 1056 3159 1242 3001 
Q 1428 2844 1947 2747 
L 2328 2669 
Q 3034 2534 3370 2195 
Q 3706 1856 3706 1288 
Q 3706 609 3251 259 
Q 2797 -91 1919 -91 
Q 1588 -91 1214 -16 
Q 841 59 441 206 
L 441 856 
Q 825 641 1194 531 
Q 1563 422 1919 422 
Q 2459 422 2753 634 
Q 3047 847 3047 1241 
Q 3047 1584 2836 1778 
Q 2625 1972 2144 2069 
L 1759 2144 
Q 1053 2284 737 2584 
Q 422 2884 422 3419 
Q 422 4038 858 4394 
Q 1294 4750 2059 4750 
Q 2388 4750 2728 4690 
Q 3069 4631 3425 4513 
z
" transform="scale(0.015625)"/>
      <path id="DejaVuSans-6c" d="M 603 4863 
L 1178 4863 
L 1178 0 
L 603 0 
L 603 4863 
z
" transform="scale(0.015625)"/>
     </defs>
     <use xlink:href="#DejaVuSans-53"/>
     <use xlink:href="#DejaVuSans-74" x="63.476562"/>
     <use xlink:href="#DejaVuSans-69" x="102.685547"/>
     <use xlink:href="#DejaVuSans-6d" x="130.46875"/>
     <use xlink:href="#DejaVuSans-75" x="227.880859"/>
     <use xlink:href="#DejaVuSans-6c" x="291.259766"/>
     <use xlink:href="#DejaVuSans-75" x="319.042969"/>
     <use xlink:href="#DejaVuSans-73" x="382.421875"/>
    </g>
    <!-- Decoding -->
    <g transform="translate(83.823984 35.394375) scale(0.15 -0.15)">
     <use xlink:href="#DejaVuSans-44"/>
     <use xlink:href="#DejaVuSans-65" x="77.001953"/>
     <use xlink:href="#DejaVuSans-63" x="138.525391"/>
     <use xlink:href="#DejaVuSans-6f" x="193.505859"/>
     <use xlink:href="#DejaVuSans-64" x="254.6875"/>
     <use xlink:href="#DejaVuSans-69" x="318.164062"/>
     <use xlink:href="#DejaVuSans-6e" x="345.947266"/>
     <use xlink:href="#DejaVuSans-67" x="409.326172"/>
    </g>
   </g>
  </g>
  <g id="axes_2">
   <g id="patch_5">
    <path d="M 204.251875 149.467375 
L 345.583438 149.467375 
L 345.583438 41.394375 
L 204.251875 41.394375 
z
" style="fill: #ffffff"/>
   </g>
   <g id="PolyCollection_3">
    <defs>
     <path id="m390f9cb08b" d="M 210.676037 -116.873905 
L 210.676037 -100.266982 
L 211.960869 -100.234134 
L 213.245702 -101.374051 
L 214.530534 -97.205831 
L 215.815366 -100.690398 
L 217.100199 -99.847909 
L 218.385031 -101.019674 
L 219.669864 -101.82682 
L 220.954696 -102.352136 
L 222.239528 -101.25457 
L 223.524361 -102.937297 
L 224.809193 -104.333794 
L 226.094026 -100.801255 
L 227.378858 -99.737818 
L 228.66369 -97.467475 
L 229.948523 -96.896255 
L 231.233355 -96.30855 
L 232.518188 -93.878734 
L 233.80302 -93.12421 
L 235.087852 -94.537172 
L 236.372685 -93.514436 
L 237.657517 -96.587677 
L 238.942349 -98.848383 
L 240.227182 -100.773399 
L 241.512014 -99.194848 
L 242.796847 -101.061098 
L 244.081679 -99.577682 
L 245.366511 -95.41749 
L 246.651344 -94.577692 
L 247.936176 -96.801229 
L 249.221009 -101.197992 
L 250.505841 -103.223047 
L 251.790673 -106.807412 
L 253.075506 -114.796363 
L 254.360338 -118.142553 
L 255.64517 -119.526696 
L 256.930003 -128.030456 
L 258.214835 -132.086003 
L 259.499668 -134.612564 
L 260.7845 -137.441866 
L 262.069332 -138.973415 
L 263.354165 -139.199382 
L 264.638997 -142.262173 
L 265.92383 -142.641005 
L 267.208662 -143.430165 
L 268.493494 -143.306485 
L 269.778327 -145.745699 
L 271.063159 -144.656015 
L 272.347991 -142.663298 
L 273.632824 -140.458868 
L 274.917656 -138.791797 
L 276.202489 -137.425393 
L 277.487321 -129.997791 
L 278.772153 -130.993155 
L 280.056986 -127.709369 
L 281.341818 -124.18246 
L 282.626651 -122.651221 
L 283.911483 -122.784563 
L 285.196315 -123.23215 
L 286.481148 -122.504398 
L 287.76598 -119.654276 
L 289.050813 -121.405398 
L 290.335645 -120.50486 
L 291.620477 -117.165059 
L 292.90531 -113.74921 
L 294.190142 -114.389344 
L 295.474974 -112.293087 
L 296.759807 -111.365205 
L 298.044639 -108.572271 
L 299.329472 -105.23042 
L 300.614304 -112.451657 
L 301.899136 -106.887933 
L 303.183969 -108.780978 
L 304.468801 -111.508515 
L 305.753634 -107.301278 
L 307.038466 -106.734236 
L 308.323298 -101.741432 
L 309.608131 -100.257887 
L 310.892963 -101.328592 
L 312.177795 -103.063902 
L 313.462628 -100.265947 
L 314.74746 -98.874498 
L 316.032293 -99.655209 
L 317.317125 -100.362206 
L 318.601957 -96.12862 
L 319.88679 -95.97592 
L 321.171622 -96.187446 
L 322.456455 -98.620839 
L 323.741287 -97.111139 
L 325.026119 -99.724184 
L 325.026119 -116.331107 
L 325.026119 -116.331107 
L 323.741287 -113.718062 
L 322.456455 -115.227763 
L 321.171622 -112.794369 
L 319.88679 -112.582843 
L 318.601957 -112.735543 
L 317.317125 -116.969129 
L 316.032293 -116.262133 
L 314.74746 -115.481421 
L 313.462628 -116.87287 
L 312.177795 -119.670825 
L 310.892963 -117.935515 
L 309.608131 -116.86481 
L 308.323298 -118.348355 
L 307.038466 -123.341159 
L 305.753634 -123.908202 
L 304.468801 -128.115438 
L 303.183969 -125.387901 
L 301.899136 -123.494856 
L 300.614304 -129.05858 
L 299.329472 -121.837343 
L 298.044639 -125.179194 
L 296.759807 -127.972128 
L 295.474974 -128.90001 
L 294.190142 -130.996267 
L 292.90531 -130.356134 
L 291.620477 -133.771983 
L 290.335645 -137.111783 
L 289.050813 -138.012321 
L 287.76598 -136.261199 
L 286.481148 -139.111321 
L 285.196315 -139.839073 
L 283.911483 -139.391486 
L 282.626651 -139.258144 
L 281.341818 -140.789384 
L 280.056986 -144.316292 
L 278.772153 -147.600078 
L 277.487321 -146.604715 
L 276.202489 -154.032316 
L 274.917656 -155.39872 
L 273.632824 -157.065791 
L 272.347991 -159.270221 
L 271.063159 -161.262938 
L 269.778327 -162.352622 
L 268.493494 -159.913408 
L 267.208662 -160.037088 
L 265.92383 -159.247929 
L 264.638997 -158.869096 
L 263.354165 -155.806305 
L 262.069332 -155.580338 
L 260.7845 -154.048789 
L 259.499668 -151.219487 
L 258.214835 -148.692926 
L 256.930003 -144.637379 
L 255.64517 -136.133619 
L 254.360338 -134.749477 
L 253.075506 -131.403286 
L 251.790673 -123.414335 
L 250.505841 -119.82997 
L 249.221009 -117.804915 
L 247.936176 -113.408152 
L 246.651344 -111.184615 
L 245.366511 -112.024413 
L 244.081679 -116.184605 
L 242.796847 -117.668021 
L 241.512014 -115.801771 
L 240.227182 -117.380323 
L 238.942349 -115.455306 
L 237.657517 -113.1946 
L 236.372685 -110.121359 
L 235.087852 -111.144095 
L 233.80302 -109.731133 
L 232.518188 -110.485657 
L 231.233355 -112.915473 
L 229.948523 -113.503178 
L 228.66369 -114.074398 
L 227.378858 -116.344741 
L 226.094026 -117.408178 
L 224.809193 -120.940717 
L 223.524361 -119.54422 
L 222.239528 -117.861493 
L 220.954696 -118.959059 
L 219.669864 -118.433743 
L 218.385031 -117.626597 
L 217.100199 -116.454832 
L 215.815366 -117.297322 
L 214.530534 -113.812754 
L 213.245702 -117.980974 
L 211.960869 -116.841057 
L 210.676037 -116.873905 
z
" style="stroke: #006633; stroke-opacity: 0.5"/>
    </defs>
    <g clip-path="url(#p3dcb422974)">
     <use xlink:href="#m390f9cb08b" x="0" y="208.659406" style="fill: #006633; fill-opacity: 0.5; stroke: #006633; stroke-opacity: 0.5"/>
    </g>
   </g>
   <g id="PolyCollection_4">
    <defs>
     <path id="m05ceed734f" d="M 210.676037 -87.810594 
L 210.676037 -67.669526 
L 211.960869 -65.769934 
L 213.245702 -67.041379 
L 214.530534 -65.165647 
L 215.815366 -64.10444 
L 217.100199 -67.137375 
L 218.385031 -66.725476 
L 219.669864 -69.082934 
L 220.954696 -72.859846 
L 222.239528 -71.472376 
L 223.524361 -70.284434 
L 224.809193 -69.789063 
L 226.094026 -70.439904 
L 227.378858 -66.647506 
L 228.66369 -65.95826 
L 229.948523 -65.63595 
L 231.233355 -67.25268 
L 232.518188 -67.652998 
L 233.80302 -67.579139 
L 235.087852 -70.538835 
L 236.372685 -72.418208 
L 237.657517 -77.706672 
L 238.942349 -79.651745 
L 240.227182 -82.3277 
L 241.512014 -83.569179 
L 242.796847 -84.942643 
L 244.081679 -85.660051 
L 245.366511 -83.652737 
L 246.651344 -86.867986 
L 247.936176 -78.273164 
L 249.221009 -81.856263 
L 250.505841 -80.044096 
L 251.790673 -83.893112 
L 253.075506 -85.795892 
L 254.360338 -89.726324 
L 255.64517 -94.842747 
L 256.930003 -104.61876 
L 258.214835 -107.420264 
L 259.499668 -111.5666 
L 260.7845 -117.64012 
L 262.069332 -119.894 
L 263.354165 -123.11371 
L 264.638997 -121.127497 
L 265.92383 -125.749967 
L 267.208662 -127.617208 
L 268.493494 -124.567785 
L 269.778327 -127.194191 
L 271.063159 -127.614811 
L 272.347991 -123.115116 
L 273.632824 -122.197224 
L 274.917656 -119.95888 
L 276.202489 -116.01032 
L 277.487321 -115.086068 
L 278.772153 -110.542451 
L 280.056986 -109.723341 
L 281.341818 -107.920925 
L 282.626651 -105.165614 
L 283.911483 -100.15393 
L 285.196315 -96.906808 
L 286.481148 -90.199158 
L 287.76598 -88.292676 
L 289.050813 -86.02773 
L 290.335645 -87.191445 
L 291.620477 -83.418944 
L 292.90531 -82.661396 
L 294.190142 -83.043628 
L 295.474974 -80.858837 
L 296.759807 -81.118539 
L 298.044639 -78.520051 
L 299.329472 -74.361179 
L 300.614304 -74.532553 
L 301.899136 -71.621326 
L 303.183969 -67.451048 
L 304.468801 -68.453394 
L 305.753634 -70.866666 
L 307.038466 -70.868583 
L 308.323298 -72.956584 
L 309.608131 -71.684359 
L 310.892963 -74.958155 
L 312.177795 -74.110462 
L 313.462628 -73.71631 
L 314.74746 -72.571764 
L 316.032293 -69.40374 
L 317.317125 -71.419965 
L 318.601957 -71.00696 
L 319.88679 -72.821925 
L 321.171622 -72.114215 
L 322.456455 -75.480588 
L 323.741287 -72.19357 
L 325.026119 -71.99976 
L 325.026119 -92.140828 
L 325.026119 -92.140828 
L 323.741287 -92.334639 
L 322.456455 -95.621657 
L 321.171622 -92.255283 
L 319.88679 -92.962994 
L 318.601957 -91.148028 
L 317.317125 -91.561033 
L 316.032293 -89.544808 
L 314.74746 -92.712832 
L 313.462628 -93.857379 
L 312.177795 -94.251531 
L 310.892963 -95.099223 
L 309.608131 -91.825427 
L 308.323298 -93.097652 
L 307.038466 -91.009651 
L 305.753634 -91.007735 
L 304.468801 -88.594462 
L 303.183969 -87.592116 
L 301.899136 -91.762394 
L 300.614304 -94.673621 
L 299.329472 -94.502247 
L 298.044639 -98.661119 
L 296.759807 -101.259607 
L 295.474974 -100.999906 
L 294.190142 -103.184696 
L 292.90531 -102.802464 
L 291.620477 -103.560012 
L 290.335645 -107.332513 
L 289.050813 -106.168799 
L 287.76598 -108.433745 
L 286.481148 -110.340227 
L 285.196315 -117.047877 
L 283.911483 -120.294999 
L 282.626651 -125.306682 
L 281.341818 -128.061994 
L 280.056986 -129.864409 
L 278.772153 -130.683519 
L 277.487321 -135.227137 
L 276.202489 -136.151388 
L 274.917656 -140.099949 
L 273.632824 -142.338292 
L 272.347991 -143.256185 
L 271.063159 -147.75588 
L 269.778327 -147.335259 
L 268.493494 -144.708853 
L 267.208662 -147.758277 
L 265.92383 -145.891035 
L 264.638997 -141.268566 
L 263.354165 -143.254779 
L 262.069332 -140.035068 
L 260.7845 -137.781188 
L 259.499668 -131.707668 
L 258.214835 -127.561332 
L 256.930003 -124.759828 
L 255.64517 -114.983816 
L 254.360338 -109.867392 
L 253.075506 -105.936961 
L 251.790673 -104.03418 
L 250.505841 -100.185165 
L 249.221009 -101.997331 
L 247.936176 -98.414233 
L 246.651344 -107.009054 
L 245.366511 -103.793806 
L 244.081679 -105.80112 
L 242.796847 -105.083712 
L 241.512014 -103.710247 
L 240.227182 -102.468769 
L 238.942349 -99.792813 
L 237.657517 -97.84774 
L 236.372685 -92.559276 
L 235.087852 -90.679904 
L 233.80302 -87.720207 
L 232.518188 -87.794066 
L 231.233355 -87.393748 
L 229.948523 -85.777018 
L 228.66369 -86.099328 
L 227.378858 -86.788575 
L 226.094026 -90.580972 
L 224.809193 -89.930132 
L 223.524361 -90.425502 
L 222.239528 -91.613444 
L 220.954696 -93.000915 
L 219.669864 -89.224002 
L 218.385031 -86.866544 
L 217.100199 -87.278444 
L 215.815366 -84.245509 
L 214.530534 -85.306716 
L 213.245702 -87.182447 
L 211.960869 -85.911002 
L 210.676037 -87.810594 
z
" style="stroke: #000000; stroke-opacity: 0.5"/>
    </defs>
    <g clip-path="url(#p3dcb422974)">
     <use xlink:href="#m05ceed734f" x="0" y="208.659406" style="fill-opacity: 0.5; stroke: #000000; stroke-opacity: 0.5"/>
    </g>
   </g>
   <g id="matplotlib.axis_3">
    <g id="xtick_5">
     <g id="line2d_11">
      <g>
       <use xlink:href="#m28b029982c" x="210.676037" y="149.467375" style="stroke: #000000; stroke-width: 0.8"/>
      </g>
     </g>
     <g id="text_12">
      <!-- -3 -->
      <g transform="translate(205.690881 164.065812) scale(0.1 -0.1)">
       <defs>
        <path id="DejaVuSans-2d" d="M 313 2009 
L 1997 2009 
L 1997 1497 
L 313 1497 
L 313 2009 
z
" transform="scale(0.015625)"/>
       </defs>
       <use xlink:href="#DejaVuSans-2d"/>
       <use xlink:href="#DejaVuSans-33" x="36.083984"/>
      </g>
     </g>
    </g>
    <g id="xtick_6">
     <g id="line2d_12">
      <g>
       <use xlink:href="#m28b029982c" x="229.948523" y="149.467375" style="stroke: #000000; stroke-width: 0.8"/>
      </g>
     </g>
     <g id="text_13">
      <!-- -2 -->
      <g transform="translate(224.963366 164.065812) scale(0.1 -0.1)">
       <use xlink:href="#DejaVuSans-2d"/>
       <use xlink:href="#DejaVuSans-32" x="36.083984"/>
      </g>
     </g>
    </g>
    <g id="xtick_7">
     <g id="line2d_13">
      <g>
       <use xlink:href="#m28b029982c" x="249.221009" y="149.467375" style="stroke: #000000; stroke-width: 0.8"/>
      </g>
     </g>
     <g id="text_14">
      <!-- -1 -->
      <g transform="translate(244.235852 164.065812) scale(0.1 -0.1)">
       <defs>
        <path id="DejaVuSans-31" d="M 794 531 
L 1825 531 
L 1825 4091 
L 703 3866 
L 703 4441 
L 1819 4666 
L 2450 4666 
L 2450 531 
L 3481 531 
L 3481 0 
L 794 0 
L 794 531 
z
" transform="scale(0.015625)"/>
       </defs>
       <use xlink:href="#DejaVuSans-2d"/>
       <use xlink:href="#DejaVuSans-31" x="36.083984"/>
      </g>
     </g>
    </g>
    <g id="xtick_8">
     <g id="line2d_14">
      <g>
       <use xlink:href="#m28b029982c" x="268.493494" y="149.467375" style="stroke: #000000; stroke-width: 0.8"/>
      </g>
     </g>
     <g id="text_15">
      <!-- 0 -->
      <g transform="translate(265.312244 164.065812) scale(0.1 -0.1)">
       <use xlink:href="#DejaVuSans-30"/>
      </g>
     </g>
    </g>
    <g id="xtick_9">
     <g id="line2d_15">
      <g>
       <use xlink:href="#m28b029982c" x="287.76598" y="149.467375" style="stroke: #000000; stroke-width: 0.8"/>
      </g>
     </g>
     <g id="text_16">
      <!-- 1 -->
      <g transform="translate(284.58473 164.065812) scale(0.1 -0.1)">
       <use xlink:href="#DejaVuSans-31"/>
      </g>
     </g>
    </g>
    <g id="xtick_10">
     <g id="line2d_16">
      <g>
       <use xlink:href="#m28b029982c" x="307.038466" y="149.467375" style="stroke: #000000; stroke-width: 0.8"/>
      </g>
     </g>
     <g id="text_17">
      <!-- 2 -->
      <g transform="translate(303.857216 164.065812) scale(0.1 -0.1)">
       <use xlink:href="#DejaVuSans-32"/>
      </g>
     </g>
    </g>
    <g id="xtick_11">
     <g id="line2d_17">
      <g>
       <use xlink:href="#m28b029982c" x="326.310952" y="149.467375" style="stroke: #000000; stroke-width: 0.8"/>
      </g>
     </g>
     <g id="text_18">
      <!-- 3 -->
      <g transform="translate(323.129702 164.065812) scale(0.1 -0.1)">
       <use xlink:href="#DejaVuSans-33"/>
      </g>
     </g>
    </g>
    <g id="text_19">
     <!-- time since -->
     <g transform="translate(236.1075 181.543156) scale(0.15 -0.15)">
      <use xlink:href="#DejaVuSans-74"/>
      <use xlink:href="#DejaVuSans-69" x="39.208984"/>
      <use xlink:href="#DejaVuSans-6d" x="66.992188"/>
      <use xlink:href="#DejaVuSans-65" x="164.404297"/>
      <use xlink:href="#DejaVuSans-20" x="225.927734"/>
      <use xlink:href="#DejaVuSans-73" x="257.714844"/>
      <use xlink:href="#DejaVuSans-69" x="309.814453"/>
      <use xlink:href="#DejaVuSans-6e" x="337.597656"/>
      <use xlink:href="#DejaVuSans-63" x="400.976562"/>
      <use xlink:href="#DejaVuSans-65" x="455.957031"/>
     </g>
     <!-- turn onset (s) -->
     <g transform="translate(224.188359 198.339875) scale(0.15 -0.15)">
      <defs>
       <path id="DejaVuSans-72" d="M 2631 2963 
Q 2534 3019 2420 3045 
Q 2306 3072 2169 3072 
Q 1681 3072 1420 2755 
Q 1159 2438 1159 1844 
L 1159 0 
L 581 0 
L 581 3500 
L 1159 3500 
L 1159 2956 
Q 1341 3275 1631 3429 
Q 1922 3584 2338 3584 
Q 2397 3584 2469 3576 
Q 2541 3569 2628 3553 
L 2631 2963 
z
" transform="scale(0.015625)"/>
      </defs>
      <use xlink:href="#DejaVuSans-74"/>
      <use xlink:href="#DejaVuSans-75" x="39.208984"/>
      <use xlink:href="#DejaVuSans-72" x="102.587891"/>
      <use xlink:href="#DejaVuSans-6e" x="141.951172"/>
      <use xlink:href="#DejaVuSans-20" x="205.330078"/>
      <use xlink:href="#DejaVuSans-6f" x="237.117188"/>
      <use xlink:href="#DejaVuSans-6e" x="298.298828"/>
      <use xlink:href="#DejaVuSans-73" x="361.677734"/>
      <use xlink:href="#DejaVuSans-65" x="413.777344"/>
      <use xlink:href="#DejaVuSans-74" x="475.300781"/>
      <use xlink:href="#DejaVuSans-20" x="514.509766"/>
      <use xlink:href="#DejaVuSans-28" x="546.296875"/>
      <use xlink:href="#DejaVuSans-73" x="585.310547"/>
      <use xlink:href="#DejaVuSans-29" x="637.410156"/>
     </g>
    </g>
   </g>
   <g id="matplotlib.axis_4">
    <g id="ytick_5">
     <g id="line2d_18">
      <g>
       <use xlink:href="#m0854f5707e" x="204.251875" y="146.178646" style="stroke: #000000; stroke-width: 0.8"/>
      </g>
     </g>
    </g>
    <g id="ytick_6">
     <g id="line2d_19">
      <g>
       <use xlink:href="#m0854f5707e" x="204.251875" y="116.967694" style="stroke: #000000; stroke-width: 0.8"/>
      </g>
     </g>
    </g>
    <g id="ytick_7">
     <g id="line2d_20">
      <g>
       <use xlink:href="#m0854f5707e" x="204.251875" y="87.756742" style="stroke: #000000; stroke-width: 0.8"/>
      </g>
     </g>
    </g>
    <g id="ytick_8">
     <g id="line2d_21">
      <g>
       <use xlink:href="#m0854f5707e" x="204.251875" y="58.54579" style="stroke: #000000; stroke-width: 0.8"/>
      </g>
     </g>
    </g>
   </g>
   <g id="line2d_22">
    <path d="M 210.676037 100.44079 
L 211.960869 99.569665 
L 213.245702 100.947995 
L 214.530534 102.594678 
L 215.815366 101.438934 
L 217.100199 99.977056 
L 218.385031 99.277778 
L 219.669864 97.739843 
L 220.954696 96.197251 
L 222.239528 96.19523 
L 223.524361 97.173241 
L 224.809193 98.192407 
L 226.094026 99.524288 
L 227.378858 100.523035 
L 228.66369 101.522151 
L 229.948523 102.837704 
L 231.233355 104.703307 
L 232.518188 107.158445 
L 233.80302 108.302951 
L 235.087852 107.895218 
L 236.372685 106.361025 
L 237.657517 104.010834 
L 238.942349 102.01887 
L 240.227182 100.857934 
L 241.512014 99.852603 
L 242.796847 99.129374 
L 244.081679 100.7423 
L 245.366511 104.920159 
L 246.651344 107.482413 
L 247.936176 106.648091 
L 249.221009 102.522513 
L 250.505841 96.881886 
L 251.790673 92.876161 
L 253.075506 89.397215 
L 254.360338 83.570365 
L 255.64517 76.056435 
L 256.930003 70.114235 
L 258.214835 67.248599 
L 259.499668 66.083164 
L 260.7845 64.009492 
L 262.069332 60.892599 
L 263.354165 58.432746 
L 264.638997 56.61412 
L 265.92383 55.655094 
L 267.208662 55.145444 
L 268.493494 54.671834 
L 269.778327 54.486011 
L 271.063159 54.983177 
L 272.347991 55.916742 
L 273.632824 57.440018 
L 274.917656 60.424564 
L 276.202489 64.625848 
L 277.487321 68.766649 
L 278.772153 71.452106 
L 280.056986 72.44617 
L 281.341818 73.069592 
L 282.626651 74.385264 
L 283.911483 76.660093 
L 285.196315 78.477169 
L 286.481148 78.826946 
L 287.76598 78.790241 
L 289.050813 79.281704 
L 290.335645 81.039153 
L 291.620477 83.735176 
L 292.90531 86.215955 
L 294.190142 87.893751 
L 295.474974 89.692313 
L 296.759807 91.71828 
L 298.044639 91.75518 
L 299.329472 90.994332 
L 300.614304 90.583249 
L 301.899136 90.623622 
L 303.183969 91.059653 
L 304.468801 91.507329 
L 305.753634 92.490142 
L 307.038466 94.928256 
L 308.323298 97.808921 
L 309.608131 98.774507 
L 310.892963 98.05109 
L 312.177795 97.963183 
L 313.462628 99.399436 
L 314.74746 101.029627 
L 316.032293 101.461164 
L 317.317125 101.025353 
L 318.601957 101.936811 
L 319.88679 103.338208 
L 321.171622 103.240839 
L 322.456455 102.990364 
L 323.741287 103.58964 
L 325.026119 104.283074 
" clip-path="url(#p3dcb422974)" style="fill: none; stroke: #006633; stroke-width: 1.5; stroke-linecap: square"/>
   </g>
   <g id="line2d_23">
    <path d="M 210.676037 130.772985 
L 211.960869 132.456735 
L 213.245702 134.465813 
L 214.530534 134.856426 
L 215.815366 134.352391 
L 217.100199 134.256751 
L 218.385031 131.862416 
L 219.669864 127.33596 
L 220.954696 126.031769 
L 222.239528 126.506608 
L 223.524361 125.257557 
L 224.809193 126.236027 
L 226.094026 129.675702 
L 227.378858 133.121113 
L 228.66369 133.98764 
L 229.948523 132.747668 
L 231.233355 132.149535 
L 232.518188 131.922732 
L 233.80302 129.528825 
L 235.087852 125.468523 
L 236.372685 123.857885 
L 237.657517 124.586447 
L 238.942349 122.476561 
L 240.227182 117.1526 
L 241.512014 111.859096 
L 242.796847 109.204394 
L 244.081679 109.070046 
L 245.366511 111.400619 
L 246.651344 115.789448 
L 247.936176 120.592228 
L 249.221009 121.050601 
L 250.505841 117.441314 
L 251.790673 115.104471 
L 253.075506 113.862262 
L 254.360338 109.357762 
L 255.64517 102.052394 
L 256.930003 96.541067 
L 258.214835 91.017348 
L 259.499668 83.858759 
L 260.7845 79.016561 
L 262.069332 77.024879 
L 263.354165 76.320356 
L 264.638997 75.502618 
L 265.92383 72.979466 
L 267.208662 70.942326 
L 268.493494 69.780861 
L 269.778327 69.777367 
L 271.063159 72.165099 
L 272.347991 75.827191 
L 273.632824 78.713242 
L 274.917656 79.840667 
L 276.202489 80.803117 
L 277.487321 83.134823 
L 278.772153 85.847738 
L 280.056986 87.999691 
L 281.341818 89.659579 
L 282.626651 92.951446 
L 283.911483 97.817483 
L 285.196315 103.112611 
L 286.481148 108.172335 
L 287.76598 112.132459 
L 289.050813 114.094849 
L 290.335645 115.072134 
L 291.620477 116.007287 
L 292.90531 115.53985 
L 294.190142 113.984468 
L 295.474974 114.651564 
L 296.759807 117.465983 
L 298.044639 119.98239 
L 299.329472 121.067988 
L 300.614304 122.671259 
L 301.899136 126.071486 
L 303.183969 130.744301 
L 304.468801 133.456874 
L 305.753634 132.836908 
L 307.038466 129.773494 
L 308.323298 125.250638 
L 309.608131 122.071032 
L 310.892963 122.314157 
L 312.177795 124.002858 
L 313.462628 125.692182 
L 314.74746 127.364371 
L 316.032293 128.696504 
L 317.317125 128.907042 
L 318.601957 126.611413 
L 319.88679 124.46122 
L 321.171622 124.104086 
L 322.456455 124.593493 
L 323.741287 125.431455 
L 325.026119 125.638374 
" clip-path="url(#p3dcb422974)" style="fill: none; stroke: #000000; stroke-width: 1.5; stroke-linecap: square"/>
   </g>
   <g id="LineCollection_2">
    <path d="M 210.676037 116.967694 
L 339.159276 116.967694 
" clip-path="url(#p3dcb422974)" style="fill: none; stroke-dasharray: 7.4,3.2; stroke-dashoffset: 0; stroke: #808080; stroke-width: 2"/>
   </g>
   <g id="patch_6">
    <path d="M 204.251875 149.467375 
L 204.251875 41.394375 
" style="fill: none; stroke: #000000; stroke-width: 0.8; stroke-linejoin: miter; stroke-linecap: square"/>
   </g>
   <g id="patch_7">
    <path d="M 204.251875 149.467375 
L 345.583438 149.467375 
" style="fill: none; stroke: #000000; stroke-width: 0.8; stroke-linejoin: miter; stroke-linecap: square"/>
   </g>
   <g id="text_20">
    <!-- Choice -->
    <g transform="translate(249.516094 18.597656) scale(0.15 -0.15)">
     <defs>
      <path id="DejaVuSans-43" d="M 4122 4306 
L 4122 3641 
Q 3803 3938 3442 4084 
Q 3081 4231 2675 4231 
Q 1875 4231 1450 3742 
Q 1025 3253 1025 2328 
Q 1025 1406 1450 917 
Q 1875 428 2675 428 
Q 3081 428 3442 575 
Q 3803 722 4122 1019 
L 4122 359 
Q 3791 134 3420 21 
Q 3050 -91 2638 -91 
Q 1578 -91 968 557 
Q 359 1206 359 2328 
Q 359 3453 968 4101 
Q 1578 4750 2638 4750 
Q 3056 4750 3426 4639 
Q 3797 4528 4122 4306 
z
" transform="scale(0.015625)"/>
      <path id="DejaVuSans-68" d="M 3513 2113 
L 3513 0 
L 2938 0 
L 2938 2094 
Q 2938 2591 2744 2837 
Q 2550 3084 2163 3084 
Q 1697 3084 1428 2787 
Q 1159 2491 1159 1978 
L 1159 0 
L 581 0 
L 581 4863 
L 1159 4863 
L 1159 2956 
Q 1366 3272 1645 3428 
Q 1925 3584 2291 3584 
Q 2894 3584 3203 3211 
Q 3513 2838 3513 2113 
z
" transform="scale(0.015625)"/>
     </defs>
     <use xlink:href="#DejaVuSans-43"/>
     <use xlink:href="#DejaVuSans-68" x="69.824219"/>
     <use xlink:href="#DejaVuSans-6f" x="133.203125"/>
     <use xlink:href="#DejaVuSans-69" x="194.384766"/>
     <use xlink:href="#DejaVuSans-63" x="222.167969"/>
     <use xlink:href="#DejaVuSans-65" x="277.148438"/>
    </g>
    <!-- Decoding -->
    <g transform="translate(239.455547 35.394375) scale(0.15 -0.15)">
     <use xlink:href="#DejaVuSans-44"/>
     <use xlink:href="#DejaVuSans-65" x="77.001953"/>
     <use xlink:href="#DejaVuSans-63" x="138.525391"/>
     <use xlink:href="#DejaVuSans-6f" x="193.505859"/>
     <use xlink:href="#DejaVuSans-64" x="254.6875"/>
     <use xlink:href="#DejaVuSans-69" x="318.164062"/>
     <use xlink:href="#DejaVuSans-6e" x="345.947266"/>
     <use xlink:href="#DejaVuSans-67" x="409.326172"/>
    </g>
   </g>
  </g>
 </g>
 <defs>
  <clipPath id="p93739d2d27">
   <rect x="48.620313" y="41.394375" width="141.331563" height="108.073"/>
  </clipPath>
  <clipPath id="p3dcb422974">
   <rect x="204.251875" y="41.394375" width="141.331563" height="108.073"/>
  </clipPath>
 </defs>
</svg>
