<?xml version="1.0" encoding="utf-8" standalone="no"?>
<!DOCTYPE svg PUBLIC "-//W3C//DTD SVG 1.1//EN"
  "http://www.w3.org/Graphics/SVG/1.1/DTD/svg11.dtd">
<svg xmlns:xlink="http://www.w3.org/1999/xlink" width="352.783437pt" height="208.659406pt" viewBox="0 0 352.783437 208.659406" xmlns="http://www.w3.org/2000/svg" version="1.1">
 <metadata>
  <rdf:RDF xmlns:dc="http://purl.org/dc/elements/1.1/" xmlns:cc="http://creativecommons.org/ns#" xmlns:rdf="http://www.w3.org/1999/02/22-rdf-syntax-ns#">
   <cc:Work>
    <dc:type rdf:resource="http://purl.org/dc/dcmitype/StillImage"/>
    <dc:date>2024-05-23T13:35:08.979209</dc:date>
    <dc:format>image/svg+xml</dc:format>
    <dc:creator>
     <cc:Agent>
      <dc:title>Matplotlib v3.7.2, https://matplotlib.org/</dc:title>
     </cc:Agent>
    </dc:creator>
   </cc:Work>
  </rdf:RDF>
 </metadata>
 <defs>
  <style type="text/css">*{stroke-linejoin: round; stroke-linecap: butt}</style>
 </defs>
 <g id="figure_1">
  <g id="patch_1">
   <path d="M 0 208.659406 
L 352.783437 208.659406 
L 352.783437 0 
L 0 0 
z
" style="fill: #ffffff"/>
  </g>
  <g id="axes_1">
   <g id="patch_2">
    <path d="M 48.620313 149.467375 
L 189.951875 149.467375 
L 189.951875 41.394375 
L 48.620313 41.394375 
z
" style="fill: #ffffff"/>
   </g>
   <g id="PolyCollection_1">
    <defs>
     <path id="mf8dc41211f" d="M 55.044474 -102.631052 
L 55.044474 -96.648013 
L 56.234134 -94.685255 
L 57.423794 -95.258513 
L 58.613453 -94.30346 
L 59.803113 -97.394005 
L 60.992773 -96.38585 
L 62.182432 -95.107392 
L 63.372092 -94.48615 
L 64.561751 -96.086464 
L 65.751411 -94.647976 
L 66.941071 -93.997309 
L 68.13073 -92.561299 
L 69.32039 -89.814111 
L 70.510049 -92.30102 
L 71.699709 -92.199205 
L 72.889369 -94.680716 
L 74.079028 -96.096861 
L 75.268688 -94.564033 
L 76.458348 -97.081718 
L 77.648007 -99.534641 
L 78.837667 -96.188284 
L 80.027326 -99.555253 
L 81.216986 -95.545905 
L 82.406646 -96.579338 
L 83.596305 -96.455064 
L 84.785965 -96.768833 
L 85.975624 -96.162627 
L 87.165284 -97.34544 
L 88.354944 -97.950032 
L 89.544603 -99.879468 
L 90.734263 -100.07779 
L 91.923923 -102.864523 
L 93.113582 -101.447312 
L 94.303242 -98.481698 
L 95.492901 -99.642197 
L 96.682561 -100.780279 
L 97.872221 -99.690169 
L 99.06188 -99.931343 
L 100.25154 -100.394237 
L 101.441199 -101.712602 
L 102.630859 -99.177778 
L 103.820519 -99.951423 
L 105.010178 -101.198958 
L 106.199838 -101.109345 
L 107.389498 -101.216975 
L 108.579157 -100.599811 
L 109.768817 -102.912311 
L 110.958476 -104.959185 
L 112.148136 -102.709397 
L 113.337796 -102.078572 
L 114.527455 -103.657091 
L 115.717115 -101.828788 
L 116.906775 -101.571275 
L 118.096434 -102.855027 
L 119.286094 -99.225552 
L 120.475753 -101.567981 
L 121.665413 -102.794269 
L 122.855073 -101.023126 
L 124.044732 -100.91508 
L 125.234392 -101.072763 
L 126.424051 -98.634525 
L 127.613711 -100.038055 
L 128.803371 -99.705937 
L 129.99303 -100.607021 
L 131.18269 -102.420656 
L 132.37235 -101.059063 
L 133.562009 -100.819731 
L 134.751669 -100.847955 
L 135.941328 -100.913546 
L 137.130988 -98.900828 
L 138.320648 -99.97633 
L 139.510307 -100.264626 
L 140.699967 -97.387303 
L 141.889626 -100.239165 
L 143.079286 -100.048368 
L 144.268946 -96.998508 
L 145.458605 -97.119094 
L 146.648265 -95.833936 
L 147.837925 -97.973908 
L 149.027584 -95.395265 
L 150.217244 -96.882661 
L 151.406903 -96.283223 
L 152.596563 -97.85863 
L 153.786223 -95.170734 
L 154.975882 -99.744156 
L 156.165542 -96.423777 
L 157.355201 -98.180743 
L 158.544861 -98.129531 
L 159.734521 -97.643057 
L 160.92418 -97.645776 
L 162.11384 -100.347159 
L 163.3035 -98.054864 
L 164.493159 -99.111755 
L 165.682819 -97.606105 
L 166.872478 -98.189246 
L 168.062138 -100.337232 
L 169.251798 -101.389017 
L 170.441457 -99.821522 
L 171.631117 -97.711195 
L 172.820777 -102.261555 
L 174.010436 -97.461246 
L 175.200096 -95.957502 
L 176.389755 -101.800169 
L 177.579415 -97.347789 
L 178.769075 -95.909742 
L 179.958734 -97.17661 
L 181.148394 -98.74583 
L 182.338053 -98.419026 
L 183.527713 -96.815011 
L 183.527713 -102.79805 
L 183.527713 -102.79805 
L 182.338053 -104.402065 
L 181.148394 -104.728869 
L 179.958734 -103.159649 
L 178.769075 -101.892782 
L 177.579415 -103.330828 
L 176.389755 -107.783209 
L 175.200096 -101.940541 
L 174.010436 -103.444286 
L 172.820777 -108.244594 
L 171.631117 -103.694234 
L 170.441457 -105.804561 
L 169.251798 -107.372057 
L 168.062138 -106.320271 
L 166.872478 -104.172286 
L 165.682819 -103.589145 
L 164.493159 -105.094795 
L 163.3035 -104.037903 
L 162.11384 -106.330198 
L 160.92418 -103.628815 
L 159.734521 -103.626097 
L 158.544861 -104.112571 
L 157.355201 -104.163782 
L 156.165542 -102.406817 
L 154.975882 -105.727196 
L 153.786223 -101.153773 
L 152.596563 -103.84167 
L 151.406903 -102.266263 
L 150.217244 -102.8657 
L 149.027584 -101.378304 
L 147.837925 -103.956947 
L 146.648265 -101.816976 
L 145.458605 -103.102133 
L 144.268946 -102.981548 
L 143.079286 -106.031407 
L 141.889626 -106.222204 
L 140.699967 -103.370343 
L 139.510307 -106.247666 
L 138.320648 -105.959369 
L 137.130988 -104.883867 
L 135.941328 -106.896586 
L 134.751669 -106.830995 
L 133.562009 -106.80277 
L 132.37235 -107.042103 
L 131.18269 -108.403695 
L 129.99303 -106.590061 
L 128.803371 -105.688976 
L 127.613711 -106.021094 
L 126.424051 -104.617565 
L 125.234392 -107.055802 
L 124.044732 -106.898119 
L 122.855073 -107.006165 
L 121.665413 -108.777309 
L 120.475753 -107.551021 
L 119.286094 -105.208591 
L 118.096434 -108.838066 
L 116.906775 -107.554314 
L 115.717115 -107.811828 
L 114.527455 -109.64013 
L 113.337796 -108.061611 
L 112.148136 -108.692437 
L 110.958476 -110.942224 
L 109.768817 -108.895351 
L 108.579157 -106.582851 
L 107.389498 -107.200014 
L 106.199838 -107.092384 
L 105.010178 -107.181998 
L 103.820519 -105.934462 
L 102.630859 -105.160817 
L 101.441199 -107.695641 
L 100.25154 -106.377276 
L 99.06188 -105.914382 
L 97.872221 -105.673208 
L 96.682561 -106.763319 
L 95.492901 -105.625236 
L 94.303242 -104.464738 
L 93.113582 -107.430352 
L 91.923923 -108.847562 
L 90.734263 -106.06083 
L 89.544603 -105.862508 
L 88.354944 -103.933071 
L 87.165284 -103.328479 
L 85.975624 -102.145666 
L 84.785965 -102.751873 
L 83.596305 -102.438103 
L 82.406646 -102.562377 
L 81.216986 -101.528944 
L 80.027326 -105.538293 
L 78.837667 -102.171324 
L 77.648007 -105.51768 
L 76.458348 -103.064757 
L 75.268688 -100.547072 
L 74.079028 -102.079901 
L 72.889369 -100.663756 
L 71.699709 -98.182245 
L 70.510049 -98.284059 
L 69.32039 -95.79715 
L 68.13073 -98.544338 
L 66.941071 -99.980348 
L 65.751411 -100.631016 
L 64.561751 -102.069503 
L 63.372092 -100.46919 
L 62.182432 -101.090431 
L 60.992773 -102.368889 
L 59.803113 -103.377044 
L 58.613453 -100.2865 
L 57.423794 -101.241552 
L 56.234134 -100.668294 
L 55.044474 -102.631052 
z
" style="stroke: #006633; stroke-opacity: 0.5"/>
    </defs>
    <g clip-path="url(#pbbf515c083)">
     <use xlink:href="#mf8dc41211f" x="0" y="208.659406" style="fill: #006633; fill-opacity: 0.5; stroke: #006633; stroke-opacity: 0.5"/>
    </g>
   </g>
   <g id="PolyCollection_2">
    <defs>
     <path id="mf1cd4261d3" d="M 55.044474 -98.033764 
L 55.044474 -91.098861 
L 56.234134 -87.210412 
L 57.423794 -85.474641 
L 58.613453 -87.795136 
L 59.803113 -87.69976 
L 60.992773 -84.23514 
L 62.182432 -83.269338 
L 63.372092 -86.673977 
L 64.561751 -81.760141 
L 65.751411 -82.610461 
L 66.941071 -85.735273 
L 68.13073 -84.40245 
L 69.32039 -84.392599 
L 70.510049 -85.493392 
L 71.699709 -84.732277 
L 72.889369 -82.905246 
L 74.079028 -86.606234 
L 75.268688 -86.658894 
L 76.458348 -84.991872 
L 77.648007 -84.694571 
L 78.837667 -88.106348 
L 80.027326 -84.60265 
L 81.216986 -85.465158 
L 82.406646 -87.538663 
L 83.596305 -90.300204 
L 84.785965 -91.353065 
L 85.975624 -89.273059 
L 87.165284 -90.716459 
L 88.354944 -88.851318 
L 89.544603 -90.987685 
L 90.734263 -90.563628 
L 91.923923 -90.370044 
L 93.113582 -94.070442 
L 94.303242 -89.935455 
L 95.492901 -89.855676 
L 96.682561 -90.846549 
L 97.872221 -91.907445 
L 99.06188 -90.242382 
L 100.25154 -93.017548 
L 101.441199 -88.244862 
L 102.630859 -88.26517 
L 103.820519 -87.966668 
L 105.010178 -89.529051 
L 106.199838 -88.177748 
L 107.389498 -87.37513 
L 108.579157 -86.263389 
L 109.768817 -88.122089 
L 110.958476 -90.0284 
L 112.148136 -87.809141 
L 113.337796 -89.965609 
L 114.527455 -90.506715 
L 115.717115 -92.359141 
L 116.906775 -90.621593 
L 118.096434 -95.663234 
L 119.286094 -90.283113 
L 120.475753 -91.2207 
L 121.665413 -92.468997 
L 122.855073 -90.820894 
L 124.044732 -91.198341 
L 125.234392 -89.337312 
L 126.424051 -90.478402 
L 127.613711 -91.125483 
L 128.803371 -93.52063 
L 129.99303 -91.822434 
L 131.18269 -91.321583 
L 132.37235 -88.462171 
L 133.562009 -90.169059 
L 134.751669 -88.474324 
L 135.941328 -89.847087 
L 137.130988 -90.71721 
L 138.320648 -87.432439 
L 139.510307 -87.552799 
L 140.699967 -87.270274 
L 141.889626 -88.839439 
L 143.079286 -89.033674 
L 144.268946 -90.669109 
L 145.458605 -90.418787 
L 146.648265 -90.422121 
L 147.837925 -92.488661 
L 149.027584 -89.013838 
L 150.217244 -90.097298 
L 151.406903 -87.614667 
L 152.596563 -87.891539 
L 153.786223 -87.548376 
L 154.975882 -84.110144 
L 156.165542 -84.873295 
L 157.355201 -84.747042 
L 158.544861 -83.919325 
L 159.734521 -86.118273 
L 160.92418 -86.668801 
L 162.11384 -87.08188 
L 163.3035 -86.26681 
L 164.493159 -86.861683 
L 165.682819 -85.425997 
L 166.872478 -87.182432 
L 168.062138 -89.073866 
L 169.251798 -89.804767 
L 170.441457 -87.659697 
L 171.631117 -87.823594 
L 172.820777 -87.121795 
L 174.010436 -86.183936 
L 175.200096 -86.114151 
L 176.389755 -82.67669 
L 177.579415 -85.983968 
L 178.769075 -87.41498 
L 179.958734 -86.381476 
L 181.148394 -90.570638 
L 182.338053 -88.081486 
L 183.527713 -89.82937 
L 183.527713 -96.764274 
L 183.527713 -96.764274 
L 182.338053 -95.016389 
L 181.148394 -97.505542 
L 179.958734 -93.31638 
L 178.769075 -94.349883 
L 177.579415 -92.918871 
L 176.389755 -89.611594 
L 175.200096 -93.049054 
L 174.010436 -93.11884 
L 172.820777 -94.056698 
L 171.631117 -94.758498 
L 170.441457 -94.5946 
L 169.251798 -96.73967 
L 168.062138 -96.008769 
L 166.872478 -94.117336 
L 165.682819 -92.360901 
L 164.493159 -93.796587 
L 163.3035 -93.201713 
L 162.11384 -94.016783 
L 160.92418 -93.603704 
L 159.734521 -93.053177 
L 158.544861 -90.854228 
L 157.355201 -91.681945 
L 156.165542 -91.808198 
L 154.975882 -91.045047 
L 153.786223 -94.483279 
L 152.596563 -94.826442 
L 151.406903 -94.54957 
L 150.217244 -97.032201 
L 149.027584 -95.948741 
L 147.837925 -99.423564 
L 146.648265 -97.357024 
L 145.458605 -97.35369 
L 144.268946 -97.604012 
L 143.079286 -95.968578 
L 141.889626 -95.774342 
L 140.699967 -94.205177 
L 139.510307 -94.487703 
L 138.320648 -94.367342 
L 137.130988 -97.652113 
L 135.941328 -96.78199 
L 134.751669 -95.409228 
L 133.562009 -97.103962 
L 132.37235 -95.397075 
L 131.18269 -98.256486 
L 129.99303 -98.757337 
L 128.803371 -100.455533 
L 127.613711 -98.060387 
L 126.424051 -97.413305 
L 125.234392 -96.272215 
L 124.044732 -98.133244 
L 122.855073 -97.755798 
L 121.665413 -99.403901 
L 120.475753 -98.155603 
L 119.286094 -97.218016 
L 118.096434 -102.598137 
L 116.906775 -97.556496 
L 115.717115 -99.294045 
L 114.527455 -97.441618 
L 113.337796 -96.900512 
L 112.148136 -94.744044 
L 110.958476 -96.963303 
L 109.768817 -95.056992 
L 108.579157 -93.198292 
L 107.389498 -94.310034 
L 106.199838 -95.112651 
L 105.010178 -96.463954 
L 103.820519 -94.901571 
L 102.630859 -95.200073 
L 101.441199 -95.179766 
L 100.25154 -99.952451 
L 99.06188 -97.177285 
L 97.872221 -98.842348 
L 96.682561 -97.781453 
L 95.492901 -96.790579 
L 94.303242 -96.870358 
L 93.113582 -101.005345 
L 91.923923 -97.304947 
L 90.734263 -97.498531 
L 89.544603 -97.922588 
L 88.354944 -95.786222 
L 87.165284 -97.651362 
L 85.975624 -96.207962 
L 84.785965 -98.287969 
L 83.596305 -97.235107 
L 82.406646 -94.473567 
L 81.216986 -92.400061 
L 80.027326 -91.537553 
L 78.837667 -95.041251 
L 77.648007 -91.629474 
L 76.458348 -91.926775 
L 75.268688 -93.593797 
L 74.079028 -93.541137 
L 72.889369 -89.840149 
L 71.699709 -91.66718 
L 70.510049 -92.428295 
L 69.32039 -91.327502 
L 68.13073 -91.337353 
L 66.941071 -92.670176 
L 65.751411 -89.545364 
L 64.561751 -88.695044 
L 63.372092 -93.60888 
L 62.182432 -90.204241 
L 60.992773 -91.170043 
L 59.803113 -94.634663 
L 58.613453 -94.73004 
L 57.423794 -92.409544 
L 56.234134 -94.145316 
L 55.044474 -98.033764 
z
" style="stroke: #000000; stroke-opacity: 0.5"/>
    </defs>
    <g clip-path="url(#pbbf515c083)">
     <use xlink:href="#mf1cd4261d3" x="0" y="208.659406" style="fill-opacity: 0.5; stroke: #000000; stroke-opacity: 0.5"/>
    </g>
   </g>
   <g id="matplotlib.axis_1">
    <g id="xtick_1">
     <g id="line2d_1">
      <defs>
       <path id="m145431e38e" d="M 0 0 
L 0 3.5 
" style="stroke: #000000; stroke-width: 0.8"/>
      </defs>
      <g>
       <use xlink:href="#m145431e38e" x="55.044474" y="149.467375" style="stroke: #000000; stroke-width: 0.8"/>
      </g>
     </g>
     <g id="text_1">
      <!-- 0 -->
      <g transform="translate(51.863224 164.065812) scale(0.1 -0.1)">
       <defs>
        <path id="DejaVuSans-30" d="M 2034 4250 
Q 1547 4250 1301 3770 
Q 1056 3291 1056 2328 
Q 1056 1369 1301 889 
Q 1547 409 2034 409 
Q 2525 409 2770 889 
Q 3016 1369 3016 2328 
Q 3016 3291 2770 3770 
Q 2525 4250 2034 4250 
z
M 2034 4750 
Q 2819 4750 3233 4129 
Q 3647 3509 3647 2328 
Q 3647 1150 3233 529 
Q 2819 -91 2034 -91 
Q 1250 -91 836 529 
Q 422 1150 422 2328 
Q 422 3509 836 4129 
Q 1250 4750 2034 4750 
z
" transform="scale(0.015625)"/>
       </defs>
       <use xlink:href="#DejaVuSans-30"/>
      </g>
     </g>
    </g>
    <g id="xtick_2">
     <g id="line2d_2">
      <g>
       <use xlink:href="#m145431e38e" x="90.734263" y="149.467375" style="stroke: #000000; stroke-width: 0.8"/>
      </g>
     </g>
     <g id="text_2">
      <!-- 2 -->
      <g transform="translate(87.553013 164.065812) scale(0.1 -0.1)">
       <defs>
        <path id="DejaVuSans-32" d="M 1228 531 
L 3431 531 
L 3431 0 
L 469 0 
L 469 531 
Q 828 903 1448 1529 
Q 2069 2156 2228 2338 
Q 2531 2678 2651 2914 
Q 2772 3150 2772 3378 
Q 2772 3750 2511 3984 
Q 2250 4219 1831 4219 
Q 1534 4219 1204 4116 
Q 875 4013 500 3803 
L 500 4441 
Q 881 4594 1212 4672 
Q 1544 4750 1819 4750 
Q 2544 4750 2975 4387 
Q 3406 4025 3406 3419 
Q 3406 3131 3298 2873 
Q 3191 2616 2906 2266 
Q 2828 2175 2409 1742 
Q 1991 1309 1228 531 
z
" transform="scale(0.015625)"/>
       </defs>
       <use xlink:href="#DejaVuSans-32"/>
      </g>
     </g>
    </g>
    <g id="xtick_3">
     <g id="line2d_3">
      <g>
       <use xlink:href="#m145431e38e" x="126.424051" y="149.467375" style="stroke: #000000; stroke-width: 0.8"/>
      </g>
     </g>
     <g id="text_3">
      <!-- 4 -->
      <g transform="translate(123.242801 164.065812) scale(0.1 -0.1)">
       <defs>
        <path id="DejaVuSans-34" d="M 2419 4116 
L 825 1625 
L 2419 1625 
L 2419 4116 
z
M 2253 4666 
L 3047 4666 
L 3047 1625 
L 3713 1625 
L 3713 1100 
L 3047 1100 
L 3047 0 
L 2419 0 
L 2419 1100 
L 313 1100 
L 313 1709 
L 2253 4666 
z
" transform="scale(0.015625)"/>
       </defs>
       <use xlink:href="#DejaVuSans-34"/>
      </g>
     </g>
    </g>
    <g id="xtick_4">
     <g id="line2d_4">
      <g>
       <use xlink:href="#m145431e38e" x="162.11384" y="149.467375" style="stroke: #000000; stroke-width: 0.8"/>
      </g>
     </g>
     <g id="text_4">
      <!-- 6 -->
      <g transform="translate(158.93259 164.065812) scale(0.1 -0.1)">
       <defs>
        <path id="DejaVuSans-36" d="M 2113 2584 
Q 1688 2584 1439 2293 
Q 1191 2003 1191 1497 
Q 1191 994 1439 701 
Q 1688 409 2113 409 
Q 2538 409 2786 701 
Q 3034 994 3034 1497 
Q 3034 2003 2786 2293 
Q 2538 2584 2113 2584 
z
M 3366 4563 
L 3366 3988 
Q 3128 4100 2886 4159 
Q 2644 4219 2406 4219 
Q 1781 4219 1451 3797 
Q 1122 3375 1075 2522 
Q 1259 2794 1537 2939 
Q 1816 3084 2150 3084 
Q 2853 3084 3261 2657 
Q 3669 2231 3669 1497 
Q 3669 778 3244 343 
Q 2819 -91 2113 -91 
Q 1303 -91 875 529 
Q 447 1150 447 2328 
Q 447 3434 972 4092 
Q 1497 4750 2381 4750 
Q 2619 4750 2861 4703 
Q 3103 4656 3366 4563 
z
" transform="scale(0.015625)"/>
       </defs>
       <use xlink:href="#DejaVuSans-36"/>
      </g>
     </g>
    </g>
    <g id="text_5">
     <!-- time since -->
     <g transform="translate(80.475938 181.543156) scale(0.15 -0.15)">
      <defs>
       <path id="DejaVuSans-74" d="M 1172 4494 
L 1172 3500 
L 2356 3500 
L 2356 3053 
L 1172 3053 
L 1172 1153 
Q 1172 725 1289 603 
Q 1406 481 1766 481 
L 2356 481 
L 2356 0 
L 1766 0 
Q 1100 0 847 248 
Q 594 497 594 1153 
L 594 3053 
L 172 3053 
L 172 3500 
L 594 3500 
L 594 4494 
L 1172 4494 
z
" transform="scale(0.015625)"/>
       <path id="DejaVuSans-69" d="M 603 3500 
L 1178 3500 
L 1178 0 
L 603 0 
L 603 3500 
z
M 603 4863 
L 1178 4863 
L 1178 4134 
L 603 4134 
L 603 4863 
z
" transform="scale(0.015625)"/>
       <path id="DejaVuSans-6d" d="M 3328 2828 
Q 3544 3216 3844 3400 
Q 4144 3584 4550 3584 
Q 5097 3584 5394 3201 
Q 5691 2819 5691 2113 
L 5691 0 
L 5113 0 
L 5113 2094 
Q 5113 2597 4934 2840 
Q 4756 3084 4391 3084 
Q 3944 3084 3684 2787 
Q 3425 2491 3425 1978 
L 3425 0 
L 2847 0 
L 2847 2094 
Q 2847 2600 2669 2842 
Q 2491 3084 2119 3084 
Q 1678 3084 1418 2786 
Q 1159 2488 1159 1978 
L 1159 0 
L 581 0 
L 581 3500 
L 1159 3500 
L 1159 2956 
Q 1356 3278 1631 3431 
Q 1906 3584 2284 3584 
Q 2666 3584 2933 3390 
Q 3200 3197 3328 2828 
z
" transform="scale(0.015625)"/>
       <path id="DejaVuSans-65" d="M 3597 1894 
L 3597 1613 
L 953 1613 
Q 991 1019 1311 708 
Q 1631 397 2203 397 
Q 2534 397 2845 478 
Q 3156 559 3463 722 
L 3463 178 
Q 3153 47 2828 -22 
Q 2503 -91 2169 -91 
Q 1331 -91 842 396 
Q 353 884 353 1716 
Q 353 2575 817 3079 
Q 1281 3584 2069 3584 
Q 2775 3584 3186 3129 
Q 3597 2675 3597 1894 
z
M 3022 2063 
Q 3016 2534 2758 2815 
Q 2500 3097 2075 3097 
Q 1594 3097 1305 2825 
Q 1016 2553 972 2059 
L 3022 2063 
z
" transform="scale(0.015625)"/>
       <path id="DejaVuSans-20" transform="scale(0.015625)"/>
       <path id="DejaVuSans-73" d="M 2834 3397 
L 2834 2853 
Q 2591 2978 2328 3040 
Q 2066 3103 1784 3103 
Q 1356 3103 1142 2972 
Q 928 2841 928 2578 
Q 928 2378 1081 2264 
Q 1234 2150 1697 2047 
L 1894 2003 
Q 2506 1872 2764 1633 
Q 3022 1394 3022 966 
Q 3022 478 2636 193 
Q 2250 -91 1575 -91 
Q 1294 -91 989 -36 
Q 684 19 347 128 
L 347 722 
Q 666 556 975 473 
Q 1284 391 1588 391 
Q 1994 391 2212 530 
Q 2431 669 2431 922 
Q 2431 1156 2273 1281 
Q 2116 1406 1581 1522 
L 1381 1569 
Q 847 1681 609 1914 
Q 372 2147 372 2553 
Q 372 3047 722 3315 
Q 1072 3584 1716 3584 
Q 2034 3584 2315 3537 
Q 2597 3491 2834 3397 
z
" transform="scale(0.015625)"/>
       <path id="DejaVuSans-6e" d="M 3513 2113 
L 3513 0 
L 2938 0 
L 2938 2094 
Q 2938 2591 2744 2837 
Q 2550 3084 2163 3084 
Q 1697 3084 1428 2787 
Q 1159 2491 1159 1978 
L 1159 0 
L 581 0 
L 581 3500 
L 1159 3500 
L 1159 2956 
Q 1366 3272 1645 3428 
Q 1925 3584 2291 3584 
Q 2894 3584 3203 3211 
Q 3513 2838 3513 2113 
z
" transform="scale(0.015625)"/>
       <path id="DejaVuSans-63" d="M 3122 3366 
L 3122 2828 
Q 2878 2963 2633 3030 
Q 2388 3097 2138 3097 
Q 1578 3097 1268 2742 
Q 959 2388 959 1747 
Q 959 1106 1268 751 
Q 1578 397 2138 397 
Q 2388 397 2633 464 
Q 2878 531 3122 666 
L 3122 134 
Q 2881 22 2623 -34 
Q 2366 -91 2075 -91 
Q 1284 -91 818 406 
Q 353 903 353 1747 
Q 353 2603 823 3093 
Q 1294 3584 2113 3584 
Q 2378 3584 2631 3529 
Q 2884 3475 3122 3366 
z
" transform="scale(0.015625)"/>
      </defs>
      <use xlink:href="#DejaVuSans-74"/>
      <use xlink:href="#DejaVuSans-69" x="39.208984"/>
      <use xlink:href="#DejaVuSans-6d" x="66.992188"/>
      <use xlink:href="#DejaVuSans-65" x="164.404297"/>
      <use xlink:href="#DejaVuSans-20" x="225.927734"/>
      <use xlink:href="#DejaVuSans-73" x="257.714844"/>
      <use xlink:href="#DejaVuSans-69" x="309.814453"/>
      <use xlink:href="#DejaVuSans-6e" x="337.597656"/>
      <use xlink:href="#DejaVuSans-63" x="400.976562"/>
      <use xlink:href="#DejaVuSans-65" x="455.957031"/>
     </g>
     <!-- sound onset (s) -->
     <g transform="translate(61.191563 198.339875) scale(0.15 -0.15)">
      <defs>
       <path id="DejaVuSans-6f" d="M 1959 3097 
Q 1497 3097 1228 2736 
Q 959 2375 959 1747 
Q 959 1119 1226 758 
Q 1494 397 1959 397 
Q 2419 397 2687 759 
Q 2956 1122 2956 1747 
Q 2956 2369 2687 2733 
Q 2419 3097 1959 3097 
z
M 1959 3584 
Q 2709 3584 3137 3096 
Q 3566 2609 3566 1747 
Q 3566 888 3137 398 
Q 2709 -91 1959 -91 
Q 1206 -91 779 398 
Q 353 888 353 1747 
Q 353 2609 779 3096 
Q 1206 3584 1959 3584 
z
" transform="scale(0.015625)"/>
       <path id="DejaVuSans-75" d="M 544 1381 
L 544 3500 
L 1119 3500 
L 1119 1403 
Q 1119 906 1312 657 
Q 1506 409 1894 409 
Q 2359 409 2629 706 
Q 2900 1003 2900 1516 
L 2900 3500 
L 3475 3500 
L 3475 0 
L 2900 0 
L 2900 538 
Q 2691 219 2414 64 
Q 2138 -91 1772 -91 
Q 1169 -91 856 284 
Q 544 659 544 1381 
z
M 1991 3584 
L 1991 3584 
z
" transform="scale(0.015625)"/>
       <path id="DejaVuSans-64" d="M 2906 2969 
L 2906 4863 
L 3481 4863 
L 3481 0 
L 2906 0 
L 2906 525 
Q 2725 213 2448 61 
Q 2172 -91 1784 -91 
Q 1150 -91 751 415 
Q 353 922 353 1747 
Q 353 2572 751 3078 
Q 1150 3584 1784 3584 
Q 2172 3584 2448 3432 
Q 2725 3281 2906 2969 
z
M 947 1747 
Q 947 1113 1208 752 
Q 1469 391 1925 391 
Q 2381 391 2643 752 
Q 2906 1113 2906 1747 
Q 2906 2381 2643 2742 
Q 2381 3103 1925 3103 
Q 1469 3103 1208 2742 
Q 947 2381 947 1747 
z
" transform="scale(0.015625)"/>
       <path id="DejaVuSans-28" d="M 1984 4856 
Q 1566 4138 1362 3434 
Q 1159 2731 1159 2009 
Q 1159 1288 1364 580 
Q 1569 -128 1984 -844 
L 1484 -844 
Q 1016 -109 783 600 
Q 550 1309 550 2009 
Q 550 2706 781 3412 
Q 1013 4119 1484 4856 
L 1984 4856 
z
" transform="scale(0.015625)"/>
       <path id="DejaVuSans-29" d="M 513 4856 
L 1013 4856 
Q 1481 4119 1714 3412 
Q 1947 2706 1947 2009 
Q 1947 1309 1714 600 
Q 1481 -109 1013 -844 
L 513 -844 
Q 928 -128 1133 580 
Q 1338 1288 1338 2009 
Q 1338 2731 1133 3434 
Q 928 4138 513 4856 
z
" transform="scale(0.015625)"/>
      </defs>
      <use xlink:href="#DejaVuSans-73"/>
      <use xlink:href="#DejaVuSans-6f" x="52.099609"/>
      <use xlink:href="#DejaVuSans-75" x="113.28125"/>
      <use xlink:href="#DejaVuSans-6e" x="176.660156"/>
      <use xlink:href="#DejaVuSans-64" x="240.039062"/>
      <use xlink:href="#DejaVuSans-20" x="303.515625"/>
      <use xlink:href="#DejaVuSans-6f" x="335.302734"/>
      <use xlink:href="#DejaVuSans-6e" x="396.484375"/>
      <use xlink:href="#DejaVuSans-73" x="459.863281"/>
      <use xlink:href="#DejaVuSans-65" x="511.962891"/>
      <use xlink:href="#DejaVuSans-74" x="573.486328"/>
      <use xlink:href="#DejaVuSans-20" x="612.695312"/>
      <use xlink:href="#DejaVuSans-28" x="644.482422"/>
      <use xlink:href="#DejaVuSans-73" x="683.496094"/>
      <use xlink:href="#DejaVuSans-29" x="735.595703"/>
     </g>
    </g>
   </g>
   <g id="matplotlib.axis_2">
    <g id="ytick_1">
     <g id="line2d_5">
      <defs>
       <path id="m1c87dd3029" d="M 0 0 
L -3.5 0 
" style="stroke: #000000; stroke-width: 0.8"/>
      </defs>
      <g>
       <use xlink:href="#m1c87dd3029" x="48.620313" y="147.48004" style="stroke: #000000; stroke-width: 0.8"/>
      </g>
     </g>
     <g id="text_6">
      <!-- 0.3 -->
      <g transform="translate(25.717188 151.279259) scale(0.1 -0.1)">
       <defs>
        <path id="DejaVuSans-2e" d="M 684 794 
L 1344 794 
L 1344 0 
L 684 0 
L 684 794 
z
" transform="scale(0.015625)"/>
        <path id="DejaVuSans-33" d="M 2597 2516 
Q 3050 2419 3304 2112 
Q 3559 1806 3559 1356 
Q 3559 666 3084 287 
Q 2609 -91 1734 -91 
Q 1441 -91 1130 -33 
Q 819 25 488 141 
L 488 750 
Q 750 597 1062 519 
Q 1375 441 1716 441 
Q 2309 441 2620 675 
Q 2931 909 2931 1356 
Q 2931 1769 2642 2001 
Q 2353 2234 1838 2234 
L 1294 2234 
L 1294 2753 
L 1863 2753 
Q 2328 2753 2575 2939 
Q 2822 3125 2822 3475 
Q 2822 3834 2567 4026 
Q 2313 4219 1838 4219 
Q 1578 4219 1281 4162 
Q 984 4106 628 3988 
L 628 4550 
Q 988 4650 1302 4700 
Q 1616 4750 1894 4750 
Q 2613 4750 3031 4423 
Q 3450 4097 3450 3541 
Q 3450 3153 3228 2886 
Q 3006 2619 2597 2516 
z
" transform="scale(0.015625)"/>
       </defs>
       <use xlink:href="#DejaVuSans-30"/>
       <use xlink:href="#DejaVuSans-2e" x="63.623047"/>
       <use xlink:href="#DejaVuSans-33" x="95.410156"/>
      </g>
     </g>
    </g>
    <g id="ytick_2">
     <g id="line2d_6">
      <g>
       <use xlink:href="#m1c87dd3029" x="48.620313" y="117.925143" style="stroke: #000000; stroke-width: 0.8"/>
      </g>
     </g>
     <g id="text_7">
      <!-- 0.5 -->
      <g transform="translate(25.717188 121.724362) scale(0.1 -0.1)">
       <defs>
        <path id="DejaVuSans-35" d="M 691 4666 
L 3169 4666 
L 3169 4134 
L 1269 4134 
L 1269 2991 
Q 1406 3038 1543 3061 
Q 1681 3084 1819 3084 
Q 2600 3084 3056 2656 
Q 3513 2228 3513 1497 
Q 3513 744 3044 326 
Q 2575 -91 1722 -91 
Q 1428 -91 1123 -41 
Q 819 9 494 109 
L 494 744 
Q 775 591 1075 516 
Q 1375 441 1709 441 
Q 2250 441 2565 725 
Q 2881 1009 2881 1497 
Q 2881 1984 2565 2268 
Q 2250 2553 1709 2553 
Q 1456 2553 1204 2497 
Q 953 2441 691 2322 
L 691 4666 
z
" transform="scale(0.015625)"/>
       </defs>
       <use xlink:href="#DejaVuSans-30"/>
       <use xlink:href="#DejaVuSans-2e" x="63.623047"/>
       <use xlink:href="#DejaVuSans-35" x="95.410156"/>
      </g>
     </g>
    </g>
    <g id="ytick_3">
     <g id="line2d_7">
      <g>
       <use xlink:href="#m1c87dd3029" x="48.620313" y="88.370246" style="stroke: #000000; stroke-width: 0.8"/>
      </g>
     </g>
     <g id="text_8">
      <!-- 0.7 -->
      <g transform="translate(25.717188 92.169465) scale(0.1 -0.1)">
       <defs>
        <path id="DejaVuSans-37" d="M 525 4666 
L 3525 4666 
L 3525 4397 
L 1831 0 
L 1172 0 
L 2766 4134 
L 525 4134 
L 525 4666 
z
" transform="scale(0.015625)"/>
       </defs>
       <use xlink:href="#DejaVuSans-30"/>
       <use xlink:href="#DejaVuSans-2e" x="63.623047"/>
       <use xlink:href="#DejaVuSans-37" x="95.410156"/>
      </g>
     </g>
    </g>
    <g id="ytick_4">
     <g id="line2d_8">
      <g>
       <use xlink:href="#m1c87dd3029" x="48.620313" y="58.81535" style="stroke: #000000; stroke-width: 0.8"/>
      </g>
     </g>
     <g id="text_9">
      <!-- 0.9 -->
      <g transform="translate(25.717188 62.614568) scale(0.1 -0.1)">
       <defs>
        <path id="DejaVuSans-39" d="M 703 97 
L 703 672 
Q 941 559 1184 500 
Q 1428 441 1663 441 
Q 2288 441 2617 861 
Q 2947 1281 2994 2138 
Q 2813 1869 2534 1725 
Q 2256 1581 1919 1581 
Q 1219 1581 811 2004 
Q 403 2428 403 3163 
Q 403 3881 828 4315 
Q 1253 4750 1959 4750 
Q 2769 4750 3195 4129 
Q 3622 3509 3622 2328 
Q 3622 1225 3098 567 
Q 2575 -91 1691 -91 
Q 1453 -91 1209 -44 
Q 966 3 703 97 
z
M 1959 2075 
Q 2384 2075 2632 2365 
Q 2881 2656 2881 3163 
Q 2881 3666 2632 3958 
Q 2384 4250 1959 4250 
Q 1534 4250 1286 3958 
Q 1038 3666 1038 3163 
Q 1038 2656 1286 2365 
Q 1534 2075 1959 2075 
z
" transform="scale(0.015625)"/>
       </defs>
       <use xlink:href="#DejaVuSans-30"/>
       <use xlink:href="#DejaVuSans-2e" x="63.623047"/>
       <use xlink:href="#DejaVuSans-39" x="95.410156"/>
      </g>
     </g>
    </g>
    <g id="text_10">
     <!-- Decoding acc -->
     <g transform="translate(18.597656 146.120328) rotate(-90) scale(0.15 -0.15)">
      <defs>
       <path id="DejaVuSans-44" d="M 1259 4147 
L 1259 519 
L 2022 519 
Q 2988 519 3436 956 
Q 3884 1394 3884 2338 
Q 3884 3275 3436 3711 
Q 2988 4147 2022 4147 
L 1259 4147 
z
M 628 4666 
L 1925 4666 
Q 3281 4666 3915 4102 
Q 4550 3538 4550 2338 
Q 4550 1131 3912 565 
Q 3275 0 1925 0 
L 628 0 
L 628 4666 
z
" transform="scale(0.015625)"/>
       <path id="DejaVuSans-67" d="M 2906 1791 
Q 2906 2416 2648 2759 
Q 2391 3103 1925 3103 
Q 1463 3103 1205 2759 
Q 947 2416 947 1791 
Q 947 1169 1205 825 
Q 1463 481 1925 481 
Q 2391 481 2648 825 
Q 2906 1169 2906 1791 
z
M 3481 434 
Q 3481 -459 3084 -895 
Q 2688 -1331 1869 -1331 
Q 1566 -1331 1297 -1286 
Q 1028 -1241 775 -1147 
L 775 -588 
Q 1028 -725 1275 -790 
Q 1522 -856 1778 -856 
Q 2344 -856 2625 -561 
Q 2906 -266 2906 331 
L 2906 616 
Q 2728 306 2450 153 
Q 2172 0 1784 0 
Q 1141 0 747 490 
Q 353 981 353 1791 
Q 353 2603 747 3093 
Q 1141 3584 1784 3584 
Q 2172 3584 2450 3431 
Q 2728 3278 2906 2969 
L 2906 3500 
L 3481 3500 
L 3481 434 
z
" transform="scale(0.015625)"/>
       <path id="DejaVuSans-61" d="M 2194 1759 
Q 1497 1759 1228 1600 
Q 959 1441 959 1056 
Q 959 750 1161 570 
Q 1363 391 1709 391 
Q 2188 391 2477 730 
Q 2766 1069 2766 1631 
L 2766 1759 
L 2194 1759 
z
M 3341 1997 
L 3341 0 
L 2766 0 
L 2766 531 
Q 2569 213 2275 61 
Q 1981 -91 1556 -91 
Q 1019 -91 701 211 
Q 384 513 384 1019 
Q 384 1609 779 1909 
Q 1175 2209 1959 2209 
L 2766 2209 
L 2766 2266 
Q 2766 2663 2505 2880 
Q 2244 3097 1772 3097 
Q 1472 3097 1187 3025 
Q 903 2953 641 2809 
L 641 3341 
Q 956 3463 1253 3523 
Q 1550 3584 1831 3584 
Q 2591 3584 2966 3190 
Q 3341 2797 3341 1997 
z
" transform="scale(0.015625)"/>
      </defs>
      <use xlink:href="#DejaVuSans-44"/>
      <use xlink:href="#DejaVuSans-65" x="77.001953"/>
      <use xlink:href="#DejaVuSans-63" x="138.525391"/>
      <use xlink:href="#DejaVuSans-6f" x="193.505859"/>
      <use xlink:href="#DejaVuSans-64" x="254.6875"/>
      <use xlink:href="#DejaVuSans-69" x="318.164062"/>
      <use xlink:href="#DejaVuSans-6e" x="345.947266"/>
      <use xlink:href="#DejaVuSans-67" x="409.326172"/>
      <use xlink:href="#DejaVuSans-20" x="472.802734"/>
      <use xlink:href="#DejaVuSans-61" x="504.589844"/>
      <use xlink:href="#DejaVuSans-63" x="565.869141"/>
      <use xlink:href="#DejaVuSans-63" x="620.849609"/>
     </g>
    </g>
   </g>
   <g id="line2d_9">
    <path d="M 55.044474 108.441822 
L 56.234134 109.119434 
L 57.423794 110.14253 
L 58.613453 110.443053 
L 59.803113 110.58193 
L 60.992773 110.706232 
L 62.182432 110.394819 
L 63.372092 110.097612 
L 64.561751 110.19788 
L 65.751411 111.0924 
L 66.941071 112.585018 
L 68.13073 114.055775 
L 69.32039 114.449227 
L 70.510049 113.719932 
L 71.699709 112.789665 
L 72.889369 111.94073 
L 74.079028 111.384673 
L 75.268688 110.471008 
L 76.458348 108.625524 
L 77.648007 107.434585 
L 78.837667 108.023924 
L 80.027326 108.779876 
L 81.216986 108.686253 
L 82.406646 108.98017 
L 83.596305 110.09772 
L 84.785965 110.213427 
L 85.975624 108.607971 
L 87.165284 106.82837 
L 88.354944 105.950274 
L 89.544603 106.011681 
L 90.734263 105.856625 
L 91.923923 105.818658 
L 93.113582 105.956216 
L 94.303242 106.584537 
L 95.492901 107.237013 
L 96.682561 106.914044 
L 97.872221 106.016691 
L 99.06188 105.339245 
L 100.25154 104.88018 
L 101.441199 104.779499 
L 102.630859 105.47351 
L 103.820519 105.726752 
L 105.010178 105.034696 
L 106.199838 104.905674 
L 107.389498 105.217262 
L 108.579157 104.701771 
L 109.768817 103.928777 
L 110.958476 103.824318 
L 112.148136 103.635504 
L 113.337796 103.202984 
L 114.527455 102.857193 
L 115.717115 102.673689 
L 116.906775 103.206872 
L 118.096434 103.554925 
L 119.286094 102.810609 
L 120.475753 101.763241 
L 121.665413 101.673856 
L 122.855073 101.997981 
L 124.044732 102.907114 
L 125.234392 104.136804 
L 126.424051 105.154891 
L 127.613711 105.702358 
L 128.803371 105.523168 
L 129.99303 105.269872 
L 131.18269 104.730003 
L 132.37235 104.362594 
L 133.562009 104.829026 
L 134.751669 105.187452 
L 135.941328 105.089977 
L 137.130988 104.885876 
L 138.320648 105.261066 
L 139.510307 106.052777 
L 140.699967 106.267304 
L 141.889626 106.310296 
L 143.079286 107.081698 
L 144.268946 108.065001 
L 145.458605 108.558692 
L 146.648265 108.404008 
L 147.837925 108.893717 
L 149.027584 109.653597 
L 150.217244 108.971133 
L 151.406903 107.528934 
L 152.596563 106.944352 
L 153.786223 107.673919 
L 154.975882 108.484864 
L 156.165542 108.3516 
L 157.355201 107.740958 
L 158.544861 107.118438 
L 159.734521 106.566749 
L 160.92418 106.376978 
L 162.11384 106.415875 
L 163.3035 106.477583 
L 164.493159 107.366217 
L 165.682819 108.038035 
L 166.872478 107.011887 
L 168.062138 105.446476 
L 169.251798 104.856115 
L 170.441457 104.963893 
L 171.631117 105.518005 
L 172.820777 106.231388 
L 174.010436 106.965195 
L 175.200096 107.991229 
L 176.389755 108.376855 
L 177.579415 108.076465 
L 178.769075 107.428267 
L 179.958734 106.989343 
L 181.148394 107.263944 
L 182.338053 107.698267 
L 183.527713 107.74689 
" clip-path="url(#pbbf515c083)" style="fill: none; stroke: #006633; stroke-width: 1.5; stroke-linecap: square"/>
   </g>
   <g id="line2d_10">
    <path d="M 55.044474 116.275608 
L 56.234134 116.315227 
L 57.423794 117.309435 
L 58.613453 119.421325 
L 59.803113 120.987952 
L 60.992773 120.390794 
L 62.182432 119.035084 
L 63.372092 119.024739 
L 64.561751 120.310076 
L 65.751411 121.716032 
L 66.941071 121.997514 
L 68.13073 120.763351 
L 69.32039 119.906667 
L 70.510049 119.634408 
L 71.699709 119.795007 
L 72.889369 120.601314 
L 74.079028 121.224651 
L 75.268688 120.484944 
L 76.458348 119.840404 
L 77.648007 120.20314 
L 78.837667 121.248962 
L 80.027326 121.821666 
L 81.216986 120.268154 
L 82.406646 117.7453 
L 83.596305 115.98663 
L 84.785965 115.471169 
L 85.975624 115.915914 
L 87.165284 115.638295 
L 88.354944 113.962682 
L 89.544603 113.011895 
L 90.734263 113.356022 
L 91.923923 112.723018 
L 93.113582 112.376795 
L 94.303242 114.334166 
L 95.492901 115.90563 
L 96.682561 115.057243 
L 97.872221 113.939486 
L 99.06188 115.1457 
L 100.25154 116.917092 
L 101.441199 117.180993 
L 102.630859 117.118676 
L 103.820519 117.959859 
L 105.010178 118.374776 
L 106.199838 117.953287 
L 107.389498 117.55971 
L 108.579157 117.106877 
L 109.768817 117.278672 
L 110.958476 118.080382 
L 112.148136 117.658427 
L 113.337796 116.311477 
L 114.527455 114.930285 
L 115.717115 113.651421 
L 116.906775 112.815421 
L 118.096434 112.380569 
L 119.286094 112.198359 
L 120.475753 112.853833 
L 121.665413 114.016539 
L 122.855073 115.066015 
L 124.044732 116.350031 
L 125.234392 116.944672 
L 126.424051 114.973891 
L 127.613711 112.053354 
L 128.803371 112.130896 
L 129.99303 114.77545 
L 131.18269 116.018737 
L 132.37235 115.115919 
L 133.562009 115.692095 
L 134.751669 118.28943 
L 135.941328 118.610292 
L 137.130988 117.128393 
L 138.320648 116.972797 
L 139.510307 117.648366 
L 140.699967 117.227194 
L 141.889626 115.877131 
L 143.079286 115.156913 
L 144.268946 115.447347 
L 145.458605 114.865732 
L 146.648265 113.230925 
L 147.837925 112.969918 
L 149.027584 114.242681 
L 150.217244 115.597936 
L 151.406903 116.569131 
L 152.596563 117.962548 
L 153.786223 120.341622 
L 154.975882 122.1837 
L 156.165542 122.385156 
L 157.355201 121.19602 
L 158.544861 119.862363 
L 159.734521 119.048971 
L 160.92418 118.31488 
L 162.11384 118.235571 
L 163.3035 118.611856 
L 164.493159 119.411818 
L 165.682819 118.983503 
L 166.872478 117.173647 
L 168.062138 116.074075 
L 169.251798 115.984261 
L 170.441457 116.074725 
L 171.631117 117.128913 
L 172.820777 118.170232 
L 174.010436 119.455171 
L 175.200096 121.40717 
L 176.389755 121.654581 
L 177.579415 119.908395 
L 178.769075 117.654224 
L 179.958734 115.591033 
L 181.148394 115.388048 
L 182.338053 117.288802 
L 183.527713 119.169587 
" clip-path="url(#pbbf515c083)" style="fill: none; stroke: #000000; stroke-width: 1.5; stroke-linecap: square"/>
   </g>
   <g id="LineCollection_1">
    <path d="M 55.044474 117.925143 
L 174.010436 117.925143 
" clip-path="url(#pbbf515c083)" style="fill: none; stroke-dasharray: 7.4,3.2; stroke-dashoffset: 0; stroke: #808080; stroke-width: 2"/>
   </g>
   <g id="patch_3">
    <path d="M 48.620313 149.467375 
L 48.620313 41.394375 
" style="fill: none; stroke: #000000; stroke-width: 0.8; stroke-linejoin: miter; stroke-linecap: square"/>
   </g>
   <g id="patch_4">
    <path d="M 48.620313 149.467375 
L 189.951875 149.467375 
" style="fill: none; stroke: #000000; stroke-width: 0.8; stroke-linejoin: miter; stroke-linecap: square"/>
   </g>
   <g id="text_11">
    <!-- Stimulus -->
    <g transform="translate(86.698594 18.597656) scale(0.15 -0.15)">
     <defs>
      <path id="DejaVuSans-53" d="M 3425 4513 
L 3425 3897 
Q 3066 4069 2747 4153 
Q 2428 4238 2131 4238 
Q 1616 4238 1336 4038 
Q 1056 3838 1056 3469 
Q 1056 3159 1242 3001 
Q 1428 2844 1947 2747 
L 2328 2669 
Q 3034 2534 3370 2195 
Q 3706 1856 3706 1288 
Q 3706 609 3251 259 
Q 2797 -91 1919 -91 
Q 1588 -91 1214 -16 
Q 841 59 441 206 
L 441 856 
Q 825 641 1194 531 
Q 1563 422 1919 422 
Q 2459 422 2753 634 
Q 3047 847 3047 1241 
Q 3047 1584 2836 1778 
Q 2625 1972 2144 2069 
L 1759 2144 
Q 1053 2284 737 2584 
Q 422 2884 422 3419 
Q 422 4038 858 4394 
Q 1294 4750 2059 4750 
Q 2388 4750 2728 4690 
Q 3069 4631 3425 4513 
z
" transform="scale(0.015625)"/>
      <path id="DejaVuSans-6c" d="M 603 4863 
L 1178 4863 
L 1178 0 
L 603 0 
L 603 4863 
z
" transform="scale(0.015625)"/>
     </defs>
     <use xlink:href="#DejaVuSans-53"/>
     <use xlink:href="#DejaVuSans-74" x="63.476562"/>
     <use xlink:href="#DejaVuSans-69" x="102.685547"/>
     <use xlink:href="#DejaVuSans-6d" x="130.46875"/>
     <use xlink:href="#DejaVuSans-75" x="227.880859"/>
     <use xlink:href="#DejaVuSans-6c" x="291.259766"/>
     <use xlink:href="#DejaVuSans-75" x="319.042969"/>
     <use xlink:href="#DejaVuSans-73" x="382.421875"/>
    </g>
    <!-- Decoding -->
    <g transform="translate(83.823984 35.394375) scale(0.15 -0.15)">
     <use xlink:href="#DejaVuSans-44"/>
     <use xlink:href="#DejaVuSans-65" x="77.001953"/>
     <use xlink:href="#DejaVuSans-63" x="138.525391"/>
     <use xlink:href="#DejaVuSans-6f" x="193.505859"/>
     <use xlink:href="#DejaVuSans-64" x="254.6875"/>
     <use xlink:href="#DejaVuSans-69" x="318.164062"/>
     <use xlink:href="#DejaVuSans-6e" x="345.947266"/>
     <use xlink:href="#DejaVuSans-67" x="409.326172"/>
    </g>
   </g>
  </g>
  <g id="axes_2">
   <g id="patch_5">
    <path d="M 204.251875 149.467375 
L 345.583438 149.467375 
L 345.583438 41.394375 
L 204.251875 41.394375 
z
" style="fill: #ffffff"/>
   </g>
   <g id="PolyCollection_3">
    <defs>
     <path id="mb6e2e9c03c" d="M 210.676037 -114.713988 
L 210.676037 -97.911527 
L 211.960869 -97.549411 
L 213.245702 -98.961637 
L 214.530534 -96.059594 
L 215.815366 -99.156932 
L 217.100199 -99.694672 
L 218.385031 -102.004348 
L 219.669864 -102.471315 
L 220.954696 -101.457654 
L 222.239528 -100.599904 
L 223.524361 -104.37168 
L 224.809193 -99.885428 
L 226.094026 -98.488997 
L 227.378858 -97.274013 
L 228.66369 -99.244777 
L 229.948523 -95.406882 
L 231.233355 -93.602804 
L 232.518188 -93.69763 
L 233.80302 -92.548422 
L 235.087852 -92.015252 
L 236.372685 -95.049232 
L 237.657517 -96.889014 
L 238.942349 -98.219021 
L 240.227182 -99.046537 
L 241.512014 -99.054283 
L 242.796847 -95.568699 
L 244.081679 -99.651219 
L 245.366511 -96.422321 
L 246.651344 -96.352726 
L 247.936176 -98.00223 
L 249.221009 -100.9501 
L 250.505841 -103.12648 
L 251.790673 -107.559187 
L 253.075506 -110.93164 
L 254.360338 -117.121476 
L 255.64517 -121.064004 
L 256.930003 -125.968306 
L 258.214835 -129.515215 
L 259.499668 -133.596531 
L 260.7845 -137.908835 
L 262.069332 -143.357992 
L 263.354165 -141.029596 
L 264.638997 -140.455361 
L 265.92383 -145.550161 
L 267.208662 -144.015781 
L 268.493494 -143.847056 
L 269.778327 -145.066149 
L 271.063159 -142.344202 
L 272.347991 -143.297032 
L 273.632824 -140.904587 
L 274.917656 -138.568919 
L 276.202489 -135.975296 
L 277.487321 -132.552833 
L 278.772153 -129.965677 
L 280.056986 -128.402577 
L 281.341818 -127.006367 
L 282.626651 -123.40929 
L 283.911483 -121.428915 
L 285.196315 -122.230609 
L 286.481148 -119.211688 
L 287.76598 -120.542996 
L 289.050813 -120.682143 
L 290.335645 -118.681021 
L 291.620477 -114.373303 
L 292.90531 -112.654171 
L 294.190142 -112.522689 
L 295.474974 -109.86891 
L 296.759807 -108.889659 
L 298.044639 -109.665743 
L 299.329472 -107.162173 
L 300.614304 -108.017646 
L 301.899136 -107.307561 
L 303.183969 -106.536123 
L 304.468801 -105.999722 
L 305.753634 -107.040232 
L 307.038466 -104.627738 
L 308.323298 -101.823297 
L 309.608131 -101.686729 
L 310.892963 -98.850072 
L 312.177795 -99.544855 
L 313.462628 -103.097646 
L 314.74746 -99.042535 
L 316.032293 -99.580186 
L 317.317125 -97.811248 
L 318.601957 -97.873171 
L 319.88679 -97.837914 
L 321.171622 -94.816042 
L 322.456455 -96.081665 
L 323.741287 -98.203654 
L 325.026119 -94.534987 
L 325.026119 -111.337449 
L 325.026119 -111.337449 
L 323.741287 -115.006116 
L 322.456455 -112.884126 
L 321.171622 -111.618504 
L 319.88679 -114.640376 
L 318.601957 -114.675632 
L 317.317125 -114.61371 
L 316.032293 -116.382648 
L 314.74746 -115.844996 
L 313.462628 -119.900107 
L 312.177795 -116.347317 
L 310.892963 -115.652534 
L 309.608131 -118.48919 
L 308.323298 -118.625758 
L 307.038466 -121.430199 
L 305.753634 -123.842694 
L 304.468801 -122.802183 
L 303.183969 -123.338584 
L 301.899136 -124.110022 
L 300.614304 -124.820108 
L 299.329472 -123.964634 
L 298.044639 -126.468204 
L 296.759807 -125.692121 
L 295.474974 -126.671372 
L 294.190142 -129.325151 
L 292.90531 -129.456633 
L 291.620477 -131.175764 
L 290.335645 -135.483482 
L 289.050813 -137.484605 
L 287.76598 -137.345458 
L 286.481148 -136.01415 
L 285.196315 -139.033071 
L 283.911483 -138.231377 
L 282.626651 -140.211751 
L 281.341818 -143.808828 
L 280.056986 -145.205039 
L 278.772153 -146.768138 
L 277.487321 -149.355295 
L 276.202489 -152.777758 
L 274.917656 -155.371381 
L 273.632824 -157.707049 
L 272.347991 -160.099493 
L 271.063159 -159.146663 
L 269.778327 -161.868611 
L 268.493494 -160.649518 
L 267.208662 -160.818243 
L 265.92383 -162.352622 
L 264.638997 -157.257823 
L 263.354165 -157.832058 
L 262.069332 -160.160454 
L 260.7845 -154.711296 
L 259.499668 -150.398992 
L 258.214835 -146.317676 
L 256.930003 -142.770768 
L 255.64517 -137.866465 
L 254.360338 -133.923938 
L 253.075506 -127.734101 
L 251.790673 -124.361649 
L 250.505841 -119.928942 
L 249.221009 -117.752561 
L 247.936176 -114.804692 
L 246.651344 -113.155187 
L 245.366511 -113.224782 
L 244.081679 -116.45368 
L 242.796847 -112.371161 
L 241.512014 -115.856745 
L 240.227182 -115.848998 
L 238.942349 -115.021483 
L 237.657517 -113.691476 
L 236.372685 -111.851693 
L 235.087852 -108.817713 
L 233.80302 -109.350884 
L 232.518188 -110.500091 
L 231.233355 -110.405265 
L 229.948523 -112.209343 
L 228.66369 -116.047239 
L 227.378858 -114.076475 
L 226.094026 -115.291459 
L 224.809193 -116.687889 
L 223.524361 -121.174142 
L 222.239528 -117.402365 
L 220.954696 -118.260116 
L 219.669864 -119.273776 
L 218.385031 -118.80681 
L 217.100199 -116.497133 
L 215.815366 -115.959394 
L 214.530534 -112.862055 
L 213.245702 -115.764099 
L 211.960869 -114.351872 
L 210.676037 -114.713988 
z
" style="stroke: #006633; stroke-opacity: 0.5"/>
    </defs>
    <g clip-path="url(#p9904f0f3f9)">
     <use xlink:href="#mb6e2e9c03c" x="0" y="208.659406" style="fill: #006633; fill-opacity: 0.5; stroke: #006633; stroke-opacity: 0.5"/>
    </g>
   </g>
   <g id="PolyCollection_4">
    <defs>
     <path id="ma6ed5516cb" d="M 210.676037 -84.586565 
L 210.676037 -64.208345 
L 211.960869 -64.10444 
L 213.245702 -64.32177 
L 214.530534 -64.359022 
L 215.815366 -65.736769 
L 217.100199 -65.624112 
L 218.385031 -66.411355 
L 219.669864 -70.149137 
L 220.954696 -70.759033 
L 222.239528 -68.216289 
L 223.524361 -73.995089 
L 224.809193 -71.875386 
L 226.094026 -67.473701 
L 227.378858 -66.770142 
L 228.66369 -67.226572 
L 229.948523 -64.87132 
L 231.233355 -66.814951 
L 232.518188 -68.614445 
L 233.80302 -67.205227 
L 235.087852 -69.753255 
L 236.372685 -73.973853 
L 237.657517 -75.428212 
L 238.942349 -78.716741 
L 240.227182 -80.196273 
L 241.512014 -82.835805 
L 242.796847 -82.157779 
L 244.081679 -83.688067 
L 245.366511 -84.224595 
L 246.651344 -83.381999 
L 247.936176 -81.260676 
L 249.221009 -79.760036 
L 250.505841 -80.446133 
L 251.790673 -83.318966 
L 253.075506 -86.344613 
L 254.360338 -92.561528 
L 255.64517 -95.823721 
L 256.930003 -99.031195 
L 258.214835 -104.964017 
L 259.499668 -114.219018 
L 260.7845 -114.436213 
L 262.069332 -120.383057 
L 263.354165 -121.065627 
L 264.638997 -122.961566 
L 265.92383 -124.546674 
L 267.208662 -127.745813 
L 268.493494 -126.167882 
L 269.778327 -125.94321 
L 271.063159 -122.311678 
L 272.347991 -122.855054 
L 273.632824 -121.169879 
L 274.917656 -118.696727 
L 276.202489 -118.450457 
L 277.487321 -114.42684 
L 278.772153 -112.56439 
L 280.056986 -112.081184 
L 281.341818 -104.471422 
L 282.626651 -102.624661 
L 283.911483 -101.367248 
L 285.196315 -96.330172 
L 286.481148 -91.856421 
L 287.76598 -88.675933 
L 289.050813 -85.458421 
L 290.335645 -85.858867 
L 291.620477 -83.238802 
L 292.90531 -82.6895 
L 294.190142 -82.1877 
L 295.474974 -81.417055 
L 296.759807 -78.041978 
L 298.044639 -79.085828 
L 299.329472 -75.654039 
L 300.614304 -76.151964 
L 301.899136 -70.785013 
L 303.183969 -69.242491 
L 304.468801 -67.685946 
L 305.753634 -66.53871 
L 307.038466 -70.361722 
L 308.323298 -73.689463 
L 309.608131 -72.451885 
L 310.892963 -72.65491 
L 312.177795 -72.201989 
L 313.462628 -68.968987 
L 314.74746 -70.501887 
L 316.032293 -70.56418 
L 317.317125 -71.843668 
L 318.601957 -72.344602 
L 319.88679 -71.100825 
L 321.171622 -71.843305 
L 322.456455 -74.05361 
L 323.741287 -72.019546 
L 325.026119 -71.385161 
L 325.026119 -91.76338 
L 325.026119 -91.76338 
L 323.741287 -92.397766 
L 322.456455 -94.431829 
L 321.171622 -92.221525 
L 319.88679 -91.479045 
L 318.601957 -92.722822 
L 317.317125 -92.221888 
L 316.032293 -90.9424 
L 314.74746 -90.880106 
L 313.462628 -89.347207 
L 312.177795 -92.580209 
L 310.892963 -93.03313 
L 309.608131 -92.830105 
L 308.323298 -94.067682 
L 307.038466 -90.739942 
L 305.753634 -86.91693 
L 304.468801 -88.064166 
L 303.183969 -89.620711 
L 301.899136 -91.163232 
L 300.614304 -96.530184 
L 299.329472 -96.032259 
L 298.044639 -99.464047 
L 296.759807 -98.420198 
L 295.474974 -101.795275 
L 294.190142 -102.56592 
L 292.90531 -103.06772 
L 291.620477 -103.617022 
L 290.335645 -106.237087 
L 289.050813 -105.83664 
L 287.76598 -109.054152 
L 286.481148 -112.234641 
L 285.196315 -116.708391 
L 283.911483 -121.745467 
L 282.626651 -123.002881 
L 281.341818 -124.849642 
L 280.056986 -132.459404 
L 278.772153 -132.94261 
L 277.487321 -134.80506 
L 276.202489 -138.828676 
L 274.917656 -139.074947 
L 273.632824 -141.548098 
L 272.347991 -143.233274 
L 271.063159 -142.689898 
L 269.778327 -146.32143 
L 268.493494 -146.546102 
L 267.208662 -148.124033 
L 265.92383 -144.924893 
L 264.638997 -143.339786 
L 263.354165 -141.443847 
L 262.069332 -140.761276 
L 260.7845 -134.814432 
L 259.499668 -134.597238 
L 258.214835 -125.342237 
L 256.930003 -119.409414 
L 255.64517 -116.201941 
L 254.360338 -112.939748 
L 253.075506 -106.722833 
L 251.790673 -103.697186 
L 250.505841 -100.824353 
L 249.221009 -100.138256 
L 247.936176 -101.638896 
L 246.651344 -103.760219 
L 245.366511 -104.602814 
L 244.081679 -104.066287 
L 242.796847 -102.535999 
L 241.512014 -103.214025 
L 240.227182 -100.574492 
L 238.942349 -99.094961 
L 237.657517 -95.806432 
L 236.372685 -94.352072 
L 235.087852 -90.131475 
L 233.80302 -87.583446 
L 232.518188 -88.992664 
L 231.233355 -87.193171 
L 229.948523 -85.24954 
L 228.66369 -87.604792 
L 227.378858 -87.148362 
L 226.094026 -87.851921 
L 224.809193 -92.253605 
L 223.524361 -94.373309 
L 222.239528 -88.594509 
L 220.954696 -91.137253 
L 219.669864 -90.527357 
L 218.385031 -86.789575 
L 217.100199 -86.002332 
L 215.815366 -86.114989 
L 214.530534 -84.737242 
L 213.245702 -84.69999 
L 211.960869 -84.48266 
L 210.676037 -84.586565 
z
" style="stroke: #000000; stroke-opacity: 0.5"/>
    </defs>
    <g clip-path="url(#p9904f0f3f9)">
     <use xlink:href="#ma6ed5516cb" x="0" y="208.659406" style="fill-opacity: 0.5; stroke: #000000; stroke-opacity: 0.5"/>
    </g>
   </g>
   <g id="matplotlib.axis_3">
    <g id="xtick_5">
     <g id="line2d_11">
      <g>
       <use xlink:href="#m145431e38e" x="210.676037" y="149.467375" style="stroke: #000000; stroke-width: 0.8"/>
      </g>
     </g>
     <g id="text_12">
      <!-- -3 -->
      <g transform="translate(205.690881 164.065812) scale(0.1 -0.1)">
       <defs>
        <path id="DejaVuSans-2d" d="M 313 2009 
L 1997 2009 
L 1997 1497 
L 313 1497 
L 313 2009 
z
" transform="scale(0.015625)"/>
       </defs>
       <use xlink:href="#DejaVuSans-2d"/>
       <use xlink:href="#DejaVuSans-33" x="36.083984"/>
      </g>
     </g>
    </g>
    <g id="xtick_6">
     <g id="line2d_12">
      <g>
       <use xlink:href="#m145431e38e" x="229.948523" y="149.467375" style="stroke: #000000; stroke-width: 0.8"/>
      </g>
     </g>
     <g id="text_13">
      <!-- -2 -->
      <g transform="translate(224.963366 164.065812) scale(0.1 -0.1)">
       <use xlink:href="#DejaVuSans-2d"/>
       <use xlink:href="#DejaVuSans-32" x="36.083984"/>
      </g>
     </g>
    </g>
    <g id="xtick_7">
     <g id="line2d_13">
      <g>
       <use xlink:href="#m145431e38e" x="249.221009" y="149.467375" style="stroke: #000000; stroke-width: 0.8"/>
      </g>
     </g>
     <g id="text_14">
      <!-- -1 -->
      <g transform="translate(244.235852 164.065812) scale(0.1 -0.1)">
       <defs>
        <path id="DejaVuSans-31" d="M 794 531 
L 1825 531 
L 1825 4091 
L 703 3866 
L 703 4441 
L 1819 4666 
L 2450 4666 
L 2450 531 
L 3481 531 
L 3481 0 
L 794 0 
L 794 531 
z
" transform="scale(0.015625)"/>
       </defs>
       <use xlink:href="#DejaVuSans-2d"/>
       <use xlink:href="#DejaVuSans-31" x="36.083984"/>
      </g>
     </g>
    </g>
    <g id="xtick_8">
     <g id="line2d_14">
      <g>
       <use xlink:href="#m145431e38e" x="268.493494" y="149.467375" style="stroke: #000000; stroke-width: 0.8"/>
      </g>
     </g>
     <g id="text_15">
      <!-- 0 -->
      <g transform="translate(265.312244 164.065812) scale(0.1 -0.1)">
       <use xlink:href="#DejaVuSans-30"/>
      </g>
     </g>
    </g>
    <g id="xtick_9">
     <g id="line2d_15">
      <g>
       <use xlink:href="#m145431e38e" x="287.76598" y="149.467375" style="stroke: #000000; stroke-width: 0.8"/>
      </g>
     </g>
     <g id="text_16">
      <!-- 1 -->
      <g transform="translate(284.58473 164.065812) scale(0.1 -0.1)">
       <use xlink:href="#DejaVuSans-31"/>
      </g>
     </g>
    </g>
    <g id="xtick_10">
     <g id="line2d_16">
      <g>
       <use xlink:href="#m145431e38e" x="307.038466" y="149.467375" style="stroke: #000000; stroke-width: 0.8"/>
      </g>
     </g>
     <g id="text_17">
      <!-- 2 -->
      <g transform="translate(303.857216 164.065812) scale(0.1 -0.1)">
       <use xlink:href="#DejaVuSans-32"/>
      </g>
     </g>
    </g>
    <g id="xtick_11">
     <g id="line2d_17">
      <g>
       <use xlink:href="#m145431e38e" x="326.310952" y="149.467375" style="stroke: #000000; stroke-width: 0.8"/>
      </g>
     </g>
     <g id="text_18">
      <!-- 3 -->
      <g transform="translate(323.129702 164.065812) scale(0.1 -0.1)">
       <use xlink:href="#DejaVuSans-33"/>
      </g>
     </g>
    </g>
    <g id="text_19">
     <!-- time since -->
     <g transform="translate(236.1075 181.543156) scale(0.15 -0.15)">
      <use xlink:href="#DejaVuSans-74"/>
      <use xlink:href="#DejaVuSans-69" x="39.208984"/>
      <use xlink:href="#DejaVuSans-6d" x="66.992188"/>
      <use xlink:href="#DejaVuSans-65" x="164.404297"/>
      <use xlink:href="#DejaVuSans-20" x="225.927734"/>
      <use xlink:href="#DejaVuSans-73" x="257.714844"/>
      <use xlink:href="#DejaVuSans-69" x="309.814453"/>
      <use xlink:href="#DejaVuSans-6e" x="337.597656"/>
      <use xlink:href="#DejaVuSans-63" x="400.976562"/>
      <use xlink:href="#DejaVuSans-65" x="455.957031"/>
     </g>
     <!-- turn onset (s) -->
     <g transform="translate(224.188359 198.339875) scale(0.15 -0.15)">
      <defs>
       <path id="DejaVuSans-72" d="M 2631 2963 
Q 2534 3019 2420 3045 
Q 2306 3072 2169 3072 
Q 1681 3072 1420 2755 
Q 1159 2438 1159 1844 
L 1159 0 
L 581 0 
L 581 3500 
L 1159 3500 
L 1159 2956 
Q 1341 3275 1631 3429 
Q 1922 3584 2338 3584 
Q 2397 3584 2469 3576 
Q 2541 3569 2628 3553 
L 2631 2963 
z
" transform="scale(0.015625)"/>
      </defs>
      <use xlink:href="#DejaVuSans-74"/>
      <use xlink:href="#DejaVuSans-75" x="39.208984"/>
      <use xlink:href="#DejaVuSans-72" x="102.587891"/>
      <use xlink:href="#DejaVuSans-6e" x="141.951172"/>
      <use xlink:href="#DejaVuSans-20" x="205.330078"/>
      <use xlink:href="#DejaVuSans-6f" x="237.117188"/>
      <use xlink:href="#DejaVuSans-6e" x="298.298828"/>
      <use xlink:href="#DejaVuSans-73" x="361.677734"/>
      <use xlink:href="#DejaVuSans-65" x="413.777344"/>
      <use xlink:href="#DejaVuSans-74" x="475.300781"/>
      <use xlink:href="#DejaVuSans-20" x="514.509766"/>
      <use xlink:href="#DejaVuSans-28" x="546.296875"/>
      <use xlink:href="#DejaVuSans-73" x="585.310547"/>
      <use xlink:href="#DejaVuSans-29" x="637.410156"/>
     </g>
    </g>
   </g>
   <g id="matplotlib.axis_4">
    <g id="ytick_5">
     <g id="line2d_18">
      <g>
       <use xlink:href="#m1c87dd3029" x="204.251875" y="147.48004" style="stroke: #000000; stroke-width: 0.8"/>
      </g>
     </g>
    </g>
    <g id="ytick_6">
     <g id="line2d_19">
      <g>
       <use xlink:href="#m1c87dd3029" x="204.251875" y="117.925143" style="stroke: #000000; stroke-width: 0.8"/>
      </g>
     </g>
    </g>
    <g id="ytick_7">
     <g id="line2d_20">
      <g>
       <use xlink:href="#m1c87dd3029" x="204.251875" y="88.370246" style="stroke: #000000; stroke-width: 0.8"/>
      </g>
     </g>
    </g>
    <g id="ytick_8">
     <g id="line2d_21">
      <g>
       <use xlink:href="#m1c87dd3029" x="204.251875" y="58.81535" style="stroke: #000000; stroke-width: 0.8"/>
      </g>
     </g>
    </g>
   </g>
   <g id="line2d_22">
    <path d="M 210.676037 101.203643 
L 211.960869 100.322262 
L 213.245702 101.71682 
L 214.530534 103.382893 
L 215.815366 102.21354 
L 217.100199 100.734449 
L 218.385031 100.026937 
L 219.669864 98.470894 
L 220.954696 96.910139 
L 222.239528 96.908094 
L 223.524361 97.897621 
L 224.809193 98.928787 
L 226.094026 100.27635 
L 227.378858 101.286857 
L 228.66369 102.297737 
L 229.948523 103.62878 
L 231.233355 105.51635 
L 232.518188 108.000395 
L 233.80302 109.158378 
L 235.087852 108.745844 
L 236.372685 107.193586 
L 237.657517 104.815723 
L 238.942349 102.800305 
L 240.227182 101.625699 
L 241.512014 100.60853 
L 242.796847 99.876786 
L 244.081679 101.508704 
L 245.366511 105.735754 
L 246.651344 108.328178 
L 247.936176 107.484033 
L 249.221009 103.309878 
L 250.505841 97.602835 
L 251.790673 93.549944 
L 253.075506 90.030036 
L 254.360338 84.134577 
L 255.64517 76.532174 
L 256.930003 70.520008 
L 258.214835 67.62063 
L 259.499668 66.441473 
L 260.7845 64.343384 
L 262.069332 61.189792 
L 263.354165 58.700975 
L 264.638997 56.860936 
L 265.92383 55.890617 
L 267.208662 55.374966 
L 268.493494 54.89578 
L 269.778327 54.707769 
L 271.063159 55.210789 
L 272.347991 56.155346 
L 273.632824 57.696558 
L 274.917656 60.716246 
L 276.202489 64.966997 
L 277.487321 69.156554 
L 278.772153 71.873631 
L 280.056986 72.8794 
L 281.341818 73.510163 
L 282.626651 74.841326 
L 283.911483 77.14294 
L 285.196315 78.981411 
L 286.481148 79.335306 
L 287.76598 79.29817 
L 289.050813 79.795419 
L 290.335645 81.573562 
L 291.620477 84.301329 
L 292.90531 86.811318 
L 294.190142 88.508869 
L 295.474974 90.328608 
L 296.759807 92.37843 
L 298.044639 92.415765 
L 299.329472 91.645958 
L 300.614304 91.230035 
L 301.899136 91.270883 
L 303.183969 91.712048 
L 304.468801 92.164996 
L 305.753634 93.15938 
L 307.038466 95.626202 
L 308.323298 98.540785 
L 309.608131 99.51774 
L 310.892963 98.785806 
L 312.177795 98.696863 
L 313.462628 100.150028 
L 314.74746 101.799414 
L 316.032293 102.236031 
L 317.317125 101.795089 
L 318.601957 102.71728 
L 319.88679 104.135177 
L 321.171622 104.036662 
L 322.456455 103.783238 
L 323.741287 104.38957 
L 325.026119 105.091168 
" clip-path="url(#p9904f0f3f9)" style="fill: none; stroke: #006633; stroke-width: 1.5; stroke-linecap: square"/>
   </g>
   <g id="line2d_23">
    <path d="M 210.676037 131.892985 
L 211.960869 133.596561 
L 213.245702 135.629295 
L 214.530534 136.024507 
L 215.815366 135.514537 
L 217.100199 135.417771 
L 218.385031 132.995244 
L 219.669864 128.415491 
L 220.954696 127.095944 
L 222.239528 127.576373 
L 223.524361 126.312616 
L 224.809193 127.302607 
L 226.094026 130.782783 
L 227.378858 134.268761 
L 228.66369 135.145492 
L 229.948523 133.890919 
L 231.233355 133.285744 
L 232.518188 133.05627 
L 233.80302 130.634176 
L 235.087852 126.526066 
L 236.372685 124.896464 
L 237.657517 125.633603 
L 238.942349 123.498874 
L 240.227182 118.112227 
L 241.512014 112.756394 
L 242.796847 110.070435 
L 244.081679 109.934505 
L 245.366511 112.292519 
L 246.651344 116.733025 
L 247.936176 121.592355 
L 249.221009 122.056125 
L 250.505841 118.40434 
L 251.790673 116.039982 
L 253.075506 114.783147 
L 254.360338 110.225608 
L 255.64517 102.834223 
L 256.930003 97.258003 
L 258.214835 91.669245 
L 259.499668 84.426367 
L 260.7845 79.527154 
L 262.069332 77.512021 
L 263.354165 76.799203 
L 264.638997 75.971837 
L 265.92383 73.418976 
L 267.208662 71.357849 
L 268.493494 70.182709 
L 269.778327 70.179173 
L 271.063159 72.595019 
L 272.347991 76.300232 
L 273.632824 79.220264 
L 274.917656 80.360963 
L 276.202489 81.334746 
L 277.487321 83.693907 
L 278.772153 86.438766 
L 280.056986 88.616056 
L 281.341818 90.295489 
L 282.626651 93.626116 
L 283.911483 98.549448 
L 285.196315 103.906924 
L 286.481148 109.026224 
L 287.76598 113.032976 
L 289.050813 115.018473 
L 290.335645 116.007264 
L 291.620477 116.953428 
L 292.90531 116.480487 
L 294.190142 114.906791 
L 295.474974 115.581742 
L 296.759807 118.4293 
L 298.044639 120.975336 
L 299.329472 122.073717 
L 300.614304 123.695865 
L 301.899136 127.136129 
L 303.183969 131.863964 
L 304.468801 134.608476 
L 305.753634 133.98121 
L 307.038466 130.881726 
L 308.323298 126.305615 
L 309.608131 123.088571 
L 310.892963 123.334559 
L 312.177795 125.043143 
L 313.462628 126.752358 
L 314.74746 128.444237 
L 316.032293 129.792055 
L 317.317125 130.005072 
L 318.601957 127.682413 
L 319.88679 125.506902 
L 321.171622 125.145563 
L 322.456455 125.640733 
L 323.741287 126.488561 
L 325.026119 126.697917 
" clip-path="url(#p9904f0f3f9)" style="fill: none; stroke: #000000; stroke-width: 1.5; stroke-linecap: square"/>
   </g>
   <g id="LineCollection_2">
    <path d="M 210.676037 117.925143 
L 339.159276 117.925143 
" clip-path="url(#p9904f0f3f9)" style="fill: none; stroke-dasharray: 7.4,3.2; stroke-dashoffset: 0; stroke: #808080; stroke-width: 2"/>
   </g>
   <g id="patch_6">
    <path d="M 204.251875 149.467375 
L 204.251875 41.394375 
" style="fill: none; stroke: #000000; stroke-width: 0.8; stroke-linejoin: miter; stroke-linecap: square"/>
   </g>
   <g id="patch_7">
    <path d="M 204.251875 149.467375 
L 345.583438 149.467375 
" style="fill: none; stroke: #000000; stroke-width: 0.8; stroke-linejoin: miter; stroke-linecap: square"/>
   </g>
   <g id="text_20">
    <!-- Choice -->
    <g transform="translate(249.516094 18.597656) scale(0.15 -0.15)">
     <defs>
      <path id="DejaVuSans-43" d="M 4122 4306 
L 4122 3641 
Q 3803 3938 3442 4084 
Q 3081 4231 2675 4231 
Q 1875 4231 1450 3742 
Q 1025 3253 1025 2328 
Q 1025 1406 1450 917 
Q 1875 428 2675 428 
Q 3081 428 3442 575 
Q 3803 722 4122 1019 
L 4122 359 
Q 3791 134 3420 21 
Q 3050 -91 2638 -91 
Q 1578 -91 968 557 
Q 359 1206 359 2328 
Q 359 3453 968 4101 
Q 1578 4750 2638 4750 
Q 3056 4750 3426 4639 
Q 3797 4528 4122 4306 
z
" transform="scale(0.015625)"/>
      <path id="DejaVuSans-68" d="M 3513 2113 
L 3513 0 
L 2938 0 
L 2938 2094 
Q 2938 2591 2744 2837 
Q 2550 3084 2163 3084 
Q 1697 3084 1428 2787 
Q 1159 2491 1159 1978 
L 1159 0 
L 581 0 
L 581 4863 
L 1159 4863 
L 1159 2956 
Q 1366 3272 1645 3428 
Q 1925 3584 2291 3584 
Q 2894 3584 3203 3211 
Q 3513 2838 3513 2113 
z
" transform="scale(0.015625)"/>
     </defs>
     <use xlink:href="#DejaVuSans-43"/>
     <use xlink:href="#DejaVuSans-68" x="69.824219"/>
     <use xlink:href="#DejaVuSans-6f" x="133.203125"/>
     <use xlink:href="#DejaVuSans-69" x="194.384766"/>
     <use xlink:href="#DejaVuSans-63" x="222.167969"/>
     <use xlink:href="#DejaVuSans-65" x="277.148438"/>
    </g>
    <!-- Decoding -->
    <g transform="translate(239.455547 35.394375) scale(0.15 -0.15)">
     <use xlink:href="#DejaVuSans-44"/>
     <use xlink:href="#DejaVuSans-65" x="77.001953"/>
     <use xlink:href="#DejaVuSans-63" x="138.525391"/>
     <use xlink:href="#DejaVuSans-6f" x="193.505859"/>
     <use xlink:href="#DejaVuSans-64" x="254.6875"/>
     <use xlink:href="#DejaVuSans-69" x="318.164062"/>
     <use xlink:href="#DejaVuSans-6e" x="345.947266"/>
     <use xlink:href="#DejaVuSans-67" x="409.326172"/>
    </g>
   </g>
  </g>
 </g>
 <defs>
  <clipPath id="pbbf515c083">
   <rect x="48.620313" y="41.394375" width="141.331563" height="108.073"/>
  </clipPath>
  <clipPath id="p9904f0f3f9">
   <rect x="204.251875" y="41.394375" width="141.331563" height="108.073"/>
  </clipPath>
 </defs>
</svg>
