<?xml version="1.0" encoding="utf-8" standalone="no"?>
<!DOCTYPE svg PUBLIC "-//W3C//DTD SVG 1.1//EN"
  "http://www.w3.org/Graphics/SVG/1.1/DTD/svg11.dtd">
<svg xmlns:xlink="http://www.w3.org/1999/xlink" width="532.458377pt" height="288.752969pt" viewBox="0 0 532.458377 288.752969" xmlns="http://www.w3.org/2000/svg" version="1.1">
 <metadata>
  <rdf:RDF xmlns:dc="http://purl.org/dc/elements/1.1/" xmlns:cc="http://creativecommons.org/ns#" xmlns:rdf="http://www.w3.org/1999/02/22-rdf-syntax-ns#">
   <cc:Work>
    <dc:type rdf:resource="http://purl.org/dc/dcmitype/StillImage"/>
    <dc:date>2024-04-09T09:31:26.222231</dc:date>
    <dc:format>image/svg+xml</dc:format>
    <dc:creator>
     <cc:Agent>
      <dc:title>Matplotlib v3.7.2, https://matplotlib.org/</dc:title>
     </cc:Agent>
    </dc:creator>
   </cc:Work>
  </rdf:RDF>
 </metadata>
 <defs>
  <style type="text/css">*{stroke-linejoin: round; stroke-linecap: butt}</style>
 </defs>
 <g id="figure_1">
  <g id="patch_1">
   <path d="M 0 288.752969 
L 532.458377 288.752969 
L 532.458377 0 
L 0 0 
z
" style="fill: #ffffff"/>
  </g>
  <g id="axes_1">
   <g id="patch_2">
    <path d="M 56.442188 175.797656 
L 194.301011 175.797656 
L 194.301011 24.597656 
L 56.442188 24.597656 
z
" style="fill: #ffffff"/>
   </g>
   <g id="PathCollection_1">
    <defs>
     <path id="ma86346fdcf" d="M 0 3 
C 0.795609 3 1.55874 2.683901 2.12132 2.12132 
C 2.683901 1.55874 3 0.795609 3 0 
C 3 -0.795609 2.683901 -1.55874 2.12132 -2.12132 
C 1.55874 -2.683901 0.795609 -3 0 -3 
C -0.795609 -3 -1.55874 -2.683901 -2.12132 -2.12132 
C -2.683901 -1.55874 -3 -0.795609 -3 0 
C -3 0.795609 -2.683901 1.55874 -2.12132 2.12132 
C -1.55874 2.683901 -0.795609 3 0 3 
z
" style="stroke: #006633"/>
    </defs>
    <g clip-path="url(#p3221cc9caa)">
     <use xlink:href="#ma86346fdcf" x="62.708498" y="156.135943" style="fill: #006633; stroke: #006633"/>
     <use xlink:href="#ma86346fdcf" x="80.612241" y="156.135943" style="fill: #006633; stroke: #006633"/>
     <use xlink:href="#ma86346fdcf" x="98.515984" y="150.458246" style="fill: #006633; stroke: #006633"/>
     <use xlink:href="#ma86346fdcf" x="116.419728" y="132.850678" style="fill: #006633; stroke: #006633"/>
     <use xlink:href="#ma86346fdcf" x="134.323471" y="67.490862" style="fill: #006633; stroke: #006633"/>
     <use xlink:href="#ma86346fdcf" x="152.227214" y="47.777593" style="fill: #006633; stroke: #006633"/>
     <use xlink:href="#ma86346fdcf" x="170.130958" y="40.238831" style="fill: #006633; stroke: #006633"/>
     <use xlink:href="#ma86346fdcf" x="188.034701" y="40.238831" style="fill: #006633; stroke: #006633"/>
    </g>
   </g>
   <g id="matplotlib.axis_1">
    <g id="xtick_1">
     <g id="line2d_1">
      <defs>
       <path id="m9c817372d6" d="M 0 0 
L 0 3.5 
" style="stroke: #000000; stroke-width: 0.8"/>
      </defs>
      <g>
       <use xlink:href="#m9c817372d6" x="62.708498" y="175.797656" style="stroke: #000000; stroke-width: 0.8"/>
      </g>
     </g>
    </g>
    <g id="xtick_2">
     <g id="line2d_2">
      <g>
       <use xlink:href="#m9c817372d6" x="80.612241" y="175.797656" style="stroke: #000000; stroke-width: 0.8"/>
      </g>
     </g>
    </g>
    <g id="xtick_3">
     <g id="line2d_3">
      <g>
       <use xlink:href="#m9c817372d6" x="98.515984" y="175.797656" style="stroke: #000000; stroke-width: 0.8"/>
      </g>
     </g>
    </g>
    <g id="xtick_4">
     <g id="line2d_4">
      <g>
       <use xlink:href="#m9c817372d6" x="116.419728" y="175.797656" style="stroke: #000000; stroke-width: 0.8"/>
      </g>
     </g>
    </g>
    <g id="xtick_5">
     <g id="line2d_5">
      <g>
       <use xlink:href="#m9c817372d6" x="134.323471" y="175.797656" style="stroke: #000000; stroke-width: 0.8"/>
      </g>
     </g>
    </g>
    <g id="xtick_6">
     <g id="line2d_6">
      <g>
       <use xlink:href="#m9c817372d6" x="152.227214" y="175.797656" style="stroke: #000000; stroke-width: 0.8"/>
      </g>
     </g>
    </g>
    <g id="xtick_7">
     <g id="line2d_7">
      <g>
       <use xlink:href="#m9c817372d6" x="170.130958" y="175.797656" style="stroke: #000000; stroke-width: 0.8"/>
      </g>
     </g>
    </g>
    <g id="xtick_8">
     <g id="line2d_8">
      <g>
       <use xlink:href="#m9c817372d6" x="188.034701" y="175.797656" style="stroke: #000000; stroke-width: 0.8"/>
      </g>
     </g>
    </g>
   </g>
   <g id="matplotlib.axis_2">
    <g id="ytick_1">
     <g id="line2d_9">
      <defs>
       <path id="m27a59377fd" d="M 0 0 
L -3.5 0 
" style="stroke: #000000; stroke-width: 0.8"/>
      </defs>
      <g>
       <use xlink:href="#m27a59377fd" x="56.442188" y="156.135943" style="stroke: #000000; stroke-width: 0.8"/>
      </g>
     </g>
     <g id="text_1">
      <!-- 0 -->
      <g transform="translate(43.079688 159.935162) scale(0.1 -0.1)">
       <defs>
        <path id="DejaVuSans-30" d="M 2034 4250 
Q 1547 4250 1301 3770 
Q 1056 3291 1056 2328 
Q 1056 1369 1301 889 
Q 1547 409 2034 409 
Q 2525 409 2770 889 
Q 3016 1369 3016 2328 
Q 3016 3291 2770 3770 
Q 2525 4250 2034 4250 
z
M 2034 4750 
Q 2819 4750 3233 4129 
Q 3647 3509 3647 2328 
Q 3647 1150 3233 529 
Q 2819 -91 2034 -91 
Q 1250 -91 836 529 
Q 422 1150 422 2328 
Q 422 3509 836 4129 
Q 1250 4750 2034 4750 
z
" transform="scale(0.015625)"/>
       </defs>
       <use xlink:href="#DejaVuSans-30"/>
      </g>
     </g>
    </g>
    <g id="ytick_2">
     <g id="line2d_10">
      <g>
       <use xlink:href="#m27a59377fd" x="56.442188" y="127.161665" style="stroke: #000000; stroke-width: 0.8"/>
      </g>
     </g>
     <g id="text_2">
      <!-- 25 -->
      <g transform="translate(36.717188 130.960884) scale(0.1 -0.1)">
       <defs>
        <path id="DejaVuSans-32" d="M 1228 531 
L 3431 531 
L 3431 0 
L 469 0 
L 469 531 
Q 828 903 1448 1529 
Q 2069 2156 2228 2338 
Q 2531 2678 2651 2914 
Q 2772 3150 2772 3378 
Q 2772 3750 2511 3984 
Q 2250 4219 1831 4219 
Q 1534 4219 1204 4116 
Q 875 4013 500 3803 
L 500 4441 
Q 881 4594 1212 4672 
Q 1544 4750 1819 4750 
Q 2544 4750 2975 4387 
Q 3406 4025 3406 3419 
Q 3406 3131 3298 2873 
Q 3191 2616 2906 2266 
Q 2828 2175 2409 1742 
Q 1991 1309 1228 531 
z
" transform="scale(0.015625)"/>
        <path id="DejaVuSans-35" d="M 691 4666 
L 3169 4666 
L 3169 4134 
L 1269 4134 
L 1269 2991 
Q 1406 3038 1543 3061 
Q 1681 3084 1819 3084 
Q 2600 3084 3056 2656 
Q 3513 2228 3513 1497 
Q 3513 744 3044 326 
Q 2575 -91 1722 -91 
Q 1428 -91 1123 -41 
Q 819 9 494 109 
L 494 744 
Q 775 591 1075 516 
Q 1375 441 1709 441 
Q 2250 441 2565 725 
Q 2881 1009 2881 1497 
Q 2881 1984 2565 2268 
Q 2250 2553 1709 2553 
Q 1456 2553 1204 2497 
Q 953 2441 691 2322 
L 691 4666 
z
" transform="scale(0.015625)"/>
       </defs>
       <use xlink:href="#DejaVuSans-32"/>
       <use xlink:href="#DejaVuSans-35" x="63.623047"/>
      </g>
     </g>
    </g>
    <g id="ytick_3">
     <g id="line2d_11">
      <g>
       <use xlink:href="#m27a59377fd" x="56.442188" y="98.187387" style="stroke: #000000; stroke-width: 0.8"/>
      </g>
     </g>
     <g id="text_3">
      <!-- 50 -->
      <g transform="translate(36.717188 101.986606) scale(0.1 -0.1)">
       <use xlink:href="#DejaVuSans-35"/>
       <use xlink:href="#DejaVuSans-30" x="63.623047"/>
      </g>
     </g>
    </g>
    <g id="ytick_4">
     <g id="line2d_12">
      <g>
       <use xlink:href="#m27a59377fd" x="56.442188" y="69.213109" style="stroke: #000000; stroke-width: 0.8"/>
      </g>
     </g>
     <g id="text_4">
      <!-- 75 -->
      <g transform="translate(36.717188 73.012328) scale(0.1 -0.1)">
       <defs>
        <path id="DejaVuSans-37" d="M 525 4666 
L 3525 4666 
L 3525 4397 
L 1831 0 
L 1172 0 
L 2766 4134 
L 525 4134 
L 525 4666 
z
" transform="scale(0.015625)"/>
       </defs>
       <use xlink:href="#DejaVuSans-37"/>
       <use xlink:href="#DejaVuSans-35" x="63.623047"/>
      </g>
     </g>
    </g>
    <g id="ytick_5">
     <g id="line2d_13">
      <g>
       <use xlink:href="#m27a59377fd" x="56.442188" y="40.238831" style="stroke: #000000; stroke-width: 0.8"/>
      </g>
     </g>
     <g id="text_5">
      <!-- 100 -->
      <g transform="translate(30.354688 44.03805) scale(0.1 -0.1)">
       <defs>
        <path id="DejaVuSans-31" d="M 794 531 
L 1825 531 
L 1825 4091 
L 703 3866 
L 703 4441 
L 1819 4666 
L 2450 4666 
L 2450 531 
L 3481 531 
L 3481 0 
L 794 0 
L 794 531 
z
" transform="scale(0.015625)"/>
       </defs>
       <use xlink:href="#DejaVuSans-31"/>
       <use xlink:href="#DejaVuSans-30" x="63.623047"/>
       <use xlink:href="#DejaVuSans-30" x="127.246094"/>
      </g>
     </g>
    </g>
    <g id="text_6">
     <!-- % R-turn -->
     <g transform="translate(23.235156 132.723047) rotate(-90) scale(0.15 -0.15)">
      <defs>
       <path id="DejaVuSans-25" d="M 4653 2053 
Q 4381 2053 4226 1822 
Q 4072 1591 4072 1178 
Q 4072 772 4226 539 
Q 4381 306 4653 306 
Q 4919 306 5073 539 
Q 5228 772 5228 1178 
Q 5228 1588 5073 1820 
Q 4919 2053 4653 2053 
z
M 4653 2450 
Q 5147 2450 5437 2106 
Q 5728 1763 5728 1178 
Q 5728 594 5436 251 
Q 5144 -91 4653 -91 
Q 4153 -91 3862 251 
Q 3572 594 3572 1178 
Q 3572 1766 3864 2108 
Q 4156 2450 4653 2450 
z
M 1428 4353 
Q 1159 4353 1004 4120 
Q 850 3888 850 3481 
Q 850 3069 1003 2837 
Q 1156 2606 1428 2606 
Q 1700 2606 1854 2837 
Q 2009 3069 2009 3481 
Q 2009 3884 1853 4118 
Q 1697 4353 1428 4353 
z
M 4250 4750 
L 4750 4750 
L 1831 -91 
L 1331 -91 
L 4250 4750 
z
M 1428 4750 
Q 1922 4750 2215 4408 
Q 2509 4066 2509 3481 
Q 2509 2891 2217 2550 
Q 1925 2209 1428 2209 
Q 931 2209 642 2551 
Q 353 2894 353 3481 
Q 353 4063 643 4406 
Q 934 4750 1428 4750 
z
" transform="scale(0.015625)"/>
       <path id="DejaVuSans-20" transform="scale(0.015625)"/>
       <path id="DejaVuSans-52" d="M 2841 2188 
Q 3044 2119 3236 1894 
Q 3428 1669 3622 1275 
L 4263 0 
L 3584 0 
L 2988 1197 
Q 2756 1666 2539 1819 
Q 2322 1972 1947 1972 
L 1259 1972 
L 1259 0 
L 628 0 
L 628 4666 
L 2053 4666 
Q 2853 4666 3247 4331 
Q 3641 3997 3641 3322 
Q 3641 2881 3436 2590 
Q 3231 2300 2841 2188 
z
M 1259 4147 
L 1259 2491 
L 2053 2491 
Q 2509 2491 2742 2702 
Q 2975 2913 2975 3322 
Q 2975 3731 2742 3939 
Q 2509 4147 2053 4147 
L 1259 4147 
z
" transform="scale(0.015625)"/>
       <path id="DejaVuSans-2d" d="M 313 2009 
L 1997 2009 
L 1997 1497 
L 313 1497 
L 313 2009 
z
" transform="scale(0.015625)"/>
       <path id="DejaVuSans-74" d="M 1172 4494 
L 1172 3500 
L 2356 3500 
L 2356 3053 
L 1172 3053 
L 1172 1153 
Q 1172 725 1289 603 
Q 1406 481 1766 481 
L 2356 481 
L 2356 0 
L 1766 0 
Q 1100 0 847 248 
Q 594 497 594 1153 
L 594 3053 
L 172 3053 
L 172 3500 
L 594 3500 
L 594 4494 
L 1172 4494 
z
" transform="scale(0.015625)"/>
       <path id="DejaVuSans-75" d="M 544 1381 
L 544 3500 
L 1119 3500 
L 1119 1403 
Q 1119 906 1312 657 
Q 1506 409 1894 409 
Q 2359 409 2629 706 
Q 2900 1003 2900 1516 
L 2900 3500 
L 3475 3500 
L 3475 0 
L 2900 0 
L 2900 538 
Q 2691 219 2414 64 
Q 2138 -91 1772 -91 
Q 1169 -91 856 284 
Q 544 659 544 1381 
z
M 1991 3584 
L 1991 3584 
z
" transform="scale(0.015625)"/>
       <path id="DejaVuSans-72" d="M 2631 2963 
Q 2534 3019 2420 3045 
Q 2306 3072 2169 3072 
Q 1681 3072 1420 2755 
Q 1159 2438 1159 1844 
L 1159 0 
L 581 0 
L 581 3500 
L 1159 3500 
L 1159 2956 
Q 1341 3275 1631 3429 
Q 1922 3584 2338 3584 
Q 2397 3584 2469 3576 
Q 2541 3569 2628 3553 
L 2631 2963 
z
" transform="scale(0.015625)"/>
       <path id="DejaVuSans-6e" d="M 3513 2113 
L 3513 0 
L 2938 0 
L 2938 2094 
Q 2938 2591 2744 2837 
Q 2550 3084 2163 3084 
Q 1697 3084 1428 2787 
Q 1159 2491 1159 1978 
L 1159 0 
L 581 0 
L 581 3500 
L 1159 3500 
L 1159 2956 
Q 1366 3272 1645 3428 
Q 1925 3584 2291 3584 
Q 2894 3584 3203 3211 
Q 3513 2838 3513 2113 
z
" transform="scale(0.015625)"/>
      </defs>
      <use xlink:href="#DejaVuSans-25"/>
      <use xlink:href="#DejaVuSans-20" x="95.019531"/>
      <use xlink:href="#DejaVuSans-52" x="126.806641"/>
      <use xlink:href="#DejaVuSans-2d" x="192.289062"/>
      <use xlink:href="#DejaVuSans-74" x="228.373047"/>
      <use xlink:href="#DejaVuSans-75" x="267.582031"/>
      <use xlink:href="#DejaVuSans-72" x="330.960938"/>
      <use xlink:href="#DejaVuSans-6e" x="370.324219"/>
     </g>
    </g>
   </g>
   <g id="LineCollection_1">
    <path d="M 62.708498 168.924929 
L 62.708498 143.346957 
" clip-path="url(#p3221cc9caa)" style="fill: none; stroke: #006633; stroke-width: 1.5"/>
    <path d="M 80.612241 165.481645 
L 80.612241 146.790241 
" clip-path="url(#p3221cc9caa)" style="fill: none; stroke: #006633; stroke-width: 1.5"/>
    <path d="M 98.515984 159.125112 
L 98.515984 141.79138 
" clip-path="url(#p3221cc9caa)" style="fill: none; stroke: #006633; stroke-width: 1.5"/>
    <path d="M 116.419728 139.249873 
L 116.419728 126.451484 
" clip-path="url(#p3221cc9caa)" style="fill: none; stroke: #006633; stroke-width: 1.5"/>
    <path d="M 134.323471 71.846369 
L 134.323471 63.135355 
" clip-path="url(#p3221cc9caa)" style="fill: none; stroke: #006633; stroke-width: 1.5"/>
    <path d="M 152.227214 53.825741 
L 152.227214 41.729445 
" clip-path="url(#p3221cc9caa)" style="fill: none; stroke: #006633; stroke-width: 1.5"/>
    <path d="M 170.130958 43.728 
L 170.130958 36.749662 
" clip-path="url(#p3221cc9caa)" style="fill: none; stroke: #006633; stroke-width: 1.5"/>
    <path d="M 188.034701 49.007279 
L 188.034701 31.470384 
" clip-path="url(#p3221cc9caa)" style="fill: none; stroke: #006633; stroke-width: 1.5"/>
   </g>
   <g id="line2d_14">
    <path d="M 62.708498 155.341446 
L 65.266175 155.340672 
L 67.823853 155.339447 
L 70.381531 155.337506 
L 72.939208 155.334431 
L 75.496886 155.32956 
L 78.054563 155.321846 
L 80.612241 155.309628 
L 83.169919 155.290279 
L 85.727596 155.259642 
L 88.285274 155.211145 
L 90.842951 155.134406 
L 93.400629 155.013057 
L 95.958307 154.821359 
L 98.515984 154.519015 
L 101.073662 154.043366 
L 103.63134 153.298035 
L 106.189017 152.137359 
L 108.746695 150.347264 
L 111.304372 147.627164 
L 113.86205 143.58586 
L 116.419728 137.777992 
L 118.977405 129.818122 
L 121.535083 119.590005 
L 124.09276 107.48328 
L 126.650438 94.470914 
L 129.208116 81.858252 
L 131.765793 70.799914 
L 134.323471 61.925406 
L 136.881149 55.295697 
L 139.438826 50.603241 
L 141.996504 47.407422 
L 144.554181 45.287573 
L 147.111859 43.90594 
L 149.669537 43.015737 
L 152.227214 42.446409 
L 154.784892 42.084021 
L 157.342569 41.854053 
L 159.900247 41.708397 
L 162.457925 41.616254 
L 165.015602 41.558009 
L 167.57328 41.521209 
L 170.130958 41.497966 
L 172.688635 41.483288 
L 175.246313 41.47402 
L 177.80399 41.468169 
L 180.361668 41.464475 
L 182.919346 41.462143 
L 185.477023 41.46067 
L 188.034701 41.459741 
" clip-path="url(#p3221cc9caa)" style="fill: none; stroke: #006633; stroke-width: 1.5; stroke-linecap: square"/>
   </g>
   <g id="LineCollection_2">
    <path d="M 62.708498 98.187387 
L 188.034701 98.187387 
" clip-path="url(#p3221cc9caa)" style="fill: none; stroke-dasharray: 7.4,3.2; stroke-dashoffset: 0; stroke: #808080; stroke-width: 2"/>
   </g>
   <g id="line2d_15"/>
   <g id="patch_3">
    <path d="M 56.442188 175.797656 
L 56.442188 24.597656 
" style="fill: none; stroke: #000000; stroke-width: 0.8; stroke-linejoin: miter; stroke-linecap: square"/>
   </g>
   <g id="patch_4">
    <path d="M 56.442188 175.797656 
L 194.301011 175.797656 
" style="fill: none; stroke: #000000; stroke-width: 0.8; stroke-linejoin: miter; stroke-linecap: square"/>
   </g>
   <g id="text_7">
    <!-- State 1 -->
    <g style="fill: #006633" transform="translate(98.363396 18.597656) scale(0.15 -0.15)">
     <defs>
      <path id="DejaVuSans-53" d="M 3425 4513 
L 3425 3897 
Q 3066 4069 2747 4153 
Q 2428 4238 2131 4238 
Q 1616 4238 1336 4038 
Q 1056 3838 1056 3469 
Q 1056 3159 1242 3001 
Q 1428 2844 1947 2747 
L 2328 2669 
Q 3034 2534 3370 2195 
Q 3706 1856 3706 1288 
Q 3706 609 3251 259 
Q 2797 -91 1919 -91 
Q 1588 -91 1214 -16 
Q 841 59 441 206 
L 441 856 
Q 825 641 1194 531 
Q 1563 422 1919 422 
Q 2459 422 2753 634 
Q 3047 847 3047 1241 
Q 3047 1584 2836 1778 
Q 2625 1972 2144 2069 
L 1759 2144 
Q 1053 2284 737 2584 
Q 422 2884 422 3419 
Q 422 4038 858 4394 
Q 1294 4750 2059 4750 
Q 2388 4750 2728 4690 
Q 3069 4631 3425 4513 
z
" transform="scale(0.015625)"/>
      <path id="DejaVuSans-61" d="M 2194 1759 
Q 1497 1759 1228 1600 
Q 959 1441 959 1056 
Q 959 750 1161 570 
Q 1363 391 1709 391 
Q 2188 391 2477 730 
Q 2766 1069 2766 1631 
L 2766 1759 
L 2194 1759 
z
M 3341 1997 
L 3341 0 
L 2766 0 
L 2766 531 
Q 2569 213 2275 61 
Q 1981 -91 1556 -91 
Q 1019 -91 701 211 
Q 384 513 384 1019 
Q 384 1609 779 1909 
Q 1175 2209 1959 2209 
L 2766 2209 
L 2766 2266 
Q 2766 2663 2505 2880 
Q 2244 3097 1772 3097 
Q 1472 3097 1187 3025 
Q 903 2953 641 2809 
L 641 3341 
Q 956 3463 1253 3523 
Q 1550 3584 1831 3584 
Q 2591 3584 2966 3190 
Q 3341 2797 3341 1997 
z
" transform="scale(0.015625)"/>
      <path id="DejaVuSans-65" d="M 3597 1894 
L 3597 1613 
L 953 1613 
Q 991 1019 1311 708 
Q 1631 397 2203 397 
Q 2534 397 2845 478 
Q 3156 559 3463 722 
L 3463 178 
Q 3153 47 2828 -22 
Q 2503 -91 2169 -91 
Q 1331 -91 842 396 
Q 353 884 353 1716 
Q 353 2575 817 3079 
Q 1281 3584 2069 3584 
Q 2775 3584 3186 3129 
Q 3597 2675 3597 1894 
z
M 3022 2063 
Q 3016 2534 2758 2815 
Q 2500 3097 2075 3097 
Q 1594 3097 1305 2825 
Q 1016 2553 972 2059 
L 3022 2063 
z
" transform="scale(0.015625)"/>
     </defs>
     <use xlink:href="#DejaVuSans-53"/>
     <use xlink:href="#DejaVuSans-74" x="63.476562"/>
     <use xlink:href="#DejaVuSans-61" x="102.685547"/>
     <use xlink:href="#DejaVuSans-74" x="163.964844"/>
     <use xlink:href="#DejaVuSans-65" x="203.173828"/>
     <use xlink:href="#DejaVuSans-20" x="264.697266"/>
     <use xlink:href="#DejaVuSans-31" x="296.484375"/>
    </g>
   </g>
  </g>
  <g id="axes_2">
   <g id="patch_5">
    <path d="M 221.872776 175.797656 
L 359.731599 175.797656 
L 359.731599 24.597656 
L 221.872776 24.597656 
z
" style="fill: #ffffff"/>
   </g>
   <g id="PathCollection_2">
    <defs>
     <path id="m051a81da53" d="M 0 3 
C 0.795609 3 1.55874 2.683901 2.12132 2.12132 
C 2.683901 1.55874 3 0.795609 3 0 
C 3 -0.795609 2.683901 -1.55874 2.12132 -2.12132 
C 1.55874 -2.683901 0.795609 -3 0 -3 
C -0.795609 -3 -1.55874 -2.683901 -2.12132 -2.12132 
C -2.683901 -1.55874 -3 -0.795609 -3 0 
C -3 0.795609 -2.683901 1.55874 -2.12132 2.12132 
C -1.55874 2.683901 -0.795609 3 0 3 
z
" style="stroke: #edb120"/>
    </defs>
    <g clip-path="url(#p2cb34853d9)">
     <use xlink:href="#m051a81da53" x="228.139086" y="78.18753" style="fill: #edb120; stroke: #edb120"/>
     <use xlink:href="#m051a81da53" x="246.042829" y="83.434178" style="fill: #edb120; stroke: #edb120"/>
     <use xlink:href="#m051a81da53" x="263.946573" y="79.46611" style="fill: #edb120; stroke: #edb120"/>
     <use xlink:href="#m051a81da53" x="281.850316" y="74.239762" style="fill: #edb120; stroke: #edb120"/>
     <use xlink:href="#m051a81da53" x="299.754059" y="51.280009" style="fill: #edb120; stroke: #edb120"/>
     <use xlink:href="#m051a81da53" x="317.657802" y="52.700274" style="fill: #edb120; stroke: #edb120"/>
     <use xlink:href="#m051a81da53" x="335.561546" y="48.590471" style="fill: #edb120; stroke: #edb120"/>
     <use xlink:href="#m051a81da53" x="353.465289" y="51.973701" style="fill: #edb120; stroke: #edb120"/>
    </g>
   </g>
   <g id="matplotlib.axis_3">
    <g id="xtick_9">
     <g id="line2d_16">
      <g>
       <use xlink:href="#m9c817372d6" x="228.139086" y="175.797656" style="stroke: #000000; stroke-width: 0.8"/>
      </g>
     </g>
    </g>
    <g id="xtick_10">
     <g id="line2d_17">
      <g>
       <use xlink:href="#m9c817372d6" x="246.042829" y="175.797656" style="stroke: #000000; stroke-width: 0.8"/>
      </g>
     </g>
    </g>
    <g id="xtick_11">
     <g id="line2d_18">
      <g>
       <use xlink:href="#m9c817372d6" x="263.946573" y="175.797656" style="stroke: #000000; stroke-width: 0.8"/>
      </g>
     </g>
    </g>
    <g id="xtick_12">
     <g id="line2d_19">
      <g>
       <use xlink:href="#m9c817372d6" x="281.850316" y="175.797656" style="stroke: #000000; stroke-width: 0.8"/>
      </g>
     </g>
    </g>
    <g id="xtick_13">
     <g id="line2d_20">
      <g>
       <use xlink:href="#m9c817372d6" x="299.754059" y="175.797656" style="stroke: #000000; stroke-width: 0.8"/>
      </g>
     </g>
    </g>
    <g id="xtick_14">
     <g id="line2d_21">
      <g>
       <use xlink:href="#m9c817372d6" x="317.657802" y="175.797656" style="stroke: #000000; stroke-width: 0.8"/>
      </g>
     </g>
    </g>
    <g id="xtick_15">
     <g id="line2d_22">
      <g>
       <use xlink:href="#m9c817372d6" x="335.561546" y="175.797656" style="stroke: #000000; stroke-width: 0.8"/>
      </g>
     </g>
    </g>
    <g id="xtick_16">
     <g id="line2d_23">
      <g>
       <use xlink:href="#m9c817372d6" x="353.465289" y="175.797656" style="stroke: #000000; stroke-width: 0.8"/>
      </g>
     </g>
    </g>
   </g>
   <g id="matplotlib.axis_4">
    <g id="ytick_6">
     <g id="line2d_24">
      <g>
       <use xlink:href="#m27a59377fd" x="221.872776" y="175.797656" style="stroke: #000000; stroke-width: 0.8"/>
      </g>
     </g>
     <g id="text_8">
      <!-- 0 -->
      <g transform="translate(208.510276 179.596875) scale(0.1 -0.1)">
       <use xlink:href="#DejaVuSans-30"/>
      </g>
     </g>
    </g>
    <g id="ytick_7">
     <g id="line2d_25">
      <g>
       <use xlink:href="#m27a59377fd" x="221.872776" y="137.997656" style="stroke: #000000; stroke-width: 0.8"/>
      </g>
     </g>
     <g id="text_9">
      <!-- 25 -->
      <g transform="translate(202.147776 141.796875) scale(0.1 -0.1)">
       <use xlink:href="#DejaVuSans-32"/>
       <use xlink:href="#DejaVuSans-35" x="63.623047"/>
      </g>
     </g>
    </g>
    <g id="ytick_8">
     <g id="line2d_26">
      <g>
       <use xlink:href="#m27a59377fd" x="221.872776" y="100.197656" style="stroke: #000000; stroke-width: 0.8"/>
      </g>
     </g>
     <g id="text_10">
      <!-- 50 -->
      <g transform="translate(202.147776 103.996875) scale(0.1 -0.1)">
       <use xlink:href="#DejaVuSans-35"/>
       <use xlink:href="#DejaVuSans-30" x="63.623047"/>
      </g>
     </g>
    </g>
    <g id="ytick_9">
     <g id="line2d_27">
      <g>
       <use xlink:href="#m27a59377fd" x="221.872776" y="62.397656" style="stroke: #000000; stroke-width: 0.8"/>
      </g>
     </g>
     <g id="text_11">
      <!-- 75 -->
      <g transform="translate(202.147776 66.196875) scale(0.1 -0.1)">
       <use xlink:href="#DejaVuSans-37"/>
       <use xlink:href="#DejaVuSans-35" x="63.623047"/>
      </g>
     </g>
    </g>
    <g id="ytick_10">
     <g id="line2d_28">
      <g>
       <use xlink:href="#m27a59377fd" x="221.872776" y="24.597656" style="stroke: #000000; stroke-width: 0.8"/>
      </g>
     </g>
     <g id="text_12">
      <!-- 100 -->
      <g transform="translate(195.785276 28.396875) scale(0.1 -0.1)">
       <use xlink:href="#DejaVuSans-31"/>
       <use xlink:href="#DejaVuSans-30" x="63.623047"/>
       <use xlink:href="#DejaVuSans-30" x="127.246094"/>
      </g>
     </g>
    </g>
   </g>
   <g id="LineCollection_3">
    <path d="M 228.139086 94.87211 
L 228.139086 61.502949 
" clip-path="url(#p2cb34853d9)" style="fill: none; stroke: #edb120; stroke-width: 1.5"/>
    <path d="M 246.042829 95.626632 
L 246.042829 71.241724 
" clip-path="url(#p2cb34853d9)" style="fill: none; stroke: #edb120; stroke-width: 1.5"/>
    <path d="M 263.946573 90.77295 
L 263.946573 68.159269 
" clip-path="url(#p2cb34853d9)" style="fill: none; stroke: #edb120; stroke-width: 1.5"/>
    <path d="M 281.850316 82.588185 
L 281.850316 65.891338 
" clip-path="url(#p2cb34853d9)" style="fill: none; stroke: #edb120; stroke-width: 1.5"/>
    <path d="M 299.754059 56.962227 
L 299.754059 45.597791 
" clip-path="url(#p2cb34853d9)" style="fill: none; stroke: #edb120; stroke-width: 1.5"/>
    <path d="M 317.657802 60.590721 
L 317.657802 44.809827 
" clip-path="url(#p2cb34853d9)" style="fill: none; stroke: #edb120; stroke-width: 1.5"/>
    <path d="M 335.561546 53.142459 
L 335.561546 44.038482 
" clip-path="url(#p2cb34853d9)" style="fill: none; stroke: #edb120; stroke-width: 1.5"/>
    <path d="M 353.465289 63.413065 
L 353.465289 40.534336 
" clip-path="url(#p2cb34853d9)" style="fill: none; stroke: #edb120; stroke-width: 1.5"/>
   </g>
   <g id="line2d_29">
    <path d="M 228.139086 80.371352 
L 230.696764 80.371352 
L 233.254441 80.371352 
L 235.812119 80.371352 
L 238.369796 80.371352 
L 240.927474 80.371352 
L 243.485152 80.371352 
L 246.042829 80.371351 
L 248.600507 80.37135 
L 251.158184 80.371345 
L 253.715862 80.371332 
L 256.27354 80.371292 
L 258.831217 80.371173 
L 261.388895 80.37082 
L 263.946573 80.369767 
L 266.50425 80.366627 
L 269.061928 80.357269 
L 271.619605 80.329402 
L 274.177283 80.246625 
L 276.734961 80.002574 
L 279.292638 79.298541 
L 281.850316 77.388966 
L 284.407993 72.971276 
L 286.965671 65.665477 
L 289.523349 58.385744 
L 292.081026 54.008964 
L 294.638704 52.1229 
L 297.196382 51.42842 
L 299.754059 51.187791 
L 302.311737 51.106188 
L 304.869414 51.078718 
L 307.427092 51.069493 
L 309.98477 51.066398 
L 312.542447 51.06536 
L 315.100125 51.065011 
L 317.657802 51.064895 
L 320.21548 51.064855 
L 322.773158 51.064842 
L 325.330835 51.064838 
L 327.888513 51.064836 
L 330.446191 51.064836 
L 333.003868 51.064836 
L 335.561546 51.064836 
L 338.119223 51.064836 
L 340.676901 51.064836 
L 343.234579 51.064836 
L 345.792256 51.064836 
L 348.349934 51.064836 
L 350.907611 51.064836 
L 353.465289 51.064836 
" clip-path="url(#p2cb34853d9)" style="fill: none; stroke: #edb120; stroke-width: 1.5; stroke-linecap: square"/>
   </g>
   <g id="LineCollection_4">
    <path d="M 228.139086 100.197656 
L 353.465289 100.197656 
" clip-path="url(#p2cb34853d9)" style="fill: none; stroke-dasharray: 7.4,3.2; stroke-dashoffset: 0; stroke: #808080; stroke-width: 2"/>
   </g>
   <g id="line2d_30"/>
   <g id="patch_6">
    <path d="M 221.872776 175.797656 
L 221.872776 24.597656 
" style="fill: none; stroke: #000000; stroke-width: 0.8; stroke-linejoin: miter; stroke-linecap: square"/>
   </g>
   <g id="patch_7">
    <path d="M 221.872776 175.797656 
L 359.731599 175.797656 
" style="fill: none; stroke: #000000; stroke-width: 0.8; stroke-linejoin: miter; stroke-linecap: square"/>
   </g>
   <g id="text_13">
    <!-- State 2 -->
    <g style="fill: #edb120" transform="translate(263.793984 18.597656) scale(0.15 -0.15)">
     <use xlink:href="#DejaVuSans-53"/>
     <use xlink:href="#DejaVuSans-74" x="63.476562"/>
     <use xlink:href="#DejaVuSans-61" x="102.685547"/>
     <use xlink:href="#DejaVuSans-74" x="163.964844"/>
     <use xlink:href="#DejaVuSans-65" x="203.173828"/>
     <use xlink:href="#DejaVuSans-20" x="264.697266"/>
     <use xlink:href="#DejaVuSans-32" x="296.484375"/>
    </g>
   </g>
  </g>
  <g id="axes_3">
   <g id="patch_8">
    <path d="M 387.303364 175.797656 
L 525.162187 175.797656 
L 525.162187 24.597656 
L 387.303364 24.597656 
z
" style="fill: #ffffff"/>
   </g>
   <g id="PathCollection_3">
    <defs>
     <path id="m71699dd17f" d="M 0 3 
C 0.795609 3 1.55874 2.683901 2.12132 2.12132 
C 2.683901 1.55874 3 0.795609 3 0 
C 3 -0.795609 2.683901 -1.55874 2.12132 -2.12132 
C 1.55874 -2.683901 0.795609 -3 0 -3 
C -0.795609 -3 -1.55874 -2.683901 -2.12132 -2.12132 
C -2.683901 -1.55874 -3 -0.795609 -3 0 
C -3 0.795609 -2.683901 1.55874 -2.12132 2.12132 
C -1.55874 2.683901 -0.795609 3 0 3 
z
" style="stroke: #e9006f"/>
    </defs>
    <g clip-path="url(#p04f8790fdb)">
     <use xlink:href="#m71699dd17f" x="393.569674" y="152.764472" style="fill: #e9006f; stroke: #e9006f"/>
     <use xlink:href="#m71699dd17f" x="411.473417" y="156.226368" style="fill: #e9006f; stroke: #e9006f"/>
     <use xlink:href="#m71699dd17f" x="429.377161" y="160.744753" style="fill: #e9006f; stroke: #e9006f"/>
     <use xlink:href="#m71699dd17f" x="447.280904" y="146.154575" style="fill: #e9006f; stroke: #e9006f"/>
     <use xlink:href="#m71699dd17f" x="465.184647" y="132.271019" style="fill: #e9006f; stroke: #e9006f"/>
     <use xlink:href="#m71699dd17f" x="483.088391" y="106.292901" style="fill: #e9006f; stroke: #e9006f"/>
     <use xlink:href="#m71699dd17f" x="500.992134" y="107.307258" style="fill: #e9006f; stroke: #e9006f"/>
     <use xlink:href="#m71699dd17f" x="518.895877" y="105.372334" style="fill: #e9006f; stroke: #e9006f"/>
    </g>
   </g>
   <g id="matplotlib.axis_5">
    <g id="xtick_17">
     <g id="line2d_31">
      <g>
       <use xlink:href="#m9c817372d6" x="393.569674" y="175.797656" style="stroke: #000000; stroke-width: 0.8"/>
      </g>
     </g>
    </g>
    <g id="xtick_18">
     <g id="line2d_32">
      <g>
       <use xlink:href="#m9c817372d6" x="411.473417" y="175.797656" style="stroke: #000000; stroke-width: 0.8"/>
      </g>
     </g>
    </g>
    <g id="xtick_19">
     <g id="line2d_33">
      <g>
       <use xlink:href="#m9c817372d6" x="429.377161" y="175.797656" style="stroke: #000000; stroke-width: 0.8"/>
      </g>
     </g>
    </g>
    <g id="xtick_20">
     <g id="line2d_34">
      <g>
       <use xlink:href="#m9c817372d6" x="447.280904" y="175.797656" style="stroke: #000000; stroke-width: 0.8"/>
      </g>
     </g>
    </g>
    <g id="xtick_21">
     <g id="line2d_35">
      <g>
       <use xlink:href="#m9c817372d6" x="465.184647" y="175.797656" style="stroke: #000000; stroke-width: 0.8"/>
      </g>
     </g>
    </g>
    <g id="xtick_22">
     <g id="line2d_36">
      <g>
       <use xlink:href="#m9c817372d6" x="483.088391" y="175.797656" style="stroke: #000000; stroke-width: 0.8"/>
      </g>
     </g>
    </g>
    <g id="xtick_23">
     <g id="line2d_37">
      <g>
       <use xlink:href="#m9c817372d6" x="500.992134" y="175.797656" style="stroke: #000000; stroke-width: 0.8"/>
      </g>
     </g>
    </g>
    <g id="xtick_24">
     <g id="line2d_38">
      <g>
       <use xlink:href="#m9c817372d6" x="518.895877" y="175.797656" style="stroke: #000000; stroke-width: 0.8"/>
      </g>
     </g>
    </g>
   </g>
   <g id="matplotlib.axis_6">
    <g id="ytick_11">
     <g id="line2d_39">
      <g>
       <use xlink:href="#m27a59377fd" x="387.303364" y="173.855214" style="stroke: #000000; stroke-width: 0.8"/>
      </g>
     </g>
     <g id="text_14">
      <!-- 0 -->
      <g transform="translate(373.940864 177.654432) scale(0.1 -0.1)">
       <use xlink:href="#DejaVuSans-30"/>
      </g>
     </g>
    </g>
    <g id="ytick_12">
     <g id="line2d_40">
      <g>
       <use xlink:href="#m27a59377fd" x="387.303364" y="136.540824" style="stroke: #000000; stroke-width: 0.8"/>
      </g>
     </g>
     <g id="text_15">
      <!-- 25 -->
      <g transform="translate(367.578364 140.340043) scale(0.1 -0.1)">
       <use xlink:href="#DejaVuSans-32"/>
       <use xlink:href="#DejaVuSans-35" x="63.623047"/>
      </g>
     </g>
    </g>
    <g id="ytick_13">
     <g id="line2d_41">
      <g>
       <use xlink:href="#m27a59377fd" x="387.303364" y="99.226435" style="stroke: #000000; stroke-width: 0.8"/>
      </g>
     </g>
     <g id="text_16">
      <!-- 50 -->
      <g transform="translate(367.578364 103.025654) scale(0.1 -0.1)">
       <use xlink:href="#DejaVuSans-35"/>
       <use xlink:href="#DejaVuSans-30" x="63.623047"/>
      </g>
     </g>
    </g>
    <g id="ytick_14">
     <g id="line2d_42">
      <g>
       <use xlink:href="#m27a59377fd" x="387.303364" y="61.912046" style="stroke: #000000; stroke-width: 0.8"/>
      </g>
     </g>
     <g id="text_17">
      <!-- 75 -->
      <g transform="translate(367.578364 65.711264) scale(0.1 -0.1)">
       <use xlink:href="#DejaVuSans-37"/>
       <use xlink:href="#DejaVuSans-35" x="63.623047"/>
      </g>
     </g>
    </g>
    <g id="ytick_15">
     <g id="line2d_43">
      <g>
       <use xlink:href="#m27a59377fd" x="387.303364" y="24.597656" style="stroke: #000000; stroke-width: 0.8"/>
      </g>
     </g>
     <g id="text_18">
      <!-- 100 -->
      <g transform="translate(361.215864 28.396875) scale(0.1 -0.1)">
       <use xlink:href="#DejaVuSans-31"/>
       <use xlink:href="#DejaVuSans-30" x="63.623047"/>
       <use xlink:href="#DejaVuSans-30" x="127.246094"/>
      </g>
     </g>
    </g>
   </g>
   <g id="LineCollection_5">
    <path d="M 393.569674 169.234708 
L 393.569674 136.294236 
" clip-path="url(#p04f8790fdb)" style="fill: none; stroke: #e9006f; stroke-width: 1.5"/>
    <path d="M 411.473417 168.262188 
L 411.473417 144.190549 
" clip-path="url(#p04f8790fdb)" style="fill: none; stroke: #e9006f; stroke-width: 1.5"/>
    <path d="M 429.377161 171.906336 
L 429.377161 149.583169 
" clip-path="url(#p04f8790fdb)" style="fill: none; stroke: #e9006f; stroke-width: 1.5"/>
    <path d="M 447.280904 154.395748 
L 447.280904 137.913403 
" clip-path="url(#p04f8790fdb)" style="fill: none; stroke: #e9006f; stroke-width: 1.5"/>
    <path d="M 465.184647 137.880238 
L 465.184647 126.661799 
" clip-path="url(#p04f8790fdb)" style="fill: none; stroke: #e9006f; stroke-width: 1.5"/>
    <path d="M 483.088391 114.081981 
L 483.088391 98.503822 
" clip-path="url(#p04f8790fdb)" style="fill: none; stroke: #e9006f; stroke-width: 1.5"/>
    <path d="M 500.992134 111.800768 
L 500.992134 102.813748 
" clip-path="url(#p04f8790fdb)" style="fill: none; stroke: #e9006f; stroke-width: 1.5"/>
    <path d="M 518.895877 116.664739 
L 518.895877 94.07993 
" clip-path="url(#p04f8790fdb)" style="fill: none; stroke: #e9006f; stroke-width: 1.5"/>
   </g>
   <g id="line2d_44">
    <path d="M 393.569674 155.809315 
L 396.127352 155.808849 
L 398.685029 155.808153 
L 401.242707 155.807111 
L 403.800385 155.805555 
L 406.358062 155.803229 
L 408.91574 155.799754 
L 411.473417 155.79456 
L 414.031095 155.786799 
L 416.588773 155.775204 
L 419.14645 155.757883 
L 421.704128 155.732017 
L 424.261806 155.693406 
L 426.819483 155.635806 
L 429.377161 155.549959 
L 431.934838 155.42219 
L 434.492516 155.232419 
L 437.050194 154.951423 
L 439.607871 154.537236 
L 442.165549 153.930792 
L 444.723226 153.05149 
L 447.280904 151.794469 
L 449.838582 150.033334 
L 452.396259 147.63436 
L 454.953937 144.488786 
L 457.511615 140.564243 
L 460.069292 135.960519 
L 462.62697 130.934885 
L 465.184647 125.861706 
L 467.742325 121.129451 
L 470.300003 117.02952 
L 472.85768 113.698651 
L 475.415358 111.131127 
L 477.973035 109.231042 
L 480.530713 107.866882 
L 483.088391 106.908664 
L 485.646068 106.245877 
L 488.203746 105.792307 
L 490.761424 105.484175 
L 493.319101 105.275886 
L 495.876779 105.135562 
L 498.434456 105.04124 
L 500.992134 104.977936 
L 503.549812 104.935494 
L 506.107489 104.907057 
L 508.665167 104.888014 
L 511.222844 104.875264 
L 513.780522 104.866731 
L 516.3382 104.861019 
L 518.895877 104.857198 
" clip-path="url(#p04f8790fdb)" style="fill: none; stroke: #e9006f; stroke-width: 1.5; stroke-linecap: square"/>
   </g>
   <g id="LineCollection_6">
    <path d="M 393.569674 99.226435 
L 518.895877 99.226435 
" clip-path="url(#p04f8790fdb)" style="fill: none; stroke-dasharray: 7.4,3.2; stroke-dashoffset: 0; stroke: #808080; stroke-width: 2"/>
   </g>
   <g id="line2d_45"/>
   <g id="patch_9">
    <path d="M 387.303364 175.797656 
L 387.303364 24.597656 
" style="fill: none; stroke: #000000; stroke-width: 0.8; stroke-linejoin: miter; stroke-linecap: square"/>
   </g>
   <g id="patch_10">
    <path d="M 387.303364 175.797656 
L 525.162187 175.797656 
" style="fill: none; stroke: #000000; stroke-width: 0.8; stroke-linejoin: miter; stroke-linecap: square"/>
   </g>
   <g id="text_19">
    <!-- State 3 -->
    <g style="fill: #e9006f" transform="translate(429.224573 18.597656) scale(0.15 -0.15)">
     <defs>
      <path id="DejaVuSans-33" d="M 2597 2516 
Q 3050 2419 3304 2112 
Q 3559 1806 3559 1356 
Q 3559 666 3084 287 
Q 2609 -91 1734 -91 
Q 1441 -91 1130 -33 
Q 819 25 488 141 
L 488 750 
Q 750 597 1062 519 
Q 1375 441 1716 441 
Q 2309 441 2620 675 
Q 2931 909 2931 1356 
Q 2931 1769 2642 2001 
Q 2353 2234 1838 2234 
L 1294 2234 
L 1294 2753 
L 1863 2753 
Q 2328 2753 2575 2939 
Q 2822 3125 2822 3475 
Q 2822 3834 2567 4026 
Q 2313 4219 1838 4219 
Q 1578 4219 1281 4162 
Q 984 4106 628 3988 
L 628 4550 
Q 988 4650 1302 4700 
Q 1616 4750 1894 4750 
Q 2613 4750 3031 4423 
Q 3450 4097 3450 3541 
Q 3450 3153 3228 2886 
Q 3006 2619 2597 2516 
z
" transform="scale(0.015625)"/>
     </defs>
     <use xlink:href="#DejaVuSans-53"/>
     <use xlink:href="#DejaVuSans-74" x="63.476562"/>
     <use xlink:href="#DejaVuSans-61" x="102.685547"/>
     <use xlink:href="#DejaVuSans-74" x="163.964844"/>
     <use xlink:href="#DejaVuSans-65" x="203.173828"/>
     <use xlink:href="#DejaVuSans-20" x="264.697266"/>
     <use xlink:href="#DejaVuSans-33" x="296.484375"/>
    </g>
   </g>
  </g>
  <g id="axes_4">
   <g id="patch_11">
    <path d="M 56.442188 246.357656 
L 194.301011 246.357656 
L 194.301011 195.957656 
L 56.442188 195.957656 
z
" style="fill: #ffffff"/>
   </g>
   <g id="matplotlib.axis_7">
    <g id="xtick_25">
     <g id="line2d_46">
      <g>
       <use xlink:href="#m9c817372d6" x="62.708498" y="246.357656" style="stroke: #000000; stroke-width: 0.8"/>
      </g>
     </g>
     <g id="text_20">
      <!-- -90 -->
      <g transform="translate(54.542091 260.956094) scale(0.1 -0.1)">
       <defs>
        <path id="DejaVuSans-39" d="M 703 97 
L 703 672 
Q 941 559 1184 500 
Q 1428 441 1663 441 
Q 2288 441 2617 861 
Q 2947 1281 2994 2138 
Q 2813 1869 2534 1725 
Q 2256 1581 1919 1581 
Q 1219 1581 811 2004 
Q 403 2428 403 3163 
Q 403 3881 828 4315 
Q 1253 4750 1959 4750 
Q 2769 4750 3195 4129 
Q 3622 3509 3622 2328 
Q 3622 1225 3098 567 
Q 2575 -91 1691 -91 
Q 1453 -91 1209 -44 
Q 966 3 703 97 
z
M 1959 2075 
Q 2384 2075 2632 2365 
Q 2881 2656 2881 3163 
Q 2881 3666 2632 3958 
Q 2384 4250 1959 4250 
Q 1534 4250 1286 3958 
Q 1038 3666 1038 3163 
Q 1038 2656 1286 2365 
Q 1534 2075 1959 2075 
z
" transform="scale(0.015625)"/>
       </defs>
       <use xlink:href="#DejaVuSans-2d"/>
       <use xlink:href="#DejaVuSans-39" x="36.083984"/>
       <use xlink:href="#DejaVuSans-30" x="99.707031"/>
      </g>
     </g>
    </g>
    <g id="xtick_26">
     <g id="line2d_47">
      <g>
       <use xlink:href="#m9c817372d6" x="80.612241" y="246.357656" style="stroke: #000000; stroke-width: 0.8"/>
      </g>
     </g>
     <g id="text_21">
      <!-- -60 -->
      <g transform="translate(72.445835 260.956094) scale(0.1 -0.1)">
       <defs>
        <path id="DejaVuSans-36" d="M 2113 2584 
Q 1688 2584 1439 2293 
Q 1191 2003 1191 1497 
Q 1191 994 1439 701 
Q 1688 409 2113 409 
Q 2538 409 2786 701 
Q 3034 994 3034 1497 
Q 3034 2003 2786 2293 
Q 2538 2584 2113 2584 
z
M 3366 4563 
L 3366 3988 
Q 3128 4100 2886 4159 
Q 2644 4219 2406 4219 
Q 1781 4219 1451 3797 
Q 1122 3375 1075 2522 
Q 1259 2794 1537 2939 
Q 1816 3084 2150 3084 
Q 2853 3084 3261 2657 
Q 3669 2231 3669 1497 
Q 3669 778 3244 343 
Q 2819 -91 2113 -91 
Q 1303 -91 875 529 
Q 447 1150 447 2328 
Q 447 3434 972 4092 
Q 1497 4750 2381 4750 
Q 2619 4750 2861 4703 
Q 3103 4656 3366 4563 
z
" transform="scale(0.015625)"/>
       </defs>
       <use xlink:href="#DejaVuSans-2d"/>
       <use xlink:href="#DejaVuSans-36" x="36.083984"/>
       <use xlink:href="#DejaVuSans-30" x="99.707031"/>
      </g>
     </g>
    </g>
    <g id="xtick_27">
     <g id="line2d_48">
      <g>
       <use xlink:href="#m9c817372d6" x="98.515984" y="246.357656" style="stroke: #000000; stroke-width: 0.8"/>
      </g>
     </g>
     <g id="text_22">
      <!-- -30 -->
      <g transform="translate(90.349578 260.956094) scale(0.1 -0.1)">
       <use xlink:href="#DejaVuSans-2d"/>
       <use xlink:href="#DejaVuSans-33" x="36.083984"/>
       <use xlink:href="#DejaVuSans-30" x="99.707031"/>
      </g>
     </g>
    </g>
    <g id="xtick_28">
     <g id="line2d_49">
      <g>
       <use xlink:href="#m9c817372d6" x="116.419728" y="246.357656" style="stroke: #000000; stroke-width: 0.8"/>
      </g>
     </g>
     <g id="text_23">
      <!-- -15 -->
      <g transform="translate(108.253321 260.956094) scale(0.1 -0.1)">
       <use xlink:href="#DejaVuSans-2d"/>
       <use xlink:href="#DejaVuSans-31" x="36.083984"/>
       <use xlink:href="#DejaVuSans-35" x="99.707031"/>
      </g>
     </g>
    </g>
    <g id="xtick_29">
     <g id="line2d_50">
      <g>
       <use xlink:href="#m9c817372d6" x="134.323471" y="246.357656" style="stroke: #000000; stroke-width: 0.8"/>
      </g>
     </g>
     <g id="text_24">
      <!-- 15 -->
      <g transform="translate(127.960971 260.956094) scale(0.1 -0.1)">
       <use xlink:href="#DejaVuSans-31"/>
       <use xlink:href="#DejaVuSans-35" x="63.623047"/>
      </g>
     </g>
    </g>
    <g id="xtick_30">
     <g id="line2d_51">
      <g>
       <use xlink:href="#m9c817372d6" x="152.227214" y="246.357656" style="stroke: #000000; stroke-width: 0.8"/>
      </g>
     </g>
     <g id="text_25">
      <!-- 30 -->
      <g transform="translate(145.864714 260.956094) scale(0.1 -0.1)">
       <use xlink:href="#DejaVuSans-33"/>
       <use xlink:href="#DejaVuSans-30" x="63.623047"/>
      </g>
     </g>
    </g>
    <g id="xtick_31">
     <g id="line2d_52">
      <g>
       <use xlink:href="#m9c817372d6" x="170.130958" y="246.357656" style="stroke: #000000; stroke-width: 0.8"/>
      </g>
     </g>
     <g id="text_26">
      <!-- 60 -->
      <g transform="translate(163.768458 260.956094) scale(0.1 -0.1)">
       <use xlink:href="#DejaVuSans-36"/>
       <use xlink:href="#DejaVuSans-30" x="63.623047"/>
      </g>
     </g>
    </g>
    <g id="xtick_32">
     <g id="line2d_53">
      <g>
       <use xlink:href="#m9c817372d6" x="188.034701" y="246.357656" style="stroke: #000000; stroke-width: 0.8"/>
      </g>
     </g>
     <g id="text_27">
      <!-- 90 -->
      <g transform="translate(181.672201 260.956094) scale(0.1 -0.1)">
       <use xlink:href="#DejaVuSans-39"/>
       <use xlink:href="#DejaVuSans-30" x="63.623047"/>
      </g>
     </g>
    </g>
   </g>
   <g id="matplotlib.axis_8">
    <g id="ytick_16">
     <g id="line2d_54">
      <g>
       <use xlink:href="#m27a59377fd" x="56.442188" y="244.066747" style="stroke: #000000; stroke-width: 0.8"/>
      </g>
     </g>
     <g id="text_28">
      <!-- 0 -->
      <g transform="translate(43.079688 247.865966) scale(0.1 -0.1)">
       <use xlink:href="#DejaVuSans-30"/>
      </g>
     </g>
    </g>
    <g id="ytick_17">
     <g id="line2d_55">
      <g>
       <use xlink:href="#m27a59377fd" x="56.442188" y="223.344058" style="stroke: #000000; stroke-width: 0.8"/>
      </g>
     </g>
     <g id="text_29">
      <!-- 5 -->
      <g transform="translate(43.079688 227.143277) scale(0.1 -0.1)">
       <use xlink:href="#DejaVuSans-35"/>
      </g>
     </g>
    </g>
    <g id="ytick_18">
     <g id="line2d_56">
      <g>
       <use xlink:href="#m27a59377fd" x="56.442188" y="202.62137" style="stroke: #000000; stroke-width: 0.8"/>
      </g>
     </g>
     <g id="text_30">
      <!-- 10 -->
      <g transform="translate(36.717188 206.420588) scale(0.1 -0.1)">
       <use xlink:href="#DejaVuSans-31"/>
       <use xlink:href="#DejaVuSans-30" x="63.623047"/>
      </g>
     </g>
    </g>
    <g id="text_31">
     <!-- Slope -->
     <g transform="translate(18.597656 241.967812) rotate(-90) scale(0.15 -0.15)">
      <defs>
       <path id="DejaVuSans-6c" d="M 603 4863 
L 1178 4863 
L 1178 0 
L 603 0 
L 603 4863 
z
" transform="scale(0.015625)"/>
       <path id="DejaVuSans-6f" d="M 1959 3097 
Q 1497 3097 1228 2736 
Q 959 2375 959 1747 
Q 959 1119 1226 758 
Q 1494 397 1959 397 
Q 2419 397 2687 759 
Q 2956 1122 2956 1747 
Q 2956 2369 2687 2733 
Q 2419 3097 1959 3097 
z
M 1959 3584 
Q 2709 3584 3137 3096 
Q 3566 2609 3566 1747 
Q 3566 888 3137 398 
Q 2709 -91 1959 -91 
Q 1206 -91 779 398 
Q 353 888 353 1747 
Q 353 2609 779 3096 
Q 1206 3584 1959 3584 
z
" transform="scale(0.015625)"/>
       <path id="DejaVuSans-70" d="M 1159 525 
L 1159 -1331 
L 581 -1331 
L 581 3500 
L 1159 3500 
L 1159 2969 
Q 1341 3281 1617 3432 
Q 1894 3584 2278 3584 
Q 2916 3584 3314 3078 
Q 3713 2572 3713 1747 
Q 3713 922 3314 415 
Q 2916 -91 2278 -91 
Q 1894 -91 1617 61 
Q 1341 213 1159 525 
z
M 3116 1747 
Q 3116 2381 2855 2742 
Q 2594 3103 2138 3103 
Q 1681 3103 1420 2742 
Q 1159 2381 1159 1747 
Q 1159 1113 1420 752 
Q 1681 391 2138 391 
Q 2594 391 2855 752 
Q 3116 1113 3116 1747 
z
" transform="scale(0.015625)"/>
      </defs>
      <use xlink:href="#DejaVuSans-53"/>
      <use xlink:href="#DejaVuSans-6c" x="63.476562"/>
      <use xlink:href="#DejaVuSans-6f" x="91.259766"/>
      <use xlink:href="#DejaVuSans-70" x="152.441406"/>
      <use xlink:href="#DejaVuSans-65" x="215.917969"/>
     </g>
    </g>
   </g>
   <g id="line2d_57">
    <path d="M 62.708498 244.063981 
L 65.266175 244.063173 
L 67.823853 244.061085 
L 70.381531 244.057778 
L 72.939208 244.052541 
L 75.496886 244.044245 
L 78.054563 244.031108 
L 80.612241 244.010305 
L 83.169919 243.977372 
L 85.727596 243.925253 
L 88.285274 243.842821 
L 90.842951 243.71256 
L 93.400629 243.507011 
L 95.958307 243.183389 
L 98.515984 242.675676 
L 101.073662 241.883604 
L 103.63134 240.658761 
L 106.189017 238.790697 
L 108.746695 236.002406 
L 111.304372 231.97719 
L 113.86205 226.456187 
L 116.419728 219.449692 
L 118.977405 211.546179 
L 121.535083 204.131501 
L 124.09276 199.153194 
L 126.650438 198.248565 
L 129.208116 201.742417 
L 131.765793 208.426328 
L 134.323471 216.344825 
L 136.881149 223.822438 
L 139.438826 229.962317 
L 141.996504 234.562202 
L 144.554181 237.806013 
L 147.111859 240.004649 
L 149.669537 241.457069 
L 152.227214 242.400816 
L 154.784892 243.0076 
L 157.342569 243.395121 
L 159.900247 243.641557 
L 162.457925 243.79785 
L 165.015602 243.896805 
L 167.57328 243.959389 
L 170.130958 243.998943 
L 172.688635 244.023932 
L 175.246313 244.039714 
L 177.80399 244.04968 
L 180.361668 244.055972 
L 182.919346 244.059945 
L 185.477023 244.062453 
L 188.034701 244.063423 
" clip-path="url(#pf04afa52f8)" style="fill: none; stroke: #006633; stroke-width: 1.5; stroke-linecap: square"/>
   </g>
   <g id="LineCollection_7">
    <path d="M 125.371599 244.066747 
L 125.371599 198.476832 
" clip-path="url(#pf04afa52f8)" style="fill: none; stroke-dasharray: 7.4,3.2; stroke-dashoffset: 0; stroke: #808080; stroke-width: 2"/>
   </g>
   <g id="patch_12">
    <path d="M 56.442188 246.357656 
L 56.442188 195.957656 
" style="fill: none; stroke: #000000; stroke-width: 0.8; stroke-linejoin: miter; stroke-linecap: square"/>
   </g>
   <g id="patch_13">
    <path d="M 56.442188 246.357656 
L 194.301011 246.357656 
" style="fill: none; stroke: #000000; stroke-width: 0.8; stroke-linejoin: miter; stroke-linecap: square"/>
   </g>
  </g>
  <g id="axes_5">
   <g id="patch_14">
    <path d="M 221.872776 246.357656 
L 359.731599 246.357656 
L 359.731599 195.957656 
L 221.872776 195.957656 
z
" style="fill: #ffffff"/>
   </g>
   <g id="matplotlib.axis_9">
    <g id="xtick_33">
     <g id="line2d_58">
      <g>
       <use xlink:href="#m9c817372d6" x="228.139086" y="246.357656" style="stroke: #000000; stroke-width: 0.8"/>
      </g>
     </g>
     <g id="text_32">
      <!-- -90 -->
      <g transform="translate(219.97268 260.956094) scale(0.1 -0.1)">
       <use xlink:href="#DejaVuSans-2d"/>
       <use xlink:href="#DejaVuSans-39" x="36.083984"/>
       <use xlink:href="#DejaVuSans-30" x="99.707031"/>
      </g>
     </g>
    </g>
    <g id="xtick_34">
     <g id="line2d_59">
      <g>
       <use xlink:href="#m9c817372d6" x="246.042829" y="246.357656" style="stroke: #000000; stroke-width: 0.8"/>
      </g>
     </g>
     <g id="text_33">
      <!-- -60 -->
      <g transform="translate(237.876423 260.956094) scale(0.1 -0.1)">
       <use xlink:href="#DejaVuSans-2d"/>
       <use xlink:href="#DejaVuSans-36" x="36.083984"/>
       <use xlink:href="#DejaVuSans-30" x="99.707031"/>
      </g>
     </g>
    </g>
    <g id="xtick_35">
     <g id="line2d_60">
      <g>
       <use xlink:href="#m9c817372d6" x="263.946573" y="246.357656" style="stroke: #000000; stroke-width: 0.8"/>
      </g>
     </g>
     <g id="text_34">
      <!-- -30 -->
      <g transform="translate(255.780166 260.956094) scale(0.1 -0.1)">
       <use xlink:href="#DejaVuSans-2d"/>
       <use xlink:href="#DejaVuSans-33" x="36.083984"/>
       <use xlink:href="#DejaVuSans-30" x="99.707031"/>
      </g>
     </g>
    </g>
    <g id="xtick_36">
     <g id="line2d_61">
      <g>
       <use xlink:href="#m9c817372d6" x="281.850316" y="246.357656" style="stroke: #000000; stroke-width: 0.8"/>
      </g>
     </g>
     <g id="text_35">
      <!-- -15 -->
      <g transform="translate(273.68391 260.956094) scale(0.1 -0.1)">
       <use xlink:href="#DejaVuSans-2d"/>
       <use xlink:href="#DejaVuSans-31" x="36.083984"/>
       <use xlink:href="#DejaVuSans-35" x="99.707031"/>
      </g>
     </g>
    </g>
    <g id="xtick_37">
     <g id="line2d_62">
      <g>
       <use xlink:href="#m9c817372d6" x="299.754059" y="246.357656" style="stroke: #000000; stroke-width: 0.8"/>
      </g>
     </g>
     <g id="text_36">
      <!-- 15 -->
      <g transform="translate(293.391559 260.956094) scale(0.1 -0.1)">
       <use xlink:href="#DejaVuSans-31"/>
       <use xlink:href="#DejaVuSans-35" x="63.623047"/>
      </g>
     </g>
    </g>
    <g id="xtick_38">
     <g id="line2d_63">
      <g>
       <use xlink:href="#m9c817372d6" x="317.657802" y="246.357656" style="stroke: #000000; stroke-width: 0.8"/>
      </g>
     </g>
     <g id="text_37">
      <!-- 30 -->
      <g transform="translate(311.295302 260.956094) scale(0.1 -0.1)">
       <use xlink:href="#DejaVuSans-33"/>
       <use xlink:href="#DejaVuSans-30" x="63.623047"/>
      </g>
     </g>
    </g>
    <g id="xtick_39">
     <g id="line2d_64">
      <g>
       <use xlink:href="#m9c817372d6" x="335.561546" y="246.357656" style="stroke: #000000; stroke-width: 0.8"/>
      </g>
     </g>
     <g id="text_38">
      <!-- 60 -->
      <g transform="translate(329.199046 260.956094) scale(0.1 -0.1)">
       <use xlink:href="#DejaVuSans-36"/>
       <use xlink:href="#DejaVuSans-30" x="63.623047"/>
      </g>
     </g>
    </g>
    <g id="xtick_40">
     <g id="line2d_65">
      <g>
       <use xlink:href="#m9c817372d6" x="353.465289" y="246.357656" style="stroke: #000000; stroke-width: 0.8"/>
      </g>
     </g>
     <g id="text_39">
      <!-- 90 -->
      <g transform="translate(347.102789 260.956094) scale(0.1 -0.1)">
       <use xlink:href="#DejaVuSans-39"/>
       <use xlink:href="#DejaVuSans-30" x="63.623047"/>
      </g>
     </g>
    </g>
    <g id="text_40">
     <!-- Sound locations -->
     <g transform="translate(231.135 278.433437) scale(0.15 -0.15)">
      <defs>
       <path id="DejaVuSans-64" d="M 2906 2969 
L 2906 4863 
L 3481 4863 
L 3481 0 
L 2906 0 
L 2906 525 
Q 2725 213 2448 61 
Q 2172 -91 1784 -91 
Q 1150 -91 751 415 
Q 353 922 353 1747 
Q 353 2572 751 3078 
Q 1150 3584 1784 3584 
Q 2172 3584 2448 3432 
Q 2725 3281 2906 2969 
z
M 947 1747 
Q 947 1113 1208 752 
Q 1469 391 1925 391 
Q 2381 391 2643 752 
Q 2906 1113 2906 1747 
Q 2906 2381 2643 2742 
Q 2381 3103 1925 3103 
Q 1469 3103 1208 2742 
Q 947 2381 947 1747 
z
" transform="scale(0.015625)"/>
       <path id="DejaVuSans-63" d="M 3122 3366 
L 3122 2828 
Q 2878 2963 2633 3030 
Q 2388 3097 2138 3097 
Q 1578 3097 1268 2742 
Q 959 2388 959 1747 
Q 959 1106 1268 751 
Q 1578 397 2138 397 
Q 2388 397 2633 464 
Q 2878 531 3122 666 
L 3122 134 
Q 2881 22 2623 -34 
Q 2366 -91 2075 -91 
Q 1284 -91 818 406 
Q 353 903 353 1747 
Q 353 2603 823 3093 
Q 1294 3584 2113 3584 
Q 2378 3584 2631 3529 
Q 2884 3475 3122 3366 
z
" transform="scale(0.015625)"/>
       <path id="DejaVuSans-69" d="M 603 3500 
L 1178 3500 
L 1178 0 
L 603 0 
L 603 3500 
z
M 603 4863 
L 1178 4863 
L 1178 4134 
L 603 4134 
L 603 4863 
z
" transform="scale(0.015625)"/>
       <path id="DejaVuSans-73" d="M 2834 3397 
L 2834 2853 
Q 2591 2978 2328 3040 
Q 2066 3103 1784 3103 
Q 1356 3103 1142 2972 
Q 928 2841 928 2578 
Q 928 2378 1081 2264 
Q 1234 2150 1697 2047 
L 1894 2003 
Q 2506 1872 2764 1633 
Q 3022 1394 3022 966 
Q 3022 478 2636 193 
Q 2250 -91 1575 -91 
Q 1294 -91 989 -36 
Q 684 19 347 128 
L 347 722 
Q 666 556 975 473 
Q 1284 391 1588 391 
Q 1994 391 2212 530 
Q 2431 669 2431 922 
Q 2431 1156 2273 1281 
Q 2116 1406 1581 1522 
L 1381 1569 
Q 847 1681 609 1914 
Q 372 2147 372 2553 
Q 372 3047 722 3315 
Q 1072 3584 1716 3584 
Q 2034 3584 2315 3537 
Q 2597 3491 2834 3397 
z
" transform="scale(0.015625)"/>
      </defs>
      <use xlink:href="#DejaVuSans-53"/>
      <use xlink:href="#DejaVuSans-6f" x="63.476562"/>
      <use xlink:href="#DejaVuSans-75" x="124.658203"/>
      <use xlink:href="#DejaVuSans-6e" x="188.037109"/>
      <use xlink:href="#DejaVuSans-64" x="251.416016"/>
      <use xlink:href="#DejaVuSans-20" x="314.892578"/>
      <use xlink:href="#DejaVuSans-6c" x="346.679688"/>
      <use xlink:href="#DejaVuSans-6f" x="374.462891"/>
      <use xlink:href="#DejaVuSans-63" x="435.644531"/>
      <use xlink:href="#DejaVuSans-61" x="490.625"/>
      <use xlink:href="#DejaVuSans-74" x="551.904297"/>
      <use xlink:href="#DejaVuSans-69" x="591.113281"/>
      <use xlink:href="#DejaVuSans-6f" x="618.896484"/>
      <use xlink:href="#DejaVuSans-6e" x="680.078125"/>
      <use xlink:href="#DejaVuSans-73" x="743.457031"/>
     </g>
    </g>
   </g>
   <g id="matplotlib.axis_10">
    <g id="ytick_19">
     <g id="line2d_66">
      <g>
       <use xlink:href="#m27a59377fd" x="221.872776" y="244.066747" style="stroke: #000000; stroke-width: 0.8"/>
      </g>
     </g>
     <g id="text_41">
      <!-- 0 -->
      <g transform="translate(208.510276 247.865966) scale(0.1 -0.1)">
       <use xlink:href="#DejaVuSans-30"/>
      </g>
     </g>
    </g>
    <g id="ytick_20">
     <g id="line2d_67">
      <g>
       <use xlink:href="#m27a59377fd" x="221.872776" y="223.240301" style="stroke: #000000; stroke-width: 0.8"/>
      </g>
     </g>
     <g id="text_42">
      <!-- 5 -->
      <g transform="translate(208.510276 227.03952) scale(0.1 -0.1)">
       <use xlink:href="#DejaVuSans-35"/>
      </g>
     </g>
    </g>
    <g id="ytick_21">
     <g id="line2d_68">
      <g>
       <use xlink:href="#m27a59377fd" x="221.872776" y="202.413855" style="stroke: #000000; stroke-width: 0.8"/>
      </g>
     </g>
     <g id="text_43">
      <!-- 10 -->
      <g transform="translate(202.147776 206.213073) scale(0.1 -0.1)">
       <use xlink:href="#DejaVuSans-31"/>
       <use xlink:href="#DejaVuSans-30" x="63.623047"/>
      </g>
     </g>
    </g>
   </g>
   <g id="line2d_69">
    <path d="M 228.139086 244.066747 
L 230.696764 244.066747 
L 233.254441 244.066747 
L 235.812119 244.066747 
L 238.369796 244.066747 
L 240.927474 244.066747 
L 243.485152 244.066746 
L 246.042829 244.066744 
L 248.600507 244.066739 
L 251.158184 244.066723 
L 253.715862 244.066674 
L 256.27354 244.066529 
L 258.831217 244.066097 
L 261.388895 244.06481 
L 263.946573 244.060971 
L 266.50425 244.049532 
L 269.061928 244.015472 
L 271.619605 243.914346 
L 274.177283 243.616571 
L 276.734961 242.760846 
L 279.292638 240.466737 
L 281.850316 235.351506 
L 284.407993 227.918691 
L 286.965671 223.976483 
L 289.523349 228.010943 
L 292.081026 235.44024 
L 294.638704 240.512279 
L 297.196382 242.778718 
L 299.754059 243.622902 
L 302.311737 243.916509 
L 304.869414 244.016203 
L 307.427092 244.049777 
L 309.98477 244.061054 
L 312.542447 244.064837 
L 315.100125 244.066107 
L 317.657802 244.066532 
L 320.21548 244.066675 
L 322.773158 244.066723 
L 325.330835 244.066739 
L 327.888513 244.066744 
L 330.446191 244.066746 
L 333.003868 244.066747 
L 335.561546 244.066747 
L 338.119223 244.066747 
L 340.676901 244.066747 
L 343.234579 244.066747 
L 345.792256 244.066747 
L 348.349934 244.066747 
L 350.907611 244.066747 
L 353.465289 244.066747 
" clip-path="url(#p88874fa9cc)" style="fill: none; stroke: #edb120; stroke-width: 1.5; stroke-linecap: square"/>
   </g>
   <g id="LineCollection_8">
    <path d="M 290.802188 244.066747 
L 290.802188 198.248565 
" clip-path="url(#p88874fa9cc)" style="fill: none; stroke-dasharray: 7.4,3.2; stroke-dashoffset: 0; stroke: #808080; stroke-width: 2"/>
   </g>
   <g id="patch_15">
    <path d="M 221.872776 246.357656 
L 221.872776 195.957656 
" style="fill: none; stroke: #000000; stroke-width: 0.8; stroke-linejoin: miter; stroke-linecap: square"/>
   </g>
   <g id="patch_16">
    <path d="M 221.872776 246.357656 
L 359.731599 246.357656 
" style="fill: none; stroke: #000000; stroke-width: 0.8; stroke-linejoin: miter; stroke-linecap: square"/>
   </g>
  </g>
  <g id="axes_6">
   <g id="patch_17">
    <path d="M 387.303364 246.357656 
L 525.162187 246.357656 
L 525.162187 195.957656 
L 387.303364 195.957656 
z
" style="fill: #ffffff"/>
   </g>
   <g id="matplotlib.axis_11">
    <g id="xtick_41">
     <g id="line2d_70">
      <g>
       <use xlink:href="#m9c817372d6" x="393.569674" y="246.357656" style="stroke: #000000; stroke-width: 0.8"/>
      </g>
     </g>
     <g id="text_44">
      <!-- -90 -->
      <g transform="translate(385.403268 260.956094) scale(0.1 -0.1)">
       <use xlink:href="#DejaVuSans-2d"/>
       <use xlink:href="#DejaVuSans-39" x="36.083984"/>
       <use xlink:href="#DejaVuSans-30" x="99.707031"/>
      </g>
     </g>
    </g>
    <g id="xtick_42">
     <g id="line2d_71">
      <g>
       <use xlink:href="#m9c817372d6" x="411.473417" y="246.357656" style="stroke: #000000; stroke-width: 0.8"/>
      </g>
     </g>
     <g id="text_45">
      <!-- -60 -->
      <g transform="translate(403.307011 260.956094) scale(0.1 -0.1)">
       <use xlink:href="#DejaVuSans-2d"/>
       <use xlink:href="#DejaVuSans-36" x="36.083984"/>
       <use xlink:href="#DejaVuSans-30" x="99.707031"/>
      </g>
     </g>
    </g>
    <g id="xtick_43">
     <g id="line2d_72">
      <g>
       <use xlink:href="#m9c817372d6" x="429.377161" y="246.357656" style="stroke: #000000; stroke-width: 0.8"/>
      </g>
     </g>
     <g id="text_46">
      <!-- -30 -->
      <g transform="translate(421.210755 260.956094) scale(0.1 -0.1)">
       <use xlink:href="#DejaVuSans-2d"/>
       <use xlink:href="#DejaVuSans-33" x="36.083984"/>
       <use xlink:href="#DejaVuSans-30" x="99.707031"/>
      </g>
     </g>
    </g>
    <g id="xtick_44">
     <g id="line2d_73">
      <g>
       <use xlink:href="#m9c817372d6" x="447.280904" y="246.357656" style="stroke: #000000; stroke-width: 0.8"/>
      </g>
     </g>
     <g id="text_47">
      <!-- -15 -->
      <g transform="translate(439.114498 260.956094) scale(0.1 -0.1)">
       <use xlink:href="#DejaVuSans-2d"/>
       <use xlink:href="#DejaVuSans-31" x="36.083984"/>
       <use xlink:href="#DejaVuSans-35" x="99.707031"/>
      </g>
     </g>
    </g>
    <g id="xtick_45">
     <g id="line2d_74">
      <g>
       <use xlink:href="#m9c817372d6" x="465.184647" y="246.357656" style="stroke: #000000; stroke-width: 0.8"/>
      </g>
     </g>
     <g id="text_48">
      <!-- 15 -->
      <g transform="translate(458.822147 260.956094) scale(0.1 -0.1)">
       <use xlink:href="#DejaVuSans-31"/>
       <use xlink:href="#DejaVuSans-35" x="63.623047"/>
      </g>
     </g>
    </g>
    <g id="xtick_46">
     <g id="line2d_75">
      <g>
       <use xlink:href="#m9c817372d6" x="483.088391" y="246.357656" style="stroke: #000000; stroke-width: 0.8"/>
      </g>
     </g>
     <g id="text_49">
      <!-- 30 -->
      <g transform="translate(476.725891 260.956094) scale(0.1 -0.1)">
       <use xlink:href="#DejaVuSans-33"/>
       <use xlink:href="#DejaVuSans-30" x="63.623047"/>
      </g>
     </g>
    </g>
    <g id="xtick_47">
     <g id="line2d_76">
      <g>
       <use xlink:href="#m9c817372d6" x="500.992134" y="246.357656" style="stroke: #000000; stroke-width: 0.8"/>
      </g>
     </g>
     <g id="text_50">
      <!-- 60 -->
      <g transform="translate(494.629634 260.956094) scale(0.1 -0.1)">
       <use xlink:href="#DejaVuSans-36"/>
       <use xlink:href="#DejaVuSans-30" x="63.623047"/>
      </g>
     </g>
    </g>
    <g id="xtick_48">
     <g id="line2d_77">
      <g>
       <use xlink:href="#m9c817372d6" x="518.895877" y="246.357656" style="stroke: #000000; stroke-width: 0.8"/>
      </g>
     </g>
     <g id="text_51">
      <!-- 90 -->
      <g transform="translate(512.533377 260.956094) scale(0.1 -0.1)">
       <use xlink:href="#DejaVuSans-39"/>
       <use xlink:href="#DejaVuSans-30" x="63.623047"/>
      </g>
     </g>
    </g>
   </g>
   <g id="matplotlib.axis_12">
    <g id="ytick_22">
     <g id="line2d_78">
      <g>
       <use xlink:href="#m27a59377fd" x="387.303364" y="244.066747" style="stroke: #000000; stroke-width: 0.8"/>
      </g>
     </g>
     <g id="text_52">
      <!-- 0 -->
      <g transform="translate(373.940864 247.865966) scale(0.1 -0.1)">
       <use xlink:href="#DejaVuSans-30"/>
      </g>
     </g>
    </g>
    <g id="ytick_23">
     <g id="line2d_79">
      <g>
       <use xlink:href="#m27a59377fd" x="387.303364" y="223.240301" style="stroke: #000000; stroke-width: 0.8"/>
      </g>
     </g>
     <g id="text_53">
      <!-- 5 -->
      <g transform="translate(373.940864 227.03952) scale(0.1 -0.1)">
       <use xlink:href="#DejaVuSans-35"/>
      </g>
     </g>
    </g>
    <g id="ytick_24">
     <g id="line2d_80">
      <g>
       <use xlink:href="#m27a59377fd" x="387.303364" y="202.413855" style="stroke: #000000; stroke-width: 0.8"/>
      </g>
     </g>
     <g id="text_54">
      <!-- 10 -->
      <g transform="translate(367.578364 206.213073) scale(0.1 -0.1)">
       <use xlink:href="#DejaVuSans-31"/>
       <use xlink:href="#DejaVuSans-30" x="63.623047"/>
      </g>
     </g>
    </g>
   </g>
   <g id="line2d_81">
    <path d="M 393.569674 244.065446 
L 396.127352 244.065125 
L 398.685029 244.064322 
L 401.242707 244.063123 
L 403.800385 244.061331 
L 406.358062 244.058652 
L 408.91574 244.05465 
L 411.473417 244.048671 
L 414.031095 244.039739 
L 416.588773 244.0264 
L 419.14645 244.006487 
L 421.704128 243.97678 
L 424.261806 243.932501 
L 426.819483 243.866591 
L 429.377161 243.768681 
L 431.934838 243.623672 
L 434.492516 243.40987 
L 437.050194 243.096733 
L 439.607871 242.642623 
L 442.165549 241.993633 
L 444.723226 241.085858 
L 447.280904 239.855404 
L 449.838582 238.261998 
L 452.396259 236.33024 
L 454.953937 234.201557 
L 457.511615 232.166947 
L 460.069292 230.630555 
L 462.62697 229.975508 
L 465.184647 230.384871 
L 467.742325 231.742879 
L 470.300003 233.698283 
L 472.85768 235.836507 
L 475.415358 237.832931 
L 477.973035 239.512028 
L 480.530713 240.826249 
L 483.088391 241.804901 
L 485.646068 242.509053 
L 488.203746 243.003916 
L 490.761424 243.346167 
L 493.319101 243.580315 
L 495.876779 243.739337 
L 498.434456 243.846806 
L 500.992134 243.919196 
L 503.549812 243.967847 
L 506.107489 244.000497 
L 508.665167 244.022385 
L 511.222844 244.03705 
L 513.780522 244.046871 
L 516.3382 244.053445 
L 518.895877 244.056082 
" clip-path="url(#pb05e867ca8)" style="fill: none; stroke: #e9006f; stroke-width: 1.5; stroke-linecap: square"/>
   </g>
   <g id="LineCollection_9">
    <path d="M 456.232776 244.066747 
L 456.232776 198.248565 
" clip-path="url(#pb05e867ca8)" style="fill: none; stroke-dasharray: 7.4,3.2; stroke-dashoffset: 0; stroke: #808080; stroke-width: 2"/>
   </g>
   <g id="patch_18">
    <path d="M 387.303364 246.357656 
L 387.303364 195.957656 
" style="fill: none; stroke: #000000; stroke-width: 0.8; stroke-linejoin: miter; stroke-linecap: square"/>
   </g>
   <g id="patch_19">
    <path d="M 387.303364 246.357656 
L 525.162187 246.357656 
" style="fill: none; stroke: #000000; stroke-width: 0.8; stroke-linejoin: miter; stroke-linecap: square"/>
   </g>
  </g>
 </g>
 <defs>
  <clipPath id="p3221cc9caa">
   <rect x="56.442188" y="24.597656" width="137.858824" height="151.2"/>
  </clipPath>
  <clipPath id="p2cb34853d9">
   <rect x="221.872776" y="24.597656" width="137.858824" height="151.2"/>
  </clipPath>
  <clipPath id="p04f8790fdb">
   <rect x="387.303364" y="24.597656" width="137.858824" height="151.2"/>
  </clipPath>
  <clipPath id="pf04afa52f8">
   <rect x="56.442188" y="195.957656" width="137.858824" height="50.4"/>
  </clipPath>
  <clipPath id="p88874fa9cc">
   <rect x="221.872776" y="195.957656" width="137.858824" height="50.4"/>
  </clipPath>
  <clipPath id="pb05e867ca8">
   <rect x="387.303364" y="195.957656" width="137.858824" height="50.4"/>
  </clipPath>
 </defs>
</svg>
